<?xml version="1.0" encoding="UTF-8"?>
<svg width="40px" height="40px" viewBox="0 0 40 40" version="1.1" xmlns="http://www.w3.org/2000/svg" xmlns:xlink="http://www.w3.org/1999/xlink">
    <title>云</title>
    <g id="山东移动" stroke="none" stroke-width="1" fill="none" fill-rule="evenodd">
        <g id="图标合集" transform="translate(-440.000000, -120.000000)">
            <g id="编组-13" transform="translate(440.000000, 120.000000)">
                <rect id="形状结合" opacity="0.200000003" x="0" y="0" width="40" height="40"></rect>
                <path d="M16,8 C19.3644569,8 22.3347573,9.238439 23.9058835,11.1546997 C24.1071649,11.4001972 24.2930358,11.6660331 24.462968,11.9498982 C24.7118387,11.7292667 24.970106,11.5293245 25.2355142,11.3516371 C26.501069,10.5043644 28.1726039,10 30,10 C31.9715929,10 33.7626924,10.5867379 35.0568542,11.5573593 C36.2315857,12.4384079 37,13.643022 37,15 C37,15.8849577 36.6708382,16.7094912 36.1146759,17.4191451 C35.8611713,17.7426128 35.5732186,18.0259895 35.2536108,18.25875 C35.6235102,18.4265852 35.9903119,18.631831 36.3496785,18.8697803 C37.9418533,19.9240157 39,21.3632389 39,23 C39,24.3524563 38.2713665,25.5748807 37.1195139,26.5541086 C35.8121472,27.6655442 33.9604401,28.467836 31.8402314,28.8132145 C29.4844811,31.4928368 25.5253851,33 21,33 C18.4624331,33 16.1180254,32.5190481 14.2289287,31.6966329 C12.4306352,30.9137487 11.040008,29.8312122 10.3835917,28.5374613 C10.2964915,28.365793 10.2200265,28.1858886 10.1538616,27.998662 C9.94839043,28.0014926 9.74059311,27.998891 9.53087735,27.9906918 C7.63985757,27.9167593 5.93987714,27.4012728 4.71948129,26.5884269 C3.70345768,25.9117033 3,25.0254361 3,24 C3,23.5855625 3.11897034,23.1894813 3.3283883,22.8207855 C3.4971216,22.5237181 3.71119711,22.267978 3.97415218,22.0686939 C3.65511369,21.917461 3.34335263,21.7315154 3.04320027,21.5153872 C1.81162094,20.6285742 1,19.395266 1,18 C1,16.8385533 1.56533753,15.7856036 2.46570483,14.9543234 C3.47328108,14.0240606 4.89679953,13.3665704 6.51652917,13.1138676 C6.7169193,13.0826037 6.91633625,13.0581559 7.11428846,13.0403279 C7.16283843,12.8534186 7.22202482,12.6710671 7.29215051,12.4939563 C7.80598739,11.1961992 8.94057771,10.0954066 10.4252054,9.30579951 C11.9736277,8.48226286 13.9064285,8 16,8 L16,8 Z" id="形状结合备份" stroke="#455A74" stroke-width="2" fill="#FFFFFF"></path>
            </g>
        </g>
    </g>
</svg>