<?xml version="1.0" standalone="no"?><!DOCTYPE svg PUBLIC "-//W3C//DTD SVG 1.1//EN" "http://www.w3.org/Graphics/SVG/1.1/DTD/svg11.dtd"><svg t="1649299702126" class="icon" viewBox="0 0 1024 1024" version="1.1" xmlns="http://www.w3.org/2000/svg" p-id="3536" xmlns:xlink="http://www.w3.org/1999/xlink" width="30" height="30"><defs><style type="text/css">@font-face { font-family: feedback-iconfont; src: url("//at.alicdn.com/t/font_1031158_u69w8yhxdu.woff2?t=1630033759944") format("woff2"), url("//at.alicdn.com/t/font_1031158_u69w8yhxdu.woff?t=1630033759944") format("woff"), url("//at.alicdn.com/t/font_1031158_u69w8yhxdu.ttf?t=1630033759944") format("truetype"); }
</style></defs><path d="M908.8 399.36H112A97.28 97.28 0 0 1 14.72 302.08V97.92a32.64 32.64 0 0 1 64 0v204.16a32 32 0 0 0 32 32H908.8a32 32 0 0 0 32-32V97.92a32.64 32.64 0 0 1 64 0v204.16a97.92 97.92 0 0 1-96 97.28zM973.44 942.08a32.64 32.64 0 0 1-32.64-32.64V704a32 32 0 0 0-32-32H112a32 32 0 0 0-32 32v204.16a32.64 32.64 0 0 1-64 0V704a97.28 97.28 0 0 1 96-96H908.8a97.92 97.92 0 0 1 97.28 96v204.16a32.64 32.64 0 0 1-32.64 33.92zM864.64 538.88L155.52 533.76a33.28 33.28 0 0 1-32-33.28 32 32 0 0 1 32.64-32l708.48 5.12a33.92 33.92 0 0 1 32.64 33.28 32 32 0 0 1-32.64 32z" fill="#323333" p-id="3537"></path></svg>