<?xml version="1.0" encoding="UTF-8"?>
<svg width="40px" height="40px" viewBox="0 0 40 40" version="1.1" xmlns="http://www.w3.org/2000/svg" xmlns:xlink="http://www.w3.org/1999/xlink">
    <title>交流电源</title>
    <defs>
        <rect id="path-1" x="0" y="0" width="40" height="40"></rect>
    </defs>
    <g id="页面-1" stroke="none" stroke-width="1" fill="none" fill-rule="evenodd">
        <g id="网元图标-线性" transform="translate(-160.000000, -1270.000000)">
            <g id="编组-13" transform="translate(160.000000, 1270.000000)">
                <mask id="mask-2" fill="white">
                    <use xlink:href="#path-1"></use>
                </mask>
                <g id="蒙版" opacity="0.200000003"></g>
                <g id="station-AC-power-system" mask="url(#mask-2)" fill="#455A74">
                    <g transform="translate(0.000000, 3.000000)" id="形状结合">
                        <path d="M19.8425,-1.10134124e-13 C28.6724684,-1.10134124e-13 35.9305108,6.91952007 36.5996694,15.6775858 L40,15.6775249 L40,18.206158 L36.6081406,18.2063943 C35.9945203,27.019292 28.7114232,34 19.8425,34 C10.9759686,34 3.69068663,27.019292 3.07687287,18.2063943 L0,18.206158 L0,15.6775249 L3.0853467,15.6775858 C3.75471526,6.91952007 11.014913,-1.10134124e-13 19.8425,-1.10134124e-13 Z M19.8425,2.52863305 C11.9446834,2.5383859 5.54464241,9.01172798 5.535,17 C5.535,24.9778373 11.9525,31.4713669 19.8425,31.4713669 C27.7325,31.4713669 34.15,24.9803659 34.15,17 C34.1403576,9.01172798 27.7403166,2.5383859 19.8425,2.52863305 Z M18.29,11.9756061 C18.48,12.0893946 21.22,13.8366801 21.0025,17.7813476 C21.0925,19.4907036 22.485,20.5881303 24.575,20.5223858 C26.155,20.4768704 27.3025,19.9028707 27.77,17.2503347 C27.8376445,16.7953973 28.1442695,16.4135304 28.5706182,16.2532548 C28.996967,16.0929792 29.4757407,16.1795943 29.8207281,16.4794126 C30.1657155,16.7792309 30.3224606,17.2449262 30.23,17.6953741 C29.6175,21.16213 27.74,22.9625167 24.65,23.0535498 L24.4,23.0535498 C21.0675,23.0560762 18.66,20.9117953 18.5075,17.7737617 C18.64,15.2451287 17.11,14.2083891 17.045,14.1654024 C15.73,13.4725569 14.5825,13.3157816 13.74,13.7456493 C12.43,14.415737 11.8575,16.4538153 11.7475,17.1820616 C11.6818524,17.6292414 11.3853254,18.0070289 10.9696178,18.1731152 C10.5539102,18.3392016 10.0821779,18.2683542 9.73211783,17.9872607 C9.38205778,17.7061672 9.20685245,17.2575323 9.2725,16.8103525 C9.295,16.6510486 9.8675,12.9036145 12.5975,11.4951658 C14.2125,10.6657742 16.1275,10.8276067 18.29,11.9756061 Z"></path>
                    </g>
                </g>
            </g>
        </g>
    </g>
</svg>