<?xml version="1.0" encoding="UTF-8"?>
<svg width="60px" height="74px" viewBox="0 0 60 74" version="1.1" xmlns="http://www.w3.org/2000/svg" xmlns:xlink="http://www.w3.org/1999/xlink">
    <title>Access node</title>
    <defs>
        <linearGradient x1="26.051126%" y1="36.1067771%" x2="50%" y2="76.5706783%" id="linearGradient-1">
            <stop stop-color="#C1D4EB" offset="0%"></stop>
            <stop stop-color="#E5EBFC" stop-opacity="0" offset="100%"></stop>
        </linearGradient>
        <linearGradient x1="0%" y1="28.5417454%" x2="100%" y2="67.7794749%" id="linearGradient-2">
            <stop stop-color="#D2D5EC" offset="0%"></stop>
            <stop stop-color="#E2F0F7" offset="100%"></stop>
        </linearGradient>
        <linearGradient x1="0.0399992994%" y1="49.6477532%" x2="99.9996049%" y2="49.6477532%" id="linearGradient-3">
            <stop stop-color="#53BAFF" offset="0%"></stop>
            <stop stop-color="#57BFFF" offset="10%"></stop>
            <stop stop-color="#1E82FF" offset="100%"></stop>
        </linearGradient>
        <linearGradient x1="100.033692%" y1="50.0531118%" x2="0%" y2="50.0531118%" id="linearGradient-4">
            <stop stop-color="#53BAFF" offset="0%"></stop>
            <stop stop-color="#57BFFF" offset="10%"></stop>
            <stop stop-color="#4196FF" offset="96%"></stop>
        </linearGradient>
    </defs>
    <g id="页面-1" stroke="none" stroke-width="1" fill="none" fill-rule="evenodd">
        <g id="Access-node">
            <g id="编组-4备份-6" transform="translate(0.000000, 27.000000)">
                <g id="编组-13" transform="translate(0.000000, 0.870968)">
                    <polygon id="矩形" fill="#A8B4DA" opacity="0.298339844" points="30 13.5860913 60 29.5349811 30 45.483871 0 29.5349811"></polygon>
                    <polygon id="矩形" fill="#FFFFFF" points="30 0 60 15.9488898 30 31.8977796 0 15.9488898"></polygon>
                    <polygon id="矩形" fill="url(#linearGradient-1)" points="30 31.8977796 60 15.9488898 60 20.7101685 30 37.8183253"></polygon>
                    <polygon id="矩形" fill="url(#linearGradient-2)" points="1.80064297e-14 15.9488898 30 31.8977796 30 37.8183253 2.66453526e-14 20.7786569"></polygon>
                </g>
            </g>
            <g id="Access-node备份-2" transform="translate(12.000000, 0.000000)">
                <g id="编组" opacity="0.9" fill="url(#linearGradient-3)" fill-rule="nonzero">
                    <path d="M1.51141925,2.42436 C6.53099511,-0.0601890936 7.04404568,-0.737793392 9.22104405,0.871516816 L9.22104405,0.871516816 L31.1435563,14.6494709 C32.3963139,15.4061493 33.3547337,16.5724954 33.8670002,17.9519349 C34.4084979,18.8380593 34.751474,19.9704447 34.751474,21.5262662 L34.751474,42.7405172 C34.751474,44.5572468 29.6704984,46.9318696 28.5383245,46.9035158 L7.82782609,44.2425377 C5.60406324,43.737022 4.0753895,41.6171582 4.23800636,39.2644127 L4.88693531,9.99647091 C4.88693531,9.79187217 4.90591165,9.57023413 4.9418275,9.33566125 C3.06539758,8.59898472 1.34232066,7.90640303 0,7.36522467 L0,7.36522467 Z" id="形状结合"></path>
                </g>
                <path d="M30,43.5057123 C30,47.1432085 28.9805322,46.9283957 26.2761108,47 L3.39472295,44.0069421 C1.30790763,43.5741957 -0.139266373,41.6450669 0.0106563084,39.4958739 L0.0106563084,5.01126403 C-0.0374058716,4.0658075 0.379552574,3.15740766 1.12461574,2.58435416 C1.8696789,2.01130066 2.84658367,1.84763275 3.73454554,2.14709377 L26.2336329,16.5395493 C29.277877,18.5587893 30,19.9049494 30,22.539986 L30,43.5057123 Z" id="路径" fill="url(#linearGradient-4)"></path>
                <path d="M24.1551746,38.5226615 L26.661016,41.3162005 L24.7957661,43 L24.6499015,41.973986 L4.43300825,38.5226615 L4.084146,36.097351 L24.3010392,39.5486755 L24.1551746,38.5226615 Z M17.9892705,32.4950621 L17.8304904,34.9162046 L17.2365201,33.9947415 L15.0921061,35.7017486 L14.3248946,34.5115254 L16.4693086,32.8045184 L15.8753384,31.8830553 L17.9892705,32.4950621 Z M13.4458269,24.3540043 L13.4458269,30.7623775 L12.2405391,30.307178 L12.2552691,31.3347913 L13.0440643,32.5824515 L7.01762571,30.306454 L7.80557307,29.6563606 L7.82115086,28.6381132 L6.61586314,28.1829137 L6.61586314,21.7745404 L13.4458269,24.3540043 Z M5.812338,21.4710741 L5.81176471,22.9483308 L4.61705242,22.4985074 C4.42212839,22.4248907 4.25883883,22.5221903 4.21616271,22.7195766 L4.20528771,22.8262824 L4.20528771,26.789229 C4.20528771,27.0180102 4.34073098,27.2608148 4.52263855,27.3796043 L4.61705242,27.4280254 L5.81176471,27.8778444 L5.812338,29.3583027 L3.82352941,28.6071919 C3.36870668,28.4354196 3,27.8634219 3,27.3295993 L3,21.3755132 C3,20.8416906 3.36870668,20.5481909 3.82352941,20.7199632 L5.812338,21.4710741 Z M21.0274754,29.3124011 C21.993759,29.6773362 22.7770866,30.9111582 22.7770866,32.0682197 C22.7770866,33.2252811 21.993759,33.8674264 21.0274754,33.5024913 C20.0611918,33.1375562 19.2778642,31.9037342 19.2778642,30.7466727 C19.2778642,29.5896112 20.0611918,28.947466 21.0274754,29.3124011 Z M17.06169,28.2573304 L18.6687403,30.486896 L17.06169,31.5025963 L17.06169,30.5166927 L14.0290306,29.3713521 L14.0290306,28.0978933 L17.06169,29.243234 L17.06169,28.2573304 Z M26.3929497,31.7814555 L28,34.0110212 L26.3929497,35.0267215 L26.3929497,34.0408179 L23.3602903,32.8954772 L23.3602903,31.6220184 L26.3929497,32.7673591 L26.3929497,31.7814555 Z M12.6423017,25.0364415 L7.41938828,23.0639103 L7.41938828,27.5004764 L12.6423017,29.4730076 L12.6423017,25.0364415 Z M15.0921061,22.5704775 L17.2365201,25.8972409 L17.8304904,25.4244258 L17.9892705,27.965501 L15.8753384,26.9807756 L16.4693086,26.5079605 L14.3248946,23.181197 L15.0921061,22.5704775 Z M4.43300825,11 L24.6499015,22.819253 L24.7957661,21.903416 L26.661016,24.9961087 L24.0641338,26.1846411 L24.2099984,25.2688041 L3.99310522,13.4495512 L4.43300825,11 Z" id="形状结合" fill="#FFFFFF" fill-rule="nonzero"></path>
            </g>
        </g>
    </g>
</svg>