<?xml version="1.0" encoding="UTF-8"?>
<svg width="60px" height="61px" viewBox="0 0 60 61" version="1.1" xmlns="http://www.w3.org/2000/svg" xmlns:xlink="http://www.w3.org/1999/xlink">
    <title>AMF</title>
    <defs>
        <linearGradient x1="26.051126%" y1="36.1067771%" x2="50%" y2="76.5706783%" id="linearGradient-1">
            <stop stop-color="#C1D4EB" offset="0%"></stop>
            <stop stop-color="#E5EBFC" stop-opacity="0" offset="100%"></stop>
        </linearGradient>
        <linearGradient x1="0%" y1="28.5417454%" x2="100%" y2="67.7794749%" id="linearGradient-2">
            <stop stop-color="#D2D5EC" offset="0%"></stop>
            <stop stop-color="#E2F0F7" offset="100%"></stop>
        </linearGradient>
        <linearGradient x1="38.3230261%" y1="106.064761%" x2="58.7760645%" y2="6.31332276%" id="linearGradient-3">
            <stop stop-color="#57BFFF" offset="0%"></stop>
            <stop stop-color="#1E82FF" offset="100%"></stop>
        </linearGradient>
        <linearGradient x1="34.2223608%" y1="44.0471662%" x2="62.39382%" y2="54.7274138%" id="linearGradient-4">
            <stop stop-color="#107FD6" offset="0%"></stop>
            <stop stop-color="#004CA7" offset="100%"></stop>
        </linearGradient>
        <linearGradient x1="56.8930159%" y1="52.8628617%" x2="36.8430159%" y2="44.6829816%" id="linearGradient-5">
            <stop stop-color="#53BAFF" offset="0%"></stop>
            <stop stop-color="#57BFFF" offset="9.842166%"></stop>
            <stop stop-color="#1E82FF" offset="100%"></stop>
        </linearGradient>
    </defs>
    <g id="页面-1" stroke="none" stroke-width="1" fill="none" fill-rule="evenodd">
        <g id="AMF">
            <g id="编组-4备份-6" transform="translate(0.000000, 14.000000)">
                <g id="编组-13" transform="translate(0.000000, 0.870968)">
                    <polygon id="矩形" fill="#A8B4DA" opacity="0.298339844" points="30 13.5860913 60 29.5349811 30 45.483871 0 29.5349811"></polygon>
                    <polygon id="矩形" fill="#FFFFFF" points="30 0 60 15.9488898 30 31.8977796 0 15.9488898"></polygon>
                    <polygon id="矩形" fill="url(#linearGradient-1)" points="30 31.8977796 60 15.9488898 60 20.7101685 30 37.8183253"></polygon>
                    <polygon id="矩形" fill="url(#linearGradient-2)" points="1.80064297e-14 15.9488898 30 31.8977796 30 37.8183253 2.66453526e-14 20.7786569"></polygon>
                </g>
            </g>
            <g id="编组" transform="translate(7.000000, 0.000000)">
                <polygon id="Fill-6_9_" fill="url(#linearGradient-3)" opacity="0.9" points="46.4576923 26.5608696 23.6807692 39.3956522 23.6807692 26.5608696 46.4576923 13.5478261"></polygon>
                <polygon id="Fill-7_9_" fill="url(#linearGradient-4)" points="0.361538462 26.9173913 23.1384615 39.9304348 23.1384615 27.0956522 0.361538462 14.0826087"></polygon>
                <polygon id="Fill-14_8_" fill="url(#linearGradient-5)" points="0.903846154 13.5478261 23.6807692 26.5608696 46.4576923 13.5478261 23.6807692 0.713043478"></polygon>
                <polygon id="路径-7_32_" fill="#FFFFFF" fill-rule="nonzero" points="46.4122727 13.1620095 46.8646504 13.9336427 23.7261888 27.124947 23.2738112 26.3533138"></polygon>
                <polygon id="路径-7_31_" fill="#FFFFFF" fill-rule="nonzero" points="1.13406704 13.1643357 23.7302209 26.35564 23.2697791 27.1226209 0.673625269 13.9313165"></polygon>
                <polygon id="路径-7_30_" fill="#FFFFFF" fill-rule="nonzero" points="23.9519231 26.5608696 23.9519231 39.9304348 23.0480769 39.9304348 23.0480769 26.5608696"></polygon>
                <g transform="translate(21.692308, 12.478261)" fill="#FFFFFF" fill-rule="nonzero">
                    <path d="M1.62692308,10.1608696 C1.08461538,10.5173913 0.180769231,10.1608696 0.180769231,9.62608696 L0.180769231,9.44782609 C0.180769231,9.26956522 0.361538462,8.91304348 0.542307692,8.91304348 L1.98846154,8.02173913 C2.53076923,7.66521739 3.43461538,8.02173913 3.43461538,8.55652174 L3.43461538,8.73478261 C3.43461538,8.91304348 3.25384615,9.26956522 3.07307692,9.26956522" id="Fill-10_41_"></path>
                    <path d="M7.05,7.66521739 C6.50769231,8.02173913 5.60384615,7.66521739 5.60384615,7.13043478 L5.60384615,6.95217391 C5.60384615,6.77391304 5.78461538,6.4173913 5.96538462,6.4173913 L7.41153846,5.52608696 C7.95384615,5.16956522 8.85769231,5.52608696 8.85769231,6.06086957 L8.85769231,6.23913043 C8.85769231,6.4173913 8.67692308,6.77391304 8.49615385,6.77391304" id="Fill-10_39_"></path>
                    <path d="M11.9307692,4.99130435 C11.3884615,5.34782609 10.4846154,4.99130435 10.4846154,4.45652174 L10.4846154,4.27826087 C10.4846154,4.1 10.6653846,3.74347826 10.8461538,3.74347826 L12.2923077,2.85217391 C12.8346154,2.49565217 13.7384615,2.85217391 13.7384615,3.38695652 L13.7384615,3.56521739 C13.7384615,3.74347826 13.5576923,4.1 13.3769231,4.1" id="Fill-10_37_"></path>
                    <path d="M16.8115385,2.3173913 C16.2692308,2.67391304 15.3653846,2.3173913 15.3653846,1.7826087 L15.3653846,1.60434783 C15.3653846,1.42608696 15.5461538,1.06956522 15.7269231,1.06956522 L17.1730769,0.17826087 C17.7153846,-0.17826087 18.6192308,0.17826087 18.6192308,0.713043478 L18.6192308,0.891304348 C18.6192308,1.06956522 18.4384615,1.42608696 18.2576923,1.42608696" id="Fill-10_35_"></path>
                </g>
                <g transform="translate(26.426740, 17.826087)" fill="#FFFFFF" fill-rule="nonzero" id="路径">
                    <polygon points="15.3309524 0.713043478 17.8617216 0.891304348 15.5117216 4.1 15.5117216 3.03043478 12.2578755 4.99130435 7.196337 13.5478261 3.40018315 15.8652174 3.40018315 17.1130435 0.507875458 17.1130435 3.58095238 13.1913043 3.58095238 14.4391304 6.47326007 12.6565217 11.3540293 4.1 15.3309524 1.7826087"></polygon>
                    <polygon points="11.1732601 7.48695652 12.9809524 8.37826087 15.6924908 6.77391304 15.5117216 5.52608696 18.2232601 5.70434783 15.6924908 9.09130435 15.6924908 8.02173913 12.0771062 10.3391304 10.2694139 9.26956522"></polygon>
                    <polygon points="3.76172161 7.30869565 3.58095238 8.55652174 7.91941392 5.8826087 9.36556777 6.59565217 8.28095238 8.37826087 7.196337 7.84347826 3.58095238 9.9826087 3.58095238 11.0521739 0.869413919 10.873913"></polygon>
                </g>
            </g>
        </g>
    </g>
</svg>