<?xml version="1.0" encoding="UTF-8"?>
<svg width="40px" height="40px" viewBox="0 0 40 40" version="1.1" xmlns="http://www.w3.org/2000/svg" xmlns:xlink="http://www.w3.org/1999/xlink">
    <title>AUSF</title>
    <defs>
        <rect id="path-1" x="0" y="0" width="40" height="40"></rect>
    </defs>
    <g id="山东移动" stroke="none" stroke-width="1" fill="none" fill-rule="evenodd">
        <g id="图标合集" transform="translate(-440.000000, -280.000000)">
            <g id="编组-13" transform="translate(440.000000, 280.000000)">
                <mask id="mask-2" fill="white">
                    <use xlink:href="#path-1"></use>
                </mask>
                <g id="蒙版" opacity="0.200000003"></g>
                <path d="M19.933578,4.25331543 C24.2693306,7.03109413 29.0693119,8.74746876 34.2285551,8.95991657 L34,8.947 L34,19.2932499 C34,23.109396 32.6502491,26.7113601 30.3275582,29.6188451 L30.0654967,29.9390167 C27.5878825,32.8938281 24.083974,35.086238 19.9714539,35.9912392 C15.8995269,35.0740999 12.4070553,32.8859297 9.93566775,29.9396025 C7.45178697,26.9783813 6,23.2510014 6,19.2932499 L6,19.2932499 L6,8.948 L6.32815903,8.93141963 C11.0947683,8.63492051 15.5441187,7.05529545 19.4815428,4.54685292 Z" id="形状" stroke="#455A74" stroke-width="2" fill="#FFFFFF" mask="url(#mask-2)"></path>
                <path d="M23.4002926,24.5 L16.5999196,24.5 C16.3844285,24.5 16.1873139,24.3761955 16.0854132,24.1764471 L16.0687084,24.1384867 C15.9283949,23.7505535 16.0019008,23.0984918 16.2992327,22.0832763 L16.302576,22.0733646 C16.3276274,21.9000359 16.4495762,21.8009877 16.4996906,21.7613753 L16.5097089,21.7531156 L16.5464618,21.7168071 L16.5848864,21.7002875 C17.0409084,21.4592863 17.9062044,21.1885614 18.4775002,21.0102769 L18.5175965,20.9970728 C18.146747,20.6652601 17.9763554,20.2542226 17.9011895,20.0412701 C17.7040865,19.8464776 17.2898091,19.4057279 17.3616434,18.8213619 C17.3666467,18.4317768 17.5119752,18.2056201 17.6673336,18.0735558 C17.6439538,17.6294907 17.6623186,16.8057639 18.1851716,16.2114861 C18.5727142,15.7459686 19.1640581,15.5 19.8940439,15.5 L20.1780143,15.5 C20.9113434,15.5 21.5043473,15.7476206 21.8918899,16.2180823 C22.2744293,16.6770035 22.4464809,17.3076013 22.4047246,18.0950197 C22.6085142,18.2848564 22.7120865,18.5473215 22.7120865,18.8807862 C22.7120865,19.5097205 22.2694144,19.9224215 22.04892,20.1039983 C21.9720825,20.2723826 21.7749678,20.6570003 21.4709376,20.9822052 C22.0054804,21.1390373 22.9325808,21.4460822 23.3919578,21.7068954 L23.432054,21.7299997 L23.463792,21.7613753 C23.5305997,21.8274075 23.6224821,21.9181959 23.6558917,22.04036 C23.761124,22.309433 24.1553532,23.5243969 23.9331755,24.1401271 L23.9164824,24.178099 C23.8112384,24.3794994 23.6191388,24.5 23.4003043,24.5 L23.4002926,24.5 Z" id="形状" fill="#455A74" mask="url(#mask-2)"></path>
                <path d="M14,22 L14,26 L18,26 L18,28 L13,28 C12.4477153,28 12,27.5522847 12,27 L12,22 L14,22 Z M28,22 L28,27 C28,27.5522847 27.5522847,28 27,28 L22,28 L22,26 L26,26 L26,22 L28,22 Z M27,12 C27.5522847,12 28,12.4477153 28,13 L28,18 L26,18 L26,14 L22,14 L22,12 L27,12 Z M18,14 L14,14 L14,18 L12,18 L12,13 C12,12.4477153 12.4477153,12 13,12 L18,12 L18,14 Z" id="形状结合" fill="#455A74" mask="url(#mask-2)"></path>
            </g>
        </g>
    </g>
</svg>