<?xml version="1.0" encoding="UTF-8"?>
<svg width="60px" height="78px" viewBox="0 0 60 78" version="1.1" xmlns="http://www.w3.org/2000/svg" xmlns:xlink="http://www.w3.org/1999/xlink">
    <title>AUSF</title>
    <defs>
        <linearGradient x1="26.051126%" y1="36.1067771%" x2="50%" y2="76.5706783%" id="linearGradient-1">
            <stop stop-color="#C1D4EB" offset="0%"></stop>
            <stop stop-color="#E5EBFC" stop-opacity="0" offset="100%"></stop>
        </linearGradient>
        <linearGradient x1="0%" y1="28.5417454%" x2="100%" y2="67.7794749%" id="linearGradient-2">
            <stop stop-color="#D2D5EC" offset="0%"></stop>
            <stop stop-color="#E2F0F7" offset="100%"></stop>
        </linearGradient>
        <linearGradient x1="0%" y1="49.9846907%" x2="100%" y2="49.9846907%" id="linearGradient-3">
            <stop stop-color="#53BAFF" offset="0%"></stop>
            <stop stop-color="#57BFFF" offset="10%"></stop>
            <stop stop-color="#1E82FF" offset="100%"></stop>
        </linearGradient>
        <linearGradient x1="4.02573788e-14%" y1="49.9846907%" x2="100%" y2="49.9846907%" id="linearGradient-4">
            <stop stop-color="#107FD6" offset="0%"></stop>
            <stop stop-color="#004CA7" offset="100%"></stop>
        </linearGradient>
        <linearGradient x1="-0.0106676052%" y1="50.432922%" x2="100%" y2="50.432922%" id="linearGradient-5">
            <stop stop-color="#53BAFF" offset="0%"></stop>
            <stop stop-color="#57BFFF" offset="10%"></stop>
            <stop stop-color="#1E82FF" offset="100%"></stop>
        </linearGradient>
        <linearGradient x1="0%" y1="49.9928002%" x2="100%" y2="49.9928002%" id="linearGradient-6">
            <stop stop-color="#53BAFF" offset="0%"></stop>
            <stop stop-color="#57BFFF" offset="10%"></stop>
            <stop stop-color="#1E82FF" offset="100%"></stop>
        </linearGradient>
    </defs>
    <g id="页面-1" stroke="none" stroke-width="1" fill="none" fill-rule="evenodd">
        <g id="AUSF">
            <g id="编组-4备份-11" transform="translate(0.000000, 31.000000)">
                <g id="编组-13" transform="translate(0.000000, 0.870968)">
                    <polygon id="矩形" fill="#A8B4DA" opacity="0.301292783" points="30 13.5860913 60 29.5349811 30 45.483871 0 29.5349811"></polygon>
                    <polygon id="矩形" fill="#FFFFFF" points="30 0 60 15.9488898 30 31.8977796 0 15.9488898"></polygon>
                    <polygon id="矩形" fill="url(#linearGradient-1)" points="30 31.8977796 60 15.9488898 60 20.7101685 30 37.8183253"></polygon>
                    <polygon id="矩形" fill="url(#linearGradient-2)" points="1.80064297e-14 15.9488898 30 31.8977796 30 37.8183253 2.66453526e-14 20.7786569"></polygon>
                </g>
            </g>
            <g id="2.5D图标新2021-3-18_AUSF备份" transform="translate(13.000000, 0.000000)" fill-rule="nonzero">
                <path d="M36,11.2346543 L34.6356941,10.8220822 C32.3133472,9.89957951 30.166872,8.58452094 28.290085,6.93438407 C26.3140124,5.15803498 24.4886777,3.22076531 22.8328612,1.14250721 L22.023796,0 L21.1988669,0.507780984 C19.5134429,1.58550374 17.6730689,2.39890408 15.7416431,2.91974066 C13.6620203,3.46855281 11.4756568,3.46855281 9.39603399,2.91974066 L8,2.38022336 L8,22.6279901 C8,32.7360053 17.090085,46.2874104 22.007932,47.8107533 C26.925779,49.3340963 36,41.463491 36,31.3078713 L36,11.2346543 Z" id="路径" fill="url(#linearGradient-3)"></path>
                <path d="M28,14.2505224 L26.603966,13.8220822 C24.2796196,12.9035826 22.1324874,11.5881215 20.2583569,9.93438407 C18.2849017,8.16107903 16.4597434,6.22930373 14.8011331,4.15837537 L13.992068,3 L13.1671388,3.52364914 C11.4767674,4.58833238 9.63760682,5.39584866 7.70991501,5.91974066 C5.63029225,6.46855281 3.44392871,6.46855281 1.36430595,5.91974066 L0,5.50716861 L0,25.6279901 C0,35.7360053 9.09008499,49.2874104 14.007932,50.8107533 C18.925779,52.3340963 28,44.463491 28,34.3078713 L28,14.2505224 Z" id="路径" fill="url(#linearGradient-4)"></path>
                <path d="M7.46809719,2.5 C4.89429324,6.44480795 -0.908464746,4.91883328 0.121056833,5.55195043 C6.12659937,9.2045494 13.8948076,3.05194936 13.8948076,3.05194936 C13.8948076,3.05194936 20.3059193,12.6461093 27.6529596,14.5616945 C35,16.4772798 35,11.4935114 35,11.4935114 C29.3284037,9.33345696 24.4949307,5.29559074 21.241848,0 C21.241848,0 14.2379815,5.29221006 7.46809719,2.5 Z" id="路径" fill="url(#linearGradient-5)"></path>
                <path d="M15,49.9788237 C21.699834,50.3005978 28.0361922,46.9358137 31.4972635,41.2183136 C32.8770377,38.1359498 34.047249,34.9648665 35,31.7264644 L35,11 L27.634871,13.9409172 C27.634871,13.9409172 28.8076622,31.3374541 27.3534011,36.550191 C24.2885066,47.8314873 19.4253323,47.7070041 15,49.9788237 Z" id="路径" fill="url(#linearGradient-6)"></path>
                <path d="M8.85689302,28.580464 C8.9453688,28.4005468 9.05648969,28.2331855 9.18743823,28.0826235 C9.64875244,27.7950513 10.1466011,27.573502 10.6670215,27.4241892 C11.1652537,27.3736237 11.6563057,27.2658801 12.1308646,27.1030017 C12.2806628,26.9659254 12.3662474,26.7703138 12.3662474,26.5650127 C12.3662474,26.3597116 12.2806628,26.1641001 12.1308646,26.0270237 C11.7479706,25.4167539 11.4212779,24.7716258 11.1549692,24.099899 C11.1549692,24.099899 10.4938788,21.4179837 11.9105011,20.74349 C12.3895685,20.4706758 12.9530151,20.3959426 13.4845259,20.5347182 C13.9737625,20.6424951 14.4384714,20.8441369 14.8539275,21.128915 C15.3746588,21.512159 15.7740856,22.0424998 16.0029656,22.6545554 C16.2695877,23.3848591 16.3080768,24.1814688 16.1131473,24.9349864 C15.9113305,25.6219681 15.5432383,26.2460521 15.0428104,26.7496955 C14.4919018,27.2314767 15.0428104,27.8417329 15.2002129,27.9220297 C16.0760889,28.420066 16.8899544,29.0239686 17.6242111,29.7206795 C17.950488,30.0503491 18.2169426,30.4363858 18.4112235,30.860895 C18.4241029,30.999766 18.4241029,31.1395676 18.4112235,31.2784387 L8.80967228,29.0301265 C8.79352342,28.8785184 8.80963025,28.7251402 8.85689302,28.580464 L8.85689302,28.580464 Z M19.8750665,35.9356568 L15.7826021,34.9560351 C15.3940268,34.8615658 15.1162914,34.5123004 15.1057714,34.1048883 C15.0977103,33.9314854 15.1733986,33.7650484 15.3083787,33.6593588 C15.4433588,33.5536692 15.620515,33.5221287 15.7826021,33.574929 L15.7826021,33.574929 L19.8750665,34.5545507 C20.0414502,34.6069828 20.2224337,34.5735421 20.3602274,34.4649063 C20.4980212,34.3562706 20.575393,34.1860256 20.5676374,34.0085321 L20.5676374,30.6360638 C20.5595764,30.4626609 20.6352646,30.2962239 20.7702447,30.1905343 C20.9052248,30.0848447 21.082381,30.0533041 21.2444681,30.1061044 C21.6305435,30.2086007 21.9093258,30.5512149 21.937039,30.9572512 L21.937039,30.9572512 L21.937039,34.4260758 C21.927268,34.9258832 21.6899278,35.3925432 21.2950075,35.6884428 C20.9000871,35.9843424 20.3926328,36.0757301 19.9222873,35.9356568 L19.8750665,35.9356568 Z M10.4309178,33.703404 L7.04676452,32.884376 C5.88971598,32.5830635 5.06007345,31.5477741 5.00053229,30.3309357 L5.00053229,26.8781705 C4.99277671,26.700677 5.07014856,26.530432 5.2079423,26.4217962 C5.34573604,26.3131605 5.52671958,26.2797197 5.6931032,26.3321518 C6.07820928,26.4423541 6.35089899,26.7917445 6.36993386,27.199358 L6.36993386,30.6360638 C6.38045383,31.0434758 6.65818919,31.3927413 7.04676452,31.4872105 L10.4623983,32.2901792 C10.8484737,32.3926754 11.127256,32.7352896 11.1549692,33.1413259 C11.1627248,33.3188194 11.0853529,33.4890644 10.9475592,33.5977002 C10.8097655,33.7063359 10.6287819,33.7397767 10.4623983,33.6873446 L10.4309178,33.703404 Z M5.70884345,21.00044 C5.31997348,20.9024601 5.03912056,20.5573012 5.01627254,20.1492933 L5.01627254,16.6804687 C4.99240285,16.1561734 5.2211519,15.6530617 5.62890214,15.3330485 C6.03665238,15.0130353 6.57194359,14.9165079 7.06250476,15.0745314 L10.4781386,15.8775001 C10.856153,16.0009642 11.1154762,16.3558897 11.1234887,16.7607656 C11.1186695,16.9210673 11.0429604,17.0705198 10.9175761,17.1672446 C10.7921919,17.2639694 10.6306213,17.2975608 10.4781386,17.2586061 L7.06250476,16.4556375 C6.90041769,16.4028372 6.7232615,16.4343777 6.58828138,16.5400673 C6.45330126,16.6457569 6.37761302,16.8121939 6.3856741,16.9855968 L6.3856741,20.4544213 C6.40142761,20.6344962 6.32612001,20.8103413 6.18590579,20.9208853 C6.04569157,21.0314294 5.85991746,21.0614195 5.6931032,21.00044 L5.70884345,21.00044 Z M21.3074291,24.6780364 C20.9188538,24.5835671 20.6411184,24.2343017 20.6305984,23.8268896 L20.6305984,23.8268896 L20.6305984,20.3741245 C20.6128788,19.9640768 20.3298062,19.6161899 19.9380275,19.5229777 L15.8455631,18.543356 C15.4569878,18.4488867 15.1792524,18.0996213 15.1687324,17.6922092 C15.1606713,17.5188063 15.2363596,17.3523693 15.3713397,17.2466797 C15.5063198,17.1409901 15.683476,17.1094496 15.8455631,17.1622499 L19.9380275,18.1258123 C21.1008742,18.4321078 21.9351864,19.4717748 22,20.6953119 L22,24.2123146 C21.9912828,24.3824005 21.9029752,24.5378473 21.7626554,24.6301089 C21.6223357,24.7223706 21.4471054,24.7402027 21.2916888,24.6780364 L21.3074291,24.6780364 Z" id="形状" fill="#FFFFFF"></path>
            </g>
        </g>
    </g>
</svg>