<?xml version="1.0" encoding="UTF-8"?>
<svg width="60px" height="70px" viewBox="0 0 60 70" version="1.1" xmlns="http://www.w3.org/2000/svg" xmlns:xlink="http://www.w3.org/1999/xlink">
    <title>业务编排中心</title>
    <defs>
        <linearGradient x1="26.051126%" y1="35.7896809%" x2="50%" y2="77.1771222%" id="linearGradient-1">
            <stop stop-color="#C1D4EB" offset="0%"></stop>
            <stop stop-color="#E5EBFC" stop-opacity="0" offset="100%"></stop>
        </linearGradient>
        <linearGradient x1="0%" y1="28.0519865%" x2="100%" y2="68.1852701%" id="linearGradient-2">
            <stop stop-color="#D2D5EC" offset="0%"></stop>
            <stop stop-color="#E2F0F7" offset="100%"></stop>
        </linearGradient>
        <linearGradient x1="50%" y1="0%" x2="50%" y2="67.4189837%" id="linearGradient-3">
            <stop stop-color="#83DFF7" offset="0%"></stop>
            <stop stop-color="#2AA0D2" offset="100%"></stop>
        </linearGradient>
        <polygon id="path-4" points="16.0046601 43.5030558 23.0030126 40.0649989 21.3935279 37.7628852 15.7235407 37.7628852"></polygon>
        <linearGradient x1="47.2701666%" y1="45.1296574%" x2="50%" y2="53.3498026%" id="linearGradient-5">
            <stop stop-color="#4CBCED" offset="0%"></stop>
            <stop stop-color="#3DAEDD" offset="63.5546332%"></stop>
            <stop stop-color="#3BACDB" offset="100%"></stop>
        </linearGradient>
        <linearGradient x1="40.6504596%" y1="9.97811865%" x2="50%" y2="88.9830542%" id="linearGradient-6">
            <stop stop-color="#4CBCED" offset="0%"></stop>
            <stop stop-color="#2E9ECE" offset="24.7569298%"></stop>
            <stop stop-color="#389FCA" offset="67.8294362%"></stop>
            <stop stop-color="#399FCC" offset="100%"></stop>
        </linearGradient>
        <linearGradient x1="29.6786558%" y1="28.4986751%" x2="50.7830256%" y2="73.862908%" id="linearGradient-7">
            <stop stop-color="#4CBCED" offset="0%"></stop>
            <stop stop-color="#2E9ECE" offset="24.7569298%"></stop>
            <stop stop-color="#3DAAD8" offset="67.8294362%"></stop>
            <stop stop-color="#47B0DE" offset="100%"></stop>
        </linearGradient>
        <linearGradient x1="29.6786558%" y1="18.223836%" x2="57.3829025%" y2="84.2262887%" id="linearGradient-8">
            <stop stop-color="#4CBCED" stop-opacity="0" offset="0%"></stop>
            <stop stop-color="#2BA3D8" offset="27.9064713%"></stop>
            <stop stop-color="#49B3E0" offset="78.2430555%"></stop>
            <stop stop-color="#4CBCED" stop-opacity="0" offset="100%"></stop>
        </linearGradient>
        <linearGradient x1="50%" y1="14.952284%" x2="50%" y2="82.107085%" id="linearGradient-9">
            <stop stop-color="#1F7FA9" offset="0%"></stop>
            <stop stop-color="#2292C2" offset="100%"></stop>
        </linearGradient>
    </defs>
    <g id="页面-1" stroke="none" stroke-width="1" fill="none" fill-rule="evenodd">
        <g id="业务编排中心">
            <g id="编组-13" transform="translate(0.000000, 24.000000)">
                <polygon id="矩形" fill="#A8B4DA" opacity="0.299874442" points="30 13.7402597 60 29.8701299 30 46 0 29.8701299"></polygon>
                <polygon id="矩形" fill="#FFFFFF" points="30 0 60 16.1298701 30 32.2597403 0 16.1298701"></polygon>
                <polygon id="矩形" fill="url(#linearGradient-1)" points="30 32.2597403 60 16.1298701 60 20.9451775 30 38.2474694"></polygon>
                <polygon id="矩形" fill="url(#linearGradient-2)" points="1.80064297e-14 16.1298701 30 32.2597403 30 38.2474694 2.66453526e-14 21.0144431"></polygon>
            </g>
            <g id="Group-13" transform="translate(10.000000, 0.000000)">
                <path d="M36,31.4155567 L36,25.9147288 C36,25.6713014 35.9308009,25.3971622 35.8072265,25.1528086 C35.6837869,24.9085336 35.5162473,24.714331 35.3415992,24.6127576 L33.7944942,23.7096475 C32.9972578,23.2442671 32.2667609,22.1546834 31.9743331,20.948792 C31.9286833,20.7596558 31.8809111,20.5709257 31.8311512,20.3826804 C31.5130854,19.1765819 31.6911362,18.0921937 32.2550368,17.6344458 L33.2157364,16.8549155 C33.6100086,16.5349954 33.6072461,15.9570818 33.3504958,15.4491388 L30.5625265,9.93206416 C30.3060457,9.4244665 29.8900435,9.18162857 29.633428,9.38971039 L28.5385081,10.2781496 C27.9745738,10.7356899 27.1222208,10.4878143 26.3906458,9.61701023 C26.2765383,9.4809778 26.1612517,9.34703023 26.0447859,9.21535551 C25.3044179,8.37650371 24.8274708,7.08052675 24.8274708,5.96844127 L24.8274708,4.07455875 C24.8274708,3.29642794 24.5332237,2.72001674 24.1703841,2.50821203 L20.2292115,0.207584221 C20.0549676,0.105870764 19.8878323,0.104897557 19.7646622,0.20484014 C19.6413574,0.304892069 19.5721247,0.497658809 19.5721247,0.740757123 L19.5721247,2.90105132 C19.5721247,4.01313681 19.0967948,4.75501576 18.3548096,4.72987195 C18.2383439,4.72562174 18.1230572,4.724786 18.0089834,4.72776043 C17.2775432,4.74458823 16.4251565,3.99766466 15.8611211,2.88130521 L14.766336,0.714643241 C14.5097205,0.206825905 14.0937183,-0.0360120232 13.8371027,0.172210803 L11.0491334,2.43442319 C10.7925179,2.64264601 10.7925179,3.22298919 11.0491334,3.73085352 L12.1440533,5.89740615 C12.7079539,7.01349892 12.8869481,8.30720233 12.5688486,9.14199139 C12.5189876,9.27203683 12.4713502,9.40507232 12.4256667,9.54089356 C12.1341822,10.4037216 11.4039212,10.6428088 10.6055056,10.1767401 L9.0570867,9.27286306 C8.88284283,9.1711496 8.71570752,9.17017639 8.59240269,9.27022832 C8.46923263,9.37017091 8.4,9.56293765 8.4,9.80603596 L8.4,15.3068169 C8.40104439,15.8127063 8.69492089,16.3931314 9.0570867,16.6045428 L10.6055056,17.5084198 C11.4026073,17.9737215 12.1332389,19.0634309 12.4256667,20.2692753 C12.4713502,20.4584312 12.5189876,20.6470826 12.5688486,20.8353869 C12.8869481,22.041552 12.7082235,23.12644 12.1440533,23.5840306 L11.0491334,24.4722818 C10.7925179,24.6805046 10.7925179,25.2608948 11.0491334,25.7687122 L13.8371027,31.2858338 C14.0937183,31.7934631 14.5097205,32.0363011 14.766336,31.8282663 L15.8611211,30.9397483 C16.4251565,30.4822671 17.2775432,30.7301153 18.0089834,31.6008408 C18.1230572,31.7368535 18.2383439,31.8708011 18.3548096,32.0024758 C19.0952113,32.8413943 19.5721247,34.1373046 19.5721247,35.2495781 L19.5721247,37.1432726 C19.5721247,37.9215914 19.8665066,38.4978932 20.2292115,38.7096193 L24.1719675,41.0111714 C24.5348071,41.2229761 24.8290542,40.9844063 24.8290542,40.4780455 L24.8290542,38.3182683 C24.8290542,37.2059948 25.3044179,36.4643236 26.0463693,36.4894477 C26.1628351,36.4937449 26.2781217,36.4943927 26.3922292,36.4915789 C27.1236694,36.4747981 27.9760225,37.221467 28.5400915,38.3380341 L29.6343376,40.5077186 C29.8909531,41.015536 30.3069553,41.2583739 30.5634361,41.0500724 L33.3514054,38.78786 C33.6080209,38.5797782 33.6080209,37.999435 33.3514054,37.4916177 L32.2566203,35.3245797 C31.6925849,34.2084083 31.5137255,32.9147835 31.831825,32.0799944 C31.8815512,31.9498233 31.9291887,31.8167879 31.9748721,31.6809666 C32.2664914,30.8182642 32.9966177,30.5790514 33.7950333,31.04512 L35.3415992,31.9479155 C35.5161126,32.0501623 35.6835174,32.0515278 35.8070918,31.9517742 C35.9305313,31.851801 36,31.658796 36,31.4155567 Z M21.9000833,25.7976558 C19.7461931,24.5304881 18,21.0478652 18,18.0192951 C18,14.9907719 19.7461931,13.5629624 21.9000833,14.8301301 C24.0539402,16.0972782 25.8,19.5796353 25.8,22.6081585 C25.8,25.6367286 24.0539402,27.0648039 21.9000833,25.7976558 Z" id="Fill-1-Copy" fill="#4CBCED"></path>
                <polygon id="Path-7" fill="#4CBCED" points="0.192402695 11.6486067 6.37103232 8.32903875 6.37103232 11.6486067 2.38049567 13.4357784"></polygon>
                <path d="M5.56662499,2.47602874 L13.5013346,0.236406402 C13.9815175,0.100871727 14.4881352,0.340029262 14.688661,0.796904113 L16.4084189,4.71517312 L16.4084189,4.71517312 L11.0498017,8.32903875 L7.65979077,8.32903875 L5.56662499,2.47602874 Z" id="Path-8" fill="#4CBCED"></path>
                <polygon id="Path-9" fill="#4CBCED" points="11.3646622 2.58321852 19.8 0.0976503581 24.5219843 3.00603529 24.5219843 7.73465455 16.8644604 10.33989 16.8644604 5.62775201"></polygon>
                <polygon id="Path-10" fill="#4CBCED" points="2.64913344 26.8506602 10.987522 24.5548148 12.486831 25.7027375 8.4 27.4324403"></polygon>
                <polygon id="Path-11" fill="#4CBCED" points="25.1049791 16.0265192 20.9227172 24.5548148 24.5219843 27.038089 28.4952994 25.9936275"></polygon>
                <g id="Path-12">
                    <use fill="url(#linearGradient-3)" xlink:href="#path-4"></use>
                    <use fill="#4CBCED" xlink:href="#path-4"></use>
                </g>
                <polygon id="Path-13" fill="#4CBCED" points="21.9 43.5030558 30.2803776 41.1246774 30.7067277 38.2357162 26.3033639 34.918577 23.6381949 36.3679206"></polygon>
                <polygon id="Path-14" fill="url(#linearGradient-5)" points="25.2055292 40.6329705 21.9 43.5030558 30.5634361 41.0500724 33.5564913 38.5065988"></polygon>
                <path d="M27.2132546,27.4705491 L27.2132546,34.4035111 L35.2581259,32.25408 C35.6956511,32.1371819 36,31.7408412 36,31.2879687 L36,25.9147288 L36,25.9147288 L27.2132546,27.4705491 Z" id="Path-15" fill="url(#linearGradient-6)"></path>
                <path d="M21.233428,11.7680888 L28.6867061,9.56680357 C29.6166056,9.29216279 30.60956,9.72408962 31.0426289,10.5916102 L33.0159804,14.5446146 C33.5093287,15.5328864 33.1081138,16.7339769 32.119842,17.2273251 C31.9969437,17.2886763 31.868052,17.3372033 31.7352079,17.3721377 L24.3798213,19.3064052 L24.3798213,19.3064052 L21.233428,11.7680888 Z" id="Path-16" fill="url(#linearGradient-7)"></path>
                <path d="M16.2377058,5.38230005 L24.1073812,2.47602874 C24.5620844,3.16082819 24.791739,3.61233979 24.7963449,3.83056351 C24.8308072,5.46336821 24.8308072,6.52044834 24.9792974,7.05596426 C25.1522921,7.6798531 25.3553692,8.18325095 25.5885287,8.5661578 L17.9433233,12.0133103 L15.6946182,8.86053522 L16.2377058,5.38230005 Z" id="Path-17" fill="url(#linearGradient-8)"></path>
                <path d="M27.6,33.7939351 L27.6,28.2931072 C27.6,28.0496798 27.5308009,27.7755406 27.4072265,27.5311869 C27.2837869,27.2869119 27.1162473,27.0927094 26.9415992,26.991136 L25.3944942,26.0880259 C24.5972578,25.6226455 23.8667609,24.5330618 23.5743331,23.3271704 C23.5286833,23.1380342 23.4809111,22.9493041 23.4311512,22.7610588 C23.1130854,21.5549603 23.2911362,20.4705721 23.8550368,20.0128242 L24.8157364,19.2332939 C25.2100086,18.9133738 25.2072461,18.3354602 24.9504958,17.8275172 L22.1625265,12.3104425 C21.9060457,11.8028449 21.4900435,11.5600069 21.233428,11.7680888 L20.1385081,12.656528 C19.5745738,13.1140682 18.7222208,12.8661927 17.9906458,11.9953886 C17.8765383,11.8593562 17.7612517,11.7254086 17.6447859,11.5937339 C16.9044179,10.7548821 16.4274708,9.45890513 16.4274708,8.34681965 L16.4274708,6.45293713 C16.4274708,5.67480632 16.1332237,5.09839512 15.7703841,4.88659041 L11.8292115,2.5859626 C11.6549676,2.48424914 11.4878323,2.48327594 11.3646622,2.58321852 C11.2413574,2.68327045 11.1721247,2.87603719 11.1721247,3.1191355 L11.1721247,5.2794297 C11.1721247,6.39151518 10.6967948,7.13339414 9.95480964,7.10825033 C9.83834385,7.10400011 9.72305721,7.10316438 9.6089834,7.1061388 C8.87754321,7.12296661 8.02515649,6.37604304 7.46112114,5.25968359 L6.36633599,3.09302162 C6.10972045,2.58520428 5.69371827,2.34236636 5.43710273,2.55058918 L2.64913344,4.81280157 C2.39251791,5.02102439 2.39251791,5.60136756 2.64913344,6.1092319 L3.74405335,8.27578453 C4.30795395,9.3918773 4.48694808,10.6855807 4.16884858,11.5203698 C4.11898762,11.6504152 4.07135018,11.7834507 4.02566675,11.9192719 C3.73418223,12.7821 3.00392118,13.0211872 2.20550559,12.5551185 L0.657086703,11.6512414 C0.482842833,11.549528 0.315707521,11.5485548 0.192402695,11.6486067 C0.0692326279,11.7485493 0,11.941316 0,12.1844143 L0,17.6851952 C0.00104438514,18.1910846 0.294920888,18.7715098 0.657086703,18.9829211 L2.20550559,19.8867982 C3.00260728,20.3520999 3.73323891,21.4418093 4.02566675,22.6476536 C4.07135018,22.8368095 4.11898762,23.025461 4.16884858,23.2137653 C4.48694808,24.4199304 4.30822346,25.5048184 3.74405335,25.9624089 L2.64913344,26.8506602 C2.39251791,27.058883 2.39251791,27.6392732 2.64913344,28.1470905 L5.43710273,33.6642122 C5.69371827,34.1718415 6.10972045,34.4146795 6.36633599,34.2066446 L7.46112114,33.3181267 C8.02515649,32.8606455 8.87754321,33.1084937 9.6089834,33.9792191 C9.72305721,34.1152319 9.83834385,34.2491795 9.95480964,34.3808542 C10.6952113,35.2197727 11.1721247,36.5156829 11.1721247,37.6279564 L11.1721247,39.5216509 C11.1721247,40.2999698 11.4665066,40.8762716 11.8292115,41.0879977 L15.7719675,43.3895498 C16.1348071,43.6013545 16.4290542,43.3627847 16.4290542,42.8564239 L16.4290542,40.6966467 C16.4290542,39.5843732 16.9044179,38.8427019 17.6463693,38.8678261 C17.7628351,38.8721233 17.8781217,38.872771 17.9922292,38.8699573 C18.7236694,38.8531765 19.5760225,39.5998454 20.1400915,40.7164125 L21.2343376,42.886097 C21.4909531,43.3939143 21.9069553,43.6367523 22.1634361,43.4284508 L24.9514054,41.1662384 C25.2080209,40.9581566 25.2080209,40.3778134 24.9514054,39.8699961 L23.8566203,37.7029581 C23.2925849,36.5867866 23.1137255,35.2931619 23.431825,34.4583728 C23.4815512,34.3282017 23.5291887,34.1951662 23.5748721,34.059345 C23.8664914,33.1966426 24.5966177,32.9574297 25.3950333,33.4234984 L26.9415992,34.3262939 C27.1161126,34.4285407 27.2835174,34.4299062 27.4070918,34.3301526 C27.5305313,34.2301794 27.6,34.0371744 27.6,33.7939351 Z M13.5000833,28.1760342 C11.3461931,26.9088665 9.6,23.4262436 9.6,20.3976735 C9.6,17.3691503 11.3461931,15.9413408 13.5000833,17.2085085 C15.6539402,18.4756566 17.4,21.9580136 17.4,24.9865369 C17.4,28.015107 15.6539402,29.4431823 13.5000833,28.1760342 Z" id="Fill-1" fill="url(#linearGradient-9)"></path>
            </g>
        </g>
    </g>
</svg>