<?xml version="1.0" encoding="UTF-8"?>
<svg width="40px" height="40px" viewBox="0 0 40 40" version="1.1" xmlns="http://www.w3.org/2000/svg" xmlns:xlink="http://www.w3.org/1999/xlink">
    <title>客户</title>
    <defs>
        <rect id="path-1" x="0" y="0" width="40" height="40"></rect>
    </defs>
    <g id="山东移动" stroke="none" stroke-width="1" fill="none" fill-rule="evenodd">
        <g id="图标合集" transform="translate(-40.000000, -600.000000)">
            <g id="编组-13" transform="translate(40.000000, 600.000000)">
                <mask id="mask-2" fill="white">
                    <use xlink:href="#path-1"></use>
                </mask>
                <g id="蒙版" opacity="0.200000003"></g>
                <g id="yonghu-2" mask="url(#mask-2)" fill="#FFFFFF" stroke="#455A74" stroke-width="2">
                    <g transform="translate(4.000000, 3.000000)">
                        <path d="M16.3270994,1 C16.8880352,1 17.4411964,1.06659117 17.9605931,1.20564233 C18.4969396,1.34661275 19.0004073,1.52395115 19.4623308,1.74403765 C19.9173783,1.96584288 20.335333,2.20141618 20.6864568,2.46809987 C21.0294764,2.72138625 21.2964232,2.96974856 21.495586,3.21931579 C21.9879817,3.84775265 22.3610938,4.54072682 22.6100918,5.29372236 C22.8749101,6.09670787 23.0641265,6.84994222 23.1610259,7.56071375 C23.2937084,8.41744504 23.3433613,9.26465764 23.3263388,10.101099 L23.3263388,10.101099 L23.8171844,11.0119728 C23.973871,11.5133736 23.9670243,11.7021299 23.9378559,11.9290117 C23.9035894,12.2214113 23.8272059,12.495655 23.7100711,12.7532809 L23.7100711,12.7532809 L22.6386179,13.4269844 L22.5026935,13.9807859 C22.4252403,14.2963565 22.3337929,14.6083433 22.2286118,14.9157732 C22.1273465,15.1715922 22.0142687,15.4227712 21.8871784,15.6736004 C21.4503261,16.1892413 21.3042136,16.3028378 21.158417,16.4035928 C20.9215413,16.5539495 20.722747,16.7244726 20.543183,16.8945851 C20.2978159,17.1364055 20.111559,17.4048968 19.9784833,17.7021408 C19.8466734,17.9979983 19.7525918,18.3091566 19.6984041,18.6282728 C19.619347,19.0464131 19.5929891,19.4727584 19.6198018,19.8949721 C19.647946,20.3565043 19.770099,20.8376751 19.9815808,21.2898956 C20.1923478,21.7535329 20.5316869,22.2082274 21.0155009,22.6265135 C21.4451397,23.0052051 22.0272343,23.3438027 22.7575559,23.6456437 C23.3769033,23.8912894 24.0447883,24.104652 24.7504221,24.2787046 C25.2129877,24.3964111 26.6691806,25.0023723 27.6748618,25.415713 C28.0976454,25.5894794 28.4456814,25.7323497 28.6234879,25.8007505 C29.1432827,26.001466 29.6164449,26.2479258 30.0276061,26.5459581 C30.3458831,26.8193322 30.5840084,27.1369497 30.7262161,27.5371621 C30.816593,27.8150081 30.8848688,28.1708844 30.9289985,28.5996638 C30.9982112,29.6304672 30.9689757,30.0764038 30.9041332,30.490895 C30.8563704,30.7794785 30.7992074,31.007388 30.7105716,31.1677254 C29.7180841,31.4786664 24.2924829,33 16.666095,33 C9.63196131,33 3.57600321,31.8693918 2.61713793,31.6581718 C1.85862366,31.48789 1.37748491,31.3880258 1.2171113,31.2712274 C1.07125518,31.1644741 1.11927285,30.7491779 1.06085225,30.2956844 C0.957869595,29.5057081 1.00387961,29.2874384 1.18570846,28.1400586 C1.29531257,27.479085 1.48410394,27.0182058 1.85903095,26.7248863 C2.31876683,26.3620198 2.86435576,26.082769 3.4838541,25.8748732 C4.93082952,25.382979 7.67135914,24.4490642 8.35891818,24.2705514 C9.25202048,24.0386728 10.0303254,23.7035711 10.6974682,23.2679005 C11.2597266,22.9274606 11.6834804,22.5885383 11.9891195,22.2701405 C12.3580801,21.8857779 12.6095855,21.4952434 12.7526039,21.1104525 C12.8928813,20.7265734 12.9665945,20.3360297 12.9665945,19.9197766 C12.9665945,19.6138508 12.9522564,19.2785427 12.9326223,18.9163191 C12.8591191,18.0494081 12.5582577,17.4318455 12.0970897,16.996361 C11.7522943,16.6676073 11.3945905,16.3525929 11.0248856,16.0520522 C10.669841,15.4625164 10.5596681,15.2084483 10.4604106,14.9500349 C10.3478775,14.6149012 10.2381018,14.2788529 10.1310946,13.9419238 L10.1310946,13.9419238 L9.96905283,13.4317095 L9.45461099,13.2836358 C8.94636397,12.7752799 8.859379,12.5882542 8.80594134,12.390602 C8.73024518,12.1394393 8.69492671,11.9311572 8.71846667,11.7502644 C8.74323114,11.5355853 8.77533442,11.3598362 8.83668532,11.2114731 C9.28594665,8.54804348 9.48632817,7.00876918 9.91907766,5.52909458 C10.1264799,4.82427718 10.4247178,4.18674236 10.812286,3.63170694 C11.1786745,3.1170433 11.5817905,2.68585947 12.0443528,2.34483266 C12.8747341,1.71796974 13.8443033,1.29984045 14.8710122,1.12571889 C15.3681337,1.04896324 15.8527422,1 16.3270994,1 Z" id="形状"></path>
                        <path d="M16.065,24.53 L16.2088711,25.0751393 C16.281068,25.3489034 16.3557381,25.6312378 16.4309223,25.9728719 C16.4690785,26.150975 16.5099706,26.3290862 16.551187,26.5084438 C16.5989877,26.7164531 16.6472757,26.9262385 16.6915273,27.1400412 C16.823608,27.7456068 16.8766544,27.986609 16.9197605,28.2135774 C16.847967,28.7114172 16.6879451,28.8751251 16.5069652,29.0411247 C16.3337406,29.1998452 16.1544465,29.3287225 15.9687786,29.4477261 C15.6379381,29.1750844 15.3045809,28.8817756 15.0120894,28.5493037 C15.1618902,27.7750112 15.249981,27.394826 15.3460355,26.9909003 C15.4330197,26.6150065 15.5310801,26.2418153 15.6422262,25.8644569 C15.7445549,25.5070387 15.8297383,25.2378693 15.893694,25.0462405 L15.893694,25.0462405 L16.065,24.53 Z M15.7660003,22.9291931 C16.3876331,23.0484873 16.5501688,23.1885094 16.7129375,23.3323533 C16.8248841,23.7948325 16.6928488,23.9222745 16.5396709,24.0485655 L16.5396709,24.0485655 L16.107,24.404 L16.1128568,24.3895691 L15.5753748,23.9532633 C15.4023097,23.8127761 15.2580793,23.6611001 15.1383723,23.502621 C15.4461525,23.171994 15.5887778,23.053475 15.7660003,22.9291931 Z" id="路径"></path>
                    </g>
                </g>
            </g>
        </g>
    </g>
</svg>