<?xml version="1.0" encoding="UTF-8"?>
<svg width="60px" height="59px" viewBox="0 0 60 59" version="1.1" xmlns="http://www.w3.org/2000/svg" xmlns:xlink="http://www.w3.org/1999/xlink">
    <title>合路器</title>
    <defs>
        <linearGradient x1="26.051126%" y1="35.7896809%" x2="50%" y2="77.1771222%" id="linearGradient-1">
            <stop stop-color="#C1D4EB" offset="0%"></stop>
            <stop stop-color="#E5EBFC" stop-opacity="0" offset="100%"></stop>
        </linearGradient>
        <linearGradient x1="0%" y1="28.0519865%" x2="100%" y2="68.1852701%" id="linearGradient-2">
            <stop stop-color="#D2D5EC" offset="0%"></stop>
            <stop stop-color="#E2F0F7" offset="100%"></stop>
        </linearGradient>
        <linearGradient x1="37.7959654%" y1="106.424332%" x2="59.6384137%" y2="2.84866469%" id="linearGradient-3">
            <stop stop-color="#57BFFF" offset="0%"></stop>
            <stop stop-color="#1E82FF" offset="100%"></stop>
        </linearGradient>
        <linearGradient x1="32.3525621%" y1="42.2017804%" x2="63.8306503%" y2="53.3560831%" id="linearGradient-4">
            <stop stop-color="#107FD6" offset="0%"></stop>
            <stop stop-color="#004CA7" offset="100%"></stop>
        </linearGradient>
        <linearGradient x1="57.3968254%" y1="53.4223885%" x2="37.3968254%" y2="44.7905064%" id="linearGradient-5">
            <stop stop-color="#53BAFF" offset="0%"></stop>
            <stop stop-color="#57BFFF" offset="10%"></stop>
            <stop stop-color="#1E82FF" offset="100%"></stop>
        </linearGradient>
        <linearGradient x1="-3407.00081%" y1="1103.48665%" x2="-3405.26728%" y2="1108.23442%" id="linearGradient-6">
            <stop stop-color="#57BFFF" offset="0%"></stop>
            <stop stop-color="#1E82FF" offset="100%"></stop>
        </linearGradient>
        <linearGradient x1="-3320.53573%" y1="1107.8635%" x2="-3318.03747%" y2="1107.34421%" id="linearGradient-7">
            <stop stop-color="#107FD6" offset="0%"></stop>
            <stop stop-color="#004CA7" offset="100%"></stop>
        </linearGradient>
    </defs>
    <g id="页面-1" stroke="none" stroke-width="1" fill="none" fill-rule="evenodd">
        <g id="合路器">
            <g id="编组-20" transform="translate(0.000000, 13.000000)">
                <polygon id="矩形" fill="#A8B4DA" opacity="0.299874442" points="30 13.7402597 60 29.8701299 30 46 0 29.8701299"></polygon>
                <polygon id="矩形" fill="#FFFFFF" points="30 0 60 16.1298701 30 32.2597403 0 16.1298701"></polygon>
                <polygon id="矩形" fill="url(#linearGradient-1)" points="30 32.2597403 60 16.1298701 60 20.9451775 30 38.2474694"></polygon>
                <polygon id="矩形" fill="url(#linearGradient-2)" points="1.80064297e-14 16.1298701 30 32.2597403 30 38.2474694 2.66453526e-14 21.0144431"></polygon>
            </g>
            <g id="Group" transform="translate(12.168148, 0.000000)">
                <polygon id="Fill-6" fill="url(#linearGradient-3)" opacity="0.9" points="35.7903704 18.9718519 18.057037 29.1896296 18.057037 20.4355556 35.7903704 10.2177778"></polygon>
                <polygon id="Fill-7" fill="url(#linearGradient-4)" points="-4.97379915e-14 19.3659259 17.7474074 29.5837037 17.7474074 20.8296296 -4.97379915e-14 10.6118519"></polygon>
                <polygon id="Fill-8" fill="#FFFFFF" fill-rule="nonzero" points="19.8318519 25.36 19.8318519 22.8788003 34.2704186 14.7889039 34.2704186 17.2801036"></polygon>
                <polygon id="Fill-14" fill="url(#linearGradient-5)" points="0.323703704 10.2177778 18.057037 20.4355556 35.7903704 10.2177778 18.057037 -8.8817842e-15"></polygon>
                <line x1="17.9866667" y1="20.5059259" x2="35.9311111" y2="10.2177778" id="路径-7" stroke="#FFFFFF" stroke-width="0.5"></line>
                <line x1="17.9866667" y1="20.5059259" x2="0.394074074" y2="10.2177778" id="路径-7-2" stroke="#FFFFFF" stroke-width="0.5"></line>
                <polygon id="Fill-6-2" fill="url(#linearGradient-6)" opacity="0.9" points="35.9592593 28.1622222 18.2259259 38.38 18.2259259 29.6259259 35.9592593 19.4081481"></polygon>
                <polygon id="Fill-7-2" fill="url(#linearGradient-7)" points="-4.97379915e-14 27.9088889 17.7474074 38.1266667 17.7474074 29.3725926 -4.97379915e-14 19.1548148"></polygon>
                <line x1="17.9866667" y1="20.5059259" x2="17.9866667" y2="38.38" id="路径-7-3" stroke="#FFFFFF" stroke-width="0.5"></line>
                <line x1="17.7614815" y1="29.3866667" x2="0.168888889" y2="19.0985185" id="路径-7-4" stroke="#FFFFFF" stroke-width="0.5"></line>
                <polygon id="Fill-8-Copy" fill="#FFFFFF" fill-rule="nonzero" points="19.8318519 34.5710961 19.8318519 32.0898964 34.2704186 24 34.2704186 26.4911997"></polygon>
                <line x1="17.9866667" y1="29.442963" x2="35.9311111" y2="19.1548148" id="路径-7-5" stroke="#FFFFFF" stroke-width="0.5"></line>
                <path d="M12.8092443,8.52971519 L14.3964079,10.2059915 C14.4121733,10.2263946 14.4103413,10.2539514 14.3917913,10.280356 C14.3730418,10.3067882 14.3394576,10.3290821 14.3009489,10.3408783 L10.9429674,11.2194887 C10.9148652,11.2284192 10.8869652,11.2308187 10.8632623,11.2270436 C10.8398937,11.2233531 10.8206595,11.2138211 10.8090777,11.1988888 C10.7857914,11.168854 10.7998272,11.1245808 10.8430894,11.0906963 L11.7850167,10.2323953 L6.8971887,9.38930132 C6.83639942,9.3783135 6.81403558,9.32901208 6.84719269,9.2791586 L7.20019152,8.75083832 C7.23354878,8.70120186 7.30966515,8.67019452 7.37061127,8.68144674 L12.2583331,9.55101241 L12.5697134,8.5989259 C12.576814,8.55980162 12.6202209,8.52143917 12.6761072,8.50534981 C12.7319118,8.48912714 12.7864865,8.49899989 12.8092443,8.52971519 Z M16.6436736,11.7535292 C16.814729,11.8676014 16.7649638,12.0889391 16.5325199,12.2487697 L14.849012,13.4229515 C14.6165681,13.5873622 14.2894672,13.6293162 14.1184117,13.5157895 L12.8795186,12.6814939 C12.7084631,12.5646362 12.7582283,12.3354766 12.9906723,12.1705204 L14.6741802,10.9923881 C14.9066241,10.832012 15.233725,10.7978799 15.4047804,10.915283 L16.6436736,11.7535292 Z M19.1214599,13.3664281 C19.2925153,13.4746466 19.2427501,13.6906495 19.0103062,13.8497529 L17.3267983,15.0186673 C17.0943544,15.1823507 16.7672535,15.2284605 16.596198,15.1207873 L15.3573049,14.3288873 C15.1862494,14.2178833 15.2360146,13.9940585 15.4684586,13.8298296 L17.1519665,12.6569647 C17.3844104,12.4973159 17.7115113,12.459028 17.8825667,12.5705775 L19.1214599,13.3664281 Z M16.7845275,6.54918344 L16.9672027,8.71459624 C16.9664473,8.740053 16.9474267,8.76727328 16.9161263,8.78812628 C16.8846745,8.80900243 16.8443231,8.82107143 16.8068484,8.82101154 L13.6495085,8.63627558 C13.6222245,8.63608895 13.5991576,8.6293668 13.5831729,8.61778074 C13.5673894,8.60639338 13.5584378,8.59045032 13.5587522,8.57157206 C13.5593851,8.53361134 13.597728,8.49354144 13.6522483,8.47354471 L14.9177903,7.91651109 L11.9009256,5.67887326 C11.8598962,5.6475076 11.8718458,5.59162319 11.9276228,5.55406908 L12.5205977,5.15701387 C12.5765301,5.119851 12.6549517,5.11519024 12.6961426,5.14658716 L15.71288,7.38728991 L16.5526303,6.54228215 C16.5826852,6.50593889 16.6408551,6.48176202 16.6949335,6.48344425 C16.7490402,6.48495465 16.7858443,6.51177986 16.7845275,6.54918344 Z M25.6729676,12.4452707 L25.8556427,14.3889881 C25.8548874,14.4119824 25.8358667,14.4375528 25.8045664,14.4580459 C25.7731145,14.478569 25.7327632,14.4916324 25.6952884,14.4936033 L22.5379485,14.4971746 C22.5106646,14.4984766 22.4875976,14.4936398 22.4716129,14.4840214 C22.4558294,14.4745716 22.4468778,14.4606324 22.4471922,14.4435388 C22.4478251,14.4091664 22.486168,14.3708572 22.5406883,14.3498369 L23.8062303,13.7784727 L21.7031385,12.4900338 C21.6621091,12.4642295 21.6740587,12.4134128 21.7298357,12.3765516 L22.3228105,11.9868415 C22.378743,11.9503609 22.4571645,11.9417586 22.4983555,11.967586 L24.60132,13.2581759 L25.4410704,12.4511251 C25.4711253,12.4167523 25.5292951,12.3918998 25.5833735,12.3906032 C25.6374802,12.38915 25.6742844,12.4114447 25.6729676,12.4452707 Z M20.0106894,9.50586502 C20.1817448,9.62066448 20.1319796,9.83606687 19.8995357,9.98784864 L18.2160278,11.1037354 C17.9835839,11.2600973 17.656483,11.2949368 17.4854275,11.1806828 L16.2465344,10.3411198 C16.075479,10.2235349 16.1252442,10.0003106 16.3576881,9.84340332 L18.041196,8.72356601 C18.2736399,8.57123879 18.6007408,8.54422115 18.7717963,8.66235151 L20.0106894,9.50586502 Z M22.4884757,11.1292986 C22.6595311,11.2382445 22.6097659,11.448312 22.377322,11.5993665 L20.6938141,12.7099859 C20.4613702,12.8656205 20.1342693,12.9046158 19.9632138,12.7962154 L18.7243207,11.999048 C18.5532652,11.8873167 18.6030305,11.6694273 18.8354744,11.5132472 L20.5189823,10.3986773 C20.7514262,10.2470773 21.0785271,10.215904 21.2495825,10.3281807 L22.4884757,11.1292986 Z M18.4764137,2.05903473 L19.0922725,5.57343692 L20.3515486,5.06104714 C20.4014027,5.03692131 20.4627972,5.03425886 20.5014971,5.05480904 C20.5403485,5.07519106 20.5471179,5.11366741 20.5176407,5.14891861 L18.9939416,7.31322734 C18.9738255,7.33802691 18.9391256,7.35806897 18.9004344,7.36746559 C18.8616235,7.37682762 18.8231448,7.37432994 18.7960679,7.36089617 L16.6490934,6.02945964 C16.6294571,6.0191305 16.6177555,6.00401207 16.6148158,5.98679971 C16.6118777,5.96985307 16.6172755,5.95103212 16.6315873,5.93280742 C16.6603641,5.89617479 16.7180776,5.87153215 16.7725695,5.87237827 L18.111148,5.79752433 L17.495168,2.25733047 C17.4875615,2.21278235 17.5371818,2.16530705 17.6060273,2.15129299 L18.3377824,2.003782 C18.4067301,1.99008378 18.4686796,2.01475684 18.4764137,2.05903473 Z M23.3777052,7.37479088 C23.5487607,7.49031761 23.4989954,7.69978468 23.2665515,7.84351759 L21.5830436,8.90110936 C21.3505997,9.04942236 21.0234988,9.07714745 20.8524434,8.96216617 L19.6135502,8.11733582 C19.4424948,7.99902364 19.49226,7.78173466 19.7247039,7.63287621 L21.4082118,6.57133391 C21.6406557,6.42705555 21.9677566,6.40715237 22.1388121,6.52601001 L23.3777052,7.37479088 Z M25.8554915,9.00875925 C26.0265469,9.11843236 25.9767817,9.32256458 25.7443378,9.46557021 L24.0608299,10.5178946 C23.828386,10.6654803 23.5012851,10.6973611 23.3302296,10.5882335 L22.0913365,9.78579873 C21.9202811,9.67334015 21.9700463,9.46138603 22.2024902,9.31325485 L23.8859981,8.25697992 C24.118442,8.11342883 24.4455429,8.08936993 24.6165984,8.20237396 L25.8554915,9.00875925 Z" id="Combined-Shape" fill="#FFFFFF" fill-rule="nonzero"></path>
            </g>
        </g>
    </g>
</svg>