<?xml version="1.0" encoding="UTF-8"?>
<svg width="60px" height="70px" viewBox="0 0 60 70" version="1.1" xmlns="http://www.w3.org/2000/svg" xmlns:xlink="http://www.w3.org/1999/xlink">
    <title>电脑</title>
    <defs>
        <linearGradient x1="37.3529412%" y1="40.3895101%" x2="61.3529412%" y2="61.2540139%" id="linearGradient-1">
            <stop stop-color="#C1D4EB" offset="0%"></stop>
            <stop stop-color="#E5EBFC" stop-opacity="0" offset="100%"></stop>
        </linearGradient>
        <linearGradient x1="-0.647058824%" y1="40.9111226%" x2="99.3529412%" y2="61.2540139%" id="linearGradient-2">
            <stop stop-color="#D2D5EC" offset="0%"></stop>
            <stop stop-color="#E2F0F7" offset="100%"></stop>
        </linearGradient>
        <linearGradient x1="50%" y1="14.952284%" x2="50%" y2="82.107085%" id="linearGradient-3">
            <stop stop-color="#1F7FA9" offset="0%"></stop>
            <stop stop-color="#2292C2" offset="100%"></stop>
        </linearGradient>
        <linearGradient x1="54.7065234%" y1="46.4976936%" x2="47.2286597%" y2="62.6542662%" id="linearGradient-4">
            <stop stop-color="#4CBCED" offset="0%"></stop>
            <stop stop-color="#2FA9DC" offset="100%"></stop>
        </linearGradient>
        <linearGradient x1="43.2726963%" y1="18.4878429%" x2="50%" y2="88.9056422%" id="linearGradient-5">
            <stop stop-color="#56C2F1" offset="0%"></stop>
            <stop stop-color="#46B8EA" offset="100%"></stop>
        </linearGradient>
    </defs>
    <g id="页面-1" stroke="none" stroke-width="1" fill="none" fill-rule="evenodd">
        <g id="电脑" fill-rule="nonzero">
            <g id="编组-13" transform="translate(0.000000, 24.000000)">
                <polygon id="矩形" fill="#A8B4DA" opacity="0.3" points="30 13.8852177 60 29.6856379 30 45.4816654 0 29.6856379"></polygon>
                <polygon id="矩形-2" fill="#FFFFFF" points="30 0.421695951 60 16.2221161 30 32.0225363 0 16.2221161"></polygon>
                <polygon id="矩形-3" fill="url(#linearGradient-1)" points="30 32.0225363 60 16.2221161 60 20.9398396 30 37.8911383"></polygon>
                <polygon id="矩形-4" fill="url(#linearGradient-2)" points="0 16.2221161 30 32.0225363 30 37.8911383 0 21.0101222"></polygon>
            </g>
            <g id="编组-7" transform="translate(2.000000, 0.000000)">
                <g id="编组-5">
                    <polygon id="路径" fill="url(#linearGradient-3)" points="20.8140608 0 18.6254165 1.25764844 18.6071506 22.5022891 0 33.1942813 0.00714309514 35.6974922 28.1930822 52 49 40.3220339 49 16.3025078"></polygon>
                    <polygon id="路径" fill="url(#linearGradient-4)" points="28.1628031 49.3559322 0 33.1217142 18.5918772 22.4745763 46.7727273 38.7086931"></polygon>
                    <polygon id="路径" fill="#218AB8" points="19.1545455 42.7457627 12.0279617 38.559322 16.0363636 36.4044068 22.7181818 40.1016949"></polygon>
                    <polygon id="路径" fill="url(#linearGradient-5)" points="46.7727273 39.220339 18.2636364 22.7653633 18.2820999 1.3220339 46.7727273 17.7771121"></polygon>
                    <polygon id="路径" fill="#C6F1FF" points="44.5454545 35.2542373 20.4909091 21.4181657 20.5063594 5.72881356 44.5454545 19.5633653"></polygon>
                    <polygon id="形状" fill="#286CB8" points="40.8067584 35.8711962 40.4143926 36.0968693 40.4157335 35.6477685 38.4586493 34.5296096 38.0662835 34.7552827 38.0676244 34.3061819 36.1106433 33.1880229 35.7182775 33.4136961 35.7196184 32.9645952 33.7626373 31.8464363 33.3702715 32.0721094 33.3716124 31.6229065 31.4146313 30.5047475 31.0222655 30.7304207 31.0236064 30.2813199 29.0666253 29.1631609 28.6742596 29.3888341 28.6756004 28.9397332 26.7186194 27.8215742 26.325841 28.0474516 26.3271819 27.5979425 24.3700977 26.4797835 23.9777319 26.7054566 23.9790728 26.2563558 22.0220916 25.1381968 21.6297259 25.36387 21.6310667 24.9147692 19.6740857 23.7966102 17.8326276 24.8555695 17.8312867 25.3002814 17.4439751 25.0789972 15.6021045 26.1381607 15.6007636 26.5828725 15.2134519 26.3615883 13.3718907 27.4206497 13.3705498 27.8653616 12.9832382 27.6440773 11.1417801 28.7030367 11.1404392 29.1478506 10.7531276 28.9265664 8.91166956 29.9855258 8.90909091 30.8750516 10.866072 31.9932106 11.2584378 31.7675374 11.2570969 32.2166383 13.214078 33.3347972 13.6064438 33.1091241 13.6051029 33.5582249 15.5621871 34.6763839 15.9549655 34.4505066 15.9536246 34.9000157 17.9106057 36.0181747 18.3029715 35.7925015 18.3016306 36.2416023 20.2586117 37.3597613 20.6509775 37.1340881 20.6496366 37.583189 22.6066176 38.701348 22.9989834 38.4756748 22.9976425 38.9248777 24.9546236 40.0430367 25.3469894 39.8173635 25.3456485 40.2664643 27.3026296 41.3846233 27.6949954 41.1589501 27.6936545 41.608051 29.6507387 42.72621 30.0431046 42.5005368 30.0417636 42.9496376 31.9987448 44.0677966 33.8402028 43.0088373 33.8415437 42.5640233 34.2288553 42.7853076 36.0703134 41.7263482 36.0716543 41.2816363 36.4589659 41.5029205 38.3005271 40.4438591 38.301868 39.9991473 38.6891797 40.2204315 40.5309471 39.161268 40.532288 38.7165562 40.9195997 38.9378403 42.7610577 37.878881 42.7636364 36.9893552"></polygon>
                    <polygon id="路径" fill="#3DB2E4" points="21.8272727 25.1186441 21.8247811 25.9234105 20.0454545 26.8813559 20.0479462 26.0766818"></polygon>
                    <polygon id="路径" fill="#2894C2" points="20.0454545 26.3457493 20.0431098 27.3220339 18.2636364 26.0949287 18.2658873 25.1186441"></polygon>
                    <g id="编组-4" transform="translate(9.354545, 23.796610)" fill="#6AD0FC">
                        <polygon id="路径" points="8.46363636 1.07178815 10.4072731 0 12.4727273 1.13149838 10.5291994 2.20338983"></polygon>
                        <polygon id="路径" points="11.1363636 2.3937718 13.0799443 1.3220339 15.1454545 2.45358252 13.2018739 3.52542373"></polygon>
                        <polygon id="路径" points="13.3636364 4.15653391 15.3072731 3.08474576 17.3727273 4.21645075 15.4291994 5.28813559"></polygon>
                        <polygon id="路径" points="15.5909091 5.47846449 17.5344897 4.40677966 19.6 5.53838132 17.6564194 6.61016949"></polygon>
                        <polygon id="路径" points="17.8181818 6.80055145 19.7617097 5.72881356 21.8272727 6.8604655 19.8837449 7.93220339"></polygon>
                        <polygon id="路径" points="20.4909091 8.12263563 22.4344897 7.05084746 24.5 8.18244912 22.5564194 9.25423729"></polygon>
                        <polygon id="路径" points="22.7181818 9.44472254 24.6617625 8.37288136 26.7272727 9.50453329 24.7836921 10.5762712"></polygon>
                        <polygon id="路径" points="24.9454545 10.7668067 26.8888735 9.69491525 28.9545455 10.8266203 27.0109087 11.8983051"></polygon>
                        <polygon id="路径" points="27.1727273 12.088687 29.116199 11.0169492 31.1818182 12.1484978 29.2382375 13.220339"></polygon>
                        <polygon id="路径" points="31.3436367 12.3389831 33.4090909 13.470635 31.4655631 14.5423729 29.4 13.4108242"></polygon>
                        <polygon id="路径" points="6.23636364 2.39392815 8.1801686 1.3220339 10.2454545 2.45352948 8.30175845 3.52542373"></polygon>
                        <polygon id="路径" points="8.46363636 3.71606534 10.4073325 2.6440678 12.4727273 3.77566667 10.5289223 4.84745763"></polygon>
                        <polygon id="路径" points="11.1363636 5.47862367 13.0801158 4.40677966 15.1454545 5.53822219 13.2017024 6.61016949"></polygon>
                        <polygon id="路径" points="13.3636364 6.80071062 15.3073325 5.72881356 17.3727273 6.86030633 15.4289223 7.93220339"></polygon>
                        <polygon id="路径" points="15.5909091 8.1227417 17.5347141 7.05084746 19.6 8.18234304 17.6563039 9.25423729"></polygon>
                        <polygon id="路径" points="27.1727273 14.7329112 29.1165322 13.6610169 31.1818182 14.7925125 29.2381221 15.8644068"></polygon>
                        <polygon id="路径" points="4.00909091 3.715909 5.95272763 2.6440678 8.01818182 3.77571972 6.07465397 4.84745763"></polygon>
                        <polygon id="路径" points="6.23636364 5.03799316 8.1798354 3.96610169 10.2454545 5.09770335 8.30187391 6.16949153"></polygon>
                        <polygon id="路径" points="8.90909091 6.35987348 10.8526748 5.28813559 12.9181818 6.41968424 10.9745979 7.49152542"></polygon>
                        <polygon id="路径" points="11.1363636 8.12268864 13.0800004 7.05084746 15.1454545 8.1824994 13.2019267 9.25423729"></polygon>
                        <polygon id="路径" points="13.3636364 9.44461925 15.3072731 8.37288136 17.3727273 9.50443 15.4290906 10.5762712"></polygon>
                        <polygon id="路径" points="25.3909091 15.6140577 27.3345458 14.5423729 29.4 15.6739745 27.4564722 16.7457627"></polygon>
                        <polygon id="路径" points="1.78181818 5.03788987 3.72545489 3.96610169 5.79090909 5.09780669 3.84738124 6.16949153"></polygon>
                        <polygon id="路径" points="4.00909091 6.35982043 5.95261876 5.28813559 8.01818182 6.41973725 6.0745451 7.49152542"></polygon>
                        <polygon id="路径" points="6.68181818 7.68195766 8.62540211 6.61016949 10.6909091 7.74187449 8.74732516 8.81355932"></polygon>
                        <polygon id="路径" points="8.90909091 9.00399156 10.8526715 7.93220339 12.9181818 9.06380505 10.9746012 10.1355932"></polygon>
                        <polygon id="路径" points="13.8090909 12.0888406 15.7526155 11.0169492 17.8181818 12.1486541 15.8746573 13.220339"></polygon>
                        <polygon id="路径" points="16.0363636 13.4107209 17.9799443 12.3389831 20.0454545 13.4705317 18.1018739 14.5423729"></polygon>
                        <polygon id="路径" points="18.2636364 14.7328581 20.2071642 13.6610169 22.2727273 14.7926689 20.3291994 15.8644068"></polygon>
                        <polygon id="路径" points="20.9363636 15.6142141 22.8798915 14.5423729 24.9454545 15.6739215 23.0019267 16.7457627"></polygon>
                        <polygon id="路径" points="23.1636364 16.9361447 25.107217 15.8644068 27.1727273 16.9959554 25.2291466 18.0677966"></polygon>
                        <polygon id="路径" points="0 6.35982043 1.94363671 5.28813559 4.00909091 6.41973725 2.06556306 7.49152542"></polygon>
                        <polygon id="路径" points="1.78181818 7.68190738 3.72534603 6.61016949 5.79090909 7.74182143 3.84727238 8.81355932"></polygon>
                        <polygon id="路径" points="4.45454545 9.00399156 6.39818217 7.93220339 8.46363636 9.06390839 6.52010852 10.1355932"></polygon>
                        <polygon id="路径" points="6.68181818 10.3259221 8.62539882 9.25423729 10.6909091 10.3858389 8.74732846 11.4576271"></polygon>
                        <polygon id="路径" points="8.90909091 12.0887373 10.8526188 11.0169492 12.9181818 12.1486541 10.974654 13.220339"></polygon>
                        <polygon id="路径" points="11.5818182 13.4106679 13.5253988 12.3389831 15.5909091 13.4705847 13.6473285 14.5423729"></polygon>
                        <polygon id="路径" points="13.8090909 14.7328581 15.7526715 13.6610169 17.8181818 14.7926689 15.8746012 15.8644068"></polygon>
                        <polygon id="路径" points="16.0363636 15.6142141 17.9798915 14.5423729 20.0454545 15.6740248 18.1019267 16.7457627"></polygon>
                        <polygon id="路径" points="18.7090909 16.9361447 20.6525627 15.8644068 22.7181818 16.9959554 20.7746012 18.0677966"></polygon>
                        <polygon id="路径" points="20.9363636 18.2582289 22.8799443 17.1864407 24.9454545 18.3180423 23.0018739 19.3898305"></polygon>
                        <polygon id="路径" points="18.2636364 9.44467231 20.2073325 8.37288136 22.2727273 9.50427365 20.3289223 10.5762712"></polygon>
                        <polygon id="路径" points="20.4909091 10.7668095 22.4347141 9.69491525 24.5 10.8265141 22.5563039 11.8983051"></polygon>
                        <polygon id="路径" points="22.7181818 12.0887401 24.6619868 11.0169492 26.7272727 12.1484447 24.7834678 13.220339"></polygon>
                        <polygon id="路径" points="25.3909091 13.4108271 27.3346052 12.3389831 29.4 13.4705289 27.456195 14.5423729"></polygon>
                        <polygon id="路径" points="16.0363636 10.7667062 17.9798915 9.69491525 20.0454545 10.8265141 18.1018178 11.8983051"></polygon>
                        <polygon id="路径" points="18.2636364 12.0887903 20.2072731 11.0169492 22.2727273 12.1484978 20.3291994 13.220339"></polygon>
                        <polygon id="路径" points="20.4909091 13.4107209 22.4345458 12.3389831 24.5 13.4705317 22.5563633 14.5423729"></polygon>
                        <polygon id="路径" points="23.1636364 14.7328051 25.1072203 13.6610169 27.1727273 14.7926186 25.2291433 15.8644068"></polygon>
                        <polygon id="路径" points="11.1363636 10.7667564 13.0798915 9.69491525 15.1454545 10.8265672 13.2019267 11.8983051"></polygon>
                    </g>
                    <g id="编组-2" transform="translate(11.581818, 26.440678)" fill="#218FBD">
                        <polygon id="路径" points="12.4727273 0 12.4703352 0.804674132 10.6909091 1.76271186 10.6933012 0.958037732"></polygon>
                        <polygon id="路径" points="15.1454545 1.3220339 15.1430625 2.12675019 13.3636364 3.08474576 13.3660285 2.27993714"></polygon>
                        <polygon id="路径" points="17.3727273 2.6440678 17.3703353 3.44887642 15.5909091 4.40677966 15.5934007 3.60206337"></polygon>
                        <polygon id="路径" points="19.6 4.40677966 19.5975084 5.21149597 17.8181818 6.16949153 17.8206735 5.36477522"></polygon>
                        <polygon id="路径" points="22.2727273 5.72881356 22.2703353 6.53362219 20.4909091 7.49152542 20.4934007 6.68680912"></polygon>
                        <polygon id="路径" points="24.5 7.05084746 24.497608 7.85556376 22.7181818 8.81355932 22.7206735 8.00884302"></polygon>
                        <polygon id="路径" points="26.2818182 8.37288136 26.2792269 9.17759766 24.5 10.1355932 24.502392 9.33078459"></polygon>
                        <polygon id="路径" points="28.5090909 9.69491525 28.5065993 10.4996817 26.7272727 11.4576271 26.7297644 10.652953"></polygon>
                        <polygon id="路径" points="31.1818182 11.0169492 31.1793265 11.8216233 29.4 12.779661 29.4024917 11.9748946"></polygon>
                        <polygon id="路径" points="8.01818182 0 8.01579026 0.804631986 6.23636364 1.76271186 6.23885484 0.958079879"></polygon>
                        <polygon id="路径" points="10.2454545 1.3220339 10.2429633 2.12666588 8.46363636 3.08474576 8.46602792 2.28002145"></polygon>
                        <polygon id="路径" points="12.9181818 2.6440678 12.9156907 3.44874996 11.1363636 4.40677966 11.1388547 3.60218982"></polygon>
                        <polygon id="路径" points="15.1454545 3.96610169 15.1429635 4.77069153 13.3636364 5.72881356 13.3661274 4.92422373"></polygon>
                        <polygon id="路径" points="17.3727273 5.28813559 17.3702361 6.09272542 15.5909091 7.05084746 15.5934003 6.24616531"></polygon>
                        <polygon id="路径" points="19.6 7.05084746 19.5975089 7.85543729 17.8181818 8.81355932 17.8206729 8.00896949"></polygon>
                        <polygon id="路径" points="22.2727273 8.37288136 22.2703357 9.17751336 20.4909091 10.1355932 20.4934003 9.33086889"></polygon>
                        <polygon id="路径" points="24.5 9.69491525 24.4975088 10.4996396 22.7181818 11.4576271 22.7205734 10.6529951"></polygon>
                        <polygon id="路径" points="26.2818182 11.0169492 26.279327 11.8215812 24.5 12.779661 24.5023916 11.975029"></polygon>
                        <polygon id="路径" points="28.9545455 11.8983051 28.952154 12.7029872 27.1727273 13.6610169 27.175318 12.8563348"></polygon>
                        <polygon id="路径" points="5.79090909 1.3220339 5.78851713 2.12675019 4.00909091 3.08474576 4.01158255 2.28002948"></polygon>
                        <polygon id="路径" points="8.01818182 2.6440678 8.01569003 3.44887642 6.23636364 4.40677966 6.23875573 3.60206337"></polygon>
                        <polygon id="路径" points="10.2454545 3.96610169 10.242963 4.77077583 8.46363636 5.72881356 8.46612788 4.92413943"></polygon>
                        <polygon id="路径" points="12.9181818 5.28813559 12.9157899 6.09280973 11.1363636 7.05084746 11.1388553 6.246081"></polygon>
                        <polygon id="路径" points="15.1454545 6.61016949 15.1429629 7.41493595 13.3636364 8.37288136 13.3660283 7.56820722"></polygon>
                        <polygon id="路径" points="17.3727273 8.37288136 17.3702358 9.17755549 15.5909091 10.1355932 15.5934006 9.33091909"></polygon>
                        <polygon id="路径" points="20.0454545 9.69491525 20.0430626 10.4996396 18.2636364 11.4576271 18.266128 10.6529028"></polygon>
                        <polygon id="路径" points="22.2727273 11.0169492 22.2702356 11.8216233 20.4909091 12.779661 20.493301 11.9749869"></polygon>
                        <polygon id="路径" points="24.5 11.8983051 24.4975083 12.7030715 22.7181818 13.6610169 22.7205738 12.8562505"></polygon>
                        <polygon id="路径" points="26.7272727 13.220339 26.7248808 14.0251476 24.9454545 14.9830508 24.9479462 14.1783345"></polygon>
                        <polygon id="路径" points="3.56363636 2.6440678 3.56114473 3.44878408 1.78181818 4.40677966 1.78430982 3.60197104"></polygon>
                        <polygon id="路径" points="5.79090909 3.96610169 5.78841744 4.77091032 4.00909091 5.72881356 4.01148288 4.92409725"></polygon>
                        <polygon id="路径" points="8.01818182 5.28813559 8.01569017 6.0928519 6.23636364 7.05084746 6.23875559 6.24603883"></polygon>
                        <polygon id="路径" points="10.6909091 6.61016949 10.688517 7.41497812 8.90909091 8.37288136 8.911483 7.56816505"></polygon>
                        <polygon id="路径" points="12.9181818 7.93220339 12.9155905 8.73691969 11.1363636 9.69491525 11.1388553 8.89019895"></polygon>
                        <polygon id="路径" points="15.1454545 9.25423729 15.1430623 10.0589536 13.3636364 11.0169492 13.3660286 10.2121405"></polygon>
                        <polygon id="路径" points="17.8181818 11.0169492 17.8157899 11.8217156 16.0363636 12.779661 16.0388553 11.9749869"></polygon>
                        <polygon id="路径" points="20.0454545 11.8983051 20.0429629 12.7029792 18.2636364 13.6610169 18.266128 12.8562505"></polygon>
                        <polygon id="路径" points="22.2727273 13.220339 22.2702356 14.0251054 20.4909091 14.9830508 20.4934007 14.1783767"></polygon>
                        <polygon id="路径" points="24.9454545 14.5423729 24.9430626 15.3471393 23.1636364 16.3050847 23.166128 15.5004106"></polygon>
                        <polygon id="路径" points="1.78181818 3.96610169 1.77932655 4.77091032 0 5.72881356 0.00249163522 4.92409725"></polygon>
                        <polygon id="路径" points="3.56363636 5.28813559 3.56114473 6.0928519 1.78181818 7.05084746 1.78421015 6.24613115"></polygon>
                        <polygon id="路径" points="5.79090909 6.61016949 5.788517 7.4148858 4.00909091 8.37288136 4.01148301 7.56807273"></polygon>
                        <polygon id="路径" points="8.46363636 7.93220339 8.46124441 8.73701202 6.68181818 9.69491525 6.68430983 8.89019895"></polygon>
                        <polygon id="路径" points="10.6909091 9.25423729 10.6884174 10.0589536 8.90909091 11.0169492 8.91158256 10.2121405"></polygon>
                        <polygon id="路径" points="12.9181818 10.5762712 12.9157899 11.3810798 11.1363636 12.3389831 11.1388553 11.5342667"></polygon>
                        <polygon id="路径" points="15.5909091 11.8983051 15.5885171 12.7029792 13.8090909 13.6610169 13.8115826 12.8562505"></polygon>
                        <polygon id="路径" points="17.8181818 13.220339 17.8155905 14.0250131 16.0363636 14.9830508 16.0388553 14.1782844"></polygon>
                        <polygon id="路径" points="20.0454545 14.5423729 20.0429628 15.347047 18.2636364 16.3050847 18.2660285 15.5004106"></polygon>
                        <polygon id="路径" points="22.7181818 15.8644068 22.7157899 16.6690809 20.9363636 17.6271186 20.9388553 16.8223522"></polygon>
                    </g>
                    <g id="编组-3" transform="translate(9.354545, 26.440678)" fill="#218EBC">
                        <polygon id="路径" points="12.9181818 1.22715483 12.9159308 2.20338983 11.1363636 0.976234996 11.1387084 0"></polygon>
                        <polygon id="路径" points="15.1454545 2.54907671 15.1432036 3.52542373 13.3636364 2.29826889 13.3658873 1.3220339"></polygon>
                        <polygon id="路径" points="17.8181818 3.87122263 17.8158371 4.84745763 16.0363636 3.62041481 16.0387084 2.6440678"></polygon>
                        <polygon id="路径" points="20.0454545 5.19325653 20.0431099 6.16949153 18.2636364 4.94233669 18.265981 3.96610169"></polygon>
                        <polygon id="路径" points="22.2727273 6.5152408 22.2703825 7.49152542 20.4909091 6.26442021 20.4932538 5.28813559"></polygon>
                        <polygon id="路径" points="24.9454545 7.8372747 24.9431098 8.81355932 23.1636364 7.58656613 23.1659811 6.61016949"></polygon>
                        <polygon id="路径" points="27.1727273 9.15919658 27.1704763 10.1355932 25.3909091 8.90848801 25.3932538 7.93220339"></polygon>
                        <polygon id="路径" points="28.9545455 10.4813921 28.9522008 11.4576271 27.1727273 10.2305843 27.1751657 9.25423729"></polygon>
                        <polygon id="路径" points="31.1818182 11.803314 31.1794734 12.779661 29.4 11.5525062 29.402251 10.5762712"></polygon>
                        <polygon id="路径" points="8.46363636 1.2271052 8.46129162 2.20338983 6.68181818 0.976396654 6.68406915 0"></polygon>
                        <polygon id="路径" points="10.6909091 2.54902707 10.6886581 3.52542373 8.90909091 2.29831853 8.91143565 1.3220339"></polygon>
                        <polygon id="路径" points="12.9181818 3.87122263 12.9158371 4.84745763 11.1363636 3.62041481 11.1386146 2.6440678"></polygon>
                        <polygon id="路径" points="15.5909091 5.19325653 15.5885644 6.16949153 13.8090909 4.94244872 13.8114356 3.96610169"></polygon>
                        <polygon id="路径" points="17.8181818 6.5151784 17.8158372 7.49152542 16.0363636 6.26437059 16.0387082 5.28813559"></polygon>
                        <polygon id="路径" points="20.0454545 7.83732432 20.0431098 8.81355932 18.2636364 7.58651651 18.2659811 6.61016949"></polygon>
                        <polygon id="路径" points="22.2727273 9.1592462 22.2703825 10.1355932 20.4909091 8.90843839 20.4931601 7.93220339"></polygon>
                        <polygon id="路径" points="24.9454545 10.4813921 24.9432036 11.4576271 23.1636364 10.2305843 23.1659811 9.25423729"></polygon>
                        <polygon id="路径" points="27.1727273 11.803426 27.1704763 12.779661 25.3909091 11.5525062 25.3932538 10.5762712"></polygon>
                        <polygon id="路径" points="28.9545455 12.6846699 28.9521069 13.6610169 27.1727273 12.4339741 27.1749782 11.4576271"></polygon>
                        <polygon id="路径" points="6.23636364 2.5491391 6.2340189 3.52542373 4.45454545 2.29831853 4.45679643 1.3220339"></polygon>
                        <polygon id="路径" points="8.46363636 3.87112336 8.46138553 4.84745763 6.68181818 3.62040206 6.6842566 2.6440678"></polygon>
                        <polygon id="路径" points="10.6909091 5.19325653 10.6885644 6.16949153 8.90909091 4.94244872 8.91134188 3.96610169"></polygon>
                        <polygon id="路径" points="12.9181818 6.5151784 12.9158371 7.49152542 11.1363636 6.26437059 11.1386146 5.28813559"></polygon>
                        <polygon id="路径" points="15.5909091 7.83732432 15.5886581 8.81355932 13.8090909 7.58651651 13.8114356 6.61016949"></polygon>
                        <polygon id="路径" points="17.8181818 9.15935822 17.8158371 10.1355932 16.0363636 8.90843839 16.0387084 7.93220339"></polygon>
                        <polygon id="路径" points="20.0454545 10.4812801 20.0431098 11.4576271 18.2636364 10.2304723 18.2658873 9.25423729"></polygon>
                        <polygon id="路径" points="22.7181818 11.803426 22.7159308 12.779661 20.9363636 11.5526182 20.9387084 10.5762712"></polygon>
                        <polygon id="路径" points="24.9454545 12.6846699 24.9432036 13.6610169 23.1636364 12.4338621 23.1658873 11.4576271"></polygon>
                        <polygon id="路径" points="27.1727273 14.0068158 27.1703825 14.9830508 25.3909091 13.756008 25.3931601 12.779661"></polygon>
                        <polygon id="路径" points="4.00909091 3.43043265 4.00674617 4.40677966 2.22727273 3.17962483 2.22952368 2.20338983"></polygon>
                        <polygon id="路径" points="6.23636364 5.19325653 6.23411267 6.16949153 4.45454545 4.94244872 4.45689019 3.96610169"></polygon>
                        <polygon id="路径" points="8.46363636 6.5151784 8.46138539 7.49152542 6.68181818 6.26437059 6.68406915 5.28813559"></polygon>
                        <polygon id="路径" points="10.6909091 7.8372747 10.6886581 8.81355932 8.90909091 7.58656613 8.91143565 6.61016949"></polygon>
                        <polygon id="路径" points="13.3636364 9.1593086 13.3612916 10.1355932 11.5818182 8.90860003 11.5840692 7.93220339"></polygon>
                        <polygon id="路径" points="15.5909091 10.4812305 15.5886583 11.4576271 13.8090909 10.2305219 13.8115293 9.25423729"></polygon>
                        <polygon id="路径" points="17.8181818 11.803426 17.8158371 12.779661 16.0363636 11.5526182 16.0387084 10.5762712"></polygon>
                        <polygon id="路径" points="20.4909091 12.6846699 20.4885644 13.6610169 18.7090909 12.4338621 18.7113419 11.4576271"></polygon>
                        <polygon id="路径" points="22.7181818 14.0067662 22.7158372 14.9830508 20.9363636 13.7559456 20.9387082 12.779661"></polygon>
                        <polygon id="路径" points="24.9454545 15.3288497 24.9431098 16.3050847 23.1636364 15.0779299 23.1659811 14.1016949"></polygon>
                        <polygon id="路径" points="1.78181818 4.75257856 1.77947344 5.72881356 0 4.50177075 0.00225095465 3.52542373"></polygon>
                        <polygon id="路径" points="4.00909091 6.51529042 4.00683996 7.49152542 2.22727273 6.26437059 2.22961747 5.28813559"></polygon>
                        <polygon id="路径" points="6.23636364 7.8372123 6.23411267 8.81355932 4.45454545 7.58640449 4.45679643 6.61016949"></polygon>
                        <polygon id="路径" points="8.46363636 9.15935822 8.46129162 10.1355932 6.68181818 8.90855041 6.68416292 7.93220339"></polygon>
                        <polygon id="路径" points="11.1363636 10.4812801 11.1340189 11.4576271 9.35454545 10.2304723 9.35679643 9.25423729"></polygon>
                        <polygon id="路径" points="13.3636364 11.803426 13.3612916 12.779661 11.5818182 11.5527302 11.5841629 10.5762712"></polygon>
                        <polygon id="路径" points="15.5909091 12.6846699 15.5885644 13.6610169 13.8090909 12.4338621 13.8114356 11.4576271"></polygon>
                        <polygon id="路径" points="18.2636364 14.0067038 18.2612918 14.9830508 16.4818182 13.755896 16.4841628 12.779661"></polygon>
                        <polygon id="路径" points="20.4909091 15.3288497 20.4886583 16.3050847 18.7090909 15.0780419 18.7115293 14.1016949"></polygon>
                        <polygon id="路径" points="22.7181818 16.6507716 22.7158371 17.6271186 20.9363636 16.3999638 20.9387084 15.4237288"></polygon>
                    </g>
                </g>
                <path d="M35.1909091,23.0381248 L35.1909091,27.6456672 C35.1909091,27.7065313 35.1629731,27.7494995 35.1071831,27.7601783 C35.051393,27.7708572 34.9782419,27.7471888 34.9050926,27.7002885 L32.8039983,26.3531542 C32.7308676,26.3062659 32.6577183,26.2361155 32.6019078,26.1539 C32.5460973,26.0716846 32.5181818,25.9929052 32.5181818,25.9320256 L32.5181818,22.4745763 L33.0545833,23.198952 L35.1909091,23.0381248 Z M26.7272727,18.5084746 L26.7272727,21.9206653 C26.7272727,21.9795473 26.6993543,22.0211289 26.6435378,22.0314473 C26.5877418,22.0417784 26.5145828,22.0188807 26.4414257,21.9735078 L24.3403925,20.6704213 C24.267254,20.6250599 24.1940969,20.5572105 24.1382804,20.477656 C24.0824435,20.3981052 24.0545455,20.321904 24.0545455,20.2630071 L24.0545455,18.625735 L26.7272727,18.5084746 Z M29.8462724,18.5084746 L31.1818182,20.2966479 L31.1818182,25.0025556 C31.1818182,25.0629225 31.1539055,25.1055526 31.0981005,25.1161312 C31.042316,25.1267228 30.9691721,25.1032478 30.8960301,25.0567307 L28.794879,23.720433 C28.7217555,23.6739277 28.6486136,23.6043673 28.5928086,23.5228066 C28.5369831,23.4412498 28.5090909,23.3631271 28.5090909,23.3027448 L28.5090909,18.5672514 L29.8462724,18.5084746 Z M39.6454545,22.4745763 L39.6454545,30.2898808 C39.6454545,30.3506691 39.6175275,30.3935837 39.5617554,30.4042493 C39.5059833,30.4149148 39.4328555,30.3912759 39.3597297,30.3444341 L37.2584521,28.9984296 C37.1853449,28.9515996 37.112219,28.8815366 37.0564264,28.7994237 C37.0006338,28.7173106 36.9727273,28.6386294 36.9727273,28.5778257 L36.9727273,22.6760254 L39.6454545,22.4745763 Z M40.891801,19.8580572 C40.9148275,19.8730487 40.9378716,19.8954768 40.9554425,19.9217658 C40.9730327,19.9480837 40.9818182,19.9732634 40.9818182,19.9927381 L40.9818182,23.759165 C40.9818182,23.7888949 40.9610773,23.8035999 40.9266018,23.7933725 C40.8921263,23.783145 40.853797,23.7509025 40.8286994,23.713718 L39.2606008,21.3894801 L33.0590688,21.8636596 L29.5736948,17.085972 L24.0545455,17.3401833 L24.0545455,15.6781415 L29.5736913,15.4237288 L33.0590652,20.2018265 L38.1931031,19.8084412 L36.2952183,16.995749 C36.2699414,16.9582813 36.2607604,16.9196975 36.2750189,16.8995404 C36.2892775,16.8793833 36.3228722,16.8834387 36.3583393,16.9065297 L40.891801,19.8580572 Z" id="形状结合" fill="#218AB8"></path>
            </g>
        </g>
    </g>
</svg>