<?xml version="1.0" encoding="UTF-8"?>
<svg width="40px" height="40px" viewBox="0 0 40 40" version="1.1" xmlns="http://www.w3.org/2000/svg" xmlns:xlink="http://www.w3.org/1999/xlink">
    <title>用户群/客户群</title>
    <defs>
        <rect id="path-1" x="0" y="0" width="40" height="40"></rect>
    </defs>
    <g id="山东移动" stroke="none" stroke-width="1" fill="none" fill-rule="evenodd">
        <g id="图标合集" transform="translate(-200.000000, -600.000000)">
            <g id="编组-13" transform="translate(200.000000, 600.000000)">
                <mask id="mask-2" fill="white">
                    <use xlink:href="#path-1"></use>
                </mask>
                <g id="蒙版" opacity="0.200000003"></g>
                <g id="yonghu" mask="url(#mask-2)" fill="#FFFFFF" stroke="#455A74" stroke-width="2">
                    <g transform="translate(1.000000, 6.000000)" id="形状结合">
                        <path d="M18.7121212,4.08 C20.4710661,4.08 21.6636519,4.62167666 22.3471062,5.69893166 C22.9573019,6.66071687 23.1818182,7.9723549 23.1818182,9.52000001 C23.1818182,11.894803 22.5388547,13.8735058 21.0468524,14.8409515 C20.4049585,16.0559839 20.3844347,17.1639421 21.2334346,18.2255696 C21.7284999,18.8446215 22.5493547,19.4688894 23.9016022,19.9110842 C25.2483461,20.378625 26.353558,20.9705612 27.1144629,21.6403495 C27.6825795,22.1404354 28.0757576,22.6719733 28.0757576,23.24 C28.0757576,23.6366006 27.8637587,24.0059533 27.5485457,24.3545601 C27.0991788,24.851533 26.4356469,25.2953437 25.627267,25.6772393 C23.9059876,26.490408 21.5514945,27 19,27 C16.378223,27 13.9631036,26.5343004 12.2286574,25.7149115 C11.4675356,25.3553416 10.843368,24.9327584 10.4237626,24.4399687 C10.115332,24.0777442 9.92424242,23.6791143 9.92424242,23.24 C9.92424242,22.5625912 10.2362577,21.9918214 10.7667006,21.5081412 C11.4674539,20.8691649 12.5122982,20.3787441 13.8104117,19.9999683 C15.3032845,19.516424 16.1382684,18.8594033 16.5883741,18.2027228 C16.9156329,17.7252693 17.0632295,17.2276357 17.0807633,16.7359402 C17.0992162,16.2184709 16.9693781,15.7026593 16.7226994,15.2228042 C15.258673,13.7260718 14.2424243,11.7463731 14.2424243,9.52000002 C14.2424243,7.85631788 14.5462458,6.37162325 15.4031235,5.36273878 C16.1096817,4.53083981 17.1980041,4.08 18.7121212,4.08 Z M10.0757576,1 C10.872053,1 11.5617682,1.15114538 12.114008,1.41970828 C12.3388981,1.52907592 12.5401289,1.65738974 12.7127725,1.80233011 C10.9716184,3.42664333 9.93939394,5.97482823 9.93939394,9.52000002 C9.93939394,11.9681588 10.7447283,14.2205316 11.8723313,15.9636642 L11.955,16.088 L11.6828212,16.1845152 C9.75067713,16.885618 8.40591882,17.709472 7.42542736,18.6469018 L7.24579949,18.8239986 C5.98536011,20.1056665 5.33333335,21.5962354 5.33333335,23.24 C4.1777239,23.0870186 3.19902003,22.6656837 2.44703286,22.1568792 C1.59452973,21.5800643 1,20.9000482 1,20.16 C1,19.5710093 1.41706739,19.0200957 1.99940809,18.5203284 C2.77278641,17.8566118 3.87876974,17.2979169 5.17404803,16.9199683 C6.60331189,16.4570467 7.42837675,15.8397255 7.91243938,15.2119727 C8.63454883,14.2755107 8.68536773,13.2536634 8.45336667,12.3510573 C6.91018816,10.6460718 5.89393939,8.66637309 5.89393939,6.44000002 C5.89393939,4.77479962 6.20037115,3.29088599 7.01542134,2.27793589 C7.67789559,1.45460824 8.68833118,1 10.0757576,1 Z M27.9242424,1 C29.3572499,1 30.4412461,1.48408355 31.1695111,2.3415399 C32.0232645,3.34674583 32.3939394,4.80428401 32.3939394,6.44000002 C32.3939394,8.66637308 31.3776906,10.6460718 30.1058011,11.8831517 C29.602511,13.2536634 29.6533299,14.2755107 30.3754394,15.2119727 C30.859502,15.8397255 31.6845669,16.4570467 33.0855326,16.9112546 C34.4119442,17.2987441 35.4567885,17.7891649 36.1575418,18.4281412 C36.6879847,18.9118214 37,19.4825912 37,20.16 C37,20.9000482 36.4054703,21.5800643 35.5529671,22.1568792 C34.8009162,22.6657268 33.8221102,23.08709 32.6663868,23.3756276 C32.6666667,21.5962354 32.0146399,20.1056665 30.7542005,18.8239986 C29.7306368,17.783196 28.2879868,16.8775769 26.4656172,16.1541283 L26.181,16.044 L26.1990653,16.0205091 C27.3658994,14.3525863 27.9957892,12.2236865 28.0558611,9.89012116 L28.0606061,9.52000002 C28.0606061,5.97457968 27.0282368,3.42628603 25.287285,1.80209229 C25.4599263,1.6573545 25.6611327,1.52906091 25.885992,1.41970828 C26.4382318,1.15114538 27.127947,1 27.9242424,1 Z"></path>
                    </g>
                </g>
            </g>
        </g>
    </g>
</svg>