<?xml version="1.0" encoding="UTF-8"?>
<svg width="60px" height="64px" viewBox="0 0 60 64" version="1.1" xmlns="http://www.w3.org/2000/svg" xmlns:xlink="http://www.w3.org/1999/xlink">
    <title>EBRAS</title>
    <defs>
        <linearGradient x1="26.051126%" y1="36.1067771%" x2="50%" y2="76.5706783%" id="linearGradient-1">
            <stop stop-color="#C1D4EB" offset="0%"></stop>
            <stop stop-color="#E5EBFC" stop-opacity="0" offset="100%"></stop>
        </linearGradient>
        <linearGradient x1="0%" y1="28.5417454%" x2="100%" y2="67.7794749%" id="linearGradient-2">
            <stop stop-color="#D2D5EC" offset="0%"></stop>
            <stop stop-color="#E2F0F7" offset="100%"></stop>
        </linearGradient>
        <linearGradient x1="0.86038767%" y1="48.8074728%" x2="101.737595%" y2="48.8074728%" id="linearGradient-3">
            <stop stop-color="#0979DB" offset="0%"></stop>
            <stop stop-color="#0D7EE0" offset="100%"></stop>
        </linearGradient>
        <linearGradient x1="49.2096659%" y1="48.9567605%" x2="71.6962019%" y2="48.9567605%" id="linearGradient-4">
            <stop stop-color="#107FD6" offset="0%"></stop>
            <stop stop-color="#004CA7" offset="100%"></stop>
        </linearGradient>
        <linearGradient x1="69.3463256%" y1="72.3938445%" x2="30.6536744%" y2="27.6061555%" id="linearGradient-5">
            <stop stop-color="#53BAFF" offset="0%"></stop>
            <stop stop-color="#57BFFF" offset="10%"></stop>
            <stop stop-color="#1E82FF" offset="100%"></stop>
        </linearGradient>
    </defs>
    <g id="页面-1" stroke="none" stroke-width="1" fill="none" fill-rule="evenodd">
        <g id="EBRAS">
            <g id="编组-4备份-6" transform="translate(0.000000, 17.000000)">
                <g id="编组-13" transform="translate(0.000000, 0.870968)">
                    <polygon id="矩形" fill="#A8B4DA" opacity="0.298339844" points="30 13.5860913 60 29.5349811 30 45.483871 0 29.5349811"></polygon>
                    <polygon id="矩形" fill="#FFFFFF" points="30 0 60 15.9488898 30 31.8977796 0 15.9488898"></polygon>
                    <polygon id="矩形" fill="url(#linearGradient-1)" points="30 31.8977796 60 15.9488898 60 20.7101685 30 37.8183253"></polygon>
                    <polygon id="矩形" fill="url(#linearGradient-2)" points="1.80064297e-14 15.9488898 30 31.8977796 30 37.8183253 2.66453526e-14 20.7786569"></polygon>
                </g>
            </g>
            <g id="2.5D图标新2021-3-18_EBRAS备份" transform="translate(10.000000, 0.000000)">
                <path d="M34.1395334,18.9614398 C29.9187077,16.2866107 24.9931177,14.9098019 19.9837212,15.0045844 C8.94478502,15.0045844 0,21.052461 0,28.4997132 C0,35.9469655 8.94478502,41.9948421 19.9837212,41.9948421 C24.9915811,42.0953823 29.9173185,40.7241292 34.1395334,38.0540714 C37.5833697,36.0414477 39.7829248,32.4554429 40,28.4997132 C40.0161435,24.7680447 37.8408237,21.4063261 34.1395334,18.9614398 Z" id="路径" fill="url(#linearGradient-3)" fill-rule="nonzero"></path>
                <path d="M19.9918798,15.3253171 C24.9414427,15.223208 29.8094919,16.5840159 33.9748274,19.2340913 C37.7101096,21.7434278 39.7076736,25.0248678 39.7076736,28.5315047 C39.7076736,32.0381416 37.6613886,35.3034962 33.9585871,37.8450036 C29.7886654,40.4682557 24.9308723,41.8165861 19.9918798,41.7216068 C9.1270808,41.7216068 0.292326431,35.7860609 0.292326431,28.5154192 C0.292326431,21.2447776 9.1270808,15.3253171 19.9918798,15.3253171 Z M19.9918798,15.0679493 C8.94843687,15.0679493 0,21.1160937 0,28.5475902 C0,35.9790868 8.96467722,41.9950601 19.9918798,41.9950601 C24.9964074,42.0933792 29.9183219,40.7221164 34.137231,38.054115 C37.5778527,36.0445138 39.7776199,32.4655035 40,28.5154192 C40,24.7835855 37.7588307,21.421718 34.137231,18.9767234 C29.9198957,16.3018245 24.9991005,14.919682 19.9918798,15.0036073 L19.9918798,15.0679493 Z" id="形状" fill="#309EFF" fill-rule="nonzero"></path>
                <path d="M34.1443633,7.95706781 C29.9223303,5.28233606 24.9946201,3.90702358 19.9837794,4.00488169 C8.93755069,4.00488169 0,10.0456214 0,17.4840856 C0,24.9225497 8.95377129,30.995421 19.9837794,30.995421 C24.9891245,31.0900916 29.9107307,29.7149075 34.1281427,27.0432349 C37.8264396,24.5691021 40,21.2113505 40,17.4840856 C40,13.7568206 37.8264396,10.399069 34.1443633,7.95706781 Z" id="路径-2" fill="#329EFE" fill-rule="nonzero" opacity="0.5"></path>
                <path d="M39.9380434,13 L39.9380434,28.0078179 C39.9300195,28.1265363 39.9300195,28.2456567 39.9380434,28.3643751 C39.7379404,32.3555258 37.5418282,35.9818734 34.0882851,38.0238346 C29.8870324,40.7154556 24.9734583,42.0980946 19.977169,41.9945855 C8.94573065,41.9945855 0,35.8844912 0,28.3805822 L0,28.5102394 L0,15.3824506 C1.93905637,23.1456739 9.77675481,27.3919463 19.4231529,27.5378106 C25.9409894,27.6350535 29.9168697,26.4195175 33.534269,23.9560312 C35.6348214,22.7367925 37.4071588,21.029576 38.6996545,18.9804371 C39.7386602,17.1676569 40.1722809,15.0736127 39.9380434,13 Z" id="路径-3" fill="url(#linearGradient-4)" fill-rule="nonzero"></path>
                <path d="M34.1534714,4.96137839 C29.9359516,2.28862517 25.0141843,0.911817177 20.0081202,1.00437854 C8.94843687,1.00437854 0,7.05247588 0,14.5 C0,21.9475241 8.94843687,27.9956215 20.0081202,27.9956215 C25.0141843,28.0881828 29.9359516,26.7113748 34.1534714,24.0386216 C37.5941913,22.031535 39.7897253,18.4495174 40,14.5 C39.7839787,10.5522402 37.5899654,6.97270375 34.1534714,4.96137839 Z" id="路径-4" fill="url(#linearGradient-5)" fill-rule="nonzero"></path>
                <path d="M20,0.29420848 C24.9471763,0.195026808 29.8124061,1.55557318 33.9772727,4.2029093 C37.711039,6.71219872 39.7077922,9.99357719 39.7077922,13.5001483 C39.7077922,17.0067194 37.6785714,20.3202683 33.9772727,22.8134725 C29.8079775,25.4510401 24.9457971,26.8107338 20,26.7221733 C9.13961039,26.7221733 0.308441558,20.7867387 0.308441558,13.5162335 C0.308441558,6.24572825 9.15584416,0.29420848 20,0.29420848 Z M20,0.00467508551 C8.96103896,0.00467508551 0,6.05270599 0,13.5001483 C0,20.9475906 8.97727273,26.9956215 20,26.9956215 C25.0040325,27.0881819 29.9238023,25.711389 34.1396104,23.0386651 C37.7597403,20.5937165 40,17.231912 40,13.5001483 C40,9.76838455 37.8571429,6.40658014 34.1558442,3.96163147 C29.9354112,1.28584649 25.0095331,-0.0910749035 20,0.00467508551 Z" id="形状-2" fill="#309EFF" fill-rule="nonzero"></path>
                <path d="M40,22 C40,25.4465536 37.9930012,28.7033887 34.3322355,31.1539199 C30.2040206,33.7493443 25.3890484,35.0858913 20.491972,34.9957205 C9.73445862,34.9957205 1,29.1618752 1,22.0158099" id="路径" stroke="#FFFFFF" stroke-width="0.25"></path>
                <path d="M29.6863992,13.5699659 L37,15.1911263 L29.7348337,16.8122867 L29.7348337,16.0989761 L20.4515656,16.0989761 C19.4259102,16.0983749 18.4068579,15.9342142 17.4324853,15.612628 L17.4324853,17.7687713 L18.675636,17.7687713 L15.9955969,22 L13.2671233,17.7849829 L14.510274,17.7849829 L14.510274,12.6134812 L14.510274,12.5324232 C14.5348731,11.871846 14.8193697,11.2480282 15.3013699,10.7977816 L11.3620352,10.7977816 L11.3620352,11.5110922 L4,9.98720137 L11.297456,8.36604096 L11.297456,9.07935154 L20.3708415,9.07935154 C21.3860436,9.07866626 22.3946703,9.24290398 23.3576321,9.56569966 L23.3576321,7.26365188 L22.1144814,7.26365188 L24.7299413,3 L27.5068493,7.21501706 L26.2798434,7.21501706 L26.2798434,12.4837884 C26.2675234,13.1680765 25.9686036,13.8154727 25.4564579,14.2670648 L29.5895303,14.2670648 L29.6863992,13.5699659 Z M20.3385519,14.4940273 C21.9530333,14.4940273 23.2930528,13.6834471 23.276908,12.6945392 C23.2165777,12.1526351 22.8889844,11.6774872 22.4050881,11.4300341 C21.7820448,11.0877886 21.0809025,10.9145717 20.3708415,10.9274744 L20.0156556,10.9274744 C18.5464775,11.024744 17.4001957,11.7704778 17.4001957,12.6945392 L17.4001957,12.6945392 C17.4656522,13.2304565 17.7925237,13.6984792 18.2720157,13.9428328 C18.9060636,14.3018994 19.6274012,14.4759612 20.3546967,14.4453925 L20.3385519,14.4940273 Z" id="形状" fill="#FFFFFF" fill-rule="nonzero"></path>
                <g id="M" transform="translate(15.000000, 30.000000)" fill="#FFFFFF" fill-rule="nonzero">
                    <polygon id="路径" points="0.65 9.23333333 0.65 0.9 3.16666667 0.9 4.66666667 6.56666667 6.16666667 0.9 8.68333333 0.9 8.68333333 9.23333333 7.11666667 9.23333333 7.11666667 2.68333333 5.45 9.23333333 3.78333333 9.23333333 2.11666667 2.68333333 2.11666667 9.23333333"></polygon>
                </g>
            </g>
        </g>
    </g>
</svg>