<?xml version="1.0" encoding="UTF-8"?>
<svg width="40px" height="40px" viewBox="0 0 40 40" version="1.1" xmlns="http://www.w3.org/2000/svg" xmlns:xlink="http://www.w3.org/1999/xlink">
    <title>gNB</title>
    <defs>
        <rect id="path-1" x="0" y="0" width="40" height="40"></rect>
    </defs>
    <g id="山东移动" stroke="none" stroke-width="1" fill="none" fill-rule="evenodd">
        <g id="图标合集" transform="translate(-520.000000, -680.000000)">
            <g id="编组-13" transform="translate(520.000000, 680.000000)">
                <mask id="mask-2" fill="white">
                    <use xlink:href="#path-1"></use>
                </mask>
                <g id="蒙版" opacity="0.200000003"></g>
                <path d="M19.9673895,9.18458731 C22.8392376,9.18458731 25.1666732,11.5120228 25.1666732,14.383871 C25.1666732,16.4980295 23.898048,18.3423673 22.0511354,19.1504064 L21.8435782,19.235885 L27.5414855,37.4953613 L25.6322823,38.0911321 L23.0211239,29.7248581 L16.9111239,29.7248581 L14.3014465,38.0911321 L12.3922432,37.4953613 L18.0902421,19.2355918 C16.1314003,18.478092 14.7666732,16.5759272 14.7666732,14.383871 C14.7666732,11.5121905 17.0953735,9.18458731 19.9673895,9.18458731 Z M19.9668644,19.9357712 L17.4111239,28.1248581 L22.5221239,28.1248581 L19.9668644,19.9357712 Z M33.4132765,8.79485809 C34.1554046,10.5511441 34.5424137,12.4411322 34.5424137,14.3840183 C34.5424137,16.1777928 34.2125186,17.9270596 33.5781358,19.5659483 L33.4132113,19.9733328 L31.9395185,19.3502522 C32.5986035,17.7914025 32.9424137,16.112154 32.9424137,14.3840183 C32.9424137,12.800196 32.6536363,11.2579446 32.0976844,9.81011264 L31.9394532,9.41763008 L33.4132765,8.79485809 Z M6.52017069,8.79516684 L7.99417467,9.41751101 C7.33518358,10.9783122 6.9911239,12.657669 6.9911239,14.3841131 C6.9911239,15.9663848 7.28011025,17.508595 7.83602512,18.9579366 L7.99423976,19.3508694 L6.52010561,19.9729052 C5.77835175,18.2150567 5.3911239,16.3252497 5.3911239,14.3841131 C5.3911239,12.4426072 5.77851215,10.5517634 6.52017069,8.79516684 Z M28.9294249,11.0502789 C29.3343135,12.1205625 29.5462302,13.2414964 29.5462302,14.3843028 C29.5462302,15.4001307 29.3787899,16.3986767 29.0572147,17.359729 L28.9294249,17.7183267 L27.4329282,17.1522015 C27.7704968,16.2598718 27.9462302,15.3303296 27.9462302,14.3843028 C27.9462302,13.5565293 27.8116844,12.7413769 27.5519033,11.9527316 L27.4329282,11.6164041 L28.9294249,11.0502789 Z M11.0042082,11.0502789 L12.5007049,11.6164041 C12.1631363,12.5087337 11.9874029,13.438276 11.9874029,14.3843028 C11.9874029,15.2120762 12.1219488,16.0272287 12.3817299,16.815874 L12.5007049,17.1522015 L11.0042082,17.7183267 C10.5993197,16.6480431 10.3874029,15.5271092 10.3874029,14.3843028 C10.3874029,13.2414964 10.5993197,12.1205625 11.0042082,11.0502789 Z M19.9673895,11.1845873 C18.1997321,11.1845873 16.7666732,12.6169711 16.7666732,14.383871 C16.7666732,15.9158752 17.8510856,17.2188383 19.3212153,17.5195129 L19.4994376,17.5507334 L19.9670143,17.6190848 L20.4345529,17.5508438 C21.9942101,17.3231994 23.1666732,15.9777731 23.1666732,14.383871 C23.1666732,12.6165923 21.7346681,11.1845873 19.9673895,11.1845873 Z M19.966912,12.9845873 C20.7400997,12.9845873 21.3666732,13.6111607 21.3666732,14.3843485 C21.3666732,15.1575363 20.7400997,15.7845873 19.966912,15.7845873 C19.1937242,15.7845873 18.5666732,15.1575363 18.5666732,14.3843485 C18.5666732,13.6111607 19.1937242,12.9845873 19.966912,12.9845873 Z M18.168,2.048 L18.168,3.232 L16.048,3.232 L15.96,4.24 C16.176,4.152 16.352,4.12 16.576,4.12 C17.584,4.12 18.432,4.712 18.432,6 C18.432,7.336 17.424,8.112 16.28,8.112 C15.328,8.112 14.672,7.752 14.2,7.288 L14.848,6.392 C15.184,6.712 15.6,6.96 16.072,6.96 C16.648,6.96 17.008,6.648 17.008,6.032 C17.008,5.432 16.648,5.112 16.136,5.112 C15.808,5.112 15.648,5.176 15.296,5.4 L14.672,4.992 L14.824,2.048 L18.168,2.048 Z M22.216,1.936 C23.088,1.936 23.712,2.304 24.12,2.712 L23.36,3.624 C23.072,3.36 22.76,3.16 22.264,3.16 C21.384,3.16 20.752,3.848 20.752,5.008 C20.752,6.192 21.28,6.88 22.384,6.88 C22.6,6.88 22.824,6.824 22.952,6.728 L22.952,5.768 L22.008,5.768 L22.008,4.6 L24.224,4.6 L24.224,7.384 C23.808,7.784 23.072,8.112 22.24,8.112 C20.584,8.112 19.288,7.072 19.288,5.056 C19.288,3.072 20.624,1.936 22.216,1.936 Z" id="形状结合" fill="#455A74" mask="url(#mask-2)"></path>
            </g>
        </g>
    </g>
</svg>