<?xml version="1.0" encoding="UTF-8"?>
<svg width="60px" height="80px" viewBox="0 0 60 80" version="1.1" xmlns="http://www.w3.org/2000/svg" xmlns:xlink="http://www.w3.org/1999/xlink">
    <title>政企业务编排</title>
    <defs>
        <linearGradient x1="26.051126%" y1="36.1067771%" x2="50%" y2="76.5706783%" id="linearGradient-1">
            <stop stop-color="#C1D4EB" offset="0%"></stop>
            <stop stop-color="#E5EBFC" stop-opacity="0" offset="100%"></stop>
        </linearGradient>
        <linearGradient x1="0%" y1="28.5417454%" x2="100%" y2="67.7794749%" id="linearGradient-2">
            <stop stop-color="#D2D5EC" offset="0%"></stop>
            <stop stop-color="#E2F0F7" offset="100%"></stop>
        </linearGradient>
        <linearGradient x1="34.042026%" y1="26.2554686%" x2="60.4114417%" y2="81.9847055%" id="linearGradient-3">
            <stop stop-color="#2292C2" offset="0%"></stop>
            <stop stop-color="#1F7FA9" offset="100%"></stop>
        </linearGradient>
        <ellipse id="path-4" cx="6.67665425" cy="7.76404889" rx="4.02639804" ry="6.70476868"></ellipse>
        <path d="M9.77797465,4.90625811 C10.0222917,5.34616677 10.2431362,5.81817375 10.43416,6.31731178 C11.7167655,9.66874311 11.1842834,13.0135031 9.26167691,13.9444387 L6.00449339,7.99637064 Z" id="path-6"></path>
        <linearGradient x1="50%" y1="14.952284%" x2="50%" y2="82.107085%" id="linearGradient-8">
            <stop stop-color="#1F7FA9" offset="0%"></stop>
            <stop stop-color="#2292C2" offset="100%"></stop>
        </linearGradient>
        <linearGradient x1="49.6348905%" y1="18.4878429%" x2="50%" y2="88.9056422%" id="linearGradient-9">
            <stop stop-color="#56C2F1" offset="0%"></stop>
            <stop stop-color="#46B8EA" offset="100%"></stop>
        </linearGradient>
        <linearGradient x1="57.7237446%" y1="44.1214858%" x2="50%" y2="54.77216%" id="linearGradient-10">
            <stop stop-color="#54CEF2" offset="0%"></stop>
            <stop stop-color="#76D6FB" offset="100%"></stop>
        </linearGradient>
        <linearGradient x1="100%" y1="50%" x2="1.19919143%" y2="50%" id="linearGradient-11">
            <stop stop-color="#52B8F1" offset="0%"></stop>
            <stop stop-color="#076488" offset="100%"></stop>
        </linearGradient>
        <linearGradient x1="57.7237446%" y1="43.7706056%" x2="50%" y2="55.0570034%" id="linearGradient-12">
            <stop stop-color="#54CEF2" offset="0%"></stop>
            <stop stop-color="#76D6FB" offset="100%"></stop>
        </linearGradient>
        <linearGradient x1="37.3081411%" y1="47.5807669%" x2="56.1410131%" y2="74.932341%" id="linearGradient-13">
            <stop stop-color="#1F7FA9" offset="0%"></stop>
            <stop stop-color="#15739B" offset="100%"></stop>
        </linearGradient>
        <linearGradient x1="50%" y1="0%" x2="50%" y2="67.4189837%" id="linearGradient-14">
            <stop stop-color="#83DFF7" offset="0%"></stop>
            <stop stop-color="#2AA0D2" offset="100%"></stop>
        </linearGradient>
        <polygon id="path-15" points="6.76730643 18.4848485 9.67354839 17.0562754 9.00516936 16.0997067 6.65056452 16.0997067"></polygon>
        <linearGradient x1="47.2701666%" y1="43.5540393%" x2="50%" y2="54.4335066%" id="linearGradient-16">
            <stop stop-color="#4CBCED" offset="0%"></stop>
            <stop stop-color="#3DAEDD" offset="63.5546332%"></stop>
            <stop stop-color="#3BACDB" offset="100%"></stop>
        </linearGradient>
        <linearGradient x1="40.6504596%" y1="8.29006245%" x2="50%" y2="90.6272944%" id="linearGradient-17">
            <stop stop-color="#4CBCED" offset="0%"></stop>
            <stop stop-color="#2E9ECE" offset="24.7569298%"></stop>
            <stop stop-color="#389FCA" offset="67.8294362%"></stop>
            <stop stop-color="#399FCC" offset="100%"></stop>
        </linearGradient>
        <linearGradient x1="29.6786558%" y1="29.8777736%" x2="50.7830256%" y2="72.3323372%" id="linearGradient-18">
            <stop stop-color="#4CBCED" offset="0%"></stop>
            <stop stop-color="#2E9ECE" offset="24.7569298%"></stop>
            <stop stop-color="#3DAAD8" offset="67.8294362%"></stop>
            <stop stop-color="#47B0DE" offset="100%"></stop>
        </linearGradient>
        <linearGradient x1="29.6786558%" y1="16.7367278%" x2="57.3829025%" y2="85.8280615%" id="linearGradient-19">
            <stop stop-color="#4CBCED" stop-opacity="0" offset="0%"></stop>
            <stop stop-color="#2BA3D8" offset="27.9064713%"></stop>
            <stop stop-color="#49B3E0" offset="78.2430555%"></stop>
            <stop stop-color="#4CBCED" stop-opacity="0" offset="100%"></stop>
        </linearGradient>
        <linearGradient x1="50%" y1="14.952284%" x2="50%" y2="82.107085%" id="linearGradient-20">
            <stop stop-color="#1F7FA9" offset="0%"></stop>
            <stop stop-color="#2292C2" offset="100%"></stop>
        </linearGradient>
    </defs>
    <g id="页面-1" stroke="none" stroke-width="1" fill="none" fill-rule="evenodd">
        <g id="政企业务编排">
            <g id="编组-13" transform="translate(0.000000, 33.870968)">
                <polygon id="矩形" fill="#A8B4DA" opacity="0.299874442" points="30 13.5860913 60 29.5349811 30 45.483871 0 29.5349811"></polygon>
                <polygon id="矩形" fill="#FFFFFF" points="30 0 60 15.9488898 30 31.8977796 0 15.9488898"></polygon>
                <polygon id="矩形" fill="url(#linearGradient-1)" points="30 31.8977796 60 15.9488898 60 20.7101685 30 37.8183253"></polygon>
                <polygon id="矩形" fill="url(#linearGradient-2)" points="1.80064297e-14 15.9488898 30 31.8977796 30 37.8183253 2.66453526e-14 20.7786569"></polygon>
            </g>
            <g id="编组-86" transform="translate(3.870968, 0.000000)">
                <g id="编组-81" transform="translate(18.742500, 16.695992)">
                    <path d="M6.04596774,1.71446815 L6.04596774,23.2629402 C6.04596774,24.3736471 6.65964174,25.3934608 7.64101894,25.9136229 L28.1569257,36.7877266 C28.6449029,37.0463705 29.2501589,36.8604592 29.5088028,36.372482 C29.5852649,36.2282228 29.6252419,36.0674359 29.6252419,35.9041657 L29.6252419,15.0862145 C29.6252419,14.0049174 29.0433512,13.0072843 28.1021678,12.4749524 L7.53827635,0.844047421 C7.05755626,0.572152887 6.44744155,0.741439449 6.17554702,1.22215954 C6.09060732,1.37233623 6.04596774,1.5419347 6.04596774,1.71446815 Z" id="Path-98-Copy" fill-opacity="0.295864292" fill="#46B8EA"></path>
                    <g id="Graphic-2" transform="translate(0.000000, 1.788856)">
                        <path d="M2.46317204,1.69046357 L2.46317204,23.1641968 C2.46317204,24.2724996 3.07421766,25.2905157 4.05230967,25.8117366 L24.6393362,36.7824727 C25.1267348,37.0422053 25.7324044,36.8576455 25.9921369,36.3702468 C26.0692761,36.2254922 26.1096237,36.0639849 26.1096237,35.8999594 L26.1096237,14.7673206 C26.1096237,13.672797 25.5135392,12.6651379 24.5542795,12.1380679 L3.94472399,0.814046021 C3.46069194,0.548092226 2.85270829,0.72487958 2.58675449,1.20891163 C2.50567982,1.35646635 2.46317204,1.52210236 2.46317204,1.69046357 Z" id="Path-98" fill-opacity="0.569192526" fill="#53C1F0"></path>
                        <path d="M18.1121044,17.5622228 L24.139086,14.2393354 L24.1291974,13.6603572 L18.1433205,16.9605821 L18.1121044,17.5622228 Z M17.2998404,17.2003656 L17.2998404,19.8576688 L15.2716667,20.9784058 L15.2716667,18.3176351 L17.2998404,17.2003656 Z M23.4713342,16.0861237 L23.4327886,16.6638135 L18.1121044,19.5983233 L18.1323874,19.0307059 L23.4713342,16.0861237 Z" id="Path-152" fill="#FFFFFF" fill-rule="nonzero" transform="translate(19.705376, 17.319381) scale(-1, 1) translate(-19.705376, -17.319381) "></path>
                        <path d="M18.1121044,22.9287917 L24.139086,19.6059043 L24.1291974,19.0269262 L18.1433205,22.327151 L18.1121044,22.9287917 Z M17.2998404,22.5669346 L17.2998404,25.2242377 L15.2716667,26.3449747 L15.2716667,23.684204 L17.2998404,22.5669346 Z M23.4713342,21.4526926 L23.4327886,22.0303824 L18.1121044,24.9648922 L18.1323874,24.3972748 L23.4713342,21.4526926 Z" id="Path-152-Copy-4" fill="#FFFFFF" fill-rule="nonzero" transform="translate(19.705376, 22.685950) scale(-1, 1) translate(-19.705376, -22.685950) "></path>
                        <path d="M18.1121044,27.8074907 L24.139086,24.4846033 L24.1291974,23.9056252 L18.1433205,27.20585 L18.1121044,27.8074907 Z M17.2998404,27.4456336 L17.2998404,30.1029367 L15.2716667,31.2236737 L15.2716667,28.562903 L17.2998404,27.4456336 Z M23.4713342,26.3313916 L23.4327886,26.9090814 L18.1121044,29.8435912 L18.1323874,29.2759738 L23.4713342,26.3313916 Z" id="Path-152-Copy-5" fill="#FFFFFF" fill-rule="nonzero" transform="translate(19.705376, 27.564649) scale(-1, 1) translate(-19.705376, -27.564649) "></path>
                        <g id="Group-42" transform="translate(8.627987, 16.697751) rotate(6.000000) translate(-8.627987, -16.697751) translate(0.886052, 8.471944)">
                            <path d="M8.58922085,14.7343881 C10.8129495,14.7321355 12.6186701,11.7283732 12.6224165,8.02529567 C12.6261512,4.3222181 10.8264952,1.3221053 8.60276646,1.32435619 C8.23746232,1.32472596 7.6000282,1.25744375 6.6904641,1.12250958 C5.27841835,3.86940763 4.57145436,6.1730534 4.56957214,8.03344687 C4.56788557,9.70612963 5.03838721,11.8379948 5.98107707,14.4290425 C7.24181362,14.6330889 8.11119488,14.7348708 8.58922085,14.7343881 Z" id="Oval-Copy-17" fill="url(#linearGradient-3)" opacity="0.479236421" transform="translate(8.595994, 7.928449) rotate(-21.000000) translate(-8.595994, -7.928449) "></path>
                            <g id="Path-160" transform="translate(0.097916, 0.755590)">
                                <mask id="mask-5" fill="white">
                                    <use xlink:href="#path-4"></use>
                                </mask>
                                <use id="Mask" fill="#8ADFFF" transform="translate(6.676654, 7.764049) rotate(-21.000000) translate(-6.676654, -7.764049) " xlink:href="#path-4"></use>
                                <mask id="mask-7" fill="white">
                                    <use xlink:href="#path-6"></use>
                                </mask>
                                <use id="Combined-Shape" fill="#FFFFFF" xlink:href="#path-6"></use>
                            </g>
                        </g>
                    </g>
                </g>
                <g id="编组-85">
                    <g id="编组-83" transform="translate(1.813790, 2.683284)">
                        <g id="编组-82" transform="translate(0.000000, 3.279570)">
                            <polygon id="路径-58" fill="url(#linearGradient-8)" points="0 43.8269795 8.46435484 48.2991202 8.46435484 2.38514174 0 0"></polygon>
                            <polygon id="路径-59" fill="url(#linearGradient-9)" points="8.46435484 48.2991202 16.9287097 43.8269795 16.6264113 0 8.46435484 2.38514174"></polygon>
                        </g>
                        <polygon id="路径-60" fill="url(#linearGradient-10)" points="0 3.27956989 8.46435484 6.55913978 16.6264113 3.27956989 8.46435484 0"></polygon>
                    </g>
                    <g id="编组-84" transform="translate(0.604597, 0.000000)">
                        <polygon id="路径-62" fill="url(#linearGradient-11)" points="0 3.57771261 0 5.0684262 9.67354839 8.64613881 19.3470968 4.77028348 19.3470968 3.57771261 9.67354839 7.15542522"></polygon>
                        <polygon id="矩形" fill="#6CC8F0" points="9.67354839 0 19.3470968 3.57771261 9.67354839 7.15542522 0 3.57771261"></polygon>
                    </g>
                    <polygon id="路径-65" fill="url(#linearGradient-12)" points="1.81379032 39.056696 10.2781452 42.6344086 8.76665323 43.230694 0 39.6529814"></polygon>
                    <polygon id="路径-66" fill="url(#linearGradient-13)" points="-4.11132821e-15 39.6529814 8.76665323 43.230694 8.76665323 44.7214076 0 41.143695"></polygon>
                    <polygon id="路径-67" fill="#55C4F3" points="8.76665323 43.230694 8.76665323 44.7214076 10.2781452 44.1251222 10.2781452 42.6344086"></polygon>
                    <polygon id="路径-68" fill="#136D95" points="3.02298387 50.3861193 3.02298387 43.8269795 8.16205645 46.2121212 8.16205645 53.0694037"></polygon>
                    <polygon id="路径-69" fill="#0D5677" points="3.02298387 50.3861193 8.16205645 46.2121212 8.16205645 53.0694037"></polygon>
                    <polygon id="路径-61" fill="#2084B0" points="11.1850403 11.9257087 12.9988306 11.0312805 12.9988306 15.801564 11.1850403 16.6959922"></polygon>
                    <polygon id="路径-61" fill="#2084B0" points="11.1850403 17.5904203 12.9988306 16.6959922 12.9988306 21.4662757 11.1850403 22.3607038"></polygon>
                    <polygon id="路径-70" fill="#186A8D" points="2.72068548 8.34799609 3.92987903 8.94428152 3.92987903 25.6402737 2.72068548 25.0439883"></polygon>
                </g>
                <g id="Group-13" transform="translate(19.951694, 40.547410)">
                    <path d="M15.1149194,13.2000286 L15.1149194,10.881512 C15.1149194,10.778911 15.0861181,10.6633655 15.0346855,10.560374 C14.983309,10.4574158 14.9135777,10.3755623 14.8408877,10.3327506 L14.1969704,9.95210326 C13.8651542,9.7559524 13.5611157,9.29670918 13.4394049,8.78844403 C13.4204051,8.70872594 13.4005219,8.62917902 13.3798115,8.54983644 C13.2474299,8.04148401 13.3215361,7.5844306 13.556236,7.39149672 L13.9560868,7.06293638 C14.120186,6.92809483 14.1190362,6.68451291 14.0121747,6.47042254 L12.8517998,4.14505817 C12.7450505,3.93111336 12.5719071,3.82876081 12.4651016,3.91646418 L12.0093873,4.29092802 C11.7746734,4.48377438 11.4199173,4.37929855 11.11543,4.01226766 C11.0679376,3.95493203 11.0199543,3.89847513 10.9714804,3.84297621 C10.6633333,3.48941273 10.4648242,2.94317785 10.4648242,2.47445047 L10.4648242,1.67620734 C10.4648242,1.34823686 10.3423562,1.10528817 10.1913395,1.01601565 L8.55099219,0.0463354771 C8.47847051,0.00346477791 8.40890747,0.00305458588 8.35764311,0.0451788881 C8.30632266,0.0873492781 8.2775075,0.168597573 8.2775075,0.271059873 L8.2775075,1.18159153 C8.2775075,1.65031891 8.07967138,1.96300979 7.7708513,1.95241204 C7.72237732,1.95062064 7.6743941,1.95026839 7.62691568,1.95152207 C7.32248448,1.95861474 6.96771437,1.64379763 6.73295839,1.17326884 L6.27730013,0.260053262 C6.17049471,0.0460158585 5.99735131,-0.0563366925 5.89054589,0.0314261111 L4.73017098,0.984914761 C4.62336556,1.07267756 4.62336556,1.31728352 4.73017098,1.53134074 L5.18588532,2.44451023 C5.42058521,2.91492662 5.49508399,3.46020324 5.36268846,3.81205433 C5.34193593,3.86686653 5.32210885,3.922939 5.30309505,3.98018562 C5.18177688,4.34385474 4.87783645,4.4446264 4.54552955,4.24818543 L3.90106534,3.86721478 C3.82854366,3.82434408 3.75898062,3.82393389 3.70766017,3.86610428 C3.65639581,3.90822858 3.62758065,3.98947687 3.62758065,4.09193917 L3.62758065,6.41043596 C3.62801533,6.62366077 3.75032906,6.86830127 3.90106534,6.957408 L4.54552955,7.33837865 C4.87728959,7.53449635 5.18138426,7.99379254 5.30309505,8.50203788 C5.32210885,8.58176426 5.34193593,8.66127802 5.36268846,8.74064546 C5.49508399,9.249026 5.42069739,9.70629003 5.18588532,9.89915761 L4.73017098,10.2735422 C4.62336556,10.361305 4.62336556,10.6059308 4.73017098,10.8199682 L5.89054589,13.1453524 C5.99735131,13.3593105 6.17049471,13.4616631 6.27730013,13.3739795 L6.73295839,12.9994825 C6.96771437,12.806661 7.32248448,12.9111253 7.62691568,13.2781231 C7.6743941,13.3354504 7.72237732,13.3919073 7.7708513,13.4474062 C8.07901235,13.8009978 8.2775075,14.3472046 8.2775075,14.8160112 L8.2775075,15.6141751 C8.2775075,15.9422248 8.40003156,16.1851274 8.55099219,16.2743668 L10.1919985,17.2444365 C10.3430152,17.3337091 10.4654832,17.2331555 10.4654832,17.019732 L10.4654832,16.1094182 C10.4654832,15.6406116 10.6633333,15.3280083 10.9721394,15.3385977 C11.0206134,15.3404089 11.0685966,15.3406819 11.116089,15.339496 C11.4205202,15.3324231 11.7752763,15.6471329 12.0100463,16.1177492 L12.4654802,17.0322387 C12.5722856,17.2462761 12.7454291,17.3486287 12.8521784,17.2608327 L14.0125533,16.3073441 C14.1193587,16.2196407 14.1193587,15.9750348 14.0125533,15.7609973 L13.556895,14.8476233 C13.3221391,14.3771737 13.2476964,13.8319303 13.3800919,13.4800792 C13.4007883,13.425214 13.4206154,13.3691415 13.4396292,13.3118949 C13.5610035,12.9482788 13.8648878,12.8474541 14.1971947,13.0438951 L14.8408877,13.4244099 C14.9135216,13.4675054 14.9831968,13.4680809 15.0346294,13.4260363 C15.086006,13.383899 15.1149194,13.3025503 15.1149194,13.2000286 Z M9.2464223,10.8321675 C8.3499561,10.2980753 7.62317672,8.83020188 7.62317672,7.55370493 C7.62317672,6.27722773 8.3499561,5.67542742 9.2464223,6.20951964 C10.1428746,6.74360359 10.8695985,8.21136494 10.8695985,9.48784214 C10.8695985,10.7643391 10.1428746,11.3662515 9.2464223,10.8321675 Z" id="Fill-1-Copy" fill="#4CBCED"></path>
                    <polygon id="Path-7" fill="#4CBCED" points="0 5.12814217 2.4183871 3.57771261 2.4183871 5.12814217 0.856444898 5.96285435"></polygon>
                    <path d="M2.4183871,1.06357042 L5.5120953,0.222796936 C5.98484783,0.0943175296 6.48107024,0.327242498 6.68427224,0.773012465 L7.25516129,2.0253879 L7.25516129,2.0253879 L4.8645586,3.57771261 L3.3521966,3.57771261 L2.4183871,1.06357042 Z" id="Path-8" fill="#4CBCED"></path>
                    <polygon id="Path-9" fill="#4CBCED" points="4.83677419 1.01293828 8.32531098 0 10.2781452 1.18524789 10.2781452 3.112292 7.11128277 4.17399804 7.11128277 2.25367051"></polygon>
                    <polygon id="Path-10" fill="#4CBCED" points="1.20919355 11.0883168 4.79636822 10.1368524 5.44137097 10.6125846 3.68321629 11.3294233"></polygon>
                    <polygon id="Path-11" fill="#4CBCED" points="10.7385156 6.55913978 9.06895161 10.2536527 10.5057833 11.3294233 12.0919355 10.8769558"></polygon>
                    <g id="Path-12">
                        <use fill="url(#linearGradient-14)" xlink:href="#path-15"></use>
                        <use fill="#4CBCED" xlink:href="#path-15"></use>
                    </g>
                    <polygon id="Path-13" fill="#4CBCED" points="9.06895161 18.4848485 12.5209143 17.493623 12.6965323 16.2896043 10.8827419 14.9071359 9.78493178 15.511172"></polygon>
                    <polygon id="Path-14" fill="url(#linearGradient-16)" points="10.4405563 17.1147656 9.06895161 18.4848485 12.6637799 17.3138761 13.9057258 16.0997067"></polygon>
                    <path d="M11.4873387,11.3888594 L11.4873387,14.3108504 L14.3780632,13.5223859 C14.8131114,13.4037236 15.1149194,13.0085702 15.1149194,12.5576293 L15.1149194,10.7331378 L15.1149194,10.7331378 L11.4873387,11.3888594 Z" id="Path-15" fill="url(#linearGradient-17)"></path>
                    <path d="M9.06895161,5.26752634 L11.320866,4.62411863 C12.2370475,4.362351 13.2106806,4.78327216 13.6476268,5.63002417 L13.7033009,5.73791411 C14.0576937,6.42468691 13.7882464,7.26871836 13.1014736,7.62311113 C13.0071673,7.67177564 12.9076312,7.70955423 12.804785,7.73571828 L10.3980288,8.34799609 L10.3980288,8.34799609 L9.06895161,5.26752634 Z" id="Path-16" fill="url(#linearGradient-18)"></path>
                    <path d="M6.8828734,2.46450258 L10.2491725,1.19257087 C10.4436745,1.49227384 10.5419105,1.68987821 10.5438807,1.78538398 C10.5586222,2.49998211 10.5586222,2.96261399 10.6221397,3.19698291 C10.6961392,3.4700283 10.7830066,3.69034073 10.8827419,3.85792019 L7.61246112,5.36656891 L6.65056452,3.98675467 L6.8828734,2.46450258 Z" id="Path-17" fill="url(#linearGradient-19)"></path>
                    <path d="M11.4873387,14.3925995 L11.4873387,12.0740829 C11.4873387,11.9714819 11.4585375,11.8559363 11.4071049,11.7529449 C11.3557283,11.6499867 11.285997,11.5681332 11.2133071,11.5253215 L10.5693897,11.1446741 C10.2375736,10.9485233 9.93353501,10.48928 9.81182423,9.9810149 C9.79282444,9.90129681 9.77294128,9.82174989 9.75223081,9.74240731 C9.6198493,9.23405488 9.69395546,8.77700147 9.92865536,8.58406759 L10.3285061,8.25550725 C10.4926054,8.1206657 10.4914556,7.87708378 10.3845941,7.66299341 L9.22421914,5.33762904 C9.11746981,5.12368423 8.94432641,5.02133168 8.83752099,5.10903505 L8.38180665,5.48349889 C8.14709273,5.67634525 7.79233664,5.57186942 7.48784935,5.20483853 C7.44035691,5.1475029 7.39237369,5.091046 7.34389971,5.03554708 C7.03575268,4.6819836 6.83724351,4.13574872 6.83724351,3.66702134 L6.83724351,2.86877821 C6.83724351,2.54080773 6.71477554,2.29785904 6.56375882,2.20858652 L4.92341154,1.23890635 C4.85088986,1.19603565 4.78132682,1.19562546 4.73006247,1.23774976 C4.67874202,1.27992015 4.64992685,1.36116844 4.64992685,1.46363074 L4.64992685,2.3741624 C4.64992685,2.84288978 4.45209074,3.15558066 4.14327066,3.14498291 C4.09479667,3.14319151 4.04681346,3.14283926 3.99933504,3.14409294 C3.69490383,3.15118561 3.34013372,2.8363685 3.10537774,2.36583971 L2.64971949,1.45262413 C2.54291407,1.23858673 2.36977066,1.13623418 2.26296524,1.22399698 L1.10259033,2.17748563 C0.995784912,2.26524843 0.995784912,2.50985439 1.10259033,2.72391161 L1.55830467,3.6370811 C1.79300457,4.10749749 1.86750335,4.65277411 1.73510782,5.0046252 C1.71435529,5.0594374 1.69452821,5.11550987 1.6755144,5.17275649 C1.55419623,5.53642561 1.2502558,5.63719727 0.917948903,5.4407563 L0.273484693,5.05978565 C0.200963013,5.01691495 0.131399972,5.01650476 0.0800795262,5.05867515 C0.0288151683,5.10079945 0,5.18204774 0,5.28451004 L0,7.60300683 C0.000434681369,7.81623164 0.122748411,8.06087214 0.273484693,8.14997887 L0.917948903,8.53094952 C1.24970894,8.72706722 1.55380362,9.18636341 1.6755144,9.69460875 C1.69452821,9.77433513 1.71435529,9.85384889 1.73510782,9.93321633 C1.86750335,10.4415969 1.79311675,10.8988609 1.55830467,11.0917285 L1.10259033,11.4661131 C0.995784912,11.5538759 0.995784912,11.7985017 1.10259033,12.0125391 L2.26296524,14.3379232 C2.36977066,14.5518814 2.54291407,14.6542339 2.64971949,14.5665504 L3.10537774,14.1920534 C3.34013372,13.9992319 3.69490383,14.1036962 3.99933504,14.4706939 C4.04681346,14.5280213 4.09479667,14.5844782 4.14327066,14.6399771 C4.45143171,14.9935687 4.64992685,15.5397755 4.64992685,16.0085821 L4.64992685,16.806746 C4.64992685,17.1347957 4.77245091,17.3776983 4.92341154,17.4669377 L6.56441785,18.4370074 C6.71543458,18.5262799 6.83790255,18.4257263 6.83790255,18.2123028 L6.83790255,17.3019891 C6.83790255,16.8331825 7.03575268,16.5205791 7.34455874,16.5311686 C7.39303272,16.5329798 7.44101594,16.5332528 7.48850838,16.5320668 C7.79293959,16.524994 8.14769567,16.8397037 8.38246568,17.3103201 L8.83789958,18.2248096 C8.944705,18.438847 9.11784841,18.5411996 9.22459774,18.4534036 L10.3849726,17.4999149 C10.4917781,17.4122116 10.4917781,17.1676056 10.3849726,16.9535682 L9.92931439,16.0401942 C9.69455841,15.5697446 9.62011572,15.0245011 9.75251125,14.67265 C9.77320769,14.6177849 9.79303477,14.5617124 9.81204858,14.5044658 C9.93342283,14.1408496 10.2373072,14.040025 10.5696141,14.236466 L11.2133071,14.6169807 C11.2859409,14.6600762 11.3556162,14.6606518 11.4070488,14.6186072 C11.4584253,14.5764699 11.4873387,14.4951212 11.4873387,14.3925995 Z M5.61884165,12.0247384 C4.72237546,11.4906462 3.99559607,10.0227727 3.99559607,8.7462758 C3.99559607,7.4697986 4.72237546,6.86799829 5.61884165,7.40209051 C6.51529398,7.93617446 7.24201788,9.40393581 7.24201788,10.680413 C7.24201788,11.95691 6.51529398,12.5588223 5.61884165,12.0247384 Z" id="Fill-1" fill="url(#linearGradient-20)"></path>
                </g>
            </g>
        </g>
    </g>
</svg>