<?xml version="1.0" encoding="UTF-8"?>
<svg width="40px" height="40px" viewBox="0 0 40 40" version="1.1" xmlns="http://www.w3.org/2000/svg" xmlns:xlink="http://www.w3.org/1999/xlink">
    <title>HSS</title>
    <defs>
        <rect id="path-1" x="0" y="0" width="40" height="40"></rect>
    </defs>
    <g id="山东移动" stroke="none" stroke-width="1" fill="none" fill-rule="evenodd">
        <g id="图标合集" transform="translate(-440.000000, -360.000000)">
            <g id="编组-13" transform="translate(440.000000, 360.000000)">
                <mask id="mask-2" fill="white">
                    <use xlink:href="#path-1"></use>
                </mask>
                <g id="蒙版" opacity="0.200000003"></g>
                <g id="编组" mask="url(#mask-2)">
                    <g transform="translate(6.000000, 4.000000)">
                        <path d="M14.3023256,0 C21.0822983,0 28.3730694,1.96996509 28.5992507,6.29239056 L28.6046512,6.5 L28.6048552,17.7175762 C27.9908883,17.2001822 27.3040514,16.7665113 26.5619426,16.4341614 L26.5614618,15.764 C26.404381,15.9224491 26.2307886,16.0752373 26.0419276,16.2223297 C25.3011276,15.9461657 24.5135458,15.7694674 23.6940737,15.706736 C25.4837327,14.9313178 26.5614618,13.9293751 26.5614618,12.8353478 L26.5614618,10.064 C23.9702363,11.9965806 19.2904291,12.9383184 14.755276,12.9970647 L14.3023256,13 C9.7792975,13 5.03717404,12.1206035 2.30919114,10.2539592 L2.04318937,10.064 L2.043,13.473 L2.04485138,13.3634833 C2.04702258,13.1528798 2.04638222,13.0247788 2.04566741,12.9473995 L2.045,12.893 L2.048235,12.9648539 C2.23282497,15.3308889 7.45927208,17.2352509 13.9472097,17.3025094 L14.3023256,17.3043478 C15.7164764,17.3043478 17.0747318,17.2170848 18.3387413,17.056512 C17.5421718,17.5678902 16.8356477,18.2069816 16.2469418,18.944278 C15.6031382,18.9817036 14.9524449,19 14.3023256,19 C9.3821047,19 4.42900174,17.9520292 2.22079328,15.9343804 L2.04318937,15.764 L2.043,19.473 L2.04447862,19.3634833 C2.04694514,19.0686384 2.04579846,18.9354984 2.04479771,18.8768569 L2.044,18.856 L2.048235,18.9648539 C2.23282497,21.3308889 7.45927208,23.2352509 13.9472097,23.3025094 L14.3023256,23.3043478 L14.4196318,23.3041475 L14.4196318,23.3041475 C14.3777692,23.6455084 14.3565891,23.9941938 14.3565891,24.3478261 C14.3565891,24.5670925 14.3647318,24.7844572 14.3807313,24.9996341 L14.3023256,25 C9.3821047,25 4.42900174,23.9520292 2.22079328,21.9343804 L2.04318937,21.764 L2.04318937,25.5 C2.04318937,27.984 7.53119601,30 14.3023256,30 C15.0170769,30 15.7175494,29.9775297 16.3987913,29.9344106 C16.9971108,30.6449838 17.7080715,31.2569853 18.503724,31.7442054 C17.1259381,31.9158325 15.7032728,32 14.3023256,32 C7.52034157,32 0.231518895,30.0280969 0.00539894459,25.7075186 L-2.93098879e-13,25.5 L-2.93098879e-13,6.5 C-2.93098879e-13,2.033 7.41269103,0 14.3023256,0 Z M5.35714286,25 C5.92135402,25 6.37873754,25.4477153 6.37873754,26 C6.37873754,26.5522847 5.92135402,27 5.35714286,27 C4.79293169,27 4.33554817,26.5522847 4.33554817,26 C4.33554817,25.4477153 4.79293169,25 5.35714286,25 Z M5.35714286,19 C5.92135402,19 6.37873754,19.4477153 6.37873754,20 C6.37873754,20.5522847 5.92135402,21 5.35714286,21 C4.79293169,21 4.33554817,20.5522847 4.33554817,20 C4.33554817,19.4477153 4.79293169,19 5.35714286,19 Z M5.35714286,13 C5.92135402,13 6.37873754,13.4477153 6.37873754,14 C6.37873754,14.5522847 5.92135402,15 5.35714286,15 C4.79293169,15 4.33554817,14.5522847 4.33554817,14 C4.33554817,13.4477153 4.79293169,13 5.35714286,13 Z M14.3023256,2 C7.53119601,2 2.04318937,4.014 2.04318937,6.5 C2.04318937,8.984 7.53119601,11 14.3023256,11 C21.0724336,11 26.5614618,8.984 26.5614618,6.5 C26.5614618,4.014 21.0724336,2 14.3023256,2 Z" id="形状结合" fill="#455A74"></path>
                        <path d="M22.9767442,17.39 C26.8298936,17.39 29.9534884,20.5045409 29.9534884,24.3465217 C29.9534884,28.1885026 26.8298936,31.3030435 22.9767442,31.3030435 C19.1235948,31.3030435 16,28.1885026 16,24.3465217 C16,20.5045409 19.1235948,17.39 22.9767442,17.39 Z M23.3333333,27.5747581 C23.3333333,27.5747581 23.3166667,27.02398 22.75,27.1697742 L22.75,27.1697742 L22.4166667,27.5747581 C22.4166667,27.5747581 22.4,28.1093368 22.9166667,27.9797419 L22.9166667,27.9797419 Z M22.5,21.8239871 C22.0666667,21.3542058 21.1666667,22.0669774 21.1666667,22.0669774 C20.7333333,22.4881606 20.1666667,21.9859806 20.1666667,21.9859806 L20.1666667,21.9859806 L19.1666667,24.5778774 L20.0833333,25.3878452 C20.35,24.6588742 21.1666667,25.4688419 21.1666667,25.4688419 C21.8333333,24.739871 22.4166667,25.792829 22.4166667,25.792829 C23.3166667,25.6470348 23.0833333,26.7647903 23.0833333,26.7647903 C23.6,26.9591826 23.5833333,27.4937613 23.5833333,27.4937613 C23.8166667,27.5909574 24.2833333,27.2345716 24.4166667,26.9267839 C24.6333333,26.9105845 25.05,26.6675942 25.0833333,26.3598064 C25.55,26.2302116 25.5833333,25.8738258 25.5833333,25.8738258 C25.5833333,25.8738258 23.6833333,23.7031122 23.4166667,23.4439226 C23.15,23.1847329 22.9166667,23.3629258 22.9166667,23.3629258 C22.9166667,23.3629258 22.35,23.8003084 22,24.0109 C21.65,24.2214916 20.9833333,24.3348871 20.6666667,23.6869129 C20.4166667,22.6339548 22.5833333,22.228971 22.5,21.8239871 Z M22.3333333,26.0358193 L21.5833333,26.9267839 C21.5833333,26.9267839 21.5666667,27.7043529 22.25,27.3317677 L22.25,27.3317677 L22.9166667,26.6027968 C22.9166667,26.6027968 22.9,26.0358193 22.3333333,26.0358193 L22.3333333,26.0358193 Z M22,25.9548226 C22,25.9548226 22.0166667,25.242051 21.3333333,25.4688419 L21.3333333,25.4688419 L20.75,26.2788097 C20.75,26.2788097 20.75,26.9429832 21.3333333,26.7647903 L21.3333333,26.7647903 Z M20.9166667,25.7118323 C20.9166667,25.7118323 20.8,25.0800574 20.25,25.4688419 L20.25,25.4688419 L19.9166667,25.792829 C19.9166667,25.792829 19.9,26.4570026 20.4166667,26.2788097 L20.4166667,26.2788097 Z M24.4166667,22.0669774 C23.8833333,21.7105916 23.25,21.9049839 23.25,21.9049839 L23.25,21.9049839 L21.1666667,23.281929 C20.7666667,23.9299032 21.5833333,23.8489065 21.5833333,23.8489065 L21.5833333,23.8489065 L23.1666667,22.8769451 L25.9166667,25.7118322 C26.9833333,24.9180639 26.75,24.5778774 26.75,24.5778774 L26.75,24.5778774 L25.5,22.3909645 C24.9666667,22.6987523 24.4166667,22.0669774 24.4166667,22.0669774 Z M19.25,21.5 L18,24.2538903 L18.5833333,24.5778774 L19.9166667,21.9049839 L19.25,21.5 Z M26.6666667,21.5809968 L25.9166667,22.1479742 L27.3333333,24.5778774 L28,24.1728936 L26.6666667,21.5809968 Z" id="形状结合" fill="#455A74"></path>
                        <g id="woshou" stroke-width="1" fill="none" transform="translate(19.000000, 2.000000)"></g>
                    </g>
                </g>
            </g>
        </g>
    </g>
</svg>