<?xml version="1.0" encoding="UTF-8"?>
<svg width="60px" height="68px" viewBox="0 0 60 68" version="1.1" xmlns="http://www.w3.org/2000/svg" xmlns:xlink="http://www.w3.org/1999/xlink">
    <title>HSS</title>
    <defs>
        <linearGradient x1="26.051126%" y1="36.1067771%" x2="50%" y2="76.5706783%" id="linearGradient-1">
            <stop stop-color="#C1D4EB" offset="0%"></stop>
            <stop stop-color="#E5EBFC" stop-opacity="0" offset="100%"></stop>
        </linearGradient>
        <linearGradient x1="0%" y1="28.5417454%" x2="100%" y2="67.7794749%" id="linearGradient-2">
            <stop stop-color="#D2D5EC" offset="0%"></stop>
            <stop stop-color="#E2F0F7" offset="100%"></stop>
        </linearGradient>
        <linearGradient x1="49.1176471%" y1="0.831244779%" x2="49.1176471%" y2="100.914787%" id="linearGradient-3">
            <stop stop-color="#53BAFF" offset="0%"></stop>
            <stop stop-color="#57BFFF" offset="10%"></stop>
            <stop stop-color="#1E82FF" offset="100%"></stop>
        </linearGradient>
        <linearGradient x1="67.8186433%" y1="22.8909166%" x2="31.7388649%" y2="43.5524679%" id="linearGradient-4">
            <stop stop-color="#57BFFF" offset="0%"></stop>
            <stop stop-color="#1E82FF" offset="100%"></stop>
        </linearGradient>
        <linearGradient x1="68.3895478%" y1="44.2585693%" x2="29.6608599%" y2="24.3237705%" id="linearGradient-5">
            <stop stop-color="#107FD6" offset="0%"></stop>
            <stop stop-color="#004CA7" offset="100%"></stop>
        </linearGradient>
    </defs>
    <g id="页面-1" stroke="none" stroke-width="1" fill="none" fill-rule="evenodd">
        <g id="HSS">
            <g id="编组-135备份" transform="translate(0.000000, 21.000000)">
                <g id="编组-13" transform="translate(0.000000, 0.870968)">
                    <polygon id="矩形" fill="#A8B4DA" opacity="0.298339844" points="30 13.5860913 60 29.5349811 30 45.483871 0 29.5349811"></polygon>
                    <polygon id="矩形" fill="#FFFFFF" points="30 0 60 15.9488898 30 31.8977796 0 15.9488898"></polygon>
                    <polygon id="矩形" fill="url(#linearGradient-1)" points="30 31.8977796 60 15.9488898 60 20.7101685 30 37.8183253"></polygon>
                    <polygon id="矩形" fill="url(#linearGradient-2)" points="1.80064297e-14 15.9488898 30 31.8977796 30 37.8183253 2.66453526e-14 20.7786569"></polygon>
                </g>
            </g>
            <g transform="translate(11.000000, 0.000000)">
                <polygon id="Fill-3-2" fill="url(#linearGradient-3)" points="0 6.33333333 21.3129085 19 38 10.5714286 18.1151961 0"></polygon>
                <polygon id="Fill-2-2" fill="url(#linearGradient-4)" opacity="0.9" points="21 18.3691414 21 48 39 38.6063874 39 10"></polygon>
                <polygon id="Fill-1-2" fill="url(#linearGradient-5)" points="0 35.4187779 21 48 21 18.5812221 0 6"></polygon>
                <line x1="22" y1="19" x2="39" y2="11" id="路径-7" stroke="#FFFFFF" stroke-width="0.5"></line>
                <line x1="22" y1="19" x2="1" y2="6" id="路径-7-3" stroke="#FFFFFF" stroke-width="0.5"></line>
                <path d="M25.7645309,22.3180913 L24.8822892,22.9043421 C24.7118274,23.0165679 24.4880578,23.0311723 24.3023217,22.9421937 C24.1165856,22.8532151 23.9999588,22.6755408 24.0000476,22.4816962 L24.0000476,21.1183223 C23.9976591,20.9461542 24.085332,20.7835718 24.235312,20.6820426 L25.1175537,20.0957919 C25.2901764,19.9820357 25.5173243,19.9685456 25.7041886,20.0609524 C25.8910528,20.1533591 26.0055132,20.3357787 25.9997953,20.5320715 L25.9997953,21.8954454 C25.9998722,22.0633525 25.9121839,22.2208819 25.7645309,22.3180913" id="Fill-10" fill="#FFFFFF" fill-rule="nonzero"></path>
                <polygon id="Fill-8" fill="#FFFFFF" fill-rule="nonzero" points="38 22.7065217 22 32 22 29.3097826 38 20"></polygon>
                <polygon id="Fill-8-2" fill="#FFFFFF" fill-rule="nonzero" points="38 28.7065217 22 38 22 35.3097826 38 26"></polygon>
                <polygon id="Fill-8-3" fill="#FFFFFF" fill-rule="nonzero" points="38 34.7065217 22 44 22 41.3097826 38 32"></polygon>
                <line x1="22.03" y1="19" x2="21.97" y2="48" id="路径-7-2" stroke="#FFFFFF" stroke-width="0.5"></line>
                <path d="M8.13170964,22.7621489 L10.4300248,22.0499015 C11.0729102,21.8528969 11.892589,22.2469061 12.6319072,23.0955412 L16.3124259,27.3084084 C16.5311752,27.5617766 16.7852769,27.7860727 17.0678162,27.9751932 L17.6624852,28.3692023 C17.8602739,28.5176062 17.9827617,28.7375911 18,28.9753703 L18,28.9753703 L18,34.74912 C18,34.9764329 17.8392787,35.0673581 17.6624852,34.9461246 L16.8749506,34.4308818 C16.7864797,34.3592267 16.6673331,34.3311413 16.5535079,34.3551108 L16.3767145,34.4308818 C16.3767145,34.4308818 16.2802816,34.4308818 16.2320652,34.3248024 L11.9568776,24.8231199 C11.8443726,24.5806527 11.651507,24.4139565 11.5068578,24.4291107 L9.54605744,24.5048817 C9.01694573,24.4514937 8.54304068,24.1722196 8.26028671,23.7471718 C8.04567537,23.49646 7.95764644,23.1699883 8.0192047,22.853074 C8.0192047,22.7823545 8.05134897,22.7368919 8.1156375,22.7166863 L8.13170964,22.7621489 Z" id="路径" fill="#FFFFFF" fill-rule="nonzero"></path>
                <path d="M5.23935471,26.8231932 L5.8826205,27.299467 L6.33141059,26.839069 C6.75028134,26.4421741 7.46834548,26.839069 7.96201457,27.8233682 C8.13715628,28.1724296 8.26315849,28.5468415 8.33600631,28.9346738 C8.73114253,29.4289969 8.99455256,30.0264476 9.09894946,30.6651353 C9.39141548,31.0324918 9.61028872,31.4592331 9.74221525,31.9193231 C10.0125432,32.1836636 10.2311302,32.5019524 10.385481,32.8559949 C10.7872574,33.5358852 10.8648117,34.3765582 10.5949164,35.1262335 L10.5949164,35.1262335 L10.5949164,35.1262335 C10.8941098,35.6501347 11.2980209,35.8406442 11.5074563,35.5707557 L11.5074563,35.5707557 C11.6244789,35.3779933 11.6623012,35.142896 11.6121739,34.9198482 L11.6121739,34.9198482 L11.6121739,34.9198482 L11.6121739,35.0309787 C11.8515287,35.5231283 12.1956011,35.8406442 12.4798348,35.7930168 C12.7640685,35.7453894 12.7939878,35.4437494 12.7491088,35.0309787 L12.7491088,35.0309787 L12.7491088,35.1262335 C12.9735039,35.6342589 13.3325359,35.9517748 13.60181,35.8882716 C13.8710841,35.8247684 13.9309227,35.5548799 13.8860437,35.1421093 L13.8860437,35.1421093 L13.8860437,35.2532398 C14.1104388,35.7136379 14.4245918,36.0152779 14.6938659,35.9994022 C14.9631399,35.9835264 15.097777,35.4278736 14.9182609,34.8404692 L14.8285029,34.6499597 L14.4395515,33.6339088 L11.2980209,25.600757 C11.2980209,25.5213781 11.1933032,25.4578749 11.1484242,25.4578749 L9.65245724,25.5690054 C8.99115677,25.5001549 8.39328195,25.1217902 8.02185325,24.5370788 C7.70828453,24.1366204 7.4879225,23.663468 7.37858746,23.1558847 C7.2771722,22.7517755 7.31978462,22.3221666 7.49826482,21.9493244 C7.49826482,21.9493244 7.49826482,21.7429391 7.49826482,21.6318085 L7.49826482,21.6318085 L7.42346647,21.6318085 L5.29919339,20.0442291 C5.13463703,19.9330986 5,20.0442291 5,20.2347386 L5,26.2834162 C5.03771495,26.4811531 5.11982239,26.6663164 5.23935471,26.8231932 L5.23935471,26.8231932 Z" id="路径" fill="#FFFFFF" fill-rule="nonzero"></path>
                <path d="M7.4320843,28.3796804 C7.16630781,28.0286118 6.81747616,27.896961 6.61814379,28.0871232 L6.1364239,28.4967033 C5.9204805,28.6868655 5.97031359,29.1695849 6.21947905,29.579165 L6.21947905,29.579165 L6.21947905,29.6961879 C6.34771989,29.9396464 6.60119703,30.1138629 6.90053131,30.1642795 C6.90053131,30.1642795 6.90053131,30.1642795 6.90053131,30.1642795 L6.90053131,30.1642795 C6.86264407,30.4603978 6.93868343,30.7591474 7.11647471,31.0126954 L7.11647471,31.1004626 C7.23947427,31.3473013 7.48445793,31.5306764 7.78091594,31.5978099 L7.78091594,31.5978099 L7.78091594,31.5978099 C7.77929689,31.8855711 7.8653405,32.1684495 8.0300814,32.4169701 L8.0300814,32.4169701 C8.21280274,32.7241552 8.47857923,32.9143174 8.69452263,32.8996895 C8.91046603,32.8850616 8.69452263,32.8996895 8.69452263,32.8996895 L8.69452263,32.8996895 L8.69452263,32.8996895 C8.72996841,33.117118 8.81470319,33.3260496 8.94368809,33.5140597 L8.94368809,33.5140597 C9.20946458,33.9382676 9.60812932,34.113802 9.82407272,33.9236398 L9.82407272,33.9236398 L9.82407272,33.9236398 L9.90712787,33.791989 C10.0638195,33.449914 10.0203842,33.0619535 9.79085066,32.7534109 C9.59151829,32.4315979 9.3257418,32.21218 9.09318737,32.1975522 L9.09318737,32.1975522 L9.09318737,32.1975522 C9.08784431,31.7626102 8.87721135,31.3492419 8.51180129,31.056579 C8.43563223,31.0107265 8.35146877,30.9761394 8.26263583,30.954184 C8.23889763,30.917977 8.23889763,30.8733681 8.26263583,30.8371611 C8.35321743,30.4184479 8.23189903,29.9857688 7.93041522,29.6523043 L7.93041522,29.6523043 C7.80601687,29.4949699 7.61397164,29.3892717 7.39886224,29.3597471 C7.37809131,29.328066 7.37809131,29.2890332 7.39886224,29.2573521 C7.5410728,28.9081928 7.47894671,28.5197594 7.23275193,28.218774 L7.23275193,28.218774 L7.4320843,28.3796804 Z" id="路径" fill="#FFFFFF" fill-rule="nonzero"></path>
            </g>
        </g>
    </g>
</svg>