<?xml version="1.0" encoding="UTF-8"?>
<svg width="60px" height="63px" viewBox="0 0 60 63" version="1.1" xmlns="http://www.w3.org/2000/svg" xmlns:xlink="http://www.w3.org/1999/xlink">
    <title>IPRAN</title>
    <defs>
        <linearGradient x1="26.051126%" y1="36.1067771%" x2="50%" y2="76.5706783%" id="linearGradient-1">
            <stop stop-color="#C1D4EB" offset="0%"></stop>
            <stop stop-color="#E5EBFC" stop-opacity="0" offset="100%"></stop>
        </linearGradient>
        <linearGradient x1="0%" y1="28.5417454%" x2="100%" y2="67.7794749%" id="linearGradient-2">
            <stop stop-color="#D2D5EC" offset="0%"></stop>
            <stop stop-color="#E2F0F7" offset="100%"></stop>
        </linearGradient>
        <linearGradient x1="37.7959654%" y1="106.424332%" x2="59.6384137%" y2="2.84866469%" id="linearGradient-3">
            <stop stop-color="#57BFFF" offset="0%"></stop>
            <stop stop-color="#1E82FF" offset="100%"></stop>
        </linearGradient>
        <linearGradient x1="32.3525621%" y1="42.2017804%" x2="63.8306503%" y2="53.3560831%" id="linearGradient-4">
            <stop stop-color="#107FD6" offset="0%"></stop>
            <stop stop-color="#004CA7" offset="100%"></stop>
        </linearGradient>
        <linearGradient x1="57.3968254%" y1="53.4223885%" x2="37.3968254%" y2="44.7905064%" id="linearGradient-5">
            <stop stop-color="#53BAFF" offset="0%"></stop>
            <stop stop-color="#57BFFF" offset="10%"></stop>
            <stop stop-color="#1E82FF" offset="100%"></stop>
        </linearGradient>
        <linearGradient x1="-3407.00081%" y1="1103.48665%" x2="-3405.26728%" y2="1108.23442%" id="linearGradient-6">
            <stop stop-color="#57BFFF" offset="0%"></stop>
            <stop stop-color="#1E82FF" offset="100%"></stop>
        </linearGradient>
        <linearGradient x1="-3320.53573%" y1="1107.8635%" x2="-3318.03747%" y2="1107.34421%" id="linearGradient-7">
            <stop stop-color="#107FD6" offset="0%"></stop>
            <stop stop-color="#004CA7" offset="100%"></stop>
        </linearGradient>
    </defs>
    <g id="页面-1" stroke="none" stroke-width="1" fill="none" fill-rule="evenodd">
        <g id="IPRAN">
            <g id="编组-135备份" transform="translate(0.000000, 16.000000)">
                <g id="编组-13" transform="translate(0.000000, 0.870968)">
                    <polygon id="矩形" fill="#A8B4DA" opacity="0.298339844" points="30 13.5860913 60 29.5349811 30 45.483871 0 29.5349811"></polygon>
                    <polygon id="矩形" fill="#FFFFFF" points="30 0 60 15.9488898 30 31.8977796 0 15.9488898"></polygon>
                    <polygon id="矩形" fill="url(#linearGradient-1)" points="30 31.8977796 60 15.9488898 60 20.7101685 30 37.8183253"></polygon>
                    <polygon id="矩形" fill="url(#linearGradient-2)" points="1.80064297e-14 15.9488898 30 31.8977796 30 37.8183253 2.66453526e-14 20.7786569"></polygon>
                </g>
            </g>
            <g id="Group-18" transform="translate(11.000000, -0.000000)">
                <polygon id="Fill-6" fill="url(#linearGradient-3)" opacity="0.9" points="39.1230769 20.7384615 19.7384615 31.9076923 19.7384615 22.3384615 39.1230769 11.1692308"></polygon>
                <polygon id="Fill-7" fill="url(#linearGradient-4)" points="4.48188495e-13 21.1692308 19.4 32.3384615 19.4 22.7692308 4.48188495e-13 11.6"></polygon>
                <path d="M24.0769231,26.2461538 L23.0615385,26.9846154 C22.8628412,27.1229996 22.6034502,27.1386793 22.3895305,27.025237 C22.1756108,26.9117947 22.0430695,26.6882722 22.0461538,26.4461538 L22.0461538,24.8 C22.0424941,24.5890792 22.1396466,24.3890594 22.3076923,24.2615385 L23.3230769,23.5384615 C23.521975,23.3909515 23.7876815,23.3700868 24.0071664,23.484743 C24.2266513,23.5993993 24.3613048,23.8294073 24.3538462,24.0769231 L24.3538462,25.7076923 C24.3514318,25.9207605 24.2488344,26.1202555 24.0769231,26.2461538" id="Fill-10" fill="#FFFFFF" fill-rule="nonzero"></path>
                <path d="M28.7846154,23.7692308 L27.7692308,24.4923077 C27.5636645,24.6368546 27.292938,24.6491056 27.0751564,24.5237162 C26.8573748,24.3983268 26.7320465,24.1580442 26.7538462,23.9076923 L26.7538462,22.3692308 C26.7501864,22.15831 26.8473389,21.9582902 27.0153846,21.8307692 L28.0307692,21.1076923 C28.2274373,20.9620015 28.4895413,20.9399349 28.7077999,21.0506929 C28.9260585,21.161451 29.063004,21.3860203 29.0615501,21.6307692 L29.0615501,23.2769231 C29.0591241,23.4899913 28.9565267,23.6894863 28.7846154,23.8153846" id="Fill-10-2" fill="#FFFFFF" fill-rule="nonzero"></path>
                <path d="M32.9076923,21.2923077 L31.8923077,22.0153846 C31.6936104,22.1537688 31.4342195,22.1694485 31.2202997,22.0560062 C31.00638,21.942564 30.8738387,21.7190414 30.8769231,21.4769231 L30.8769231,19.8461538 C30.8881059,19.6159591 31.0156386,19.4072693 31.2153846,19.2923077 L32.2307692,18.5692308 C32.4271978,18.4324337 32.683157,18.4154354 32.8959501,18.5250561 C33.1087432,18.6346768 33.2435004,18.8529532 33.2461538,19.0923077 L33.2461538,20.8307692 C33.2437395,21.0438374 33.1411421,21.2433324 32.9692308,21.3692308" id="Fill-10-3" fill="#FFFFFF" fill-rule="nonzero"></path>
                <path d="M37.2,18.9692308 L36.1846154,19.6923077 C35.9879473,19.8379985 35.7258433,19.8600651 35.5075847,19.7493071 C35.2893261,19.638549 35.1523806,19.4139797 35.1538345,19.1692308 L35.1538345,17.5230769 C35.1586606,17.3148456 35.2612628,17.1210415 35.4307692,17 L36.4461538,16.2153846 C36.6448511,16.0770004 36.9042421,16.0613207 37.1181618,16.174763 C37.3320815,16.2882053 37.4646228,16.5117278 37.4615385,16.7538462 L37.4615385,18.4 C37.462767,18.6060909 37.3656099,18.8004052 37.2,18.9230769" id="Fill-10-4" fill="#FFFFFF" fill-rule="nonzero"></path>
                <path d="M24.0769231,37.8769231 L23.0615385,38.6 C22.8651099,38.7367971 22.6091507,38.7537954 22.3963576,38.6441747 C22.1835645,38.534554 22.0488073,38.3162776 22.0461538,38.0769231 L22.0461538,36.4307692 C22.042355,36.224088 22.140068,36.028662 22.3076923,35.9076923 L23.3230769,35.1692308 C23.521975,35.0217207 23.7876815,35.000856 24.0071664,35.1155123 C24.2266513,35.2301686 24.3613048,35.4601766 24.3538462,35.7076923 L24.3538462,37.3384615 C24.3514318,37.5515297 24.2488344,37.7510247 24.0769231,37.8769231" id="Fill-12" fill="#FFFFFF" fill-rule="nonzero"></path>
                <polygon id="Fill-14" fill="url(#linearGradient-5)" points="0.353846154 11.1692308 19.7384615 22.3384615 39.1230769 11.1692308 19.7384615 -1.36642834e-14"></polygon>
                <line x1="19.6615385" y1="22.4153846" x2="39.2769231" y2="11.1692308" id="路径-7" stroke="#FFFFFF" stroke-width="0.5"></line>
                <line x1="19.6615385" y1="22.4153846" x2="0.430769231" y2="11.1692308" id="路径-7-2" stroke="#FFFFFF" stroke-width="0.5"></line>
                <polygon id="Fill-6-2" fill="url(#linearGradient-6)" opacity="0.9" points="39.3076923 30.7846154 19.9230769 41.9538462 19.9230769 32.3846154 39.3076923 21.2153846"></polygon>
                <polygon id="Fill-7-2" fill="url(#linearGradient-7)" points="4.48188495e-13 30.5076923 19.4 41.6769231 19.4 32.1076923 4.48188495e-13 20.9384615"></polygon>
                <line x1="19.6615385" y1="22.4153846" x2="19.6615385" y2="41.9538462" id="路径-7-3" stroke="#FFFFFF" stroke-width="0.5"></line>
                <line x1="19.4153846" y1="32.1230769" x2="0.184615385" y2="20.8769231" id="路径-7-4" stroke="#FFFFFF" stroke-width="0.5"></line>
                <path d="M24.0769231,35.9230769 L23.0615385,36.6615385 C22.8628412,36.7999227 22.6034502,36.8156024 22.3895305,36.7021601 C22.1756108,36.5887178 22.0430695,36.3651953 22.0461538,36.1230769 L22.0461538,34.4769231 C22.0449253,34.2708321 22.1420824,34.0765179 22.3076923,33.9538462 L23.3230769,33.2307692 C23.519745,33.0850784 23.781849,33.0630118 24.0001076,33.1737699 C24.2183662,33.284528 24.3553117,33.5090973 24.3538578,33.7538462 L24.3538578,35.4 C24.3490317,35.6082314 24.2464296,35.8020355 24.0769231,35.9230769" id="Fill-10-5" fill="#FFFFFF" fill-rule="nonzero"></path>
                <path d="M28.7846154,33.4461538 L27.7692308,34.1692308 C27.5728022,34.3060279 27.316843,34.3230261 27.1040499,34.2134054 C26.8912568,34.1037847 26.7564996,33.8855083 26.7538462,33.6461538 L26.7538462,32 C26.7500473,31.7933188 26.8477603,31.5978927 27.0153846,31.4769231 L28.0307692,30.7384615 C28.2296674,30.5909515 28.4953738,30.5700868 28.7148587,30.684743 C28.9343436,30.7993993 29.0689971,31.0294073 29.0615385,31.2769231 L29.0615385,32.9230769 C29.056724,33.1313083 28.9541219,33.3251124 28.7846154,33.4461538" id="Fill-10-6" fill="#FFFFFF" fill-rule="nonzero"></path>
                <path d="M32.9076923,30.9692308 L31.8923077,31.6923077 C31.6958792,31.8291048 31.4399199,31.846103 31.2271268,31.7364823 C31.0143337,31.6268616 30.8795765,31.4085853 30.8769231,31.1692308 L30.8769231,29.5230769 C30.8817375,29.3148456 30.9843397,29.1210415 31.1538462,29 L32.1692308,28.2615385 C32.3679281,28.1231543 32.627319,28.1074746 32.8412387,28.2209168 C33.0551585,28.3343591 33.1876997,28.5578817 33.1846154,28.8 L33.1846154,30.4461538 C33.179801,30.6543852 33.0771988,30.8481893 32.9076923,30.9692308" id="Fill-10-7" fill="#FFFFFF" fill-rule="nonzero"></path>
                <path d="M37.2,28.6615385 L36.1846154,29.3846154 C35.9857173,29.5321254 35.7200108,29.5529902 35.5005259,29.4383339 C35.2810411,29.3236776 35.1463875,29.0936696 35.1538462,28.8461538 L35.1538462,27.2153846 C35.1562605,27.0023164 35.2588579,26.8028214 35.4307692,26.6769231 L36.4461538,25.9538462 C36.6448511,25.8154619 36.9042421,25.7997823 37.1181618,25.9132245 C37.3320815,26.0266668 37.4646228,26.2501894 37.4615385,26.4923077 L37.4615385,28.1230769 C37.4651982,28.3339977 37.3680458,28.5340175 37.2,28.6615385" id="Fill-10-8" fill="#FFFFFF" fill-rule="nonzero"></path>
                <line x1="19.6615385" y1="32.1846154" x2="39.2769231" y2="20.9384615" id="路径-7-5" stroke="#FFFFFF" stroke-width="0.5"></line>
                <path d="M11.954147,12.6602828 C12.4610541,13.5414985 13.1249978,14.3612707 13.922622,15.0794548 C14.7203972,15.7977748 15.6055476,16.3727219 16.5342248,16.7842393 L15.9811979,17.851464 C14.9572588,17.397734 13.9854391,16.7664911 13.1118502,15.9799081 C12.2384288,15.193476 11.5094754,14.2934362 10.9506612,13.3219843 L11.954147,12.6602828 Z M13.8251819,11.4911304 C14.3320891,12.3723461 14.9960327,13.1921183 15.793657,13.9103024 C16.5914322,14.6286224 17.4765825,15.2035695 18.4052598,15.6150869 L17.8522328,16.6823116 C16.8282937,16.2285816 15.8564741,15.5973387 14.9828852,14.8107557 C14.1094638,14.0243236 13.3805104,13.1242838 12.8216962,12.1528319 L13.8251819,11.4911304 Z M15.6962169,10.321978 C16.203124,11.2031937 16.8670677,12.0229659 17.664692,12.74115 C18.4624671,13.45947 19.3476175,14.0344171 20.2762948,14.4459345 L19.7232678,15.5131592 C18.6993287,15.0594292 17.727509,14.4281863 16.8539202,13.6416033 C15.9804987,12.8551712 15.2515454,11.9551314 14.6927311,10.9836795 L15.6962169,10.321978 Z M18.9059452,10.1085693 C19.4540859,9.72114628 20.314559,9.92057075 20.8278658,10.5539963 C21.3411726,11.1874219 21.3129342,12.0149832 20.7647936,12.4024062 C20.2166529,12.7898293 19.3561798,12.5904048 18.842873,11.9569792 C18.3295662,11.3235536 18.3578046,10.4959923 18.9059452,10.1085693 Z M20.470585,6.90398203 C21.5243154,7.28561577 22.5372629,7.84720445 23.4634155,8.57079411 C24.3897456,9.29452252 25.1801532,10.1419639 25.8047952,11.0715576 L25.8047952,11.0715576 L24.8498162,11.8015045 C24.2832875,10.9583952 23.5633704,10.1865308 22.7174311,9.52561054 C21.8716519,8.86481534 20.9490412,8.3533104 19.9931896,8.00712583 L19.9931896,8.00712583 Z M22.3721697,5.71573999 C23.4259002,6.09737373 24.4388477,6.6589624 25.3650003,7.38255207 C26.2913304,8.10628048 27.081738,8.95372184 27.70638,9.88331559 L27.70638,9.88331559 L26.7514009,10.6132625 C26.1848723,9.77015313 25.4649552,8.99828871 24.6190159,8.33736849 C23.7732366,7.6765733 22.850626,7.16506836 21.8947744,6.81888379 L21.8947744,6.81888379 Z M24.2378755,4.54991761 C25.291606,4.93155135 26.3045535,5.49314002 27.2307061,6.21672969 C28.1570362,6.9404581 28.9474438,7.78789946 29.5720858,8.71749321 L29.5720858,8.71749321 L28.6171068,9.44744009 C28.0505781,8.60433075 27.330661,7.83246633 26.4847217,7.17154611 C25.6389424,6.51075092 24.7163318,5.99924598 23.7604802,5.65306141 L23.7604802,5.65306141 Z" id="Combined-Shape" fill="#FFFFFF" fill-rule="nonzero" transform="translate(20.261373, 11.200691) rotate(1.000000) translate(-20.261373, -11.200691) "></path>
            </g>
        </g>
    </g>
</svg>