<?xml version="1.0" encoding="UTF-8"?>
<svg width="40px" height="40px" viewBox="0 0 40 40" version="1.1" xmlns="http://www.w3.org/2000/svg" xmlns:xlink="http://www.w3.org/1999/xlink">
    <title>IPRAN</title>
    <defs>
        <rect id="path-1" x="0" y="0" width="40" height="40"></rect>
    </defs>
    <g id="山东移动" stroke="none" stroke-width="1" fill="none" fill-rule="evenodd">
        <g id="图标合集" transform="translate(-360.000000, -440.000000)">
            <g id="编组-13" transform="translate(360.000000, 440.000000)">
                <mask id="mask-2" fill="white">
                    <use xlink:href="#path-1"></use>
                </mask>
                <g id="蒙版" opacity="0.200000003"></g>
                <path d="M34.1801961,6 L36,15.0990195 L36,16 L4,16 L4,15.0990195 L5.8198039,6 L34.1801961,6 Z" id="形状结合备份-3" stroke="#455A74" stroke-width="2" fill="#FFFFFF" mask="url(#mask-2)"></path>
                <rect id="形状结合备份-4" stroke="#455A74" stroke-width="2" fill="#FFFFFF" mask="url(#mask-2)" x="4" y="16" width="32" height="18"></rect>
                <path d="M29.3746946,21 C29.7859788,22.2590005 30,23.6109557 30,24.9999518 C30,26.3892143 29.7858907,27.7419077 29.3746631,29 L29.3746631,29 L28.0000315,28.6417512 C28.3730007,27.500705 28.5680152,26.2686483 28.5680152,24.9999518 C28.5680152,23.7314954 28.3730809,22.5001106 28,21.358056 L28,21.358056 Z M26.7746946,21 C27.1859788,22.2590005 27.4,23.6109557 27.4,24.9999518 C27.4,26.3892143 27.1858907,27.7419077 26.7746631,29 L26.7746631,29 L25.4000315,28.6417512 C25.7730007,27.500705 25.9680152,26.2686483 25.9680152,24.9999518 C25.9680152,23.7314954 25.7730809,22.5001106 25.4,21.358056 L25.4,21.358056 Z M24.1246946,21 C24.5359788,22.2590005 24.75,23.6109557 24.75,24.9999518 C24.75,26.3892143 24.5358907,27.7419077 24.1246631,29 L24.1246631,29 L22.7500315,28.6417512 C23.1230007,27.500705 23.3180152,26.2686483 23.3180152,24.9999518 C23.3180152,23.7314954 23.1230809,22.5001106 22.75,21.358056 L22.75,21.358056 Z M15.8401586,21 L17.2148531,21.358056 C16.8417722,22.5001106 16.6468379,23.7314954 16.6468379,24.9999518 C16.6468379,26.2686483 16.8418524,27.500705 17.2148216,28.6417512 L15.8401901,29 C15.4289624,27.7419077 15.2148531,26.3892143 15.2148531,24.9999518 C15.2148531,23.6109557 15.4288743,22.2590005 15.8401586,21 Z M13.232732,21 L14.6074266,21.358056 C14.2343457,22.5001106 14.0394114,23.7314954 14.0394114,24.9999518 C14.0394114,26.2686483 14.2344259,27.500705 14.6073951,28.6417512 L13.2327635,29 C12.8215359,27.7419077 12.6074266,26.3892143 12.6074266,24.9999518 C12.6074266,23.6109557 12.8214478,22.2590005 13.232732,21 Z M10.6253054,21 L12,21.358056 C11.6269191,22.5001106 11.4319848,23.7314954 11.4319848,24.9999518 C11.4319848,26.2686483 11.6269993,27.500705 11.9999685,28.6417512 L10.6253369,29 C10.2141093,27.7419077 10,26.3892143 10,24.9999518 C10,23.6109557 10.2140212,22.2590005 10.6253054,21 Z M19.987482,23.3101164 C20.8515071,23.3101164 21.5519379,24.025707 21.5519379,24.9084327 C21.5519379,25.7911584 20.8515071,26.506749 19.987482,26.506749 C19.1234568,26.506749 18.423026,25.7911584 18.423026,24.9084327 C18.423026,24.025707 19.1234568,23.3101164 19.987482,23.3101164 Z" id="形状结合" fill="#455A74" mask="url(#mask-2)"></path>
                <rect id="矩形" fill="#455A74" mask="url(#mask-2)" x="9" y="10" width="3" height="2"></rect>
                <rect id="矩形备份" fill="#455A74" mask="url(#mask-2)" x="14" y="10" width="3" height="2"></rect>
                <rect id="矩形备份-2" fill="#455A74" mask="url(#mask-2)" x="19" y="10" width="3" height="2"></rect>
            </g>
        </g>
    </g>
</svg>