<?xml version="1.0" encoding="UTF-8"?>
<svg width="40px" height="40px" viewBox="0 0 40 40" version="1.1" xmlns="http://www.w3.org/2000/svg" xmlns:xlink="http://www.w3.org/1999/xlink">
    <title>闪电</title>
    <defs>
        <rect id="path-1" x="0" y="0" width="40" height="40"></rect>
    </defs>
    <g id="山东移动" stroke="none" stroke-width="1" fill="none" fill-rule="evenodd">
        <g id="图标合集" transform="translate(-520.000000, -440.000000)">
            <g id="编组-13" transform="translate(520.000000, 440.000000)">
                <mask id="mask-2" fill="white">
                    <use xlink:href="#path-1"></use>
                </mask>
                <g id="蒙版" opacity="0.200000003"></g>
                <path d="M29.487,4.434 L24.0661264,19.7147169 L33.6334995,19.7147169 C33.7202664,19.7147169 33.7981375,19.7325691 33.8604465,19.7719945 C33.9139042,19.8058194 33.9540558,19.8542095 33.9776155,19.9089555 C33.9973344,19.9547765 34.0064275,20.005933 33.9953836,20.0557478 C33.9865006,20.0958154 33.963155,20.1320759 33.9307766,20.1644764 L33.9307766,20.1644764 L33.8566786,20.2234651 L10.7264245,36.9181232 C10.652909,36.9711427 10.5733495,36.9987253 10.4946725,36.9999533 C10.4053282,37.0013478 10.319419,36.9725785 10.2486307,36.924929 C10.1943862,36.8884157 10.1452323,36.840392 10.1236377,36.7776559 C10.1086887,36.7342265 10.1146865,36.685613 10.1324584,36.6355644 L10.1324584,36.6355644 L15.9323891,20.2852831 L6.36650052,20.2852831 C6.2797336,20.2852831 6.20186251,20.2674309 6.13955354,20.2280055 C6.08609578,20.1941806 6.04594423,20.1457905 6.02238447,20.0910445 C6.00266556,20.0452235 5.99357245,19.994067 6.00461642,19.9442522 C15.615992,12.9404928 21.5783776,8.95217884 25.3171348,6.6915743 C27.2060074,5.54948513 28.5050227,4.85854088 29.3898101,4.47619668 L29.487,4.434 Z" id="形状" stroke="#455A74" stroke-width="2" fill="#FFFFFF" mask="url(#mask-2)"></path>
            </g>
        </g>
    </g>
</svg>