<?xml version="1.0" encoding="UTF-8"?>
<svg width="60px" height="71px" viewBox="0 0 60 71" version="1.1" xmlns="http://www.w3.org/2000/svg" xmlns:xlink="http://www.w3.org/1999/xlink">
    <title>光放大器</title>
    <defs>
        <linearGradient x1="26.051126%" y1="36.1067771%" x2="50%" y2="76.5706783%" id="linearGradient-1">
            <stop stop-color="#C1D4EB" offset="0%"></stop>
            <stop stop-color="#E5EBFC" stop-opacity="0" offset="100%"></stop>
        </linearGradient>
        <linearGradient x1="0%" y1="28.5417454%" x2="100%" y2="67.7794749%" id="linearGradient-2">
            <stop stop-color="#D2D5EC" offset="0%"></stop>
            <stop stop-color="#E2F0F7" offset="100%"></stop>
        </linearGradient>
        <linearGradient x1="47.4163207%" y1="87.8640956%" x2="53.4231602%" y2="11.9972538%" id="linearGradient-3">
            <stop stop-color="#53BAFF" offset="0%"></stop>
            <stop stop-color="#57BFFF" offset="10%"></stop>
            <stop stop-color="#1E82FF" offset="100%"></stop>
        </linearGradient>
        <linearGradient x1="-5.71971053%" y1="44.8474677%" x2="106.889048%" y2="44.8474677%" id="linearGradient-4">
            <stop stop-color="#53BAFF" offset="0%"></stop>
            <stop stop-color="#57BFFF" offset="10%"></stop>
            <stop stop-color="#1E82FF" offset="100%"></stop>
        </linearGradient>
        <linearGradient x1="100.033692%" y1="50.0531118%" x2="0%" y2="50.0531118%" id="linearGradient-5">
            <stop stop-color="#53BAFF" offset="0%"></stop>
            <stop stop-color="#57BFFF" offset="10%"></stop>
            <stop stop-color="#4196FF" offset="96%"></stop>
        </linearGradient>
    </defs>
    <g id="页面-1" stroke="none" stroke-width="1" fill="none" fill-rule="evenodd">
        <g id="光放大器">
            <g id="编组-4备份-6" transform="translate(0.000000, 24.000000)">
                <g id="编组-13" transform="translate(0.000000, 0.870968)">
                    <polygon id="矩形" fill="#A8B4DA" opacity="0.298339844" points="30 13.5860913 60 29.5349811 30 45.483871 0 29.5349811"></polygon>
                    <polygon id="矩形" fill="#FFFFFF" points="30 0 60 15.9488898 30 31.8977796 0 15.9488898"></polygon>
                    <polygon id="矩形" fill="url(#linearGradient-1)" points="30 31.8977796 60 15.9488898 60 20.7101685 30 37.8183253"></polygon>
                    <polygon id="矩形" fill="url(#linearGradient-2)" points="1.80064297e-14 15.9488898 30 31.8977796 30 37.8183253 2.66453526e-14 20.7786569"></polygon>
                </g>
            </g>
            <g id="光放大器备份-2" transform="translate(10.000000, 0.000000)">
                <path d="M33.6580493,45.2709561 C34.121142,44.8226526 33.9796414,44.2424951 33.9796414,42.9107699 L33.9796414,16.1617776 C33.9796414,14.4344904 33.9796414,14.4344904 33.8381409,14.1971532 C33.3750482,13.1159506 28.1266647,16.8342329 28.1266647,16.8342329 C27.5220715,48.268222 27.5220715,47.8992286 27.5606626,47.8992286 C28.1257694,47.8992286 33.6580493,45.2709561 33.6580493,45.2709561 Z" id="路径" fill="url(#linearGradient-3)"></path>
                <path d="M33.9992625,14.4584638 C32.0336586,15.5177585 30.1309333,16.7004236 28.3014785,18 C12.0335067,9.82936924 2.30201121,4.54495105 0.837627488,3.73625381 C0.185311104,3.3597913 0.0255601522,4.50312188 0.0255601522,4.50312188 C0.0255601522,4.50312188 -0.134190799,3.45739269 0.345062055,3.0112149 C0.824314909,2.56503711 4.13914715,0.710610673 5.12427801,0.222603717 C5.29553084,0.0445730248 5.53953518,-0.0336597058 5.7765944,0.013457878 C5.7765944,0.013457878 32.6147542,13.1757027 32.9342561,13.4266777 C34.0658254,13.9565138 33.9992625,14.4584638 33.9992625,14.4584638 Z" id="路径" fill="url(#linearGradient-4)"></path>
                <path d="M28.3341821,16.2784816 C12.525411,8.73970271 2.31051271,3.8616693 0.986359226,3.12257333 C0,2.66567764 0,3.63322145 0,3.63322145 L0,31.3426013 C0,33.2642508 0.324282485,33.3583176 0.986359226,33.9227181 C1.48629472,34.2452327 22.402515,45.0897864 27.3478229,47.5758364 C29.1584001,48.637447 28.9962589,47.4414554 28.9962589,46.8636167 L28.9962589,17.9985595 C28.9971341,17.3634825 28.7612416,16.7506329 28.3341821,16.2784816 Z" id="路径" fill="url(#linearGradient-5)"></path>
                <path d="M21.2400824,28.9907376 L6.85368367,11.196441 C6.625966,10.9278479 6.35806285,10.9412775 6.35806285,11.196441 L6.35806285,20.5972015 L1,17.5889581 L1,19.361673 L6.35806285,22.3699163 L6.35806285,31.7706768 C6.35806285,32.03927 6.625966,32.3615817 6.85368367,32.3481521 L21.4945904,30.9246084 L27,34 L27,32.2272852 L21.2400824,28.9907376 Z M11.8634724,29.0713156 C9.47222126,27.6392964 7.91623967,25.1393137 7.68418341,22.3564867 C7.68418341,19.9257186 9.55950541,18.9990722 11.8634724,20.2883194 C14.2483756,21.7268175 15.8021106,24.2231905 16.0427615,27.0031483 C16.002576,29.447346 14.127254,30.3605627 11.823287,29.0713156 L11.8634724,29.0713156 Z" id="形状" fill="#FFFFFF" fill-rule="nonzero"></path>
                <path d="M14.3204663,23.2686065 C14.2075165,23.0902598 14.0098543,22.966789 13.8969045,23.0079459 L12.1038262,23.6252999 L12.1038262,23.6252999 C12.0581957,23.6420004 12.0221823,23.6769942 12.0049951,23.7213327 C11.979293,23.9080121 12.0539119,24.0944565 12.2026573,24.2152159 L13.0638996,24.9560407 L12.1179449,27.3019858 C12.0922429,27.4886652 12.1668617,27.6751096 12.3156071,27.795869 L12.4285569,27.8919019 C12.5979816,28.0290917 12.7674064,28.0428106 12.8097625,27.8919019 L13.7557172,25.5322378 L14.6169596,26.2730625 C14.6581113,26.3189599 14.7120475,26.3523111 14.7722656,26.3690954 C14.9416903,26.3690954 15.0405214,26.3690954 14.9840465,26.1084348 L14.3769412,23.3646393 C14.3605152,23.3313515 14.3416413,23.2992574 14.3204663,23.2686065 Z" id="路径" fill="#FFFFFF" fill-rule="nonzero"></path>
                <path d="M11.3810364,21.4194013 C11.3669423,21.3655052 11.3429924,21.3144889 11.3103211,21.2687688 C11.2113198,21.0770546 11.013317,20.9675037 10.8860296,21.0085853 L9.10400508,21.6248093 L9.10400508,21.6248093 C9.0613687,21.645825 9.02670871,21.6793842 9.00500372,21.7206664 C8.97925737,21.907004 9.0540048,22.0931072 9.20300644,22.2136456 L10.0657326,22.9531145 L9.11814813,25.3084597 C9.09240178,25.4947973 9.16714922,25.6809005 9.31615085,25.8014389 L9.42929527,25.897296 C9.59901189,26.0342347 9.76872851,26.0342347 9.81115766,25.897296 L10.7587421,23.5556446 L11.6073252,24.2951135 L11.7770418,24.3909706 C11.9467585,24.3909706 12.0316168,24.3088074 11.9891876,24.1307871 L11.3810364,21.4194013 Z" id="路径" fill="#FFFFFF" fill-rule="nonzero"></path>
            </g>
        </g>
    </g>
</svg>