<?xml version="1.0" encoding="UTF-8"?>
<svg width="60px" height="73px" viewBox="0 0 60 73" version="1.1" xmlns="http://www.w3.org/2000/svg" xmlns:xlink="http://www.w3.org/1999/xlink">
    <title>MDU</title>
    <defs>
        <linearGradient x1="26.051126%" y1="36.1067771%" x2="50%" y2="76.5706783%" id="linearGradient-1">
            <stop stop-color="#C1D4EB" offset="0%"></stop>
            <stop stop-color="#E5EBFC" stop-opacity="0" offset="100%"></stop>
        </linearGradient>
        <linearGradient x1="0%" y1="28.5417454%" x2="100%" y2="67.7794749%" id="linearGradient-2">
            <stop stop-color="#D2D5EC" offset="0%"></stop>
            <stop stop-color="#E2F0F7" offset="100%"></stop>
        </linearGradient>
        <linearGradient x1="44.6290876%" y1="87.8640956%" x2="57.1160121%" y2="11.9972538%" id="linearGradient-3">
            <stop stop-color="#53BAFF" offset="0%"></stop>
            <stop stop-color="#57BFFF" offset="10%"></stop>
            <stop stop-color="#1E82FF" offset="100%"></stop>
        </linearGradient>
        <linearGradient x1="-5.71971053%" y1="44.8474677%" x2="106.889048%" y2="44.8474677%" id="linearGradient-4">
            <stop stop-color="#53BAFF" offset="0%"></stop>
            <stop stop-color="#57BFFF" offset="10%"></stop>
            <stop stop-color="#1E82FF" offset="100%"></stop>
        </linearGradient>
        <linearGradient x1="100.033692%" y1="50.0531118%" x2="0%" y2="50.0531118%" id="linearGradient-5">
            <stop stop-color="#53BAFF" offset="0%"></stop>
            <stop stop-color="#57BFFF" offset="10%"></stop>
            <stop stop-color="#4196FF" offset="96%"></stop>
        </linearGradient>
    </defs>
    <g id="页面-1" stroke="none" stroke-width="1" fill="none" fill-rule="evenodd">
        <g id="MDU">
            <g id="编组-135备份" transform="translate(0.000000, 26.000000)">
                <g id="编组-13" transform="translate(0.000000, 0.870968)">
                    <polygon id="矩形" fill="#A8B4DA" opacity="0.298339844" points="30 13.5860913 60 29.5349811 30 45.483871 0 29.5349811"></polygon>
                    <polygon id="矩形" fill="#FFFFFF" points="30 0 60 15.9488898 30 31.8977796 0 15.9488898"></polygon>
                    <polygon id="矩形" fill="url(#linearGradient-1)" points="30 31.8977796 60 15.9488898 60 20.7101685 30 37.8183253"></polygon>
                    <polygon id="矩形" fill="url(#linearGradient-2)" points="1.80064297e-14 15.9488898 30 31.8977796 30 37.8183253 2.66453526e-14 20.7786569"></polygon>
                </g>
            </g>
            <g id="MDU备份-2" transform="translate(10.000000, 0.000000)">
                <path d="M34.231052,45.7416209 C34.6943827,45.2814524 35,44.7063779 35,43.3394067 L35,17.2189919 C35,15.4459898 35,15.4459898 34.8584267,15.2023712 C34.3950961,14.092553 28,18.6708821 28,18.6708821 C27.3950961,50.9368143 22.7650069,44.0420221 28.5566401,48.860257 C29.7149668,49.7941283 34.231052,45.7416209 34.231052,45.7416209 Z" id="路径" fill="url(#linearGradient-3)"></path>
                <path d="M34.9992427,16.0951388 C32.9810287,17.1150139 30.9451716,17.7487849 29.0667508,19 C12.3633607,11.1334236 2.36362539,4.3758194 0.860046898,3.59721628 C0.190271024,3.2347631 0.0262442791,4.33554683 0.0262442791,4.33554683 C0.0262442791,4.33554683 -0.137782466,3.32873244 0.354297768,2.89915831 C0.846378002,2.46958417 4.24993295,0.684166659 5.26143121,0.214319946 C5.43726769,0.0429143251 5.68780289,-0.0324071244 5.93120709,0.0129570689 C5.93120709,0.0129570689 33.5776776,14.8601132 33.9057311,15.1017487 C35.0675872,15.6118679 34.9992427,16.0951388 34.9992427,16.0951388 Z" id="路径" fill="url(#linearGradient-4)"></path>
                <path d="M28.3389482,18.5581449 C13.0982027,9.82827724 2.30668657,3.85954873 0.984725845,3.12227168 C0,2.66650041 0,3.63166309 0,3.63166309 L0,31.27285 C0,33.1897704 0.323745483,33.2836056 0.984725845,33.8466172 C1.48383347,34.1683381 22.231279,45.8571093 27.3542224,48.679291 C29,49.5037008 29,48.5452406 29,47.968824 L29,20.2739897 C29.0008024,19.6404756 28.7653005,19.0291343 28.3389482,18.5581449 Z" id="路径" fill="url(#linearGradient-5)"></path>
                <path d="M12.2346393,18.0470016 L12.2867093,30.3219881 L10.2358762,29.2749865 L10.1838062,17 L12.2346393,18.0470016 Z M27.9576931,26.074014 L28,36.0474406 L26.1419452,35.0988571 L26.1566779,35.9280373 L27.3261521,38 L18.4392086,33.462993 L19.5949061,32.5813194 L19.602522,31.7603179 L17.7458345,30.8124325 L17.7035276,20.8390059 L27.9576931,26.074014 Z M17.0199166,20.4900054 L17.0296797,22.7915654 L15.6624576,22.0935643 C15.3268594,21.922233 15.0488944,22.0511297 14.9925299,22.3794705 L14.9821009,22.5117504 L15.0081359,28.6492437 C15.0097336,29.0258708 15.2528899,29.4625698 15.572069,29.6903372 L15.6950013,29.7654309 L17.0622234,30.4634319 L17.0719865,32.7649919 L14.3375424,31.3689897 C13.5824465,30.9834944 12.9674063,29.9840263 12.9638116,29.1366153 L12.9247433,19.9303755 C12.9211644,19.0829645 13.5303765,18.7085079 14.2854724,19.0940032 L17.0199166,20.4900054 Z M6.77876851,18.3237439 L9.52623015,22.7884927 L6.8048035,24.4612372 L6.79829475,22.9268639 L2.0130175,20.4838601 L2,17.4151135 L6.78527725,19.8581172 L6.77876851,18.3237439 Z M26.5969798,26.9103863 L19.0772584,23.0713803 L19.1065478,29.9760602 L26.6262692,33.8150662 L26.5969798,26.9103863 Z" id="形状" fill="#FFFFFF" fill-rule="nonzero"></path>
            </g>
        </g>
    </g>
</svg>