<?xml version="1.0" encoding="UTF-8"?>
<svg width="40px" height="40px" viewBox="0 0 40 40" version="1.1" xmlns="http://www.w3.org/2000/svg" xmlns:xlink="http://www.w3.org/1999/xlink">
    <title>MME</title>
    <defs>
        <rect id="path-1" x="0" y="0" width="40" height="40"></rect>
    </defs>
    <g id="山东移动" stroke="none" stroke-width="1" fill="none" fill-rule="evenodd">
        <g id="图标合集" transform="translate(-200.000000, -360.000000)">
            <g id="编组-13" transform="translate(200.000000, 360.000000)">
                <mask id="mask-2" fill="white">
                    <use xlink:href="#path-1"></use>
                </mask>
                <g id="蒙版" opacity="0.200000003"></g>
                <path d="M24.2478711,4 L24.3098332,8.71601887 C25.2905692,9.21567934 26.3449417,9.70912623 27.0912553,10.2069206 C27.2578638,10.3180492 27.4301706,10.4434356 27.6066526,10.5791138 L27.6066526,10.5791138 L31.5213509,8.13118815 L35.8995348,15.5889478 L31.9559606,18.1709011 L31.9559606,21.8290989 L35.8442014,24.2604802 L31.6562733,31.8197552 L27.6306958,29.4359208 C26.6187218,30.0819707 25.8522732,30.7335142 25.067182,30.9298864 C24.8325478,30.9885747 24.5802422,31.0106112 24.3098332,31.0101649 L24.3098332,31.0101649 L24.3098332,35.9375 L15.752174,36 L15.6902119,31.2839811 C14.7094759,30.7843207 13.6551034,30.2908738 12.9087898,29.7930794 C12.7421813,29.6819508 12.5698745,29.5565644 12.3933925,29.4208862 L12.3933925,29.4208862 L8.47869419,31.8688119 L4.10051031,24.4110522 L8.04408447,21.8290989 L8.04408447,18.1709011 L4.31422343,15.8385573 L8.29951102,8.23697483 L12.3693493,10.7765792 C13.3813233,10.1305293 14.1477719,9.4789858 14.9328631,9.28261359 C15.1674973,9.22392533 15.4198029,9.20188878 15.6902119,9.20233512 L15.6902119,9.20233512 L15.6902119,4.0625 L24.2478711,4 Z" id="形状" stroke="#455A74" stroke-width="2" fill="#FFFFFF" mask="url(#mask-2)"></path>
                <circle id="椭圆形" stroke="#455A74" stroke-width="2" fill="#FFFFFF" mask="url(#mask-2)" cx="20" cy="20" r="7"></circle>
                <circle id="椭圆形" stroke="#FFFFFF" fill="#455A74" mask="url(#mask-2)" cx="14" cy="24" r="2.5"></circle>
                <circle id="椭圆形备份-7" stroke="#455A74" stroke-width="2" fill="#FFFFFF" mask="url(#mask-2)" cx="20" cy="20" r="2"></circle>
                <circle id="椭圆形备份-8" stroke="#FFFFFF" fill="#455A74" mask="url(#mask-2)" cx="27" cy="19" r="2.5"></circle>
            </g>
        </g>
    </g>
</svg>