<?xml version="1.0" encoding="UTF-8"?>
<svg width="60px" height="67px" viewBox="0 0 60 67" version="1.1" xmlns="http://www.w3.org/2000/svg" xmlns:xlink="http://www.w3.org/1999/xlink">
    <title>MME</title>
    <defs>
        <linearGradient x1="26.051126%" y1="36.1067771%" x2="50%" y2="76.5706783%" id="linearGradient-1">
            <stop stop-color="#C1D4EB" offset="0%"></stop>
            <stop stop-color="#E5EBFC" stop-opacity="0" offset="100%"></stop>
        </linearGradient>
        <linearGradient x1="0%" y1="28.5417454%" x2="100%" y2="67.7794749%" id="linearGradient-2">
            <stop stop-color="#D2D5EC" offset="0%"></stop>
            <stop stop-color="#E2F0F7" offset="100%"></stop>
        </linearGradient>
        <linearGradient x1="0%" y1="49.932341%" x2="100%" y2="49.932341%" id="linearGradient-3">
            <stop stop-color="#107FD6" offset="0%"></stop>
            <stop stop-color="#004CA7" offset="100%"></stop>
        </linearGradient>
        <linearGradient x1="0%" y1="50.0678426%" x2="100%" y2="50.0678426%" id="linearGradient-4">
            <stop stop-color="#53BAFF" offset="0%"></stop>
            <stop stop-color="#57BFFF" offset="10%"></stop>
            <stop stop-color="#1E82FF" offset="100%"></stop>
        </linearGradient>
        <linearGradient x1="0%" y1="49.7944387%" x2="100.081233%" y2="49.7944387%" id="linearGradient-5">
            <stop stop-color="#53BAFF" offset="0%"></stop>
            <stop stop-color="#57BFFF" offset="10%"></stop>
            <stop stop-color="#1E82FF" offset="100%"></stop>
        </linearGradient>
        <linearGradient x1="100%" y1="49.7762231%" x2="-0.0566411418%" y2="49.7762231%" id="linearGradient-6">
            <stop stop-color="#53BAFF" offset="0%"></stop>
            <stop stop-color="#57BFFF" offset="10%"></stop>
            <stop stop-color="#1E82FF" offset="100%"></stop>
        </linearGradient>
        <linearGradient x1="49.9245852%" y1="0%" x2="49.9245852%" y2="100.204918%" id="linearGradient-7">
            <stop stop-color="#53BAFF" offset="0%"></stop>
            <stop stop-color="#57BFFF" offset="10%"></stop>
            <stop stop-color="#1E82FF" offset="100%"></stop>
        </linearGradient>
        <linearGradient x1="100%" y1="49.7762231%" x2="-0.0566411418%" y2="49.7762231%" id="linearGradient-8">
            <stop stop-color="#53BAFF" offset="0%"></stop>
            <stop stop-color="#57BFFF" offset="10%"></stop>
            <stop stop-color="#1E82FF" offset="100%"></stop>
        </linearGradient>
        <linearGradient x1="49.8480243%" y1="0%" x2="49.8480243%" y2="100%" id="linearGradient-9">
            <stop stop-color="#53BAFF" offset="0%"></stop>
            <stop stop-color="#57BFFF" offset="10%"></stop>
            <stop stop-color="#1E82FF" offset="100%"></stop>
        </linearGradient>
        <linearGradient x1="50.0931218%" y1="100%" x2="50.0931218%" y2="0.327332242%" id="linearGradient-10">
            <stop stop-color="#53BAFF" offset="0%"></stop>
            <stop stop-color="#57BFFF" offset="10%"></stop>
            <stop stop-color="#1E82FF" offset="100%"></stop>
        </linearGradient>
        <linearGradient x1="49.6510088%" y1="100.326264%" x2="49.6510088%" y2="0.326264274%" id="linearGradient-11">
            <stop stop-color="#53BAFF" offset="0%"></stop>
            <stop stop-color="#57BFFF" offset="10%"></stop>
            <stop stop-color="#1E82FF" offset="100%"></stop>
        </linearGradient>
    </defs>
    <g id="页面-1" stroke="none" stroke-width="1" fill="none" fill-rule="evenodd">
        <g id="MME">
            <g id="编组-135备份" transform="translate(0.000000, 20.000000)">
                <g id="编组-13" transform="translate(0.000000, 0.870968)">
                    <polygon id="矩形" fill="#A8B4DA" opacity="0.298339844" points="30 13.5860913 60 29.5349811 30 45.483871 0 29.5349811"></polygon>
                    <polygon id="矩形" fill="#FFFFFF" points="30 0 60 15.9488898 30 31.8977796 0 15.9488898"></polygon>
                    <polygon id="矩形" fill="url(#linearGradient-1)" points="30 31.8977796 60 15.9488898 60 20.7101685 30 37.8183253"></polygon>
                    <polygon id="矩形" fill="url(#linearGradient-2)" points="1.80064297e-14 15.9488898 30 31.8977796 30 37.8183253 2.66453526e-14 20.7786569"></polygon>
                </g>
            </g>
            <g id="2.5D图标新2021-3-18_MME备份" transform="translate(5.000000, 0.000000)">
                <path d="M47.2675277,28.8231845 C44.5073801,25.6657645 46.1697417,21.5769057 51,19.7298151 L45.8090406,13.7938656 C44.1931917,14.3969677 42.4825471,14.7018003 40.7592251,14.6937303 C35.1918819,14.6937303 30.6909594,11.6941813 30.6909594,8 L20.3090406,8 C20.2944177,9.25151071 19.8130136,10.4517661 18.9603321,11.3626522 C16.2001845,14.5200722 10.0212177,15.609382 5.19095941,13.7622914 L0,19.714028 C1.4142389,20.212098 2.68521288,21.0524071 3.70110701,22.1610284 C6.47693727,25.3184484 4.81457565,29.3915201 0,31.2386107 L5.20664207,37.2377086 C6.81134288,36.6336371 8.51188691,36.3287104 10.2250923,36.3378439 C15.7610701,36.3378439 20.24631,39.3216058 20.2776753,43 L30.6752768,43 C30.6904184,41.7609491 31.165996,40.5725356 32.0083026,39.668922 C34.7841328,36.511502 40.9317343,35.4221922 45.7619926,37.2534957 L50.9686347,31.3017591 C49.5545732,30.8111483 48.283083,29.9759215 47.2675277,28.8705458 L47.2675277,28.8231845 Z M25.5,32.5015787 C19.5876384,32.5015787 14.7887454,29.3441588 14.7887454,25.4289581 C14.7887454,21.5137573 19.5876384,18.3563374 25.5,18.3563374 C31.4123616,18.3563374 36.195572,21.5137573 36.195572,25.4289581 C36.195572,29.3441588 31.4123616,32.5015787 25.5,32.5015787 Z" id="形状" fill="url(#linearGradient-3)" fill-rule="nonzero"></path>
                <path d="M47.2675277,20.8796924 C44.5073801,17.7137042 46.1697417,13.6137494 51,11.7616463 L45.8090406,5.79375848 C44.1962475,6.41145941 42.4841811,6.72274025 40.7592251,6.71189507 C35.1918819,6.71189507 30.6909594,3.70420624 30.6909594,0 L20.3090406,0 C20.2966642,1.25067281 19.8146598,2.45002866 18.9603321,3.35594754 C16.2001845,6.52193578 10.0212177,7.63003166 5.19095941,5.77792854 L0,11.7141565 C1.4142389,12.2135781 2.68521288,13.0561676 3.70110701,14.1677974 C6.47693727,17.3337856 4.81457565,21.4179104 0,23.2700136 L5.20664207,29.2379014 C6.81134288,28.6321906 8.51188691,28.3264365 10.2250923,28.3355948 C15.7610701,28.3355948 20.24631,31.3274536 20.2776753,35 L30.6752768,35 C30.6943141,33.7630733 31.1696192,32.5777618 32.0083026,31.6757123 C34.7841328,28.5097241 40.9317343,27.4174582 45.7619926,29.2537313 L50.9686347,23.2858435 C49.5574082,22.7880685 48.2872306,21.9514397 47.2675277,20.8480326 L47.2675277,20.8796924 Z" id="路径" fill="url(#linearGradient-4)" fill-rule="nonzero"></path>
                <path d="M5,29.0051091 L5,36.4589543 C5,36.4589543 16.9570192,32.6940793 19.9036258,42 C20.0321247,39.5271041 20.0321247,37.0494127 19.9036258,34.5765168 C19.7795581,33.5593933 17.7479505,25.1491485 5,29.0051091 Z" id="路径" fill="url(#linearGradient-5)" fill-rule="nonzero"></path>
                <path d="M45,28.9439969 L45,36.4328959 C45,36.4328959 32.9713612,32.6503155 30.0071052,42 L30.0071052,34.4958487 C29.8042877,32.0707266 33.9230434,25.5884821 45,28.9439969 Z" id="路径" fill="url(#linearGradient-6)" fill-rule="nonzero"></path>
                <rect id="矩形" fill="url(#linearGradient-7)" fill-rule="nonzero" x="20" y="35" width="10" height="8"></rect>
                <polygon id="路径" fill="url(#linearGradient-8)" fill-rule="nonzero" points="51 30.8982659 45 37 45 29.1017341 51 23"></polygon>
                <polygon id="路径" fill="url(#linearGradient-9)" points="0 30.8982659 5 37 5 29.1017341 0 23"></polygon>
                <path d="M0,11 L0,19.0196399 C1.14627681,19.4680292 2.20185991,20.1398978 3.11137403,21 C3.11137403,21 8.99187094,15.3371522 0,11 Z" id="路径" fill="url(#linearGradient-10)"></path>
                <path d="M51,11 L51,18.9771615 C49.903852,19.4495926 48.8945895,20.134862 48.0207698,21 C48.0207698,21 41.8835554,15.1435563 51,11 Z" id="路径" fill="url(#linearGradient-11)"></path>
                <path d="M21.9239131,15.9979031 C21.9239131,17.452997 23.5753021,18.6733983 25.553853,18.6733983 C27.532404,18.6733983 29.1682138,17.452997 29.1682138,15.9979031 C29.1682138,14.5428092 27.532404,13.3224079 25.5226947,13.3224079 C23.5129855,13.3224079 21.9239131,14.5271631 21.9239131,15.9979031 Z M27.6258788,10.4591587 C27.6258788,9.61426544 26.7067095,8.89454159 25.553853,8.89454159 C24.4009966,8.89454159 23.4662481,9.5829731 23.4662481,10.4591587 C23.4662481,11.3353442 24.3854174,12.0237757 25.553853,12.0237757 C26.7222886,12.0237757 27.6258788,11.3196981 27.6258788,10.4591587 Z M17.1566958,15.9666108 C17.1566958,19.3461837 20.9112689,22.2250791 25.553853,22.2250791 C30.1964372,22.2250791 33.9510102,19.4557068 33.9510102,16.0604878 C33.9510102,13.4162849 31.6764556,11.1632363 28.4827316,10.2401123 C28.4827316,10.3496355 28.4827316,10.4278663 28.4827316,10.5217433 C28.472738,10.9240085 28.3364214,11.3128134 28.0932531,11.6326215 C30.2420427,12.1234931 31.8475678,13.9241478 32.0970924,16.1230725 C32.0970924,18.8142138 29.1526347,21.0203239 25.4915365,21.0203239 C21.8304382,21.0203239 18.8704014,18.735983 18.8704014,16.0604878 C19.1016222,13.85336 20.7153199,12.0435394 22.8742407,11.5700368 C22.6291418,11.2512796 22.4925954,10.8618195 22.4847622,10.4591587 C22.4538978,10.3678404 22.4538978,10.2688459 22.4847622,10.1775276 C19.4156713,11.038067 17.1566958,13.2911156 17.1566958,15.9666108 L17.1566958,15.9666108 Z M17.733124,21.8182786 C17.733124,20.9577392 16.8139547,20.2536616 15.6610982,20.2536616 C14.5082418,20.2536616 13.5734933,20.9264469 13.5734933,21.8182786 C13.5734933,22.7101104 14.4926626,23.3828957 15.6610982,23.3828957 C16.8295338,23.3828957 17.733124,22.6631719 17.733124,21.8182786 Z M36.5994643,18.9863217 C35.6335575,18.9863217 34.807863,19.5965224 34.807863,20.3162462 C34.807863,21.0359701 35.6335575,21.6305246 36.5994643,21.6305246 C37.5653711,21.6305246 38.3910655,21.0203239 38.3910655,20.3162462 C38.3910655,19.6121686 37.5653711,18.9863217 36.5994643,18.9863217 Z M25.5226947,24.6658817 C23.0030219,24.7016453 20.5191185,24.0644988 18.3251314,22.8196336 C17.9801654,23.2479073 17.5287419,23.5771372 17.0164835,23.77405 C19.6069343,25.2556542 22.5417339,26.022201 25.5226947,25.9958062 C29.3880937,26.085397 33.1500487,24.7368571 36.0853526,22.2094329 C35.5146652,22.1220155 34.9771705,21.8845003 34.5274385,21.5210014 C32.0062512,23.633668 28.8051162,24.751655 25.5226947,24.6658817 Z M25.5226947,6 C18.0758652,6 12,10.5060972 12,15.9979031 C12.0023116,17.5522465 12.4749987,19.0691707 13.3553853,20.3475386 C13.8027659,19.9829325 14.3420463,19.7500442 14.9132994,19.6747532 C14.199935,18.581588 13.8158614,17.3048887 13.8071804,15.9979031 C13.8071804,11.2101749 19.0573511,7.32992451 25.5382739,7.32992451 C32.0191967,7.32992451 37.2537882,11.2101749 37.2537882,15.9979031 C37.2323931,16.7780364 37.0850727,17.549512 36.8175723,18.282244 C37.4084187,18.2909585 37.983303,18.4761488 38.4689613,18.8142138 C38.8372178,17.9222332 39.0175678,16.9633309 38.9986521,15.9979031 C39.0609686,10.5060972 32.9851035,6 25.5226947,6 Z" id="形状" fill="#FFFFFF" fill-rule="nonzero"></path>
            </g>
        </g>
    </g>
</svg>