<?xml version="1.0" encoding="UTF-8"?>
<svg width="40px" height="40px" viewBox="0 0 40 40" version="1.1" xmlns="http://www.w3.org/2000/svg" xmlns:xlink="http://www.w3.org/1999/xlink">
    <title>NEF</title>
    <defs>
        <rect id="path-1" x="0" y="0" width="40" height="40"></rect>
    </defs>
    <g id="山东移动" stroke="none" stroke-width="1" fill="none" fill-rule="evenodd">
        <g id="图标合集" transform="translate(-40.000000, -360.000000)">
            <g id="编组-13" transform="translate(40.000000, 360.000000)">
                <mask id="mask-2" fill="white">
                    <use xlink:href="#path-1"></use>
                </mask>
                <g id="蒙版" opacity="0.200000003"></g>
                <path d="M25.84097,9.10487722 L35.1579958,13.4969621 L35.153,13.5038772 L38,20.130103 L35.135,21.4278772 L35.1360184,31.2009935 L20.6596928,37 L6.21347784,31.2004351 L6.213,22.1568772 L2,20.4527942 L6.203,13.2878772 L6.1953445,13.27041 L15.0012087,9.43417361 L15.8323914,11.2815688 L8.332,14.5478772 L20.6593364,19.5990861 L21.069,19.4398772 L21.085607,19.4306923 L21.087,19.4328772 L33.097,14.7658772 L24.9538991,10.9269327 L25.84097,9.10487722 Z M33.082,22.3578772 L23.2648682,26.8075786 L21.601,24.1318772 L21.601,34.4408772 L33.0828328,29.8421216 L33.082,22.3578772 Z M8.266,22.9878772 L8.2666634,29.8426799 L19.548,34.3718772 L19.548,23.6798772 L17.6238306,26.7762472 L8.266,22.9878772 Z M7.204,15.6248772 L4.95179421,19.4629057 L16.7858984,24.2525378 L18.996,20.6968772 L7.204,15.6248772 Z M33.933,15.9528772 L21.979,20.8678772 L24.0638433,24.2212064 L35.2146335,19.1680362 L33.933,15.9528772 Z M21.657603,16.2095596 L21.657603,17.3185071 L19.6705756,17.3185071 L19.6705756,16.2095596 L21.657603,16.2095596 Z M21.657603,13.9916646 L21.657603,15.1006121 L19.6705756,15.1006121 L19.6705756,13.9916646 L21.657603,13.9916646 Z M21.657603,11.7737696 L21.657603,12.8827171 L19.6705756,12.8827171 L19.6705756,11.7737696 L21.657603,11.7737696 Z M21.3285516,9.31247048 C21.7454555,9.71782319 21.7454555,10.3515075 21.3285516,10.7568602 C20.9116478,11.1622129 20.2599057,11.1622129 19.8430018,10.7568602 C19.4260979,10.3515075 19.4260979,9.71782319 19.8430018,9.31247048 C20.2335193,8.90583501 20.8852615,8.90583501 21.3285516,9.31247048 Z M24.0675815,7.38680244 L24.2350048,7.56278348 L23.1663589,8.75446913 C21.8055723,7.23546544 19.5916692,7.18483199 18.1740082,8.60256876 L18.0302616,8.75446913 L16.9616156,7.56278348 C18.9153444,5.39235063 22.0281129,5.33369028 24.0675815,7.38680244 Z M25.8749604,5.30843899 L26.0609382,5.50908195 L24.9659059,6.72642283 C22.5961145,4.07504179 18.8075309,4.01478313 16.3732489,6.54564685 L16.2056475,6.72642283 L15.1106152,5.50908195 C18.0727759,2.23191369 22.8617974,2.1650327 25.8749604,5.30843899 Z" id="形状结合" fill="#455A74" mask="url(#mask-2)"></path>
            </g>
        </g>
    </g>
</svg>