<?xml version="1.0" encoding="UTF-8"?>
<svg width="60px" height="64px" viewBox="0 0 60 64" version="1.1" xmlns="http://www.w3.org/2000/svg" xmlns:xlink="http://www.w3.org/1999/xlink">
    <title>NET</title>
    <defs>
        <linearGradient x1="26.051126%" y1="36.1067771%" x2="50%" y2="76.5706783%" id="linearGradient-1">
            <stop stop-color="#C1D4EB" offset="0%"></stop>
            <stop stop-color="#E5EBFC" stop-opacity="0" offset="100%"></stop>
        </linearGradient>
        <linearGradient x1="0%" y1="28.5417454%" x2="100%" y2="67.7794749%" id="linearGradient-2">
            <stop stop-color="#D2D5EC" offset="0%"></stop>
            <stop stop-color="#E2F0F7" offset="100%"></stop>
        </linearGradient>
        <linearGradient x1="6.79380165%" y1="25.0582645%" x2="93.2061983%" y2="74.9487603%" id="linearGradient-3">
            <stop stop-color="#57BFFF" offset="0%"></stop>
            <stop stop-color="#1E82FF" offset="100%"></stop>
        </linearGradient>
    </defs>
    <g id="页面-1" stroke="none" stroke-width="1" fill="none" fill-rule="evenodd">
        <g id="NET">
            <g id="编组-4备份-6" transform="translate(0.000000, 17.000000)">
                <g id="编组-13" transform="translate(0.000000, 0.870968)">
                    <polygon id="矩形" fill="#A8B4DA" opacity="0.298339844" points="30 13.5860913 60 29.5349811 30 45.483871 0 29.5349811"></polygon>
                    <polygon id="矩形" fill="#FFFFFF" points="30 0 60 15.9488898 30 31.8977796 0 15.9488898"></polygon>
                    <polygon id="矩形" fill="url(#linearGradient-1)" points="30 31.8977796 60 15.9488898 60 20.7101685 30 37.8183253"></polygon>
                    <polygon id="矩形" fill="url(#linearGradient-2)" points="1.80064297e-14 15.9488898 30 31.8977796 30 37.8183253 2.66453526e-14 20.7786569"></polygon>
                </g>
            </g>
            <g id="编组" transform="translate(10.000000, 0.000000)" fill-rule="nonzero">
                <circle id="椭圆形" fill="url(#linearGradient-3)" cx="19.5" cy="19.5" r="19.5"></circle>
                <path d="M36.8632479,27 C36.3760684,26.6752137 36.3760684,26.3504274 36.2136752,25.8632479 C33.2905983,16.7692308 23.7094017,10.4358974 12.991453,10.4358974 C8.76923077,10.4358974 3.57264957,11.8974359 0,13.6837607 C0,13.3589744 0,13.3589744 0.324786325,12.7094017 C0.64957265,11.7350427 1.2991453,10.4358974 1.2991453,10.4358974 C5.1965812,8.32478632 8.44444444,8 13.1538462,8 C24.8461538,8 34.5897436,13.6837607 38,23.7521368 C38,23.7521368 37.8376068,24.7264957 37.5128205,25.7008547 C37.3504274,25.8632479 37.025641,27 36.8632479,27 Z" id="路径" fill="#FFFFFF"></path>
                <path d="M24.5,37.4978319 C24.3333333,37.4978319 22.5,38.1333884 22.3333333,37.9744993 C14,34.0022713 10,27.0111501 10,18.748916 C10,10.80446 14,4.13111708 21.8333333,0 C21.8333333,0 22.8333333,0.158889118 23.3333333,0.317778237 C24,0.476667355 25,0.476667355 24.5,0.794445592 C17.3333333,3.81333884 12.3333333,11.4400165 12.3333333,18.5900268 C12.3333333,26.0578154 17.5,33.525604 25,37.0211646" id="路径" fill="#FFFFFF"></path>
                <path d="M7.70680628,32 C6.40837696,32 5.59685864,32 4.94764398,31.8409091 C4.78534031,31.8409091 4.13612565,31.2045455 3.64921466,30.5681818 C3.32460733,30.0909091 3,29.4545455 3,29.4545455 C4.29842932,29.6136364 6.40837696,29.6136364 7.70680628,29.6136364 C21.0157068,29.6136364 31.8900524,18.1590909 31.8900524,4 C31.8900524,4 32.3769634,4.31818182 32.8638743,4.79545455 C33.6753927,5.59090909 34,5.75 34,6.06818182 C33.8376963,19.9090909 22.3141361,32 7.70680628,32 Z" id="路径" fill="#FFFFFF"></path>
                <circle id="椭圆形" fill="#FFFFFF" cx="14.5" cy="9.5" r="3.5"></circle>
                <circle id="椭圆形" fill="#FFFFFF" cx="15.5" cy="29.5" r="3.5"></circle>
                <circle id="椭圆形" fill="#FFFFFF" cx="29.5" cy="14.5" r="3.5"></circle>
            </g>
        </g>
    </g>
</svg>