<?xml version="1.0" encoding="UTF-8"?>
<svg width="60px" height="62px" viewBox="0 0 60 62" version="1.1" xmlns="http://www.w3.org/2000/svg" xmlns:xlink="http://www.w3.org/1999/xlink">
    <title>NRF</title>
    <defs>
        <linearGradient x1="26.051126%" y1="36.1067771%" x2="50%" y2="76.5706783%" id="linearGradient-1">
            <stop stop-color="#C1D4EB" offset="0%"></stop>
            <stop stop-color="#E5EBFC" stop-opacity="0" offset="100%"></stop>
        </linearGradient>
        <linearGradient x1="0%" y1="28.5417454%" x2="100%" y2="67.7794749%" id="linearGradient-2">
            <stop stop-color="#D2D5EC" offset="0%"></stop>
            <stop stop-color="#E2F0F7" offset="100%"></stop>
        </linearGradient>
        <linearGradient x1="0.545859158%" y1="50.0585111%" x2="101.423067%" y2="50.0585111%" id="linearGradient-3">
            <stop stop-color="#0979DB" offset="0%"></stop>
            <stop stop-color="#0D7EE0" offset="100%"></stop>
        </linearGradient>
        <linearGradient x1="48.5578822%" y1="49.3479675%" x2="71.0444183%" y2="49.3479675%" id="linearGradient-4">
            <stop stop-color="#107FD6" offset="0%"></stop>
            <stop stop-color="#004CA7" offset="100%"></stop>
        </linearGradient>
        <linearGradient x1="69.3181818%" y1="72.4915274%" x2="30.6818182%" y2="27.5084726%" id="linearGradient-5">
            <stop stop-color="#53BAFF" offset="0%"></stop>
            <stop stop-color="#57BFFF" offset="10%"></stop>
            <stop stop-color="#1E82FF" offset="100%"></stop>
        </linearGradient>
        <linearGradient x1="-0.522083506%" y1="49.8503284%" x2="100.058062%" y2="49.8503284%" id="linearGradient-6">
            <stop stop-color="#53BAFF" offset="0%"></stop>
            <stop stop-color="#57BFFF" offset="10%"></stop>
            <stop stop-color="#1E82FF" offset="100%"></stop>
        </linearGradient>
        <linearGradient x1="0.214387147%" y1="50.1693214%" x2="99.2172673%" y2="50.1693214%" id="linearGradient-7">
            <stop stop-color="#53BAFF" offset="0%"></stop>
            <stop stop-color="#57BFFF" offset="10%"></stop>
            <stop stop-color="#1E82FF" offset="100%"></stop>
        </linearGradient>
    </defs>
    <g id="页面-1" stroke="none" stroke-width="1" fill="none" fill-rule="evenodd">
        <g id="NRF">
            <g id="编组-4备份-6" transform="translate(0.000000, 15.000000)">
                <g id="编组-13" transform="translate(0.000000, 0.870968)">
                    <polygon id="矩形" fill="#A8B4DA" opacity="0.298339844" points="30 13.5860913 60 29.5349811 30 45.483871 0 29.5349811"></polygon>
                    <polygon id="矩形" fill="#FFFFFF" points="30 0 60 15.9488898 30 31.8977796 0 15.9488898"></polygon>
                    <polygon id="矩形" fill="url(#linearGradient-1)" points="30 31.8977796 60 15.9488898 60 20.7101685 30 37.8183253"></polygon>
                    <polygon id="矩形" fill="url(#linearGradient-2)" points="1.80064297e-14 15.9488898 30 31.8977796 30 37.8183253 2.66453526e-14 20.7786569"></polygon>
                </g>
            </g>
            <g id="2.5D图标新2021-3-18_NRF备份" transform="translate(9.000000, 0.000000)">
                <path d="M35.0186034,16.3745598 C31.4309015,14.0960017 27.2441501,12.9231646 22.986163,13.0039052 C13.6030673,13.0039052 6,18.1558001 6,24.4997557 C6,30.8437113 13.6030673,35.9956062 22.986163,35.9956062 C27.2428439,36.0812516 31.4297207,34.9131471 35.0186034,32.6386534 C37.9458642,30.9241962 39.8154861,27.8694514 40,24.4997557 C40.013722,21.320927 38.1647002,18.4572407 35.0186034,16.3745598 Z" id="路径" fill="url(#linearGradient-3)" fill-rule="nonzero"></path>
                <path d="M22.9930978,13.277122 C27.2002263,13.1901402 31.3380681,14.3493469 34.8786033,16.6068185 C38.0535932,18.7444014 39.7515225,21.5397022 39.7515225,24.5268373 C39.7515225,27.5139725 38.0121803,30.2955708 34.864799,32.4605587 C31.3203656,34.6951808 27.1912415,35.8437586 22.9930978,35.7628502 C13.7580187,35.7628502 6.24847747,30.7066444 6.24847747,24.5131349 C6.24847747,18.3196253 13.7580187,13.277122 22.9930978,13.277122 Z M22.9930978,13.0578827 C13.6061713,13.0578827 6,18.2100057 6,24.5405398 C6,30.8710739 13.6199756,35.995792 22.9930978,35.995792 C27.2469463,36.0795453 31.4305736,34.9114325 35.0166464,32.6386906 C37.9411748,30.9268081 39.8109769,27.8780215 40,24.5131349 C40,21.3341654 38.0950061,18.4703523 35.0166464,16.3875792 C31.4319114,14.1089616 27.2492355,12.931581 22.9930978,13.0030729 L22.9930978,13.0578827 Z" id="形状" fill="#309EFF" fill-rule="nonzero"></path>
                <path d="M34.8763179,7.37083554 C31.182039,5.09236035 26.8702926,3.92079786 22.485807,4.00415848 C12.8203569,4.00415848 5,9.14997382 5,15.4864433 C5,21.8229127 12.8345499,26.9960994 22.485807,26.9960994 C26.8654839,27.0767447 31.1718894,25.9052916 34.8621249,23.6294223 C38.0981346,21.5218277 40,18.6615208 40,15.4864433 C40,12.3113657 38.0981346,9.45105877 34.8763179,7.37083554 Z" id="路径-2" fill="#329EFE" fill-rule="nonzero" opacity="0.5"></path>
                <path d="M39.9473369,11 L39.9473369,23.937774 C39.9405166,24.0401175 39.9405166,24.1428075 39.9473369,24.2451509 C39.7772493,27.6857981 37.9105539,30.8119599 34.9750423,32.5722712 C31.4039776,34.8926341 27.2274396,36.0845643 22.9805936,35.9953323 C13.6038711,35.9953323 6,30.7280096 6,24.2591226 L6,24.3708961 L6,13.0538367 C7.64819792,19.7462706 14.3102416,23.4068503 22.50968,23.5325954 C28.049841,23.6164254 31.4293393,22.5685496 34.5041286,20.4448545 C36.2895982,19.3937866 37.796085,17.9220483 38.8947063,16.1555493 C39.7778612,14.5928077 40.1464387,12.7875972 39.9473369,11 Z" id="路径-3" fill="url(#linearGradient-4)" fill-rule="nonzero"></path>
                <path d="M35.0186688,3.37450752 C31.435232,1.09771774 27.2534276,-0.0751187007 23,0.00372986526 C13.6168831,0.00372986526 6,5.15581279 6,11.5 C6,17.8441872 13.6168831,22.9962701 23,22.9962701 C27.2534276,23.0751187 31.435232,21.9022823 35.0186688,19.6254925 C38.0957792,17.5427356 40,14.6789448 40,11.5 C40,8.32105522 38.0957792,5.45726445 35.0186688,3.37450752 Z" id="路径-4" fill="url(#linearGradient-5)" fill-rule="nonzero"></path>
                <path d="M23,0.250622038 C27.2050998,0.166133947 31.3405452,1.32511789 34.8806818,3.58025607 C38.0543831,5.71779891 39.7516234,8.51304724 39.7516234,11.5001263 C39.7516234,14.4872054 38.0267857,17.3098581 34.8806818,19.4336988 C31.3367809,21.6805157 27.2039275,22.8387732 23,22.7633328 C13.7686688,22.7633328 6.26217532,17.7072219 6.26217532,11.5138285 C6.26217532,5.32043518 13.7824675,0.250622038 23,0.250622038 Z M23,0.00398248025 C13.6168831,0.00398248025 6,5.15600881 6,11.5001263 C6,17.8442439 13.6306818,22.9962702 23,22.9962702 C27.2534276,23.0751179 31.435232,21.9022943 35.0186688,19.6255295 C38.0957792,17.5427955 40,14.6790362 40,11.5001263 C40,8.32121647 38.1785714,5.45745715 35.0324675,3.37472311 C31.4450995,1.09535071 27.2581031,-0.0775823252 23,0.00398248025 Z" id="形状-2" fill="#309EFF" fill-rule="nonzero"></path>
                <path d="M40,18 C40,20.9163146 38.2503088,23.6720981 35.058872,25.7456245 C31.4599154,27.9417529 27.2622473,29.0726773 22.9930012,28.9963789 C13.6146562,28.9963789 6,24.0600482 6,18.0133776" id="路径" stroke="#309EFF" stroke-width="0.25"></path>
                <path d="M29.8123673,12.8564609 C29.8299019,12.8907134 29.8299019,12.930942 29.8123673,12.9651945 L29.8123673,13.7942887 C29.8123673,13.875839 29.7282228,13.9302058 29.6160301,13.9302058 L22.9686145,13.9302058 C22.9232437,13.9457523 22.8737445,13.9457523 22.8283737,13.9302058 C22.8132978,13.9001747 22.8132978,13.865095 22.8283737,13.8350639 L22.8283737,13.0059697 C22.8283737,12.9244194 22.9265423,12.8564609 23.038735,12.8564609 L29.7422468,12.8564609 C29.7655767,12.8545044 29.7890374,12.8545044 29.8123673,12.8564609 Z M21.538158,12.8564609 L20.3320869,12.8564609 C20.2198942,12.8564609 20.1217256,12.9244194 20.1217256,13.0059697 L20.1217256,13.8350639 C20.1217256,13.8350639 20.1217256,13.9030224 20.1217256,13.9302058 C20.1670964,13.9457523 20.2165956,13.9457523 20.2619664,13.9302058 L21.4680376,13.9302058 C21.5942544,13.9302058 21.6783989,13.9302058 21.6783989,13.7942887 L21.6783989,13.0059697 C21.6752429,12.9606458 21.6489321,12.9198464 21.6082784,12.897236 C21.5896562,12.8665243 21.5659691,12.8389762 21.538158,12.8156858 L21.538158,12.8564609 Z M29.6721264,14.3651405 L22.9686145,14.3651405 C22.8750906,14.3599997 22.7893277,14.4154122 22.7582533,14.5010576 L22.7582533,15.3301518 C22.7407187,15.3644043 22.7407187,15.4046329 22.7582533,15.4388854 C22.803943,15.452512 22.8528044,15.452512 22.8984941,15.4388854 L29.602006,15.4388854 C29.6979208,15.4471191 29.7839048,15.3816432 29.7983432,15.2893766 L29.7983432,14.4602824 C29.8115901,14.4298678 29.8115901,14.3955551 29.7983432,14.3651405 C29.7570349,14.3541511 29.7134347,14.3541511 29.6721264,14.3651405 Z M21.538158,14.3651405 L20.3320869,14.3651405 C20.2198942,14.3651405 20.1217256,14.3651405 20.1217256,14.5010576 L20.1217256,15.3301518 C20.106115,15.3648175 20.106115,15.4042197 20.1217256,15.4388854 C20.1670964,15.4544319 20.2165956,15.4544319 20.2619664,15.4388854 L21.4680376,15.4388854 C21.5802303,15.4388854 21.6783989,15.4388854 21.6783989,15.2893766 L21.6783989,14.4602824 C21.6710135,14.4199477 21.6452514,14.3849928 21.6082784,14.3651405 C21.5850696,14.3613384 21.5613669,14.3613384 21.538158,14.3651405 L21.538158,14.3651405 Z M29.6721264,15.9145952 L22.9686145,15.9145952 C22.8695307,15.9055573 22.7791415,15.969799 22.7582533,16.064104 L22.7582533,16.8931982 C22.7431773,16.9232293 22.7431773,16.9583091 22.7582533,16.9883402 C22.803943,17.0019667 22.8528044,17.0019667 22.8984941,16.9883402 L29.602006,16.9883402 C29.7141987,16.9883402 29.7983432,16.9883402 29.7983432,16.8524231 L29.7983432,16.0233289 C29.8158778,15.9890763 29.8158778,15.9488478 29.7983432,15.9145952 C29.7557961,15.9126924 29.7132048,15.9172789 29.6721264,15.9281869 L29.6721264,15.9145952 Z M21.538158,15.9145952 L20.3320869,15.9145952 C20.2198942,15.9145952 20.1217256,15.9825538 20.1217256,16.064104 L20.1217256,16.8931982 C20.1217256,16.8931982 20.1217256,16.9611567 20.1217256,16.9883402 C20.1670964,17.0038866 20.2165956,17.0038866 20.2619664,16.9883402 L21.4680376,16.9883402 C21.5942544,16.9883402 21.6783989,16.9883402 21.6783989,16.8524231 L21.6783989,16.0233289 C21.6752429,15.978005 21.6489321,15.9372056 21.6082784,15.9145952 C21.5844733,15.9166997 21.5609672,15.921256 21.538158,15.9281869 L21.538158,15.9145952 Z M22.6741088,5.04122869 C22.5892176,4.9862571 22.4785183,4.9862571 22.3936271,5.04122869 L12.0578776,11.4293315 C12.0221649,11.4484816 12,11.4849173 12,11.5244735 C12,11.5640296 12.0221649,11.6004654 12.0578776,11.6196154 C12.1035674,11.633242 12.1524287,11.633242 12.1981185,11.6196154 L15.1011037,11.6196154 L15.2413446,11.6196154 C15.2531716,11.6502937 15.2531716,11.6840791 15.2413446,11.7147574 L15.2413446,16.5805889 C15.2295175,16.6112672 15.2295175,16.6450526 15.2413446,16.6757309 C15.2870343,16.6893574 15.3358957,16.6893574 15.3815854,16.6757309 L18.8174858,16.6757309 C18.9296785,16.6757309 19.0278471,16.6757309 19.0278471,16.5398138 L19.0278471,15.6563528 C19.042923,15.6263217 19.042923,15.5912419 19.0278471,15.5612108 C18.9821574,15.5475842 18.933296,15.5475842 18.8876063,15.5612108 L17.330933,15.5612108 C17.2852433,15.5748374 17.2363819,15.5748374 17.1906922,15.5612108 C17.1797758,15.5350568 17.1797758,15.5058145 17.1906922,15.4796606 L17.1906922,10.6002373 C17.2057231,10.5750056 17.2057231,10.5439188 17.1906922,10.5186871 C17.1453213,10.5031406 17.0958222,10.5031406 17.0504513,10.5186871 L16.8821623,10.5186871 C16.8367915,10.5342335 16.7872923,10.5342335 16.7419215,10.5186871 C16.7046387,10.5042444 16.6801885,10.4692538 16.6801885,10.430341 C16.6801885,10.3914281 16.7046387,10.3564375 16.7419215,10.3419949 L22.5619161,6.67223367 C22.650517,6.63077561 22.7537969,6.63077561 22.8423978,6.67223367 L28.5361757,10.287628 C28.6623924,10.3691783 28.5361757,10.5050954 28.3959348,10.5050954 L28.255694,10.5050954 C28.1435013,10.5050954 28.0593568,10.5050954 28.0593568,10.6274207 L28.0593568,11.9865916 C28.0593568,11.9865916 28.0593568,12.0545501 28.0593568,12.0817335 L28.1995977,12.0817335 L29.602006,12.0817335 C29.7001746,12.0817335 29.7983432,12.0817335 29.7983432,11.9594081 L29.7983432,11.8098993 C29.7983432,11.7419408 29.8824877,11.687574 29.9946803,11.687574 L32.799497,11.687574 C32.9818101,11.687574 33.0659546,11.5380652 32.9397379,11.4565149 L22.6741088,5.04122869 Z" id="形状" fill="#FFFFFF" fill-rule="nonzero"></path>
                <path d="M12.4560903,35.8061569 L12.0892449,28.615008 L13.9093626,28.615008 C14.0081287,28.615008 14.050457,28.5447819 13.9093626,28.4464654 L12.3432148,26.4801356 L12.3432148,26.4801356 L7.57422437,20.0474282 C7.42552109,19.9841906 7.25731615,19.9841906 7.10861287,20.0474282 L0.0538932622,28.8256862 C-0.0179644207,28.9056598 -0.0179644207,29.0266168 0.0538932622,29.1065904 C0.0894505528,29.1241515 0.131211485,29.1241515 0.166768776,29.1065904 L2.12798083,29.1065904 C2.16449842,29.0937383 2.20433875,29.0937383 2.24085634,29.1065904 C2.25500196,29.152349 2.25500196,29.201284 2.24085634,29.2470425 L2.24085634,36.8595479 C2.22471769,36.9049871 2.22471769,36.9545608 2.24085634,37 C2.24085634,37 2.31140354,37 2.35373186,37 L12.4560903,35.8061569 Z" id="路径" stroke="#FFFFFF" fill="url(#linearGradient-6)" stroke-linecap="round" stroke-linejoin="round"></path>
                <path d="M1.465,27.475 L1.535,27.525 C1.50796851,27.5142358 1.4839493,27.4970792 1.465,27.475 L1.465,27.475 Z" id="路径" fill="#FFFFFF"></path>
                <path d="M10.989966,30.014937 C11.0033447,30.0614166 11.0033447,30.1118033 10.989966,30.158283 L10.989966,31.416542 C10.989966,31.5280333 10.989966,31.6235973 10.8954233,31.6395247 L7.10020986,31.9899259 C7.06972482,32.003358 7.03615221,32.003358 7.00566717,31.9899259 C6.99811094,31.9372087 6.99811094,31.8833698 7.00566717,31.8306526 L7.00566717,30.5086842 C7.00566717,30.3812656 7.00566717,30.2697743 7.11371595,30.2697743 L10.8954233,30.014937 C10.9246749,29.995021 10.9607144,29.995021 10.989966,30.014937 Z" id="SVGID-6" fill="#135AAD"></path>
                <path d="M5.79428932,30.0086267 L5.24428932,30.0086267 C5.18428932,30.0086267 5.14428932,30.1344284 5.14428932,30.2782017 L5.14428932,31.8057936 C5.13285113,31.8639357 5.13285113,31.9273682 5.14428932,31.9855103 C5.16638448,32.0048299 5.19219417,32.0048299 5.21428932,31.9855103 L5.77428932,31.9855103 C5.82428932,31.9855103 5.86428932,31.8417369 5.86428932,31.6979636 L5.86428932,30.1883434 L5.86428932,30.0086267 C5.84139487,29.9971244 5.81718377,29.9971244 5.79428932,30.0086267 L5.79428932,30.0086267 Z" id="SVGID-7" fill="#135AAD"></path>
                <path d="M10.9126881,32 L7.13215594,32.4152484 C7.06512522,32.4152484 7.01150065,32.5154807 7.01150065,32.630032 L7.01150065,33.8471393 C6.99616645,33.8934639 6.99616645,33.9440037 7.01150065,33.9903284 C7.03695378,34.0032239 7.06648438,34.0032239 7.09193751,33.9903284 L10.899282,33.5464422 C10.9747105,33.5081177 11.014075,33.4180219 10.993125,33.3316585 L10.993125,32.1861458 C11.0022917,32.143747 11.0022917,32.0996745 10.993125,32.0572756 C10.993125,32.0572756 10.9395004,32 10.9126881,32 Z" id="SVGID-8" fill="#135AAD"></path>
                <path d="M5.7955447,32.0677966 L5.2355447,32.0677966 C5.16864207,32.1068929 5.126962,32.2199235 5.1355447,32.3389831 L5.1355447,33.8135593 C5.12406652,33.8741837 5.12406652,33.9393756 5.1355447,34 C5.1355447,34 5.1355447,34 5.2055447,34 L5.7655447,33.8983051 C5.8255447,33.8983051 5.8655447,33.7627119 5.8655447,33.6271186 L5.8655447,32.1694915 C5.87557034,32.1142721 5.87557034,32.0552195 5.8655447,32 C5.8655447,32 5.8155447,32.0677966 5.7955447,32.0677966 Z" id="SVGID-9" fill="#135AAD"></path>
                <path d="M10.8379524,34.0387957 L7.11184738,34.4871962 C7.04554658,34.4871962 7.0057661,34.5927022 7.0057661,34.6982083 L7.0057661,35.8455862 C6.99807797,35.8936408 6.99807797,35.9426023 7.0057661,35.9906569 C7.03543884,36.0031144 7.06891448,36.0031144 7.09858722,35.9906569 L10.890993,35.4499386 C10.9572938,35.4499386 10.9970743,35.3576208 10.9970743,35.2521148 L10.9970743,34.1706782 C11.0009752,34.1312085 11.0009752,34.0914536 10.9970743,34.0519839 C10.982755,34.0226635 10.9539504,34.0030267 10.9212897,34.0003197 C10.8886289,33.9976128 10.8569537,34.0122369 10.8379524,34.0387957 L10.8379524,34.0387957 Z" id="SVGID-10" fill="#135AAD"></path>
                <path d="M6.78834373,35.017179 L6.22834373,35.1293762 C6.16376453,35.1709115 6.12333841,35.2745847 6.12834373,35.3858271 L6.12834373,36.8283632 C6.12132225,36.8811978 6.12132225,36.9358104 6.12834373,36.988645 C6.1507211,37.003785 6.17596637,37.003785 6.19834373,36.988645 L6.76834373,36.8443914 C6.82834373,36.8443914 6.86834373,36.716166 6.86834373,36.5879405 L6.86834373,35.1774607 C6.87978192,35.1256062 6.87978192,35.0690335 6.86834373,35.017179 C6.84359165,34.9942737 6.81309582,34.9942737 6.78834373,35.017179 Z" id="SVGID-11" fill="#135AAD"></path>
                <path d="M6.95442843,20.0536306 C6.95442843,19.9821231 6.82975573,19.9821231 6.78819816,20.0536306 L0.0420198316,28.8776469 C-0.0140066105,28.9642172 -0.0140066105,29.0771062 0.0420198316,29.1636766 C0.0778724771,29.1767632 0.116987364,29.1767632 0.152840009,29.1636766 L2.24457087,29.0921691 C2.27556916,29.0786602 2.31054023,29.0786602 2.34153852,29.0921691 C2.35771277,29.1334488 2.35771277,29.1796028 2.34153852,29.2208825 L2.34153852,36.843574 C2.32569374,36.8898423 2.32569374,36.9403206 2.34153852,36.9865889 C2.37644835,37.0044704 2.41744887,37.0044704 2.4523587,36.9865889 L4.84884505,36.6433533 C4.91810766,36.6433533 4.97351775,36.5289414 4.97351775,36.4145295 L4.97351775,34.984381 C4.98969199,34.9431013 4.98969199,34.8969473 4.97351775,34.8556676 C4.94351585,34.8377846 4.90655199,34.8377846 4.87655009,34.8556676 L3.76834831,34.984381 C3.76834831,34.984381 3.6990857,34.984381 3.67138066,34.984381 C3.65553588,34.9381127 3.65553588,34.8876344 3.67138066,34.8413661 L3.58826552,27.4761013 C3.59612728,27.4335807 3.59612728,27.3899085 3.58826552,27.347388 C3.55655094,27.3382347 3.52301245,27.3382347 3.49129787,27.347388 L3.36662517,27.347388 C3.33562688,27.3608969 3.3006558,27.3608969 3.26965751,27.347388 C3.21958313,27.2641886 3.21958313,27.1588591 3.26965751,27.0756597 L6.87131329,22.0987429 C6.87131329,22.0987429 6.98213347,22.0987429 7.03754356,22.0987429 L10.5283792,27.0184538 C10.6114943,27.1185642 10.5283792,27.3044835 10.4591165,27.3044835 L10.4591165,27.3044835 C10.4591165,27.3044835 10.3482964,27.3044835 10.3621489,27.4761013 L10.3621489,29.206581 C10.3459746,29.2478607 10.3459746,29.2940147 10.3621489,29.3352944 C10.3890384,29.3451094 10.4183745,29.3451094 10.445264,29.3352944 L11.2071528,29.3352944 C11.2764154,29.3352944 11.3179729,29.2494855 11.3179729,29.1636766 L11.3179729,28.9920587 C11.3179729,28.9062498 11.3179729,28.8204409 11.4149406,28.8204409 L12.911013,28.8204409 C13.0079806,28.8204409 13.0495382,28.6488231 12.911013,28.5344112 L6.95442843,20.0536306 Z" id="SVGID-12" fill="#135AAD"></path>
                <path d="M0.0233179385,28.5332276 C-0.149581387,28.8732276 0.688315343,28.9632276 0.91441446,28.9132276 C1.14051358,28.8632276 2.37740875,28.2232276 1.88531067,28.0932276 C1.39321259,27.9632276 0.0233179385,28.5332276 0.0233179385,28.5332276 Z" id="路径" fill="#135AAD"></path>
                <path d="M10.0199938,28.5412756 C9.86104961,28.8712756 10.6955068,28.9712756 10.9074325,28.9112756 C11.1193581,28.8512756 12.3776667,28.2212756 11.8875886,28.0912756 C11.3975105,27.9612756 10.0199938,28.5412756 10.0199938,28.5412756 Z" id="路径" fill="#135AAD"></path>
                <path d="M6.03262529,31.5388366 C5.82214396,31.7888366 6.69037948,31.9688366 6.9140159,31.9088366 C7.13765233,31.8488366 8.3742302,31.2288366 7.8874921,31.0988366 C7.400754,30.9688366 6.03262529,31.5388366 6.03262529,31.5388366 Z" id="路径" fill="#135AAD"></path>
                <path d="M8,30.4538339 C7.64840874,30.2772 7.1925504,30.1776455 6.71788474,30.1738339 C6.39284143,30.1738339 5.59829112,30.6738339 6.24837774,30.8038339 C6.89846435,30.9338339 8,30.4538339 8,30.4538339 Z" id="路径" fill="#135AAD"></path>
                <path d="M6,34.4441985 C5.6516787,34.2643163 5.18875902,34.1673099 4.71154601,34.1741985 C4.40304294,34.1741985 3.58641717,34.6741985 4.25786503,34.8041985 C4.92931288,34.9341985 6,34.4441985 6,34.4441985 Z" id="路径" fill="#135AAD"></path>
                <path d="M8,32.4538339 C7.64840874,32.2772 7.1925504,32.1776455 6.71788474,32.1738339 C6.39284143,32.1738339 5.59829112,32.6738339 6.24837774,32.8038339 C6.89846435,32.9338339 8,32.4538339 8,32.4538339 Z" id="路径" fill="#135AAD"></path>
                <path d="M8,35.4441985 C7.65339232,35.2643163 7.19275003,35.1673099 6.71788474,35.1741985 C6.39284143,35.1741985 5.59829112,35.6741985 6.24837774,35.8041985 C6.89846435,35.9341985 8,35.4441985 8,35.4441985 Z" id="路径" fill="#135AAD"></path>
                <path d="M12,34.5027574 C12,34.2527574 11.5328155,34.1727574 11.3739727,34.1727574 C11.21513,34.1727574 10.7853202,34.6727574 11.1310368,34.8027574 C11.4767533,34.9327574 12,34.5027574 12,34.5027574 Z" id="路径" fill="#135AAD"></path>
                <path d="M12,32.5027574 C12,32.2527574 11.5328155,32.1727574 11.3739727,32.1727574 C11.21513,32.1727574 10.7853202,32.6727574 11.1310368,32.8027574 C11.4767533,32.9327574 12,32.5027574 12,32.5027574 Z" id="路径" fill="#135AAD"></path>
                <path d="M12,30.5027574 C12,30.2527574 11.5309189,30.1727574 11.3714313,30.1727574 C11.2119437,30.1727574 10.7897706,30.6727574 11.1275091,30.8027574 C11.4652475,30.9327574 12,30.5027574 12,30.5027574 Z" id="路径" fill="#135AAD"></path>
                <path d="M7.9598952,20.3785288 C7.9598952,20.1285288 7.4798952,20.0085288 7.2498952,20.0585288 C7.0198952,20.1085288 6.9998952,20.7385288 7.0898952,20.8785288 C7.2998952,21.1985288 7.9598952,20.3785288 7.9598952,20.3785288 Z" id="路径" fill="#135AAD"></path>
                <path d="M5.01764923,33.5079468 C4.87265229,33.8179468 5.6620801,33.9279468 5.8876309,33.9579468 C6.515951,34.0179468 7.33760036,33.1879468 6.85427721,33.0579468 C6.37095405,32.9279468 5.01764923,33.5079468 5.01764923,33.5079468 Z" id="路径" fill="#135AAD"></path>
                <path d="M5,36.542814 C5,36.762814 5.81380426,37.002814 6.13932596,36.902814 C6.46484767,36.802814 7.34375627,36.222814 6.85547371,36.092814 C6.36719115,35.962814 5,36.542814 5,36.542814 Z" id="路径" fill="#135AAD"></path>
                <path d="M7,35.549133 C7,35.859133 7.75285692,35.919133 8.12928538,35.909133 C8.50571384,35.899133 9.34040303,35.239133 8.84940939,35.109133 C8.35841574,34.979133 7,35.549133 7,35.549133 Z" id="路径" fill="#135AAD"></path>
                <path d="M7,33.5499393 C7,33.8499393 7.68481179,33.9599393 8.12504793,33.9099393 C8.56528408,33.8599393 9.33162108,33.2399393 8.84246981,33.0999393 C8.35331853,32.9599393 7,33.5499393 7,33.5499393 Z" id="路径" fill="#135AAD"></path>
                <path d="M7,31.5438613 C7,31.7838613 7.75285692,31.9938613 8.12928538,31.9038613 C8.50571384,31.8138613 9.34040303,31.2238613 8.84940939,31.0938613 C8.35841574,30.9638613 7,31.5438613 7,31.5438613 Z" id="路径" fill="#135AAD"></path>
                <path d="M2,36.1705262 C2,36.971536 2.75773237,37.2207391 3.20093432,36.7935339 C3.40109005,36.6155317 4.37327498,35.1737141 3.844292,35.0135121 C3.31530902,34.8533101 2,36.1705262 2,36.1705262 Z" id="路径" fill="#135AAD"></path>
                <path d="M12.2534685,30.3378129 C12.2670457,30.3793811 12.2670457,30.4244435 12.2534685,30.4660117 L12.2534685,31.5913127 C12.2534685,31.691023 12.2534685,31.7764889 12.1575232,31.7907332 L8.30600538,32.1041081 C8.27506808,32.1161209 8.2409974,32.1161209 8.2100601,32.1041081 C8.20636955,32.0567045 8.20636955,32.0090686 8.2100601,31.961665 L8.2100601,30.7793867 C8.2100601,30.6654322 8.2100601,30.5657219 8.31971185,30.5657219 L12.1575232,30.3520572 C12.1575232,30.3520572 12.239762,30.3093242 12.2534685,30.3378129 Z M7.49732371,30.5657219 L6.72976144,30.5657219 C6.6612291,30.5657219 6.60640322,30.6654322 6.60640322,30.7793867 L6.60640322,31.9901536 C6.5907255,32.036237 6.5907255,32.0865134 6.60640322,32.1325968 C6.63668788,32.1479095 6.67206385,32.1479095 6.70234851,32.1325968 L7.46991077,32.1325968 C7.53844312,32.1325968 7.59326899,32.0186422 7.59326899,31.9046877 L7.59326899,30.7081651 C7.60701061,30.6617579 7.60701061,30.6121292 7.59326899,30.5657219 C7.59326899,30.5657219 7.49732371,30.5514776 7.49732371,30.5657219 Z M12.2945879,32.3889945 L8.4293636,32.7451024 C8.36083126,32.7451024 8.30600538,32.8448126 8.30600538,32.9587671 L8.30600538,34.1695341 C8.29027285,34.2204837 8.29027285,34.2752719 8.30600538,34.3262216 C8.33202871,34.3390499 8.36222087,34.3390499 8.3882442,34.3262216 L12.3494137,33.8988921 C12.426532,33.8607673 12.4667784,33.7711407 12.445359,33.6852273 L12.445359,32.545682 C12.4589362,32.5041138 12.4589362,32.4590513 12.445359,32.4174831 C12.4334535,32.3838532 12.4050993,32.3594487 12.3710878,32.3535576 C12.3370762,32.3476666 12.3026385,32.3611952 12.2808814,32.3889945 L12.2945879,32.3889945 Z M7.49732371,32.8305683 L6.74346791,32.8305683 C6.65176803,32.8634254 6.59463937,32.958418 6.60640322,33.0584774 L6.60640322,34.2977329 C6.59067069,34.3486825 6.59067069,34.4034708 6.60640322,34.4544204 C6.60640322,34.4544204 6.60640322,34.4544204 6.70234851,34.4544204 L7.46991077,34.3689545 C7.55214959,34.3689545 7.60697546,34.2692443 7.60697546,34.1410454 L7.60697546,32.9160342 C7.62071708,32.869627 7.62071708,32.8199983 7.60697546,32.773591 C7.60697546,32.773591 7.56585605,32.816324 7.49732371,32.8305683 Z M12.3494137,34.5398863 L8.44307007,35.0241931 C8.37453773,35.0241931 8.33341832,35.1381476 8.33341832,35.2521021 L8.33341832,36.4913577 C8.32379952,36.5431086 8.32379952,36.5962943 8.33341832,36.6480452 C8.33341832,36.6480452 8.33341832,36.6480452 8.4293636,36.6480452 L12.3494137,36.0640282 C12.4179461,36.0640282 12.4590655,35.964318 12.4590655,35.8503634 L12.4590655,34.6823295 C12.4630977,34.6396993 12.4630977,34.5967608 12.4590655,34.5541306 C12.4351738,34.536606 12.404896,34.5313617 12.3768267,34.5398863 L12.3494137,34.5398863 Z M7.55214959,35.1381476 L6.78458732,35.2378578 C6.69288743,35.2707149 6.63575878,35.3657075 6.64752263,35.4657669 L6.64752263,36.7477554 C6.63789866,36.7947098 6.63789866,36.8432442 6.64752263,36.8901986 C6.67819409,36.9036535 6.71279645,36.9036535 6.74346791,36.8901986 L7.52473665,36.7619997 C7.60697546,36.7619997 7.66180134,36.6480452 7.66180134,36.5340906 L7.66180134,35.2805908 C7.67747906,35.2345074 7.67747906,35.184231 7.66180134,35.1381476 C7.63542651,35.1270598 7.60593735,35.1270598 7.57956252,35.1381476 L7.55214959,35.1381476 Z M7.88110484,20.0534162 C7.88110484,19.9821946 7.75774662,19.9821946 7.71662721,20.0534162 L1.0415768,28.8421596 C0.986141067,28.9283839 0.986141067,29.0408216 1.0415768,29.1270459 C1.07611856,29.1448559 1.11668679,29.1448559 1.15122855,29.1270459 L3.22090537,29.1270459 C3.25157684,29.113591 3.28617919,29.113591 3.31685066,29.1270459 C3.33285437,29.1681606 3.33285437,29.2141301 3.31685066,29.2552448 L3.31685066,36.8474656 C3.30117293,36.893549 3.30117293,36.9438254 3.31685066,36.9899088 C3.34752212,37.0033637 3.38212448,37.0033637 3.41279594,36.9899088 L5.94849271,36.7477554 C6.01702505,36.7477554 6.07185093,36.6338009 6.07185093,36.5198463 L6.07185093,35.0954147 C6.08785465,35.0543 6.08785465,35.0083305 6.07185093,34.9672158 C6.04216536,34.9494043 6.00559122,34.9494043 5.97590565,34.9672158 L4.87938813,35.109659 C4.84910347,35.1249717 4.8137275,35.1249717 4.78344284,35.109659 C4.76986565,35.0680908 4.76986565,35.0230283 4.78344284,34.9814601 L4.70120403,27.6313927 C4.70701532,27.5888731 4.70701532,27.5457134 4.70120403,27.5031938 C4.66982383,27.4940772 4.63663895,27.4940772 4.60525874,27.5031938 L4.48190052,27.5031938 C4.45096322,27.5152066 4.41689254,27.5152066 4.38595524,27.5031938 C4.33640882,27.420327 4.33640882,27.3154186 4.38595524,27.2325518 L7.94963719,22.2755296 C7.94963719,22.2755296 8.05928894,22.2755296 8.11411482,22.2755296 L11.568145,27.1755746 C11.6366774,27.2752848 11.568145,27.4604609 11.4996127,27.4604609 L11.4996127,27.4604609 C11.4996127,27.4604609 11.3899609,27.5459268 11.4036674,27.6313927 L11.4036674,29.3691993 C11.3899052,29.4058379 11.3899052,29.4465153 11.4036674,29.4831539 C11.4296907,29.4959822 11.4598829,29.4959822 11.4859062,29.4831539 L12.239762,29.4831539 C12.3082943,29.4831539 12.3494137,29.397688 12.3357073,29.3122221 L12.3357073,29.1128016 C12.3357073,29.0273357 12.3357073,28.9418698 12.4316526,28.9418698 L13.9119512,28.9418698 C14.0078965,28.9418698 14.0490159,28.770938 13.9119512,28.6569835 L7.88110484,20.0534162 Z" id="形状" fill="url(#linearGradient-7)"></path>
            </g>
        </g>
    </g>
</svg>