<?xml version="1.0" encoding="UTF-8"?>
<svg width="60px" height="72px" viewBox="0 0 60 72" version="1.1" xmlns="http://www.w3.org/2000/svg" xmlns:xlink="http://www.w3.org/1999/xlink">
    <title>ODF</title>
    <defs>
        <linearGradient x1="26.051126%" y1="36.1067771%" x2="50%" y2="76.5706783%" id="linearGradient-1">
            <stop stop-color="#C1D4EB" offset="0%"></stop>
            <stop stop-color="#E5EBFC" stop-opacity="0" offset="100%"></stop>
        </linearGradient>
        <linearGradient x1="0%" y1="28.5417454%" x2="100%" y2="67.7794749%" id="linearGradient-2">
            <stop stop-color="#D2D5EC" offset="0%"></stop>
            <stop stop-color="#E2F0F7" offset="100%"></stop>
        </linearGradient>
        <linearGradient x1="44.180123%" y1="87.8640956%" x2="57.7108529%" y2="11.9972538%" id="linearGradient-3">
            <stop stop-color="#53BAFF" offset="0%"></stop>
            <stop stop-color="#57BFFF" offset="10%"></stop>
            <stop stop-color="#1E82FF" offset="100%"></stop>
        </linearGradient>
        <linearGradient x1="-5.71971053%" y1="44.8474677%" x2="106.889048%" y2="44.8474677%" id="linearGradient-4">
            <stop stop-color="#53BAFF" offset="0%"></stop>
            <stop stop-color="#57BFFF" offset="10%"></stop>
            <stop stop-color="#1E82FF" offset="100%"></stop>
        </linearGradient>
        <linearGradient x1="100.033692%" y1="50.0531118%" x2="0%" y2="50.0531118%" id="linearGradient-5">
            <stop stop-color="#53BAFF" offset="0%"></stop>
            <stop stop-color="#57BFFF" offset="10%"></stop>
            <stop stop-color="#4196FF" offset="96%"></stop>
        </linearGradient>
    </defs>
    <g id="页面-1" stroke="none" stroke-width="1" fill="none" fill-rule="evenodd">
        <g id="ODF">
            <g id="编组-4备份-6" transform="translate(0.000000, 25.000000)">
                <g id="编组-13" transform="translate(0.000000, 0.870968)">
                    <polygon id="矩形" fill="#A8B4DA" opacity="0.298339844" points="30 13.5860913 60 29.5349811 30 45.483871 0 29.5349811"></polygon>
                    <polygon id="矩形" fill="#FFFFFF" points="30 0 60 15.9488898 30 31.8977796 0 15.9488898"></polygon>
                    <polygon id="矩形" fill="url(#linearGradient-1)" points="30 31.8977796 60 15.9488898 60 20.7101685 30 37.8183253"></polygon>
                    <polygon id="矩形" fill="url(#linearGradient-2)" points="1.80064297e-14 15.9488898 30 31.8977796 30 37.8183253 2.66453526e-14 20.7786569"></polygon>
                </g>
            </g>
            <g id="ODF备份-2" transform="translate(9.000000, 0.000000)">
                <path d="M34.1456134,47.6457862 C34.6604252,47.1720833 35,46.5800948 35,45.1729187 L35,18.2842564 C35,16.4591071 35,16.4591071 34.8426964,16.2083232 C34.3278845,15.0658634 28.4933503,18.9948107 28.4933503,18.9948107 C27.8212348,52.209741 21.4055632,45.8961992 27.8407113,50.8561469 C29.1277409,51.817485 34.1456134,47.6457862 34.1456134,47.6457862 Z" id="路径" fill="url(#linearGradient-3)"></path>
                <path d="M34.9992427,16.9422514 C32.9810287,18.0158041 30.9451716,18.6829314 29.0667508,20 C12.3633607,11.7193933 2.36362539,4.60612569 0.860046898,3.78654345 C0.190271024,3.40501379 0.0262442791,4.5637335 0.0262442791,4.5637335 C0.0262442791,4.5637335 -0.137782466,3.50392889 0.354297768,3.05174558 C0.846378002,2.59956228 4.24993295,0.72017543 5.26143121,0.225599943 C5.43726769,0.0451729738 5.68780289,-0.0341127625 5.93120709,0.0136390199 C5.93120709,0.0136390199 33.5776776,15.6422244 33.9057311,15.8965775 C35.0675872,16.4335452 34.9992427,16.9422514 34.9992427,16.9422514 Z" id="路径" fill="url(#linearGradient-4)"></path>
                <path d="M28.3389482,19.234586 C13.0982027,10.1251589 2.30668657,3.89692041 0.984725845,3.12758784 C0,2.65200042 0,3.65912671 0,3.65912671 L0,32.5021044 C0,34.5023691 0.323745483,34.6002842 0.984725845,35.1877745 C1.48383347,35.5234832 22.231279,47.7204618 27.3542224,50.6653471 C29,51.5256008 29,50.5254685 29,49.9239903 L29,21.0250327 C29.0008024,20.3639745 28.7653005,19.7260532 28.3389482,19.234586 Z" id="路径" fill="url(#linearGradient-5)"></path>
                <path d="M8.785909,15 L8.785,16.741 L13.73,19.655 L13.7309838,17.5429776 L16.7576142,19.4539363 L16.757,21.438 L22.214,24.654 L22.214091,23.0508506 L25,27.4413426 L22.214091,28.7322906 L22.214,27.232 L16.757,23.966 L16.757,28.071 L22.214,31.2878547 L22.214091,29.6847053 L25,34.0751973 L22.214091,35.3661453 L22.214,33.8658547 L16.757,30.599 L16.757,34.705 L22.214,37.9217094 L22.214091,36.31856 L25,40.709052 L22.214091,42 L22.214,40.4997094 L16.757,37.233 L16.7576142,39.3555004 L13.7309838,37.4445417 L13.73,35.421 L8.785,32.4627094 L8.785909,33.9491494 L6,29.3412741 L8.785909,28.2677094 L8.785,30.0087094 L13.73,32.922 L13.73,28.787 L8.785,25.8288547 L8.785909,27.3152947 L6,22.7074194 L8.785909,21.6338547 L8.785,23.3748547 L13.73,26.288 L13.73,22.154 L8.785,19.195 L8.785909,20.68144 L6,16.0735647 L8.785909,15 Z" id="形状结合" fill="#FFFFFF" fill-rule="nonzero"></path>
            </g>
        </g>
    </g>
</svg>