<?xml version="1.0" encoding="UTF-8"?>
<svg width="40px" height="40px" viewBox="0 0 40 40" version="1.1" xmlns="http://www.w3.org/2000/svg" xmlns:xlink="http://www.w3.org/1999/xlink">
    <title>ODN</title>
    <defs>
        <rect id="path-1" x="0" y="0" width="40" height="40"></rect>
    </defs>
    <g id="山东移动" stroke="none" stroke-width="1" fill="none" fill-rule="evenodd">
        <g id="图标合集" transform="translate(-760.000000, -440.000000)">
            <g id="编组-13" transform="translate(760.000000, 440.000000)">
                <mask id="mask-2" fill="white">
                    <use xlink:href="#path-1"></use>
                </mask>
                <g id="蒙版" opacity="0.200000003"></g>
                <path d="M8.77246813,26.3556722 C9.4659092,26.3556176 10.1593258,26.6219735 10.6870944,27.1541384 L10.6870944,27.1541384 L12.7497122,29.2349396 C13.2808223,29.7706255 13.5451739,30.4746487 13.5451195,31.1780565 C13.5450651,31.8814235 13.2806305,32.5853917 12.7493027,33.1211455 L12.7493027,33.1211455 L10.6871642,35.2010503 C10.1593715,35.7333902 9.46617657,36 8.77253417,36 C8.07892001,36 7.38607576,35.7333594 6.85817377,35.2009093 L6.85817377,35.2009093 L4.7957656,33.1215585 C4.26448135,32.585697 4,31.8815804 4,31.1780942 C4,30.4746806 4.26443173,29.7706996 4.7957656,29.2349396 L4.7957656,29.2349396 L6.85851283,27.1544208 C7.38595288,26.6221354 8.07910601,26.3557267 8.77246813,26.3556722 Z M31.2648308,26.3928428 C32.0129975,26.3928428 32.7158874,26.6871634 33.2449776,27.221116 L33.2449776,27.221116 L35.1754644,29.1682348 C35.707581,29.70463 36,30.4186029 36,31.1774231 C36,31.9362433 35.7078841,32.6499105 35.1752637,33.1868137 L35.1752637,33.1868137 L33.2443766,35.1343368 C32.7155939,35.6685869 32.0125399,35.9628293 31.2648308,35.9628293 C30.5162266,35.9628293 29.8132468,35.6680856 29.2841999,35.1344808 L29.2841999,35.1344808 L27.3541827,33.1882487 C26.8047642,32.6337908 26.5311972,31.9054388 26.5311972,31.1777845 C26.5311972,30.4503425 26.804619,29.722395 27.3539885,29.1684455 L27.3539885,29.1684455 L29.2846841,27.221116 C29.813326,26.6879196 30.5165568,26.3928428 31.2648308,26.3928428 Z M19.8469059,13.1179622 C20.7965077,13.1179622 21.6885824,13.4915386 22.3597854,14.1688463 L22.3597854,14.1688463 L25.4931222,17.3291782 C26.1892423,18.0312958 26.536111,18.9538977 26.536111,19.8758913 C26.536111,20.7978849 26.1892423,21.7204868 25.4931222,22.4226044 L25.4931222,22.4226044 L22.3592084,25.5835183 C21.6885162,26.2603108 20.7964593,26.6338204 19.8469059,26.6338204 C18.897304,26.6338204 18.0052293,26.260244 17.3340263,25.5829363 L17.3340263,25.5829363 L14.2002801,22.4221914 C13.5041599,21.7200738 13.1572913,20.7974719 13.1572913,19.8754783 C13.1572913,18.9534847 13.5041599,18.0308828 14.2002341,17.3288116 L14.2002341,17.3288116 L17.3340263,14.1684333 C18.0051066,13.4915714 18.8972387,13.1179622 19.8469059,13.1179622 Z M8.77294365,4 C9.57198701,4 10.3224617,4.31463699 10.8873997,4.88444221 L10.8873997,4.88444221 L12.5497937,6.5611585 C13.1147965,7.1311789 13.4064689,7.87365866 13.4268575,8.62178055 C13.4471546,9.36654843 13.1990164,10.1180883 12.6796673,10.7116668 L12.6796673,10.7116668 L10.8866083,12.5277479 C10.3221063,13.0977316 9.57178283,13.4122177 8.77294365,13.4122177 C7.97392809,13.4122177 7.22342563,13.0979937 6.6585743,12.528276 L6.6585743,12.528276 L4.99580996,10.8507732 C4.42769549,10.2780751 4.11557557,9.51614088 4.11557557,8.70610886 C4.11557557,7.89597419 4.42783553,7.13431237 4.99600105,6.56125185 L4.99600105,6.56125185 L6.65848761,4.88444221 C7.22342563,4.31463699 7.97390028,4 8.77294365,4 L8.77294365,4 Z M31.2651289,4.08471808 C32.0809712,4.08471808 32.8965752,4.39808384 33.5176909,5.02486469 L33.5176909,5.02486469 L34.9027326,6.42183909 C35.507758,7.03176131 35.8398935,7.84365064 35.8398935,8.70652187 C35.8398935,9.56941886 35.5076614,10.3809668 34.9021409,10.9913884 L34.9021409,10.9913884 L33.5175144,12.3879441 C32.896723,13.0143979 32.0807748,13.3279642 31.2644214,13.3279642 C30.4482885,13.3279642 29.6323032,13.014269 29.0111518,12.387766 L29.0111518,12.387766 L27.62679,10.9914773 C27.0022889,10.3614381 26.6912068,9.53369367 26.6911501,8.70654464 C26.6910935,7.87935245 27.0020904,7.05155073 27.6263964,6.42155038 L27.6263964,6.42155038 L29.0104776,5.02513157 C29.632204,4.39852 30.4486416,4.08471808 31.2651289,4.08471808 Z" id="形状" stroke="#455A74" stroke-width="2" fill="#FFFFFF" mask="url(#mask-2)"></path>
            </g>
        </g>
    </g>
</svg>