<?xml version="1.0" encoding="UTF-8"?>
<svg width="60px" height="63px" viewBox="0 0 60 63" version="1.1" xmlns="http://www.w3.org/2000/svg" xmlns:xlink="http://www.w3.org/1999/xlink">
    <title>OLT</title>
    <defs>
        <linearGradient x1="26.051126%" y1="36.1067771%" x2="50%" y2="76.5706783%" id="linearGradient-1">
            <stop stop-color="#C1D4EB" offset="0%"></stop>
            <stop stop-color="#E5EBFC" stop-opacity="0" offset="100%"></stop>
        </linearGradient>
        <linearGradient x1="0%" y1="28.5417454%" x2="100%" y2="67.7794749%" id="linearGradient-2">
            <stop stop-color="#D2D5EC" offset="0%"></stop>
            <stop stop-color="#E2F0F7" offset="100%"></stop>
        </linearGradient>
        <linearGradient x1="23.9949817%" y1="55.461344%" x2="55.1133924%" y2="55.461344%" id="linearGradient-3">
            <stop stop-color="#0979DB" offset="0%"></stop>
            <stop stop-color="#0D7EE0" offset="100%"></stop>
        </linearGradient>
        <linearGradient x1="0.000395301781%" y1="49.9679776%" x2="99.9996047%" y2="49.9679776%" id="linearGradient-4">
            <stop stop-color="#53BAFF" offset="0%"></stop>
            <stop stop-color="#57BFFF" offset="10%"></stop>
            <stop stop-color="#1E82FF" offset="100%"></stop>
        </linearGradient>
        <linearGradient x1="45.4600846%" y1="51.6809504%" x2="72.133214%" y2="51.6809504%" id="linearGradient-5">
            <stop stop-color="#107FD6" offset="0%"></stop>
            <stop stop-color="#004CA7" offset="100%"></stop>
        </linearGradient>
    </defs>
    <g id="页面-1" stroke="none" stroke-width="1" fill="none" fill-rule="evenodd">
        <g id="OLT">
            <g id="编组-4备份-6" transform="translate(0.000000, 16.000000)">
                <g id="编组-13" transform="translate(0.000000, 0.870968)">
                    <polygon id="矩形" fill="#A8B4DA" opacity="0.298339844" points="30 13.5860913 60 29.5349811 30 45.483871 0 29.5349811"></polygon>
                    <polygon id="矩形" fill="#FFFFFF" points="30 0 60 15.9488898 30 31.8977796 0 15.9488898"></polygon>
                    <polygon id="矩形" fill="url(#linearGradient-1)" points="30 31.8977796 60 15.9488898 60 20.7101685 30 37.8183253"></polygon>
                    <polygon id="矩形" fill="url(#linearGradient-2)" points="1.80064297e-14 15.9488898 30 31.8977796 30 37.8183253 2.66453526e-14 20.7786569"></polygon>
                </g>
            </g>
            <g id="2.5D图标新2021-3-18_OLT备份" transform="translate(10.000000, 0.000000)" fill-rule="nonzero">
                <path d="M39.0894013,30.0393485 L22.6716207,39.2942866 C21.018416,40.2352378 18.981584,40.2352378 17.3283793,39.2942866 L0.910598684,30.0393485 C0.347968247,29.7262492 0,29.1386898 0,28.5017634 C0,27.8648369 0.347968247,27.2772775 0.910598684,26.9641783 L17.3283793,17.6945264 C18.985606,16.7684912 21.014394,16.7684912 22.6716207,17.6945264 L39.0894013,26.9641783 C39.6520318,27.2772775 40,27.8648369 40,28.5017634 C40,29.1386898 39.6520318,29.7262492 39.0894013,30.0393485 Z" id="路径" fill="url(#linearGradient-3)"></path>
                <path d="M20.0000053,17.2795528 C20.8857106,17.2741509 21.7567216,17.5028191 22.5223741,17.941852 L38.9401591,27.1979684 C39.4306598,27.4523919 39.7377784,27.9538467 39.7377784,28.5002995 C39.7377784,29.0467523 39.4306598,29.5482072 38.9401591,29.8026307 L22.5223741,39.0587471 C20.9598947,39.9412179 19.040116,39.9412179 17.4776365,39.0587471 L1.05985152,29.8026307 C0.585795189,29.5399281 0.294172354,29.043804 0.298415382,28.5076573 C0.288676378,27.9662657 0.581054371,27.4632046 1.05985152,27.1979684 L17.4776365,17.941852 C18.2446723,17.5061137 19.1147617,17.2776875 20.0000053,17.2795528 L20.0000053,17.2795528 Z M20,17.0000264 C19.0638146,16.9991439 18.1433598,17.2374327 17.3283839,17.6916867 L0.910598926,26.9625187 C0.347968339,27.2756578 0,27.863292 0,28.5002995 C0,29.1373071 0.347968339,29.7249413 0.910598926,30.0380804 L17.3283839,39.2941968 C18.981589,40.2352677 21.0184216,40.2352677 22.6716267,39.2941968 L39.0894117,30.0380804 C39.6295278,29.7347315 39.9734555,29.1788355 39.9999272,28.5665198 C40.005795,27.9260729 39.6566443,27.3335179 39.0894117,27.0213811 L22.6716267,17.6916867 C21.8574324,17.2355376 20.9364596,16.9971147 20,17.0000264 L20,17.0000264 Z" id="形状" fill="#309EFF"></path>
                <path d="M39.0894013,13.0393186 L22.6716207,22.3046906 C21.014394,23.2317698 18.985606,23.2317698 17.3283793,22.3046906 L0.910598684,13.0393186 C0.347968247,12.7258663 0,12.1376445 0,11.5 C0,10.8623555 0.347968247,10.2741337 0.910598684,9.96068144 L17.3283793,0.695309409 C18.985606,-0.231769803 21.014394,-0.231769803 22.6716207,0.695309409 L39.0894013,9.96068144 C39.6520318,10.2741337 40,10.8623555 40,11.5 C40,12.1376445 39.6520318,12.7258663 39.0894013,13.0393186 L39.0894013,13.0393186 Z" id="路径-2" fill="url(#linearGradient-4)"></path>
                <path d="M39.9850746,11 L39.9850746,28.102697 C39.9586774,28.7363946 39.6147472,29.3117024 39.074627,29.6256442 L22.671645,39.2811294 C21.0144055,40.2396235 18.9856018,40.2396235 17.3283623,39.2811294 L0.910454892,29.6865621 C0.36616984,29.3770197 0.0206649159,28.7990779 0,28.1636149 L0,11 C-0.00183552611,11.6656737 0.345472129,12.2814885 0.910454892,12.614324 L17.3283623,22.1936619 C18.9815797,23.1675948 21.0184276,23.1675948 22.671645,22.1936619 L39.0895524,12.614324 C39.6521702,12.2865157 39.9995921,11.6763097 40,11.0152295 L40,11.0152295 L39.9850746,11 Z" id="路径-3" fill="url(#linearGradient-5)"></path>
                <path d="M21.3495935,14 L23.2357724,17.2621951 L24,16.9268293 L23.4308943,19 L21.1382114,18.1768293 L21.9349593,17.8414634 L20,14.5487805 L21.3495935,14 Z M23.9335443,13 L27.0664557,14.8533333 L27.5727848,14.4666667 L28,16 L25.6582278,15.92 L26.1803797,15.52 L23,13.6666667 L23.9335443,13 Z M24.6737968,11 L28.6042781,12.3333333 L28.9893048,11.7142857 L30,13.4126984 L27.5935829,14 L27.9786096,13.3650794 L24,12.0793651 L24.6737968,11 Z M22.434323,10.3954375 C23.290421,11.0631606 23.1598298,12.2873198 22.1441203,13.1776173 C21.2056072,14.0623261 19.7739085,14.2543733 18.6181573,13.6505879 C17.6895086,12.9828648 17.8200998,11.6891511 18.9228702,10.7849427 C19.8663315,9.90781762 21.3068707,9.74802692 22.434323,10.3954375 Z M13.8444924,5 L18.0021598,7.92349727 L19,7.17213115 L18.9546436,9.82240437 L15.2203024,10 L16.2786177,9.20765027 L12,6.29781421 L13.8444924,5 Z" id="形状结合" fill="#FFFFFF"></path>
                <path d="M39.7164179,20 C39.7124734,20.5581132 39.4154421,21.0702273 38.9402985,21.338114 L22.5223881,31.0279049 C20.9598967,31.9502555 19.0401033,31.9502555 17.4776119,31.0279049 L1.05970149,21.3996365 C0.579879933,21.1290957 0.282089209,20.6097708 0.28358209,20.0461419 L0,20.0461419 C0.0206576224,20.6879117 0.366162609,21.2715895 0.910447761,21.5842039 L17.3283582,31.2739948 C18.985598,32.2420017 21.014402,32.2420017 22.6716418,31.2739948 L39.0895522,21.5842039 C39.6338374,21.2715895 39.9793424,20.6879117 40,20.0461419 L39.7164179,20 Z" id="路径" fill="#FFFFFF"></path>
                <path d="M19.9999947,0.294034364 C20.883534,0.290384501 21.7528303,0.513354665 22.5223635,0.941054569 L38.9401485,10.2045605 C39.4189456,10.4695871 39.7113236,10.9722507 39.7015846,11.5132145 C39.7058276,12.0489375 39.4142048,12.5446696 38.9401485,12.8071645 L22.5223635,22.0559665 C20.959884,22.9377399 19.0401053,22.9377399 17.4776259,22.0559665 L1.05984088,12.7924605 C0.585784551,12.5299656 0.294161716,12.0342335 0.298601532,11.4985105 C0.294161716,10.9627875 0.585784551,10.4670554 1.05984088,10.2045605 L17.4776259,0.941054569 C18.2484333,0.516468352 19.1168842,0.293715005 19.9999947,0.294034364 L19.9999947,0.294034364 Z M19.9999947,0 C19.0625596,0.00424261613 18.1421893,0.247386733 17.3283733,0.705790927 L0.910588288,9.95459286 C0.347974721,10.2710901 0.00055535777,10.8602409 7.28162052e-05,11.4985105 C-0.0057950169,12.1384512 0.343355696,12.730538 0.910588288,13.0424282 L17.3283733,22.3059341 C18.9856004,23.2313553 21.014389,23.2313553 22.6716161,22.3059341 L39.0894011,13.0424282 C39.6520317,12.7295365 40,12.1423667 40,11.5058625 C40,10.8693583 39.6520317,10.2821885 39.0894011,9.96929684 L22.6716161,0.705790927 C21.858589,0.245502547 20.9377036,0.00222234951 19.9999947,0 Z" id="形状-2" fill="#FFFFFF"></path>
            </g>
        </g>
    </g>
</svg>