<?xml version="1.0" encoding="UTF-8"?>
<svg width="60px" height="61px" viewBox="0 0 60 61" version="1.1" xmlns="http://www.w3.org/2000/svg" xmlns:xlink="http://www.w3.org/1999/xlink">
    <title>ONT</title>
    <defs>
        <linearGradient x1="26.051126%" y1="36.1067771%" x2="50%" y2="76.5706783%" id="linearGradient-1">
            <stop stop-color="#C1D4EB" offset="0%"></stop>
            <stop stop-color="#E5EBFC" stop-opacity="0" offset="100%"></stop>
        </linearGradient>
        <linearGradient x1="0%" y1="28.5417454%" x2="100%" y2="67.7794749%" id="linearGradient-2">
            <stop stop-color="#D2D5EC" offset="0%"></stop>
            <stop stop-color="#E2F0F7" offset="100%"></stop>
        </linearGradient>
        <linearGradient x1="23.8474858%" y1="57.6680535%" x2="54.9651787%" y2="57.6680535%" id="linearGradient-3">
            <stop stop-color="#0979DB" offset="0%"></stop>
            <stop stop-color="#0D7EE0" offset="100%"></stop>
        </linearGradient>
        <linearGradient x1="0.0399992994%" y1="49.6477532%" x2="99.9996049%" y2="49.6477532%" id="linearGradient-4">
            <stop stop-color="#53BAFF" offset="0%"></stop>
            <stop stop-color="#57BFFF" offset="10%"></stop>
            <stop stop-color="#1E82FF" offset="100%"></stop>
        </linearGradient>
        <linearGradient x1="45.4092533%" y1="52.9769063%" x2="72.0525582%" y2="52.9769063%" id="linearGradient-5">
            <stop stop-color="#107FD6" offset="0%"></stop>
            <stop stop-color="#004CA7" offset="100%"></stop>
        </linearGradient>
    </defs>
    <g id="页面-1" stroke="none" stroke-width="1" fill="none" fill-rule="evenodd">
        <g id="ONT">
            <g id="编组-4备份-6" transform="translate(0.000000, 14.000000)">
                <g id="编组-13" transform="translate(0.000000, 0.870968)">
                    <polygon id="矩形" fill="#A8B4DA" opacity="0.298339844" points="30 13.5860913 60 29.5349811 30 45.483871 0 29.5349811"></polygon>
                    <polygon id="矩形" fill="#FFFFFF" points="30 0 60 15.9488898 30 31.8977796 0 15.9488898"></polygon>
                    <polygon id="矩形" fill="url(#linearGradient-1)" points="30 31.8977796 60 15.9488898 60 20.7101685 30 37.8183253"></polygon>
                    <polygon id="矩形" fill="url(#linearGradient-2)" points="1.80064297e-14 15.9488898 30 31.8977796 30 37.8183253 2.66453526e-14 20.7786569"></polygon>
                </g>
            </g>
            <g id="2.5D图标新2021-3-18_机顶盒备份" transform="translate(6.000000, 0.000000)">
                <path d="M47.8845423,27.8738978 L27.773225,39.1405102 C25.7547685,40.2864966 23.2646448,40.2864966 21.2461883,39.1405102 L1.13487093,27.8738978 C0.435341136,27.5005552 0,26.7825258 0,26.0020998 C0,25.2216737 0.435341136,24.5036443 1.13487093,24.1303017 L21.2461883,12.8457774 C23.2696215,11.7180742 25.7497918,11.7180742 27.773225,12.8457774 L47.8845423,24.1303017 C48.5737487,24.5114569 49,25.2267295 49,26.0020998 C49,26.77747 48.5737487,27.4927426 47.8845423,27.8738978 L47.8845423,27.8738978 Z" id="路径" fill="url(#linearGradient-3)" fill-rule="nonzero"></path>
                <path d="M24.5005716,12.3403799 C25.5910541,12.3357404 26.6633867,12.6138702 27.6086852,13.1465868 L47.7200079,24.4147491 C48.3208574,24.7244779 48.6970689,25.3349363 48.6970689,26.0001741 C48.6970689,26.665412 48.3208574,27.2758704 47.7200079,27.5855992 L27.6086852,38.8537615 C25.6880513,39.9276307 23.331375,39.9276307 21.4107412,38.8537615 L1.29941842,27.5855992 C0.718712815,27.2657917 0.361483083,26.6618228 0.366680671,26.0091313 C0.354750667,25.3500549 0.712905447,24.737641 1.29941842,24.4147491 L21.4107412,13.1465868 C22.3503383,12.6161301 23.4161732,12.3380498 24.5005716,12.3403799 L24.5005716,12.3403799 Z M24.5005716,12.0000321 C23.359528,11.9987786 22.237853,12.2889799 21.246194,12.8420419 L1.13487124,24.1281186 C0.435341252,24.5015125 0,25.2196407 0,26.0001741 C0,26.7807076 0.435341252,27.4988357 1.13487124,27.8722297 L21.246194,39.140392 C23.264651,40.286536 25.7547753,40.286536 27.7732323,39.140392 L47.8845551,27.8722297 C48.5461821,27.5029404 48.9674837,26.8262067 48.9999108,26.080789 C49.0070987,25.3011252 48.579399,24.5797637 47.8845551,24.1997762 L27.7732323,12.8420419 C26.7758673,12.2867375 25.6477017,11.9964875 24.5005716,12.0000321 L24.5005716,12.0000321 Z" id="形状" fill="#309EFF" fill-rule="nonzero"></path>
                <path d="M47.8849584,16.7842902 L27.7811422,28.1535364 C25.7518435,29.2821545 23.2675625,29.2821545 21.2382638,28.1535364 L1.13444765,16.873953 C0.435178761,16.5001806 0,15.7813245 0,15 C0,14.2186755 0.435178761,13.4998194 1.13444765,13.126047 L21.2382638,1.84646363 C23.2675625,0.717845457 25.7518435,0.717845457 27.7811422,1.84646363 L47.8849584,13.126047 C48.5739077,13.507641 49,14.2237371 49,15 C49,15.7762629 48.5739077,16.492359 47.8849584,16.873953 L47.8849584,16.7842902 Z" id="路径-2" fill="url(#linearGradient-4)" fill-rule="nonzero"></path>
                <path d="M48.999518,13 L48.999518,25.9776401 C48.9676996,26.7245267 48.5468561,27.4025941 47.8859488,27.7726111 L27.7417109,39.1527271 C25.7138625,40.2824243 23.231357,40.2824243 21.2035086,39.1527271 L1.11406016,27.84441 C0.448056498,27.4795782 0.0252862165,26.7984063 -0.000365005169,26.049439 L-0.000365005169,13.8778134 C-0.0022460053,14.6623876 0.422730153,14.5103837 1.11406016,14.9026692 L21.2035086,26.1930367 C23.2264354,27.3409303 25.7187841,27.3409303 27.7417109,26.1930367 L47.8311594,14.9026692 C48.5195955,14.5163089 48.9447115,13.7971099 48.9452106,13.0179497 L48.999518,13 Z" id="路径-3" fill="url(#linearGradient-5)" fill-rule="nonzero"></path>
                <path d="M24.5003514,0.340220818 C25.5898654,0.34378048 26.660197,0.621181722 27.6088247,1.14585371 L47.7224757,12.4247142 C48.3032485,12.7443171 48.6605196,13.3478999 48.6553214,14.000174 C48.6672528,14.6588291 48.3090566,15.2708514 47.7224757,15.5935369 L27.6088247,26.8544944 C25.6879685,27.927677 23.3310194,27.927677 21.4101632,26.8544944 L1.29651222,15.5756339 C0.705128469,15.2631104 0.336494399,14.6581548 0.336494399,14.000174 C0.336494399,13.3421933 0.705128469,12.7372377 1.29651222,12.4247142 L21.4101632,1.14585371 C22.3530801,0.623394375 23.4169312,0.346041213 24.5003514,0.340220818 Z M24.5003514,3.20593296e-05 C23.3591756,-0.00122063151 22.2373708,0.28879514 21.245597,0.841503505 L1.13194599,12.120364 C0.433492171,12.4987296 -1.42108547e-14,13.2186252 -1.42108547e-14,14.000174 C-1.42108547e-14,14.7817228 0.433492171,15.5016184 1.13194599,15.8799841 L21.245597,27.1409416 C23.2642877,28.2863528 25.7547003,28.2863528 27.773391,27.1409416 L47.8870419,15.8799841 C48.5753695,15.4940204 49,14.7768103 49,14.000174 C49,13.2235378 48.5753695,12.5063277 47.8870419,12.120364 L27.773391,0.841503505 C26.7759104,0.286554135 25.6476142,-0.0035102529 24.5003514,3.20593296e-05 Z" id="形状-2" fill="#FFFFFF" fill-rule="nonzero"></path>
                <g id="VAS-_-通用VAS" transform="translate(1.000000, 20.000000)" fill="#FFFFFF" fill-rule="nonzero">
                    <g id="Group-2" transform="translate(4.360238, 2.381295)">
                        <path d="M2.5221562,4.85808606 C3.27503334,4.86941616 3.87264335,4.04806358 3.85695551,3.02354372 C3.84126768,1.99902386 3.21822267,1.15930155 2.46534553,1.14797145 C1.71246839,1.13664135 1.11485839,1.95799393 1.13054622,2.98251379 C1.14623406,4.00703365 1.76927907,4.84675595 2.5221562,4.85808606 Z" id="椭圆形-3" transform="translate(2.493751, 3.003029) rotate(-30.130000) translate(-2.493751, -3.003029) "></path>
                        <path d="M2.52257163,5.06881808 C3.27544876,5.08014819 3.87305877,4.2587956 3.85737094,3.23427575 C3.8416831,2.20975589 3.21863809,1.37003358 2.46576095,1.35870348 C1.71288382,1.34737337 1.11527381,2.16872596 1.13096164,3.19324581 C1.14664948,4.21776567 1.76969449,5.05748798 2.52257163,5.06881808 Z" id="椭圆形-4" transform="translate(2.494166, 3.213761) rotate(-30.130000) translate(-2.494166, -3.213761) "></path>
                    </g>
                    <path d="M2.60343175,4.45514865 C3.34664099,4.46634241 3.93652133,3.65255186 3.92096637,2.63749659 C3.90541141,1.62244131 3.2903115,0.790502098 2.54710225,0.779308342 C1.80389301,0.768114586 1.21401266,1.58190514 1.22956762,2.59696041 C1.24512258,3.61201568 1.8602225,4.4439549 2.60343175,4.45514865 Z" id="椭圆形-5" transform="translate(2.575267, 2.617228) rotate(-30.170000) translate(-2.575267, -2.617228) "></path>
                    <path d="M2.73119642,4.78696977 C3.48407356,4.79829987 4.08168356,3.97694729 4.06599573,2.95242743 C4.0503079,1.92790757 3.42726288,1.08818527 2.67438575,1.07685516 C1.92150861,1.06552506 1.3238986,1.88687764 1.33958644,2.9113975 C1.35527427,3.93591736 1.97831928,4.77563967 2.73119642,4.78696977 Z" id="椭圆形-6" transform="translate(2.702791, 2.931912) rotate(-30.130000) translate(-2.702791, -2.931912) "></path>
                </g>
                <path d="M12.4853896,26.3896362 L18.2388303,29.6506972 C19.0475762,30.0740967 19.5106509,31.0909629 19.2731366,31.9219313 C19.1307355,32.4201364 18.7688328,32.7384085 18.3275246,32.8221733 C18.0327642,32.8781219 17.7025792,32.8294514 17.3787149,32.6599 L11.6252741,29.398839 C10.8165282,28.9754395 10.3534535,27.9585733 10.5909679,27.1276049 C10.8284822,26.2966365 11.6766437,25.9662367 12.4853896,26.3896362 Z" id="Rectangle-Copy" fill="#1077C4"></path>
                <path d="M12.6110304,26.6423142 L18.3644711,29.9033752 C19.173217,30.3267748 19.6362917,31.3436409 19.3987774,32.1746093 C19.2563763,32.6728144 18.8944736,32.9910865 18.4531654,33.0748513 C18.158405,33.1307999 17.82822,33.0821294 17.5043557,32.912578 L11.7509149,29.6515171 C10.942169,29.2281175 10.4790943,28.2112514 10.7166087,27.3802829 C10.954123,26.5493145 11.8022845,26.2189147 12.6110304,26.6423142 Z" id="Rectangle" fill="#FFFFFF" fill-rule="nonzero"></path>
            </g>
        </g>
    </g>
</svg>