<?xml version="1.0" encoding="UTF-8"?>
<svg width="60px" height="63px" viewBox="0 0 60 63" version="1.1" xmlns="http://www.w3.org/2000/svg" xmlns:xlink="http://www.w3.org/1999/xlink">
    <title>ONU</title>
    <defs>
        <linearGradient x1="26.051126%" y1="36.1067771%" x2="50%" y2="76.5706783%" id="linearGradient-1">
            <stop stop-color="#C1D4EB" offset="0%"></stop>
            <stop stop-color="#E5EBFC" stop-opacity="0" offset="100%"></stop>
        </linearGradient>
        <linearGradient x1="0%" y1="28.5417454%" x2="100%" y2="67.7794749%" id="linearGradient-2">
            <stop stop-color="#D2D5EC" offset="0%"></stop>
            <stop stop-color="#E2F0F7" offset="100%"></stop>
        </linearGradient>
        <linearGradient x1="24.2806813%" y1="57.6680535%" x2="55.3983742%" y2="57.6680535%" id="linearGradient-3">
            <stop stop-color="#0979DB" offset="0%"></stop>
            <stop stop-color="#0D7EE0" offset="100%"></stop>
        </linearGradient>
        <linearGradient x1="0.0399992994%" y1="49.6477532%" x2="99.9996049%" y2="49.6477532%" id="linearGradient-4">
            <stop stop-color="#53BAFF" offset="0%"></stop>
            <stop stop-color="#57BFFF" offset="10%"></stop>
            <stop stop-color="#1E82FF" offset="100%"></stop>
        </linearGradient>
        <linearGradient x1="45.320174%" y1="52.9769063%" x2="71.9634788%" y2="52.9769063%" id="linearGradient-5">
            <stop stop-color="#107FD6" offset="0%"></stop>
            <stop stop-color="#004CA7" offset="100%"></stop>
        </linearGradient>
    </defs>
    <g id="页面-1" stroke="none" stroke-width="1" fill="none" fill-rule="evenodd">
        <g id="ONU">
            <g id="编组-4备份-6" transform="translate(0.000000, 16.000000)">
                <g id="编组-13" transform="translate(0.000000, 0.870968)">
                    <polygon id="矩形" fill="#A8B4DA" opacity="0.298339844" points="30 13.5860913 60 29.5349811 30 45.483871 0 29.5349811"></polygon>
                    <polygon id="矩形" fill="#FFFFFF" points="30 0 60 15.9488898 30 31.8977796 0 15.9488898"></polygon>
                    <polygon id="矩形" fill="url(#linearGradient-1)" points="30 31.8977796 60 15.9488898 60 20.7101685 30 37.8183253"></polygon>
                    <polygon id="矩形" fill="url(#linearGradient-2)" points="1.80064297e-14 15.9488898 30 31.8977796 30 37.8183253 2.66453526e-14 20.7786569"></polygon>
                </g>
            </g>
            <g id="2.5D图标新2021-3-18_光猫-31备份" transform="translate(6.000000, 0.000000)" fill-rule="nonzero">
                <path d="M46.9073068,27.8738978 L27.2064244,39.1405102 C25.2291609,40.2864966 22.7898561,40.2864966 20.8125926,39.1405102 L1.1117103,27.8738978 C0.426456623,27.5005552 0,26.7825258 0,26.0020998 C0,25.2216737 0.426456623,24.5036443 1.1117103,24.1303017 L20.8125926,12.8457774 C22.7947313,11.7180742 25.2242858,11.7180742 27.2064244,12.8457774 L46.9073068,24.1303017 C47.5824477,24.5114569 48,25.2267295 48,26.0020998 C48,26.77747 47.5824477,27.4927426 46.9073068,27.8738978 L46.9073068,27.8738978 Z" id="路径" fill="url(#linearGradient-3)"></path>
                <path d="M24.00056,12.3403799 C25.0687877,12.3357404 26.119236,12.6138702 27.0452426,13.1465868 L46.7461302,24.4147491 C47.3347175,24.7244779 47.7032512,25.3349363 47.7032512,26.0001741 C47.7032512,26.665412 47.3347175,27.2758704 46.7461302,27.5855992 L27.0452426,38.8537615 C25.1638053,39.9276307 22.8552245,39.9276307 20.9737873,38.8537615 L1.27289968,27.5855992 C0.704045207,27.2657917 0.354105877,26.6618228 0.359197392,26.0091313 C0.347510858,25.3500549 0.698356357,24.737641 1.27289968,24.4147491 L20.9737873,13.1465868 C21.8942089,12.6161301 22.9382921,12.3380498 24.00056,12.3403799 L24.00056,12.3403799 Z M24.00056,12.0000321 C22.8828029,11.9987786 21.7840193,12.2889799 20.8125982,12.8420419 L1.1117106,24.1281186 C0.426456737,24.5015125 0,25.2196407 0,26.0001741 C0,26.7807076 0.426456737,27.4988357 1.1117106,27.8722297 L20.8125982,39.140392 C22.7898622,40.286536 25.2291677,40.286536 27.2064317,39.140392 L46.9073193,27.8722297 C47.5554436,27.5029404 47.9681473,26.8262067 47.9999126,26.080789 C48.0069539,25.3011252 47.5879827,24.5797637 46.9073193,24.1997762 L27.2064317,12.8420419 C26.229421,12.2867375 25.1242792,11.9964875 24.00056,12.0000321 L24.00056,12.0000321 Z" id="形状" fill="#309EFF"></path>
                <path d="M46.9077143,16.7842902 L27.2141801,28.1535364 C25.2262957,29.2821545 22.7927143,29.2821545 20.8048299,28.1535364 L1.11129565,16.873953 C0.426297562,16.5001806 0,15.7813245 0,15 C0,14.2186755 0.426297562,13.4998194 1.11129565,13.126047 L20.8048299,1.84646363 C22.7927143,0.717845457 25.2262957,0.717845457 27.2141801,1.84646363 L46.9077143,13.126047 C47.5826035,13.507641 48,14.2237371 48,15 C48,15.7762629 47.5826035,16.492359 46.9077143,16.873953 L46.9077143,16.7842902 Z" id="路径-2" fill="url(#linearGradient-4)"></path>
                <path d="M48,14 L48,26.9776401 C47.9683588,27.7245267 47.556104,28.4025941 46.9086845,28.7726111 L27.1755536,40.1527271 C25.1890898,41.2824243 22.7572477,41.2824243 20.7707839,40.1527271 L1.09132424,28.84441 C0.438912488,28.4795782 0.0247701713,27.7984063 0,27.049439 L0,14 C-0.00220016845,14.7845741 0.414103007,15.5103837 1.09132424,15.9026692 L20.7707839,27.1930367 C22.7524266,28.3409303 25.1939109,28.3409303 27.1755536,27.1930367 L46.8550133,15.9026692 C47.5293997,15.5163089 47.9458398,14.7971099 47.9463287,14.0179497 L47.9463287,14.0179497 L48,14 Z" id="路径-3" fill="url(#linearGradient-5)"></path>
                <path d="M24.0003442,0.340220818 C25.0676232,0.34378048 26.1161113,0.621181722 27.0453793,1.14585371 L46.7485476,12.4247142 C47.317468,12.7443171 47.6674478,13.3478999 47.6623557,14.000174 C47.6740436,14.6588291 47.3231575,15.2708514 46.7485476,15.5935369 L27.0453793,26.8544944 C25.1637243,27.927677 22.8548762,27.927677 20.9732211,26.8544944 L1.27005279,15.5756339 C0.690738092,15.2631104 0.329627166,14.6581548 0.329627166,14.000174 C0.329627166,13.3421933 0.690738092,12.7372377 1.27005279,12.4247142 L20.9732211,1.14585371 C21.8968948,0.623394375 22.9390347,0.346041213 24.0003442,0.340220818 Z M24.0003442,3.20593296e-05 C22.8824578,-0.00122063151 21.7835469,0.28879514 20.8120134,0.841503505 L1.10884505,12.120364 C0.424645392,12.4987296 -1.42108547e-14,13.2186252 -1.42108547e-14,14.000174 C-1.42108547e-14,14.7817228 0.424645392,15.5016184 1.10884505,15.8799841 L20.8120134,27.1409416 C22.7895063,28.2863528 25.2290941,28.2863528 27.2065871,27.1409416 L46.9097554,15.8799841 C47.5840354,15.4940204 48,14.7768103 48,14.000174 C48,13.2235378 47.5840354,12.5063277 46.9097554,12.120364 L27.2065871,0.841503505 C26.2294633,0.286554135 25.1241935,-0.0035102529 24.0003442,3.20593296e-05 Z" id="形状-2" fill="#FFFFFF"></path>
                <g id="直线-5备份-2" opacity="0.84" transform="translate(4.000000, 26.000000)" fill="#FFFFFF">
                    <polygon id="路径" points="11.3725 6.9125 0.715 0.8225 0.715 0.175 11.3725 6.265"></polygon>
                </g>
                <g id="直线-5备份-2-2" opacity="0.84" transform="translate(4.000000, 23.000000)" fill="#FFFFFF">
                    <polygon id="路径" points="11.3725 7.244 0.715 0.98 0.715 0.314 11.3725 6.578"></polygon>
                </g>
                <g id="直线-5备份-2-3" opacity="0.84" transform="translate(4.000000, 20.000000)" fill="#FFFFFF">
                    <polygon id="路径" points="11.3725 7.452 0.715 1.188 0.715 0.522 11.3725 6.786"></polygon>
                </g>
                <polygon id="路径-34" fill="#FFFFFF" points="17 27 17 33.7456979 20 36 20 28.4971319"></polygon>
            </g>
        </g>
    </g>
</svg>