<?xml version="1.0" encoding="UTF-8"?>
<svg width="40px" height="40px" viewBox="0 0 40 40" version="1.1" xmlns="http://www.w3.org/2000/svg" xmlns:xlink="http://www.w3.org/1999/xlink">
    <title>操作员</title>
    <defs>
        <rect id="path-1" x="0" y="0" width="40" height="40"></rect>
    </defs>
    <g id="山东移动" stroke="none" stroke-width="1" fill="none" fill-rule="evenodd">
        <g id="图标合集" transform="translate(-280.000000, -600.000000)">
            <g id="编组-13" transform="translate(280.000000, 600.000000)">
                <mask id="mask-2" fill="white">
                    <use xlink:href="#path-1"></use>
                </mask>
                <g id="蒙版" opacity="0.200000003"></g>
                <g id="caozuoyuanguanli" mask="url(#mask-2)">
                    <g transform="translate(4.000000, 4.000000)">
                        <path d="M30.352,22.4703086 C30.3776,22.2682514 30.4032,22.0661943 30.4032,21.8517029 C30.4032,21.6387657 30.3904,21.4351543 30.3504,21.2330971 L31.7296,20.1839543 C31.8488663,20.0836741 31.8807534,19.9165324 31.8064,19.7813943 L30.5072,17.5991771 C30.4304,17.4592914 30.2608,17.4095543 30.1056,17.4592914 L28.4944,18.0903314 C28.1590161,17.8339214 27.7871519,17.6260777 27.3904,17.47328 L27.1424,15.8070857 C27.1312,15.6547657 26.9888,15.5428571 26.8304,15.5428571 L24.232,15.5428571 C24.0733884,15.5453154 23.938381,15.6556892 23.9088,15.8070857 L23.6624,17.47328 C23.2697324,17.6341833 22.8989448,17.8414252 22.5584,18.0903314 L20.9472,17.4592914 C20.7956575,17.4072243 20.627303,17.465633 20.544,17.5991771 L19.2448,19.7813943 C19.1627279,19.9164196 19.1970281,20.0896848 19.3248,20.1855086 L20.7008,21.2346514 C20.6464,21.6449829 20.6464,22.0584229 20.7008,22.4703086 L19.3248,23.5178971 C19.2044349,23.6173587 19.1711954,23.7846196 19.2448,23.9204571 L20.544,26.1026743 C20.624,26.24256 20.792,26.2938514 20.9472,26.24256 L22.5584,25.61152 C22.896,25.8648686 23.2592,26.0778057 23.6624,26.2285714 L23.9088,27.8947657 C23.9328,28.0501943 24.072,28.1636571 24.2336,28.1621186 L26.832,28.1621186 C26.9924532,28.1607072 27.1290346,28.0482895 27.1568,27.8947657 L27.4032,26.2285714 C27.792,26.0653714 28.1712,25.8648686 28.4944,25.61152 L30.1168,26.24256 C30.2688,26.2954057 30.4368,26.2363429 30.5216,26.1026743 L31.8208,23.9204571 C31.8952756,23.7842375 31.8619732,23.6160128 31.7408,23.5163429 L30.3504,22.4672 L30.3504,22.4703086 L30.352,22.4703086 Z M25.5328,23.7448254 C25.0156856,23.7456498 24.519506,23.5464622 24.1538504,23.1912539 C23.7881948,22.8360456 23.5831488,22.3540425 23.5839974,21.8517029 C23.5839974,20.8041143 24.4544,19.9585829 25.5328,19.9585829 C26.6112,19.9585829 27.48,20.8041143 27.48,21.8517029 C27.48,22.8992914 26.6112,23.7432686 25.5328,23.7432686 L25.5328,23.7448254 Z" id="形状" stroke="none" fill="#455A74"></path>
                        <path d="M11.2674927,1.07939632 C12.0293839,0.954160553 12.780538,1.02918039 13.4014604,1.22079162 C13.9185554,1.38036264 14.3854253,1.59154991 14.5439051,1.89262495 C14.6608013,2.11470087 14.642403,2.44740676 14.5600757,2.81402654 C14.8320766,2.62262151 15.1798067,2.48807138 15.6067293,2.41087755 C16.2012135,2.30338617 16.6908098,2.35384018 17.0838035,2.55769684 C17.535333,2.79191765 17.8436979,3.2101404 18.0729243,3.69486037 C18.9379585,5.52405327 18.7303481,8.31889531 18.3816479,9.35701553 C18.6632175,10.7034908 18.6917467,11.0100344 18.6668462,11.4657937 C18.600713,12.7892152 17.4345099,13.6555613 17.4345099,13.6555613 C17.0231121,14.5860908 16.6693836,15.4088859 16.3236373,16.0907106 C16.1993283,16.3358526 16.1583257,16.7268469 16.0493941,16.7663617 C15.5035808,16.8712522 15.4105729,17.2387224 15.3914257,17.6611418 C15.3333424,18.9425565 15.9978976,19.7818808 16.4679697,20.2111574 L16.4679697,20.2111574 L16.8275356,23.9332635 C16.8389397,24.8147218 17.1410611,25.8925184 17.7483468,27.0527209 C18.1585107,27.8333949 18.7082377,28.657363 19.3674094,29.4781249 L19.581,29.738 L19.3199482,29.7688218 C18.0407902,29.907598 16.6615931,29.9853189 15.2723384,30.0215413 L14.6765901,30.0345815 C14.0765161,30.0659791 13.5103805,30.0810514 12.952,30.0810514 C9.58666918,30.0810514 6.00928805,29.9028778 3.53081333,29.242319 C2.65973872,29.0101617 1.93366671,28.7284234 1.44772293,28.3446095 C1.19931452,28.1484087 1.0112,27.9273622 1.0112,27.6320914 L1.0112,27.6320914 L1.0112,25.6053029 C1.0112,24.61112 1.87619163,23.7257409 3.00675037,22.9545938 C4.51586744,21.9252345 6.61713247,21.1233925 8.80596035,20.7146656 C9.08145557,20.6200647 9.97067974,20.1597969 10.4200094,19.2725135 C10.6661598,18.7864445 10.7961483,18.1833904 10.6187342,17.4662664 C9.18310279,15.6192587 8.90909448,14.0963119 8.90909448,14.0963119 L8.90909448,14.0963119 L8.81195766,13.5564225 L8.31682731,13.3444099 C7.521241,12.5626972 7.16679941,11.4647729 7.244576,10.6972337 C6.8031243,7.51514405 7.18320499,5.0555597 8.22004478,3.2534672 C8.99854856,1.90244149 10.1412777,1.26451778 11.2674927,1.07939632 Z" id="路径" stroke="#455A74" stroke-width="2" fill="#FFFFFF"></path>
                    </g>
                </g>
            </g>
        </g>
    </g>
</svg>