<?xml version="1.0" encoding="UTF-8"?>
<svg width="60px" height="69px" viewBox="0 0 60 69" version="1.1" xmlns="http://www.w3.org/2000/svg" xmlns:xlink="http://www.w3.org/1999/xlink">
    <title>操作员</title>
    <defs>
        <linearGradient x1="26.051126%" y1="35.7896809%" x2="50%" y2="77.1771222%" id="linearGradient-1">
            <stop stop-color="#C1D4EB" offset="0%"></stop>
            <stop stop-color="#E5EBFC" stop-opacity="0" offset="100%"></stop>
        </linearGradient>
        <linearGradient x1="0%" y1="28.0519865%" x2="100%" y2="68.1852701%" id="linearGradient-2">
            <stop stop-color="#D2D5EC" offset="0%"></stop>
            <stop stop-color="#E2F0F7" offset="100%"></stop>
        </linearGradient>
        <filter x="-20.0%" y="-36.9%" width="140.0%" height="173.7%" filterUnits="objectBoundingBox" id="filter-3">
            <feGaussianBlur stdDeviation="2" in="SourceGraphic"></feGaussianBlur>
        </filter>
        <linearGradient x1="68.3643817%" y1="38.1133314%" x2="47.0694005%" y2="74.1522993%" id="linearGradient-4">
            <stop stop-color="#46B8EA" offset="0%"></stop>
            <stop stop-color="#1F7FA9" offset="100%"></stop>
            <stop stop-color="#1F7FA9" offset="100%"></stop>
        </linearGradient>
        <linearGradient x1="50%" y1="40.9880844%" x2="78.01683%" y2="73.576794%" id="linearGradient-5">
            <stop stop-color="#46B8EA" stop-opacity="0" offset="0%"></stop>
            <stop stop-color="#6CC8F0" offset="98.1834572%"></stop>
        </linearGradient>
        <radialGradient cx="71.07891%" cy="31.788134%" fx="71.07891%" fy="31.788134%" r="24.2108389%" gradientTransform="translate(0.710789,0.317881),scale(0.798065,1.000000),rotate(49.092782),translate(-0.710789,-0.317881)" id="radialGradient-6">
            <stop stop-color="#FFFFFF" stop-opacity="0.274748689" offset="0%"></stop>
            <stop stop-color="#FFFFFF" stop-opacity="0" offset="100%"></stop>
        </radialGradient>
        <path d="M15,40.8186762 C17.654093,40.8186762 30,39.7994926 30,31.6438356 C30,23.4881786 23.2842712,16.8767123 15,16.8767123 C6.71572875,16.8767123 0,23.4881786 0,31.6438356 C0,39.7994926 12.345907,40.8186762 15,40.8186762 Z" id="path-7"></path>
        <path d="M15,24.2172621 C17.654093,24.2172621 30,23.1980785 30,15.0424216 C30,6.88676457 23.2842712,0.275298268 15,0.275298268 C6.71572875,0.275298268 0,6.88676457 0,15.0424216 C0,23.1980785 12.345907,24.2172621 15,24.2172621 Z" id="path-8"></path>
        <linearGradient x1="50%" y1="50%" x2="50%" y2="100%" id="linearGradient-10">
            <stop stop-color="#2272A9" offset="0%"></stop>
            <stop stop-color="#136BA2" stop-opacity="0" offset="100%"></stop>
            <stop stop-color="#1F7FA9" offset="100%"></stop>
        </linearGradient>
        <filter x="-54.1%" y="-144.1%" width="208.1%" height="388.2%" filterUnits="objectBoundingBox" id="filter-11">
            <feGaussianBlur stdDeviation="3" in="SourceGraphic"></feGaussianBlur>
        </filter>
        <linearGradient x1="68.0939532%" y1="24.139488%" x2="39.5685782%" y2="78.9734036%" id="linearGradient-12">
            <stop stop-color="#46B8EA" offset="0%"></stop>
            <stop stop-color="#1F7FA9" offset="100%"></stop>
            <stop stop-color="#1F7FA9" offset="100%"></stop>
        </linearGradient>
        <linearGradient x1="50%" y1="36.5995111%" x2="78.01683%" y2="85.0580922%" id="linearGradient-13">
            <stop stop-color="#46B8EA" stop-opacity="0" offset="0%"></stop>
            <stop stop-color="#6CC8F0" offset="98.1834572%"></stop>
        </linearGradient>
        <linearGradient x1="55.1324367%" y1="41.3064631%" x2="0%" y2="50%" id="linearGradient-14">
            <stop stop-color="#46B8EA" stop-opacity="0" offset="0%"></stop>
            <stop stop-color="#6CC8F0" stop-opacity="0.368389423" offset="100%"></stop>
        </linearGradient>
        <radialGradient cx="64.8931498%" cy="24.6908774%" fx="64.8931498%" fy="24.6908774%" r="56.2806128%" gradientTransform="translate(0.648931,0.246909),scale(0.973174,1.000000),rotate(69.283665),translate(-0.648931,-0.246909)" id="radialGradient-15">
            <stop stop-color="#46B8EA" stop-opacity="0.762292395" offset="0%"></stop>
            <stop stop-color="#6CC8F0" stop-opacity="0" offset="100%"></stop>
        </radialGradient>
        <radialGradient cx="61.8081776%" cy="30.0514977%" fx="61.8081776%" fy="30.0514977%" r="22.446561%" gradientTransform="translate(0.618082,0.300515),scale(0.973174,1.000000),rotate(54.604555),translate(-0.618082,-0.300515)" id="radialGradient-16">
            <stop stop-color="#FFFFFF" stop-opacity="0.42111014" offset="0%"></stop>
            <stop stop-color="#FFFFFF" stop-opacity="0" offset="100%"></stop>
        </radialGradient>
        <ellipse id="path-17" cx="15" cy="9.34246575" rx="9.6" ry="9.34246575"></ellipse>
        <linearGradient x1="50%" y1="0%" x2="50%" y2="67.4189837%" id="linearGradient-18">
            <stop stop-color="#83DFF7" offset="0%"></stop>
            <stop stop-color="#2AA0D2" offset="100%"></stop>
        </linearGradient>
        <polygon id="path-19" points="8.00233006 21.7515279 11.5015063 20.0324994 10.6967639 18.8814426 7.86177034 18.8814426"></polygon>
        <linearGradient x1="47.2701666%" y1="45.1296574%" x2="50%" y2="53.3498026%" id="linearGradient-20">
            <stop stop-color="#4CBCED" offset="0%"></stop>
            <stop stop-color="#3DAEDD" offset="63.5546332%"></stop>
            <stop stop-color="#3BACDB" offset="100%"></stop>
        </linearGradient>
        <linearGradient x1="40.6504596%" y1="9.97811865%" x2="50%" y2="88.9830542%" id="linearGradient-21">
            <stop stop-color="#4CBCED" offset="0%"></stop>
            <stop stop-color="#2E9ECE" offset="24.7569298%"></stop>
            <stop stop-color="#389FCA" offset="67.8294362%"></stop>
            <stop stop-color="#399FCC" offset="100%"></stop>
        </linearGradient>
        <linearGradient x1="29.6786558%" y1="28.4986751%" x2="50.7830256%" y2="73.862908%" id="linearGradient-22">
            <stop stop-color="#4CBCED" offset="0%"></stop>
            <stop stop-color="#2E9ECE" offset="24.7569298%"></stop>
            <stop stop-color="#3DAAD8" offset="67.8294362%"></stop>
            <stop stop-color="#47B0DE" offset="100%"></stop>
        </linearGradient>
        <linearGradient x1="29.6786558%" y1="18.223836%" x2="57.3829025%" y2="84.2262887%" id="linearGradient-23">
            <stop stop-color="#4CBCED" stop-opacity="0" offset="0%"></stop>
            <stop stop-color="#2BA3D8" offset="27.9064713%"></stop>
            <stop stop-color="#49B3E0" offset="78.2430555%"></stop>
            <stop stop-color="#4CBCED" stop-opacity="0" offset="100%"></stop>
        </linearGradient>
        <linearGradient x1="50%" y1="14.952284%" x2="50%" y2="82.107085%" id="linearGradient-24">
            <stop stop-color="#1F7FA9" offset="0%"></stop>
            <stop stop-color="#2292C2" offset="100%"></stop>
        </linearGradient>
    </defs>
    <g id="页面-1" stroke="none" stroke-width="1" fill="none" fill-rule="evenodd">
        <g id="操作员">
            <g id="编组-20" transform="translate(0.000000, 23.000000)">
                <polygon id="矩形" fill="#A8B4DA" opacity="0.299874442" points="30 13.7402597 60 29.8701299 30 46 0 29.8701299"></polygon>
                <polygon id="矩形" fill="#FFFFFF" points="30 0 60 16.1298701 30 32.2597403 0 16.1298701"></polygon>
                <polygon id="矩形" fill="url(#linearGradient-1)" points="30 32.2597403 60 16.1298701 60 20.9451775 30 38.2474694"></polygon>
                <polygon id="矩形" fill="url(#linearGradient-2)" points="1.80064297e-14 16.1298701 30 32.2597403 30 38.2474694 2.66453526e-14 21.0144431"></polygon>
            </g>
            <g id="Group-6" transform="translate(12.000000, 0.000000)">
                <ellipse id="Oval" fill="#A8B4DA" filter="url(#filter-3)" cx="15" cy="35.8630137" rx="15" ry="8.1369863"></ellipse>
                <g id="Group-5">
                    <g id="Oval-Copy">
                        <use fill="url(#linearGradient-4)" xlink:href="#path-7"></use>
                        <use fill="url(#linearGradient-5)" style="mix-blend-mode: multiply;" xlink:href="#path-7"></use>
                        <use fill="url(#radialGradient-6)" xlink:href="#path-7"></use>
                    </g>
                    <g id="Group-4" transform="translate(0.000000, 16.601414)">
                        <mask id="mask-9" fill="white">
                            <use xlink:href="#path-8"></use>
                        </mask>
                        <g id="Oval-Copy"></g>
                        <path d="M6.65639362,2.76849799 C9.43358061,4.68544241 12.2147827,5.64391462 15,5.64391462 C17.7852173,5.64391462 20.5520163,4.68544241 23.3003972,2.76849799 L20.0287269,-0.602739726 L9.72523128,-0.602739726 L6.65639362,2.76849799 Z" id="Path" fill="url(#linearGradient-10)" style="mix-blend-mode: multiply;" filter="url(#filter-11)" mask="url(#mask-9)"></path>
                    </g>
                    <g id="Oval">
                        <use fill="url(#linearGradient-12)" xlink:href="#path-17"></use>
                        <use fill="url(#linearGradient-13)" style="mix-blend-mode: multiply;" xlink:href="#path-17"></use>
                        <use fill="url(#linearGradient-14)" xlink:href="#path-17"></use>
                        <use fill="url(#radialGradient-15)" xlink:href="#path-17"></use>
                        <use fill="url(#radialGradient-16)" xlink:href="#path-17"></use>
                    </g>
                </g>
            </g>
            <g id="Group-13" transform="translate(33.000000, 19.000000)">
                <path d="M18,15.7077783 L18,12.9573644 C18,12.8356507 17.9654004,12.6985811 17.9036133,12.5764043 C17.8418935,12.4542668 17.7581237,12.3571655 17.6707996,12.3063788 L16.8972471,11.8548237 C16.4986289,11.6221336 16.1333804,11.0773417 15.9871665,10.474396 C15.9643417,10.3798279 15.9404556,10.2854629 15.9155756,10.1913402 C15.7565427,9.58829097 15.8455681,9.04609686 16.1275184,8.81722291 L16.6078682,8.42745777 C16.8050043,8.2674977 16.803623,7.97854092 16.6752479,7.72456942 L15.2812632,4.96603208 C15.1530229,4.71223325 14.9450218,4.59081429 14.816714,4.69485519 L14.269254,5.13907482 C13.9872869,5.36784494 13.5611104,5.24390717 13.1953229,4.80850511 C13.1382692,4.7404889 13.0806258,4.67351511 13.0223929,4.60767776 C12.6522089,4.18825185 12.4137354,3.54026338 12.4137354,2.98422063 L12.4137354,2.03727938 C12.4137354,1.64821397 12.2666118,1.36000837 12.085192,1.25410602 L10.1146057,0.10379211 C10.0274838,0.0529353819 9.94391613,0.0524487786 9.8823311,0.10242007 C9.82067869,0.152446034 9.78606237,0.248829405 9.78606237,0.370378562 L9.78606237,1.45052566 C9.78606237,2.0065684 9.54839738,2.37750788 9.17740482,2.36493597 C9.11917193,2.36281087 9.06152861,2.362393 9.0044917,2.36388021 C8.63877161,2.37229412 8.21257825,1.99883233 7.93056057,1.4406526 L7.38316799,0.35732162 C7.25486023,0.103412953 7.04685913,-0.0180060116 6.91855137,0.0861054014 L5.52456672,1.21721159 C5.39625895,1.32132301 5.39625895,1.61149459 5.52456672,1.86542676 L6.07202667,2.94870307 C6.35397697,3.50674946 6.44347404,4.15360117 6.28442429,4.5709957 C6.25949381,4.63601841 6.23567509,4.70253616 6.21283337,4.77044678 C6.06709111,5.20186082 5.70196059,5.3214044 5.30275279,5.08837006 L4.52854335,4.63643153 C4.44142142,4.5855748 4.35785376,4.5850882 4.29620135,4.63511416 C4.23461631,4.68508545 4.2,4.78146882 4.2,4.90301798 L4.2,7.65340843 C4.20052219,7.90635313 4.34746044,8.19656569 4.52854335,8.30227138 L5.30275279,8.75420991 C5.70130364,8.98686076 6.06661946,9.53171546 6.21283337,10.1346376 C6.23567509,10.2292156 6.25949381,10.3235413 6.28442429,10.4176935 C6.44347404,11.020776 6.35411173,11.56322 6.07202667,11.7920153 L5.52456672,12.2361409 C5.39625895,12.3402523 5.39625895,12.6304474 5.52456672,12.8843561 L6.91855137,15.6429169 C7.04685913,15.8967316 7.25486023,16.0181505 7.38316799,15.9141331 L7.93056057,15.4698742 C8.21257825,15.2411336 8.63877161,15.3650577 9.0044917,15.8004204 C9.06152861,15.8684268 9.11917193,15.9354005 9.17740482,16.0012379 C9.54760566,16.4206971 9.78606237,17.0686523 9.78606237,17.624789 L9.78606237,18.5716363 C9.78606237,18.9607957 9.9332533,19.2489466 10.1146057,19.3548096 L12.0859837,20.5055857 C12.2674036,20.6114881 12.4145271,20.4922032 12.4145271,20.2390228 L12.4145271,19.1591342 C12.4145271,18.6029974 12.6522089,18.2321618 13.0231847,18.2447239 C13.0814175,18.2468725 13.1390609,18.2471963 13.1961146,18.2457895 C13.5618347,18.237399 13.9880112,18.6107335 14.2700458,19.1690171 L14.8171688,20.2538593 C14.9454766,20.507768 15.1534777,20.6291869 15.2817181,20.5250362 L16.6757027,19.39393 C16.8040105,19.2898891 16.8040105,18.9997175 16.6757027,18.7458088 L16.1283101,17.6622898 C15.8462924,17.1042041 15.7568628,16.4573918 15.9159125,16.0399972 C15.9407756,15.9749117 15.9645943,15.9083939 15.987436,15.8404833 C16.1332457,15.4091321 16.4983088,15.2895257 16.8975166,15.52256 L17.6707996,15.9739577 C17.7580563,16.0250811 17.8417587,16.0257639 17.9035459,15.9758871 C17.9652657,15.9259005 18,15.829398 18,15.7077783 Z M10.9500417,12.8988279 C9.87309653,12.265244 9,10.5239326 9,9.00964755 C9,7.49538594 9.87309653,6.7814812 10.9500417,7.41506506 C12.0269701,8.04863911 12.9,9.78981763 12.9,11.3040792 C12.9,12.8183643 12.0269701,13.5324019 10.9500417,12.8988279 Z" id="Fill-1-Copy" fill="#4CBCED"></path>
                <polygon id="Path-7" fill="#4CBCED" points="0.0962013474 5.82430335 3.18551616 4.16451938 3.18551616 5.82430335 1.19024783 6.71788919"></polygon>
                <path d="M2.7833125,1.23801437 L6.75066731,0.118203201 C6.99075874,0.0504358636 7.24406758,0.170014631 7.3443305,0.398452057 L8.20420947,2.35758656 L8.20420947,2.35758656 L5.52490083,4.16451938 L3.82989538,4.16451938 L2.7833125,1.23801437 Z" id="Path-8" fill="#4CBCED"></path>
                <polygon id="Path-9" fill="#4CBCED" points="5.6823311 1.29160926 9.9 0.0488251791 12.2609922 1.50301764 12.2609922 3.86732728 8.43223018 5.16994502 8.43223018 2.81387601"></polygon>
                <polygon id="Path-10" fill="#4CBCED" points="1.32456672 13.4253301 5.49376099 12.2774074 6.24341552 12.8513687 4.2 13.7162201"></polygon>
                <polygon id="Path-11" fill="#4CBCED" points="12.5524896 8.01325959 10.4613586 12.2774074 12.2609922 13.5190445 14.2476497 12.9968138"></polygon>
                <g id="Path-12">
                    <use fill="url(#linearGradient-18)" xlink:href="#path-19"></use>
                    <use fill="#4CBCED" xlink:href="#path-19"></use>
                </g>
                <polygon id="Path-13" fill="#4CBCED" points="10.95 21.7515279 15.1401888 20.5623387 15.3533639 19.1178581 13.1516819 17.4592885 11.8190975 18.1839603"></polygon>
                <polygon id="Path-14" fill="url(#linearGradient-20)" points="12.6027646 20.3164852 10.95 21.7515279 15.2817181 20.5250362 16.7782456 19.2532994"></polygon>
                <path d="M13.6066273,13.7352745 L13.6066273,17.2017555 L17.6290629,16.12704 C17.8478255,16.068591 18,15.8704206 18,15.6439844 L18,12.9573644 L18,12.9573644 L13.6066273,13.7352745 Z" id="Path-15" fill="url(#linearGradient-21)"></path>
                <path d="M10.616714,5.88404438 L14.3433531,4.78340178 C14.8083028,4.6460814 15.30478,4.86204481 15.5213144,5.29580512 L16.5079902,7.27230729 C16.7546643,7.76644322 16.5540569,8.36698843 16.059921,8.61366256 C15.9984719,8.64433815 15.934026,8.66860167 15.867604,8.68606886 L12.1899107,9.65320259 L12.1899107,9.65320259 L10.616714,5.88404438 Z" id="Path-16" fill="url(#linearGradient-22)"></path>
                <path d="M8.11885292,2.69115002 L12.0536906,1.23801437 C12.2810422,1.5804141 12.3958695,1.80616989 12.3981724,1.91528176 C12.4154036,2.7316841 12.4154036,3.26022417 12.4896487,3.52798213 C12.576146,3.83992655 12.6776846,4.09162547 12.7942643,4.2830789 L8.97166163,6.00665513 L7.84730909,4.43026761 L8.11885292,2.69115002 Z" id="Path-17" fill="url(#linearGradient-23)"></path>
                <path d="M13.8,16.8969675 L13.8,14.1465536 C13.8,14.0248399 13.7654004,13.8877703 13.7036133,13.7655935 C13.6418935,13.643456 13.5581237,13.5463547 13.4707996,13.495568 L12.6972471,13.0440129 C12.2986289,12.8113227 11.9333804,12.2665309 11.7871665,11.6635852 C11.7643417,11.5690171 11.7404556,11.474652 11.7155756,11.3805294 C11.5565427,10.7774802 11.6455681,10.235286 11.9275184,10.0064121 L12.4078682,9.61664696 C12.6050043,9.45668689 12.603623,9.16773011 12.4752479,8.91375861 L11.0812632,6.15522127 C10.9530229,5.90142244 10.7450218,5.78000347 10.616714,5.88404438 L10.069254,6.32826401 C9.7872869,6.55703412 9.36111038,6.43309636 8.99532291,5.9976943 C8.93826916,5.92967809 8.88062584,5.8627043 8.82239294,5.79686695 C8.45220894,5.37744104 8.21373539,4.72945256 8.21373539,4.17340982 L8.21373539,3.22646857 C8.21373539,2.83740316 8.06661184,2.54919756 7.88519204,2.44329521 L5.91460573,1.2929813 C5.82748379,1.24212457 5.74391613,1.24163797 5.6823311,1.29160926 C5.62067869,1.34163522 5.58606237,1.43801859 5.58606237,1.55956775 L5.58606237,2.63971485 C5.58606237,3.19575759 5.34839738,3.56669707 4.97740482,3.55412516 C4.91917193,3.55200006 4.86152861,3.55158219 4.8044917,3.5530694 C4.43877161,3.56148331 4.01257825,3.18802152 3.73056057,2.62984179 L3.18316799,1.54651081 C3.05486023,1.29260214 2.84685913,1.17118318 2.71855137,1.27529459 L1.32456672,2.40640078 C1.19625895,2.5105122 1.19625895,2.80068378 1.32456672,3.05461595 L1.87202667,4.13789226 C2.15397697,4.69593865 2.24347404,5.34279035 2.08442429,5.76018489 C2.05949381,5.8252076 2.03567509,5.89172535 2.01283337,5.95963597 C1.86709111,6.39105001 1.50196059,6.51059359 1.10275279,6.27755925 L0.328543351,5.82562072 C0.241421417,5.77476399 0.157853761,5.77427739 0.0962013474,5.82430335 C0.0346163139,5.87427464 0,5.97065801 0,6.09220717 L0,8.84259762 C0.000522192568,9.09554232 0.147460444,9.38575488 0.328543351,9.49146057 L1.10275279,9.9433991 C1.50130364,10.17605 1.86661946,10.7209046 2.01283337,11.3238268 C2.03567509,11.4184048 2.05949381,11.5127305 2.08442429,11.6068826 C2.24347404,12.2099652 2.15411173,12.7524092 1.87202667,12.9812045 L1.32456672,13.4253301 C1.19625895,13.5294415 1.19625895,13.8196366 1.32456672,14.0735453 L2.71855137,16.8321061 C2.84685913,17.0859208 3.05486023,17.2073397 3.18316799,17.1033223 L3.73056057,16.6590634 C4.01257825,16.4303227 4.43877161,16.5542468 4.8044917,16.9896096 C4.86152861,17.0576159 4.91917193,17.1245897 4.97740482,17.1904271 C5.34760566,17.6098863 5.58606237,18.2578415 5.58606237,18.8139782 L5.58606237,19.7608255 C5.58606237,20.1499849 5.7332533,20.4381358 5.91460573,20.5439988 L7.88598375,21.6947749 C8.06740355,21.8006772 8.2145271,21.6813924 8.2145271,21.4282119 L8.2145271,20.3483234 C8.2145271,19.7921866 8.45220894,19.421351 8.82318465,19.433913 C8.88141755,19.4360617 8.93906087,19.4363855 8.99611462,19.4349786 C9.36183471,19.4265882 9.78801123,19.7999227 10.0700458,20.3582062 L10.6171688,21.4430485 C10.7454766,21.6969572 10.9534777,21.8183761 11.0817181,21.7142254 L12.4757027,20.5831192 C12.6040105,20.4790783 12.6040105,20.1889067 12.4757027,19.934998 L11.9283101,18.851479 C11.6462924,18.2933933 11.5568628,17.6465809 11.7159125,17.2291864 C11.7407756,17.1641009 11.7645943,17.0975831 11.787436,17.0296725 C11.9332457,16.5983213 12.2983088,16.4787149 12.6975166,16.7117492 L13.4707996,17.1631469 C13.5580563,17.2142703 13.6417587,17.2149531 13.7035459,17.1650763 C13.7652657,17.1150897 13.8,17.0185872 13.8,16.8969675 Z M6.75004166,14.0880171 C5.67309653,13.4544332 4.8,11.7131218 4.8,10.1988367 C4.8,8.68457513 5.67309653,7.97067039 6.75004166,8.60425425 C7.82697012,9.2378283 8.7,10.9790068 8.7,12.4932684 C8.7,14.0075535 7.82697012,14.7215911 6.75004166,14.0880171 Z" id="Fill-1" fill="url(#linearGradient-24)"></path>
            </g>
        </g>
    </g>
</svg>