<?xml version="1.0" encoding="UTF-8"?>
<svg width="60px" height="66px" viewBox="0 0 60 66" version="1.1" xmlns="http://www.w3.org/2000/svg" xmlns:xlink="http://www.w3.org/1999/xlink">
    <title>故障管理中心</title>
    <defs>
        <linearGradient x1="26.051126%" y1="35.8924677%" x2="50%" y2="76.9805433%" id="linearGradient-1">
            <stop stop-color="#C1D4EB" offset="0%"></stop>
            <stop stop-color="#E5EBFC" stop-opacity="0" offset="100%"></stop>
        </linearGradient>
        <linearGradient x1="0%" y1="28.2107419%" x2="100%" y2="68.0537315%" id="linearGradient-2">
            <stop stop-color="#D2D5EC" offset="0%"></stop>
            <stop stop-color="#E2F0F7" offset="100%"></stop>
        </linearGradient>
        <linearGradient x1="51.7029834%" y1="39.3967943%" x2="48.997233%" y2="88.3106934%" id="linearGradient-3">
            <stop stop-color="#4CBCED" offset="0%"></stop>
            <stop stop-color="#2FA9DC" offset="100%"></stop>
        </linearGradient>
        <linearGradient x1="20.6945836%" y1="47.86603%" x2="72.2483416%" y2="51.9413788%" id="linearGradient-4">
            <stop stop-color="#29A2D7" offset="0%"></stop>
            <stop stop-color="#4CBCED" offset="100%"></stop>
        </linearGradient>
        <linearGradient x1="40.733114%" y1="37.9081048%" x2="55.8281267%" y2="67.0204675%" id="linearGradient-5">
            <stop stop-color="#4CBCED" offset="0%"></stop>
            <stop stop-color="#21A1DA" offset="43.9491117%"></stop>
            <stop stop-color="#2EAAE0" offset="76.9613199%"></stop>
            <stop stop-color="#4CBCED" offset="100%"></stop>
        </linearGradient>
        <linearGradient x1="40.3554121%" y1="38.1849792%" x2="80.5251656%" y2="62.7486372%" id="linearGradient-6">
            <stop stop-color="#40AFE0" offset="0%"></stop>
            <stop stop-color="#4CBCED" offset="100%"></stop>
        </linearGradient>
        <linearGradient x1="73.1063002%" y1="40.8776499%" x2="80.7503378%" y2="55.0123007%" id="linearGradient-7">
            <stop stop-color="#47B9EB" offset="0%"></stop>
            <stop stop-color="#2398CA" offset="100%"></stop>
        </linearGradient>
        <linearGradient x1="47.9118215%" y1="37.0907022%" x2="62.7105364%" y2="57.8746381%" id="linearGradient-8">
            <stop stop-color="#2B9FD1" offset="0%"></stop>
            <stop stop-color="#4CBCED" offset="100%"></stop>
        </linearGradient>
        <linearGradient x1="50%" y1="14.952284%" x2="50%" y2="82.107085%" id="linearGradient-9">
            <stop stop-color="#1F7FA9" offset="0%"></stop>
            <stop stop-color="#2292C2" offset="100%"></stop>
        </linearGradient>
    </defs>
    <g id="页面-1" stroke="none" stroke-width="1" fill="none" fill-rule="evenodd">
        <g id="故障管理中心">
            <g id="编组-21" transform="translate(0.000000, 19.166667)">
                <polygon id="矩形" fill="#A8B4DA" opacity="0.299874442" points="30 13.6904762 60 29.7619048 30 45.8333333 0 29.7619048"></polygon>
                <polygon id="矩形" fill="#FFFFFF" points="30 0 60 16.0714286 30 32.1428571 0 16.0714286"></polygon>
                <polygon id="矩形" fill="url(#linearGradient-1)" points="30 32.1428571 60 16.0714286 60 20.8692892 30 38.1088916"></polygon>
                <polygon id="矩形" fill="url(#linearGradient-2)" points="1.80064297e-14 16.0714286 30 32.1428571 30 38.1088916 2.66453526e-14 20.9383038"></polygon>
            </g>
            <g id="Group-15" transform="translate(14.166667, 0.000000)">
                <path d="M30.1722334,4.166844 C29.7948592,3.43359848 29.2518342,2.90121745 28.7301835,2.7528812 L19.6307063,0.165799179 C18.7619335,-0.0813035143 18.1209149,0.555662247 18.0578018,1.72899413 L17.5045945,11.9991938 L8.10272151,19.3911222 C6.11512197,20.953523 6.11512197,25.3513278 8.10272151,29.2135178 C10.090279,33.075741 13.3126651,34.9398159 15.3002226,33.3771036 L24.6988137,25.9877556 L32.4642064,29.7242049 C33.3514081,30.1513002 34.0901679,29.7027694 34.2767302,28.6237606 L36.2309219,17.326325 C36.3428424,16.6793463 36.1826193,15.8460567 35.8054134,15.1130808 C35.3276052,14.1846748 34.5526606,13.7363875 34.0747262,14.1119188 L30.0696957,17.2608061 L26.7541126,14.2959932 L26.1534022,9.68844232 L30.1722334,6.52870463 C30.6501678,6.15294366 30.6501678,5.0956101 30.1722334,4.166844 Z" id="Path-Copy" fill="#4CBCED"></path>
                <polygon id="Path-18" fill="#4CBCED" points="7.65667153 36.534593 14.7296302 33.7023677 15.703215 28.0761189 8.44709983 31.9709321"></polygon>
                <path d="M27.0491803,32.305356 L33.0613962,29.9764997 C33.7177742,29.7222489 34.1921716,29.1416688 34.3105196,28.4477889 L36.2659381,16.9830873 L36.2659381,16.9830873 L29.6539162,19.6261688 L27.0491803,32.305356 Z" id="Path-19" fill="url(#linearGradient-3)"></path>
                <path d="M12.0218579,2.93124752 L18.2514352,0.392693194 C18.8756353,0.138331505 19.5673078,0.10158745 20.2149438,0.288384775 L28.8223839,2.77102446 L28.8223839,2.77102446 L22.1181616,5.35761708 L12.0218579,2.93124752 Z" id="Path-21" fill="url(#linearGradient-4)"></path>
                <path d="M22.044652,5.52156056 L23.122161,8.61861703 L23.122161,9.50718453 L29.8976967,6.75122386 C30.3251301,6.57013815 30.5388467,6.16025039 30.5388467,5.52156056 C30.5388467,4.56352582 29.8989477,3.74591769 29.6539162,3.37082646 C29.4905619,3.12076564 29.1826509,2.91478389 28.7301835,2.7528812 L22.044652,5.52156056 Z" id="Path-22" fill="url(#linearGradient-5)"></path>
                <polygon id="Path-24" fill="url(#linearGradient-6)" points="20.0690053 17.0214329 26.7541126 14.2959932 28.8223839 16.2713866 24.4456946 20.1244443 20.4221209 18.9600425"></polygon>
                <polygon id="Path-23" fill="url(#linearGradient-7)" points="19.5413803 12.2931782 26.1534022 9.68844232 30.1722334 6.52870463 23.7885381 8.93205669"></polygon>
                <path d="M27.5936297,16.6342343 L29.6539162,19.6261688 L36.2246206,16.3578216 C36.1284509,15.8662676 35.9679775,15.4076423 35.7432004,14.9819454 C35.4060348,14.3434002 34.9041564,14.0417827 34.5319348,13.9596066 C34.2837871,13.9048225 31.9710187,14.796365 27.5936297,16.6342343 Z" id="Path-20" fill="url(#linearGradient-8)"></path>
                <path d="M23.5602116,6.77157989 C23.1828374,6.03833437 22.6398123,5.50595333 22.1181616,5.35761708 L13.0186844,2.77053506 C12.1499117,2.52343237 11.5088931,3.16039813 11.44578,4.33373001 L10.8925727,14.6039297 L1.49069966,21.9958581 C-0.496899885,23.5582589 -0.496899885,27.9560637 1.49069966,31.8182537 C3.47825712,35.6804769 6.70064325,37.5445518 8.68820071,35.9818395 L18.0867919,28.5924915 L25.8521845,32.3289408 C26.7393863,32.7560361 27.478146,32.3075053 27.6647083,31.2284965 L29.6189,19.9310608 C29.7308206,19.2840822 29.5705975,18.4507926 29.1933916,17.7178167 C28.7155834,16.7894107 27.9406388,16.3411234 27.4627044,16.7166547 L23.4576738,19.865542 L20.1420907,16.9007291 L19.5413803,12.2931782 L23.5602116,9.13344051 C24.038146,8.75767955 24.038146,7.70034598 23.5602116,6.77157989 Z" id="Path" fill="url(#linearGradient-9)"></path>
            </g>
        </g>
    </g>
</svg>