<?xml version="1.0" encoding="UTF-8"?>
<svg width="60px" height="63px" viewBox="0 0 60 63" version="1.1" xmlns="http://www.w3.org/2000/svg" xmlns:xlink="http://www.w3.org/1999/xlink">
    <title>OTN</title>
    <defs>
        <linearGradient x1="26.051126%" y1="36.1067771%" x2="50%" y2="76.5706783%" id="linearGradient-1">
            <stop stop-color="#C1D4EB" offset="0%"></stop>
            <stop stop-color="#E5EBFC" stop-opacity="0" offset="100%"></stop>
        </linearGradient>
        <linearGradient x1="0%" y1="28.5417454%" x2="100%" y2="67.7794749%" id="linearGradient-2">
            <stop stop-color="#D2D5EC" offset="0%"></stop>
            <stop stop-color="#E2F0F7" offset="100%"></stop>
        </linearGradient>
        <linearGradient x1="37.7959654%" y1="106.424332%" x2="59.6384137%" y2="2.84866469%" id="linearGradient-3">
            <stop stop-color="#57BFFF" offset="0%"></stop>
            <stop stop-color="#1E82FF" offset="100%"></stop>
        </linearGradient>
        <linearGradient x1="32.3525621%" y1="42.2017804%" x2="63.8306503%" y2="53.3560831%" id="linearGradient-4">
            <stop stop-color="#107FD6" offset="0%"></stop>
            <stop stop-color="#004CA7" offset="100%"></stop>
        </linearGradient>
        <linearGradient x1="57.3968254%" y1="53.4223885%" x2="37.3968254%" y2="44.7905064%" id="linearGradient-5">
            <stop stop-color="#53BAFF" offset="0%"></stop>
            <stop stop-color="#57BFFF" offset="10%"></stop>
            <stop stop-color="#1E82FF" offset="100%"></stop>
        </linearGradient>
        <linearGradient x1="-3407.00081%" y1="1103.48665%" x2="-3405.26728%" y2="1108.23442%" id="linearGradient-6">
            <stop stop-color="#57BFFF" offset="0%"></stop>
            <stop stop-color="#1E82FF" offset="100%"></stop>
        </linearGradient>
        <linearGradient x1="-3320.53573%" y1="1107.8635%" x2="-3318.03747%" y2="1107.34421%" id="linearGradient-7">
            <stop stop-color="#107FD6" offset="0%"></stop>
            <stop stop-color="#004CA7" offset="100%"></stop>
        </linearGradient>
        <path d="M23.9966313,6.51543375 L20.7734338,8.32758178 L20.904981,3.46901246 C20.9063728,3.36696662 20.7670887,3.29806316 20.6690603,3.35317677 L15.0581018,6.50777321 C15.0170798,6.53083662 14.994157,6.57239726 15.0012905,6.61617496 L16.1571469,14.5204315 C16.1703866,14.6143468 16.3000154,14.6695155 16.3907466,14.6185045 L18.9424126,13.1839053 L21.5873201,18.5324722 C21.6458029,18.6487631 21.8440871,18.64237 21.867049,18.5223908 L24.2286126,6.64691273 C24.2504284,6.54093464 24.1020118,6.45618661 23.9966313,6.51543375 Z" id="path-8"></path>
    </defs>
    <g id="页面-1" stroke="none" stroke-width="1" fill="none" fill-rule="evenodd">
        <g id="OTN">
            <g id="编组-135备份" transform="translate(0.000000, 16.000000)">
                <g id="编组-13" transform="translate(0.000000, 0.870968)">
                    <polygon id="矩形" fill="#A8B4DA" opacity="0.298339844" points="30 13.5860913 60 29.5349811 30 45.483871 0 29.5349811"></polygon>
                    <polygon id="矩形" fill="#FFFFFF" points="30 0 60 15.9488898 30 31.8977796 0 15.9488898"></polygon>
                    <polygon id="矩形" fill="url(#linearGradient-1)" points="30 31.8977796 60 15.9488898 60 20.7101685 30 37.8183253"></polygon>
                    <polygon id="矩形" fill="url(#linearGradient-2)" points="1.80064297e-14 15.9488898 30 31.8977796 30 37.8183253 2.66453526e-14 20.7786569"></polygon>
                </g>
            </g>
            <g id="Group-14" transform="translate(11.000000, -0.000000)">
                <polygon id="Fill-6" fill="url(#linearGradient-3)" opacity="0.9" points="39.1230769 20.7384615 19.7384615 31.9076923 19.7384615 22.3384615 39.1230769 11.1692308"></polygon>
                <polygon id="Fill-7" fill="url(#linearGradient-4)" points="4.48188495e-13 21.1692308 19.4 32.3384615 19.4 22.7692308 4.48188495e-13 11.6"></polygon>
                <path d="M24.0769231,26.2461538 L23.0615385,26.9846154 C22.8628412,27.1229996 22.6034502,27.1386793 22.3895305,27.025237 C22.1756108,26.9117947 22.0430695,26.6882722 22.0461538,26.4461538 L22.0461538,24.8 C22.0424941,24.5890792 22.1396466,24.3890594 22.3076923,24.2615385 L23.3230769,23.5384615 C23.521975,23.3909515 23.7876815,23.3700868 24.0071664,23.484743 C24.2266513,23.5993993 24.3613048,23.8294073 24.3538462,24.0769231 L24.3538462,25.7076923 C24.3514318,25.9207605 24.2488344,26.1202555 24.0769231,26.2461538" id="Fill-10" fill="#FFFFFF"></path>
                <path d="M28.7846154,23.7692308 L27.7692308,24.4923077 C27.5636645,24.6368546 27.292938,24.6491056 27.0751564,24.5237162 C26.8573748,24.3983268 26.7320465,24.1580442 26.7538462,23.9076923 L26.7538462,22.3692308 C26.7501864,22.15831 26.8473389,21.9582902 27.0153846,21.8307692 L28.0307692,21.1076923 C28.2274373,20.9620015 28.4895413,20.9399349 28.7077999,21.0506929 C28.9260585,21.161451 29.063004,21.3860203 29.0615501,21.6307692 L29.0615501,23.2769231 C29.0591241,23.4899913 28.9565267,23.6894863 28.7846154,23.8153846" id="Fill-10-2" fill="#FFFFFF"></path>
                <path d="M32.9076923,21.2923077 L31.8923077,22.0153846 C31.6936104,22.1537688 31.4342195,22.1694485 31.2202997,22.0560062 C31.00638,21.942564 30.8738387,21.7190414 30.8769231,21.4769231 L30.8769231,19.8461538 C30.8881059,19.6159591 31.0156386,19.4072693 31.2153846,19.2923077 L32.2307692,18.5692308 C32.4271978,18.4324337 32.683157,18.4154354 32.8959501,18.5250561 C33.1087432,18.6346768 33.2435004,18.8529532 33.2461538,19.0923077 L33.2461538,20.8307692 C33.2437395,21.0438374 33.1411421,21.2433324 32.9692308,21.3692308" id="Fill-10-3" fill="#FFFFFF"></path>
                <path d="M37.2,18.9692308 L36.1846154,19.6923077 C35.9879473,19.8379985 35.7258433,19.8600651 35.5075847,19.7493071 C35.2893261,19.638549 35.1523806,19.4139797 35.1538345,19.1692308 L35.1538345,17.5230769 C35.1586606,17.3148456 35.2612628,17.1210415 35.4307692,17 L36.4461538,16.2153846 C36.6448511,16.0770004 36.9042421,16.0613207 37.1181618,16.174763 C37.3320815,16.2882053 37.4646228,16.5117278 37.4615385,16.7538462 L37.4615385,18.4 C37.462767,18.6060909 37.3656099,18.8004052 37.2,18.9230769" id="Fill-10-4" fill="#FFFFFF"></path>
                <path d="M24.0769231,37.8769231 L23.0615385,38.6 C22.8651099,38.7367971 22.6091507,38.7537954 22.3963576,38.6441747 C22.1835645,38.534554 22.0488073,38.3162776 22.0461538,38.0769231 L22.0461538,36.4307692 C22.042355,36.224088 22.140068,36.028662 22.3076923,35.9076923 L23.3230769,35.1692308 C23.521975,35.0217207 23.7876815,35.000856 24.0071664,35.1155123 C24.2266513,35.2301686 24.3613048,35.4601766 24.3538462,35.7076923 L24.3538462,37.3384615 C24.3514318,37.5515297 24.2488344,37.7510247 24.0769231,37.8769231" id="Fill-12" fill="#FFFFFF"></path>
                <polygon id="Fill-14" fill="url(#linearGradient-5)" points="0.353846154 11.1692308 19.7384615 22.3384615 39.1230769 11.1692308 19.7384615 -1.36642834e-14"></polygon>
                <line x1="19.6615385" y1="22.4153846" x2="39.2769231" y2="11.1692308" id="路径-7" stroke="#FFFFFF" stroke-width="0.5"></line>
                <line x1="19.6615385" y1="22.4153846" x2="0.430769231" y2="11.1692308" id="路径-7-2" stroke="#FFFFFF" stroke-width="0.5"></line>
                <polygon id="Fill-6-2" fill="url(#linearGradient-6)" opacity="0.9" points="39.3076923 30.7846154 19.9230769 41.9538462 19.9230769 32.3846154 39.3076923 21.2153846"></polygon>
                <polygon id="Fill-7-2" fill="url(#linearGradient-7)" points="4.48188495e-13 30.5076923 19.4 41.6769231 19.4 32.1076923 4.48188495e-13 20.9384615"></polygon>
                <line x1="19.6615385" y1="22.4153846" x2="19.6615385" y2="41.9538462" id="路径-7-3" stroke="#FFFFFF" stroke-width="0.5"></line>
                <line x1="19.4153846" y1="32.1230769" x2="0.184615385" y2="20.8769231" id="路径-7-4" stroke="#FFFFFF" stroke-width="0.5"></line>
                <path d="M24.0769231,35.9230769 L23.0615385,36.6615385 C22.8628412,36.7999227 22.6034502,36.8156024 22.3895305,36.7021601 C22.1756108,36.5887178 22.0430695,36.3651953 22.0461538,36.1230769 L22.0461538,34.4769231 C22.0449253,34.2708321 22.1420824,34.0765179 22.3076923,33.9538462 L23.3230769,33.2307692 C23.519745,33.0850784 23.781849,33.0630118 24.0001076,33.1737699 C24.2183662,33.284528 24.3553117,33.5090973 24.3538578,33.7538462 L24.3538578,35.4 C24.3490317,35.6082314 24.2464296,35.8020355 24.0769231,35.9230769" id="Fill-10-5" fill="#FFFFFF"></path>
                <path d="M28.7846154,33.4461538 L27.7692308,34.1692308 C27.5728022,34.3060279 27.316843,34.3230261 27.1040499,34.2134054 C26.8912568,34.1037847 26.7564996,33.8855083 26.7538462,33.6461538 L26.7538462,32 C26.7500473,31.7933188 26.8477603,31.5978927 27.0153846,31.4769231 L28.0307692,30.7384615 C28.2296674,30.5909515 28.4953738,30.5700868 28.7148587,30.684743 C28.9343436,30.7993993 29.0689971,31.0294073 29.0615385,31.2769231 L29.0615385,32.9230769 C29.056724,33.1313083 28.9541219,33.3251124 28.7846154,33.4461538" id="Fill-10-6" fill="#FFFFFF"></path>
                <path d="M32.9076923,30.9692308 L31.8923077,31.6923077 C31.6958792,31.8291048 31.4399199,31.846103 31.2271268,31.7364823 C31.0143337,31.6268616 30.8795765,31.4085853 30.8769231,31.1692308 L30.8769231,29.5230769 C30.8817375,29.3148456 30.9843397,29.1210415 31.1538462,29 L32.1692308,28.2615385 C32.3679281,28.1231543 32.627319,28.1074746 32.8412387,28.2209168 C33.0551585,28.3343591 33.1876997,28.5578817 33.1846154,28.8 L33.1846154,30.4461538 C33.179801,30.6543852 33.0771988,30.8481893 32.9076923,30.9692308" id="Fill-10-7" fill="#FFFFFF"></path>
                <path d="M37.2,28.6615385 L36.1846154,29.3846154 C35.9857173,29.5321254 35.7200108,29.5529902 35.5005259,29.4383339 C35.2810411,29.3236776 35.1463875,29.0936696 35.1538462,28.8461538 L35.1538462,27.2153846 C35.1562605,27.0023164 35.2588579,26.8028214 35.4307692,26.6769231 L36.4461538,25.9538462 C36.6448511,25.8154619 36.9042421,25.7997823 37.1181618,25.9132245 C37.3320815,26.0266668 37.4646228,26.2501894 37.4615385,26.4923077 L37.4615385,28.1230769 C37.4651982,28.3339977 37.3680458,28.5340175 37.2,28.6615385" id="Fill-10-8" fill="#FFFFFF"></path>
                <line x1="19.6615385" y1="32.1846154" x2="39.2769231" y2="20.9384615" id="路径-7-5" stroke="#FFFFFF" stroke-width="0.5"></line>
                <g id="Fill-1" fill="#FFFFFF">
                    <use xlink:href="#path-8"></use>
                    <use xlink:href="#path-8"></use>
                </g>
            </g>
        </g>
    </g>
</svg>