<?xml version="1.0" encoding="UTF-8"?>
<svg width="40px" height="40px" viewBox="0 0 40 40" version="1.1" xmlns="http://www.w3.org/2000/svg" xmlns:xlink="http://www.w3.org/1999/xlink">
    <title>PCF</title>
    <defs>
        <rect id="path-1" x="0" y="0" width="40" height="40"></rect>
    </defs>
    <g id="山东移动" stroke="none" stroke-width="1" fill="none" fill-rule="evenodd">
        <g id="图标合集" transform="translate(-360.000000, -280.000000)">
            <g id="编组-13" transform="translate(360.000000, 280.000000)">
                <mask id="mask-2" fill="white">
                    <use xlink:href="#path-1"></use>
                </mask>
                <g id="蒙版" opacity="0.200000003"></g>
                <g id="编组" mask="url(#mask-2)" fill="#455A74">
                    <g transform="translate(6.000000, 4.000000)" id="形状结合">
                        <path d="M14.3023256,0 C21.0822983,0 28.3730694,1.96996509 28.5992507,6.29239056 L28.6046512,6.5 L28.6048552,17.7175762 C27.9908883,17.2001822 27.3040514,16.7665113 26.5619426,16.4341614 L26.5614618,15.764 C26.404381,15.9224491 26.2307886,16.0752373 26.0419276,16.2223297 C25.3011276,15.9461657 24.5135458,15.7694674 23.6940737,15.706736 C25.4837327,14.9313178 26.5614618,13.9293751 26.5614618,12.8353478 L26.5614618,10.064 C23.9702363,11.9965806 19.2904291,12.9383184 14.755276,12.9970647 L14.3023256,13 C9.7792975,13 5.03717404,12.1206035 2.30919114,10.2539592 L2.04318937,10.064 L2.043,13.473 L2.04485138,13.3634833 C2.04702258,13.1528798 2.04638222,13.0247788 2.04566741,12.9473995 L2.045,12.893 L2.048235,12.9648539 C2.23282497,15.3308889 7.45927208,17.2352509 13.9472097,17.3025094 L14.3023256,17.3043478 C15.7164764,17.3043478 17.0747318,17.2170848 18.3387413,17.056512 C17.5421718,17.5678902 16.8356477,18.2069816 16.2469418,18.944278 C15.6031382,18.9817036 14.9524449,19 14.3023256,19 C9.3821047,19 4.42900174,17.9520292 2.22079328,15.9343804 L2.04318937,15.764 L2.043,19.473 L2.04447862,19.3634833 C2.04694514,19.0686384 2.04579846,18.9354984 2.04479771,18.8768569 L2.044,18.856 L2.048235,18.9648539 C2.23282497,21.3308889 7.45927208,23.2352509 13.9472097,23.3025094 L14.3023256,23.3043478 L14.4196318,23.3041475 L14.4196318,23.3041475 C14.3777692,23.6455084 14.3565891,23.9941938 14.3565891,24.3478261 C14.3565891,24.5670925 14.3647318,24.7844572 14.3807313,24.9996341 L14.3023256,25 C9.3821047,25 4.42900174,23.9520292 2.22079328,21.9343804 L2.04318937,21.764 L2.04318937,25.5 C2.04318937,27.984 7.53119601,30 14.3023256,30 C15.0170769,30 15.7175494,29.9775297 16.3987913,29.9344106 C16.9971108,30.6449838 17.7080715,31.2569853 18.503724,31.7442054 C17.1259381,31.9158325 15.7032728,32 14.3023256,32 C7.52034157,32 0.231518895,30.0280969 0.00539894459,25.7075186 L-1.3500312e-13,25.5 L-1.3500312e-13,6.5 C-1.3500312e-13,2.033 7.41269103,0 14.3023256,0 Z M5.35714286,25 C5.92135402,25 6.37873754,25.4477153 6.37873754,26 C6.37873754,26.5522847 5.92135402,27 5.35714286,27 C4.79293169,27 4.33554817,26.5522847 4.33554817,26 C4.33554817,25.4477153 4.79293169,25 5.35714286,25 Z M5.35714286,19 C5.92135402,19 6.37873754,19.4477153 6.37873754,20 C6.37873754,20.5522847 5.92135402,21 5.35714286,21 C4.79293169,21 4.33554817,20.5522847 4.33554817,20 C4.33554817,19.4477153 4.79293169,19 5.35714286,19 Z M5.35714286,13 C5.92135402,13 6.37873754,13.4477153 6.37873754,14 C6.37873754,14.5522847 5.92135402,15 5.35714286,15 C4.79293169,15 4.33554817,14.5522847 4.33554817,14 C4.33554817,13.4477153 4.79293169,13 5.35714286,13 Z M14.3023256,2 C7.53119601,2 2.04318937,4.014 2.04318937,6.5 C2.04318937,8.984 7.53119601,11 14.3023256,11 C21.0724336,11 26.5614618,8.984 26.5614618,6.5 C26.5614618,4.014 21.0724336,2 14.3023256,2 Z"></path>
                        <path d="M22.9767442,17.39 C26.8298936,17.39 29.9534884,20.5045409 29.9534884,24.3465217 C29.9534884,28.1885026 26.8298936,31.3030435 22.9767442,31.3030435 C19.1235948,31.3030435 16,28.1885026 16,24.3465217 C16,20.5045409 19.1235948,17.39 22.9767442,17.39 Z M20.3804097,20.006817 L19.7408463,20.006817 L19.6594879,20.0145819 C19.4483093,20.0553877 19.2879131,20.2521341 19.2879131,20.4882985 L19.2879131,20.4882985 L19.2879131,28.1780799 L19.2952176,28.2645662 C19.3336039,28.4890554 19.5186847,28.6595613 19.7408463,28.6595613 L19.7408463,28.6595613 L26.8295229,28.6595613 L26.9108813,28.6517965 C27.1220599,28.6109906 27.2824561,28.4142443 27.2824561,28.1780799 L27.2824561,28.1780799 L27.2813647,22.3480932 L27.2806051,22.2680861 C27.277392,22.1710009 27.260628,22.1095569 27.1733156,22.051083 L27.1733156,22.051083 L26.1899595,21.3746885 L26.1899595,23.6324306 L26.1835974,23.7410164 C26.1332129,24.1679264 25.7897496,24.4990973 25.3746798,24.4990973 L25.3746798,24.4990973 L21.1935066,24.4990973 L21.0913591,24.4923341 C20.6897617,24.4387739 20.3782269,24.0736622 20.3782269,23.6324306 L20.3782269,23.6324306 L20.378909,20.0271205 L20.378909,20.0271205 L20.3804097,20.006817 Z M23.8347071,20.0079772 L21.0865489,20.0079772 L21.081629,20.0278456 L21.081629,20.0278456 L21.0799833,20.0485841 L21.0799833,23.6335908 L21.0853003,23.6715338 C21.0999077,23.7193525 21.1428654,23.7542512 21.1935066,23.7542512 L21.1935066,23.7542512 L25.3757712,23.7542512 L25.4118836,23.7480511 C25.4571464,23.7319754 25.4892774,23.6864957 25.4892774,23.6335908 L25.4892774,23.6335908 L25.4892774,20.8920468 L24.3869581,20.1332784 L24.308761,20.092172 C24.1819862,20.0313423 24.0648117,20.0079772 23.8347071,20.0079772 L23.8347071,20.0079772 Z M24.1839568,22.3689768 C24.3291137,22.3689768 24.4469854,22.494278 24.4469854,22.6485841 C24.4469854,22.8028902 24.3291137,22.9281914 24.1839568,22.9281914 L24.1839568,22.9281914 L22.0622651,22.9281914 L22.0019896,22.9208007 C21.8858361,22.8917991 21.7992364,22.7808465 21.7992364,22.6485841 C21.7992364,22.494278 21.9171082,22.3689768 22.0622651,22.3689768 L22.0622651,22.3689768 Z M24.1839568,21.1983387 C24.3291137,21.1983387 24.4469854,21.3236399 24.4469854,21.477946 C24.4469854,21.6322521 24.3291137,21.7575533 24.1839568,21.7575533 L24.1839568,21.7575533 L22.0622651,21.7575533 L22.0019896,21.7501625 C21.8858361,21.721161 21.7992364,21.6102084 21.7992364,21.477946 C21.7992364,21.3236399 21.9171082,21.1983387 22.0622651,21.1983387 L22.0622651,21.1983387 Z"></path>
                    </g>
                </g>
            </g>
        </g>
    </g>
</svg>