<?xml version="1.0" encoding="UTF-8"?>
<svg width="60px" height="67px" viewBox="0 0 60 67" version="1.1" xmlns="http://www.w3.org/2000/svg" xmlns:xlink="http://www.w3.org/1999/xlink">
    <title>PCF</title>
    <defs>
        <linearGradient x1="26.051126%" y1="36.1067771%" x2="50%" y2="76.5706783%" id="linearGradient-1">
            <stop stop-color="#C1D4EB" offset="0%"></stop>
            <stop stop-color="#E5EBFC" stop-opacity="0" offset="100%"></stop>
        </linearGradient>
        <linearGradient x1="0%" y1="28.5417454%" x2="100%" y2="67.7794749%" id="linearGradient-2">
            <stop stop-color="#D2D5EC" offset="0%"></stop>
            <stop stop-color="#E2F0F7" offset="100%"></stop>
        </linearGradient>
        <linearGradient x1="-0.0435528455%" y1="49.9839286%" x2="100.155898%" y2="49.9839286%" id="linearGradient-3">
            <stop stop-color="#0979DB" offset="0%"></stop>
            <stop stop-color="#0D7EE0" offset="100%"></stop>
        </linearGradient>
        <linearGradient x1="47.7309236%" y1="49.7385475%" x2="73.7429282%" y2="49.7385475%" id="linearGradient-4">
            <stop stop-color="#107FD6" offset="0%"></stop>
            <stop stop-color="#004CA7" offset="100%"></stop>
        </linearGradient>
        <linearGradient x1="69.3581301%" y1="73.5654256%" x2="30.6414634%" y2="26.7278681%" id="linearGradient-5">
            <stop stop-color="#53BAFF" offset="0%"></stop>
            <stop stop-color="#57BFFF" offset="9.842166%"></stop>
            <stop stop-color="#1E82FF" offset="100%"></stop>
        </linearGradient>
        <linearGradient x1="1.6975%" y1="48.909322%" x2="100.295%" y2="48.909322%" id="linearGradient-6">
            <stop stop-color="#53BAFF" offset="0%"></stop>
            <stop stop-color="#57BFFF" offset="9.842166%"></stop>
            <stop stop-color="#1E82FF" offset="100%"></stop>
        </linearGradient>
        <linearGradient x1="1.51891892%" y1="49.9113043%" x2="100.895946%" y2="49.9113043%" id="linearGradient-7">
            <stop stop-color="#53BAFF" offset="0%"></stop>
            <stop stop-color="#57BFFF" offset="9.842166%"></stop>
            <stop stop-color="#1E82FF" offset="100%"></stop>
        </linearGradient>
        <linearGradient x1="-1.51463415%" y1="49.8897959%" x2="97.6707317%" y2="49.8897959%" id="linearGradient-8">
            <stop stop-color="#53BAFF" offset="0%"></stop>
            <stop stop-color="#57BFFF" offset="9.842166%"></stop>
            <stop stop-color="#1E82FF" offset="100%"></stop>
        </linearGradient>
    </defs>
    <g id="页面-1" stroke="none" stroke-width="1" fill="none" fill-rule="evenodd">
        <g id="PCF">
            <g id="编组-4备份-6" transform="translate(0.000000, 20.000000)">
                <g id="编组-13" transform="translate(0.000000, 0.870968)">
                    <polygon id="矩形" fill="#A8B4DA" opacity="0.298339844" points="30 13.5860913 60 29.5349811 30 45.483871 0 29.5349811"></polygon>
                    <polygon id="矩形" fill="#FFFFFF" points="30 0 60 15.9488898 30 31.8977796 0 15.9488898"></polygon>
                    <polygon id="矩形" fill="url(#linearGradient-1)" points="30 31.8977796 60 15.9488898 60 20.7101685 30 37.8183253"></polygon>
                    <polygon id="矩形" fill="url(#linearGradient-2)" points="1.80064297e-14 15.9488898 30 31.8977796 30 37.8183253 2.66453526e-14 20.7786569"></polygon>
                </g>
            </g>
            <g transform="translate(9.000000, 0.000000)" id="编组-4">
                <path d="M35.3414634,18.4965659 C31.8303287,16.0755495 26.8828208,14.4615385 21.4565217,14.4615385 C10.6039236,14.4615385 1.82608696,20.5947802 1.82608696,28.0192308 C1.82608696,35.4436813 10.6039236,41.5769231 21.4565217,41.5769231 C26.8828208,41.5769231 31.8303287,40.1243132 35.3414634,37.5418956 C38.8525981,35.1208791 41.0869565,31.731456 41.0869565,28.0192308 C41.0869565,24.3070055 38.8525981,20.9175824 35.3414634,18.4965659 Z" id="路径_39_" fill="url(#linearGradient-3)" fill-rule="nonzero"></path>
                <path d="M21.4565217,14.7843407 C26.7232238,14.7843407 31.5111347,16.2369505 35.1818664,18.657967 C38.8525981,21.0789835 40.7677625,24.4684066 40.7677625,28.0192308 C40.7677625,31.5700549 38.8525981,34.7980769 35.1818664,37.3804945 C31.5111347,39.801511 26.5636267,41.2541209 21.4565217,41.2541209 C10.7635207,41.2541209 2.14528102,35.2822802 2.14528102,28.0192308 C2.14528102,20.7561813 10.7635207,14.7843407 21.4565217,14.7843407 L21.4565217,14.7843407 Z M21.4565217,14.4615385 C10.6039236,14.4615385 1.82608696,20.5947802 1.82608696,28.0192308 C1.82608696,35.4436813 10.6039236,41.5769231 21.4565217,41.5769231 C26.8828208,41.5769231 31.8303287,40.1243132 35.3414634,37.5418956 C38.8525981,35.1208791 41.0869565,31.731456 41.0869565,28.0192308 C41.0869565,24.3070055 38.8525981,20.9175824 35.3414634,18.4965659 C31.8303287,16.0755495 26.8828208,14.4615385 21.4565217,14.4615385 L21.4565217,14.4615385 Z" id="形状_18_" fill="#309EFF" fill-rule="nonzero"></path>
                <path d="M35.3414634,8.55425824 C31.8303287,6.13324176 26.8828208,4.51923077 21.4565217,4.51923077 C10.6039236,4.51923077 1.82608696,10.6524725 1.82608696,18.0769231 C1.82608696,25.5013736 10.6039236,31.6346154 21.4565217,31.6346154 C26.8828208,31.6346154 31.8303287,30.1820055 35.3414634,27.5995879 C38.8525981,25.1785714 41.0869565,21.7891484 41.0869565,18.0769231 C41.0869565,14.3646978 39.0121951,10.9752747 35.3414634,8.55425824 Z" id="路径_38_" fill="#329EFE" fill-rule="nonzero" opacity="0.5"></path>
                <path d="M41.9739606,13.5576923 L41.9739606,28.5847658 C41.9739606,28.7463472 41.9739606,28.9079287 41.9739606,28.9079287 C41.9739606,32.6243017 39.7410841,36.0175118 36.2322782,38.4412333 C32.7234722,40.8649549 27.7792456,42.4807692 22.3565455,42.4807692 C11.5111453,42.4807692 2.73913043,36.3406747 2.73913043,28.9079287 L2.73913043,29.0695101 L2.73913043,15.9814138 C4.65302459,23.7373227 12.3086012,27.9384401 21.7185808,28.1000215 C28.098228,28.2616029 31.9260163,26.9689514 35.5943134,24.5452299 C39.1031194,22.1215084 40.0600665,20.6672755 40.6980312,19.5362054 C42.292943,16.6277396 41.9739606,13.5576923 41.9739606,13.5576923 Z" id="路径_37_" fill="url(#linearGradient-4)" fill-rule="nonzero"></path>
                <path d="M35.3414634,4.03502747 C31.8303287,1.61401099 26.8828208,0 21.4565217,0 C10.6039236,0 1.82608696,6.13324176 1.82608696,13.5576923 C1.82608696,20.9821429 10.6039236,27.1153846 21.4565217,27.1153846 C26.8828208,27.1153846 31.8303287,25.6627747 35.3414634,23.0803571 C38.8525981,20.6593407 41.0869565,17.2699176 41.0869565,13.5576923 C41.0869565,9.84546703 38.8525981,6.45604396 35.3414634,4.03502747 Z" id="路径_36_" fill="url(#linearGradient-5)" fill-rule="nonzero"></path>
                <path d="M21.4565217,0.161401099 C26.7232238,0.161401099 31.5111347,1.61401099 35.1818664,4.03502747 C38.8525981,6.61744505 40.7677625,9.84546703 40.7677625,13.3962912 C40.7677625,16.9471154 38.8525981,20.1751374 35.1818664,22.7575549 C31.5111347,25.3399725 26.5636267,26.6311813 21.4565217,26.6311813 C10.7635207,26.6311813 2.14528102,20.6593407 2.14528102,13.3962912 C2.14528102,6.13324176 10.7635207,0.161401099 21.4565217,0.161401099 L21.4565217,0.161401099 Z M21.4565217,0 C10.6039236,0 1.82608696,6.13324176 1.82608696,13.5576923 C1.82608696,20.9821429 10.6039236,27.1153846 21.4565217,27.1153846 C26.8828208,27.1153846 31.8303287,25.6627747 35.3414634,23.0803571 C38.8525981,20.6593407 41.0869565,17.2699176 41.0869565,13.5576923 C41.0869565,9.84546703 38.8525981,6.45604396 35.3414634,4.03502747 C31.8303287,1.45260989 26.8828208,0 21.4565217,0 Z" id="形状_17_" fill="#309EFF" fill-rule="nonzero"></path>
                <path d="M41.0869565,21.6923077 C41.0869565,25.087242 39.1854114,28.173546 35.5407833,30.6425891 C31.8961552,33.1116323 26.9838304,34.3461538 21.9130435,34.3461538 C11.2960834,34.3461538 2.73913043,28.6364916 2.73913043,21.6923077" id="路径" stroke="#309EFF" stroke-width="0.25"></path>
                <g id="编组" transform="translate(12.782609, 8.134615)" fill="#FFFFFF" fill-rule="nonzero">
                    <path d="M3.46328804,0.150641026 L3.46328804,0.150641026 L3.29836957,5.12179487 L3.29836957,5.2724359 C3.29836957,5.875 3.793125,6.32692308 4.45279891,6.32692308 L4.45279891,6.32692308 L4.61771739,6.32692308 L11.8741304,6.32692308 L12.0390489,6.32692308 C12.6987228,6.32692308 13.1934783,5.72435897 13.1934783,5.2724359 L13.1934783,5.2724359 L13.1934783,5.12179487 L13.1934783,1.95833333 L14.842663,2.86217949 L14.842663,2.86217949 C15.0075815,2.86217949 15.0075815,3.01282051 15.0075815,3.16346154 L15.0075815,3.16346154 L15.0075815,3.31410256 L15.502337,12.0512821 L15.502337,12.2019231 C15.502337,12.5032051 15.1725,12.8044872 14.842663,12.8044872 L14.842663,12.8044872 L14.6777446,12.8044872 L1.64918478,12.8044872 L1.4842663,12.8044872 C1.15442935,12.8044872 0.824592391,12.5032051 0.824592391,12.2019231 L0.824592391,12.2019231 L0.824592391,12.0512821 L1.4842663,0.753205128 L1.4842663,0.602564103 C1.4842663,0.301282051 1.81410326,0.150641026 2.14394022,0.150641026 L2.14394022,0.150641026 L2.3088587,0.150641026 L3.46328804,0.150641026 Z" id="路径"></path>
                    <path d="M10.0600272,0.301282051 L10.0600272,0.301282051 C9.73019022,0.150641026 9.56527174,0.150641026 9.0705163,0.150641026 L4.45279891,0.150641026 L4.45279891,0.150641026 L4.45279891,0.150641026 L4.28788043,5.12179487 L4.28788043,5.12179487 C4.28788043,5.12179487 4.28788043,5.2724359 4.45279891,5.2724359 L4.45279891,5.2724359 L11.709212,5.2724359 L11.709212,5.2724359 C11.709212,5.2724359 11.8741304,5.2724359 11.8741304,5.12179487 L11.8741304,5.12179487 L11.709212,1.35576923 L10.0600272,0.301282051 Z M9.8951087,4.06730769 L9.8951087,4.06730769 L6.1019837,4.06730769 L5.93706522,4.06730769 C5.77214674,4.06730769 5.60722826,3.91666667 5.60722826,3.61538462 C5.60722826,3.46474359 5.77214674,3.31410256 5.93706522,3.16346154 L6.1019837,3.16346154 L9.73019022,3.16346154 C10.0600272,3.16346154 10.2249457,3.31410256 10.2249457,3.61538462 C10.2249457,3.91666667 10.0600272,4.06730769 9.8951087,4.06730769 Z M9.8951087,2.41025641 L9.8951087,2.41025641 L6.26690217,2.41025641 L6.1019837,2.41025641 C5.93706522,2.41025641 5.77214674,2.25961538 5.77214674,2.10897436 C5.77214674,1.95833333 5.93706522,1.80769231 6.1019837,1.80769231 L6.26690217,1.80769231 L9.8951087,1.80769231 C10.0600272,1.80769231 10.3898641,1.95833333 10.3898641,2.25961538 C10.2249457,2.25961538 10.0600272,2.41025641 9.8951087,2.41025641 Z" id="形状"></path>
                </g>
                <path d="M13.6956522,29.7503259 L13.6956522,29.7503259 L12.4173913,28.5247718 L11.4586957,27.6056063 L11.4586957,27.6056063 L9.86086957,26.0736636 L9.70108696,26.0736636 C9.54130435,26.0736636 9.54130435,25.9204694 9.38152174,25.9204694 L8.7423913,25.3076923 L2.83043478,25.3076923 L2.83043478,25.3076923 L2.83043478,25.3076923 L2.83043478,25.3076923 L1.71195652,25.3076923 L1.55217391,25.3076923 C1.2326087,25.3076923 0.913043478,25.7672751 0.913043478,26.2268579 L0.913043478,26.3800522 L1.07282609,42.005867 L1.07282609,42.1590613 C1.07282609,42.1590613 1.07282609,43.3846154 2.51086957,43.3846154 L2.67065217,43.3846154 L12.7369565,41.6994785 L12.8967391,41.6994785 C13.2163043,41.5462842 13.376087,41.2398957 13.376087,40.9335072 L13.376087,40.7803129 L13.6956522,30.363103 L13.6956522,30.2099087 C13.6956522,29.9035202 13.6956522,29.7503259 13.6956522,29.7503259 Z" id="形状" stroke="#FFFFFF" stroke-width="0.75" fill="url(#linearGradient-6)" stroke-linecap="round" stroke-linejoin="round"></path>
                <g id="编组" transform="translate(0.000000, 23.500000)">
                    <path d="M8.25953177,0.335052127 L8.25953177,0.335052127 C7.95362319,0.174809806 7.8006689,0.0145674838 7.49476031,0.0145674838 L3.51794872,0.0145674838 L3.51794872,0.0145674838 L3.51794872,0.0145674838 L3.51794872,7.70619893 C3.51794872,7.70619893 3.51794872,7.70619893 3.51794872,7.70619893 C3.67090301,8.18692589 3.97681159,8.34716822 4.43567447,8.34716822 C4.43567447,8.34716822 4.28272018,8.34716822 4.28272018,8.18692589 C4.28272018,8.02668357 4.28272018,7.86644125 4.28272018,7.86644125 L9.48316611,7.54595661 L9.48316611,7.54595661 C9.48316611,7.54595661 9.6361204,7.38571429 9.6361204,7.38571429 L9.6361204,7.38571429 L9.78907469,1.93747535 L8.25953177,0.335052127 Z" id="路径" fill="#135AAD"></path>
                    <g id="路径">
                        <path d="M11.9304348,4.18086785 L11.9304348,4.18086785 L10.7068004,2.89892928 L10.5538462,7.22547196 L10.5538462,7.38571429 C10.5538462,8.18692589 10.0949833,8.82789518 9.6361204,8.9881375 L9.48316611,8.9881375 L3.67090301,9.46886447 L3.51794872,9.46886447 C2.90613155,9.46886447 2.44726867,8.82789518 2.44726867,8.02668357 L2.44726867,7.86644125 L2.44726867,0.655536771 L3.05908584,0.655536771 L2.44726867,0.174809806 L2.44726867,0.174809806 L1.37658863,0.174809806 L1.22363434,0.174809806 C0.917725753,0.174809806 0.611817168,0.655536771 0.611817168,1.13626374 L0.611817168,1.29650606 L0.76477146,17.6412229 L0.76477146,17.8014652 C0.76477146,17.8014652 0.76477146,19.0834038 2.14136009,19.0834038 C2.14136009,19.0834038 1.83545151,19.0834038 1.83545151,18.9231615 C1.83545151,18.7629191 1.68249721,18.6026768 1.68249721,18.6026768 L11.1656633,16.8400113 L11.3186176,16.8400113 C11.6245262,16.6797689 11.7774805,16.3592843 11.7774805,16.0387997 L11.7774805,15.8785573 L12.0833891,4.98207946 L12.0833891,4.82183714 C11.9304348,4.34111017 11.9304348,4.34111017 11.9304348,4.18086785 Z" fill="#135AAD"></path>
                        <g transform="translate(0.983278, 0.000000)">
                            <path d="M2.22876254,0.655536771 L2.22876254,0.655536771 L2.22876254,8.50741054 L2.22876254,8.66765286 C2.22876254,9.46886447 2.68762542,10.1098338 3.29944259,10.1098338 L3.29944259,10.1098338 L3.45239688,10.1098338 L9.26465998,9.62910679 L9.41761427,9.62910679 C9.87647715,9.46886447 10.33534,8.82789518 10.33534,8.02668357 L10.33534,8.02668357 L10.33534,7.86644125 L10.4882943,3.53989856 L11.7119287,4.82183714 L11.7119287,4.82183714 C11.7119287,4.98207946 11.7119287,4.98207946 11.7119287,5.14232178 L11.7119287,5.14232178 L11.7119287,5.3025641 L11.4060201,16.199042 L11.4060201,16.3592843 C11.4060201,16.6797689 11.1001115,17.0002536 10.9471572,17.1604959 L10.9471572,17.1604959 L10.7942029,17.1604959 L1.1580825,18.9231615 L1.00512821,18.9231615 C0.699219621,18.9231615 0.546265329,18.6026768 0.393311037,18.2821922 L0.393311037,18.2821922 L0.393311037,18.1219498 L0.546265329,1.6169907 L0.546265329,1.45674838 C0.546265329,0.976021414 0.852173913,0.655536771 1.1580825,0.495294449 L1.1580825,0.495294449 L1.31103679,0.495294449 L2.22876254,0.655536771 Z" fill="url(#linearGradient-7)"></path>
                            <path d="M7.42920847,0.655536771 C7.73511706,0.655536771 7.88807135,0.655536771 8.04102564,0.815779093 L8.04102564,0.815779093 L8.19397993,0.815779093 L9.72352285,2.41820231 L9.57056856,7.86644125 L9.57056856,7.86644125 C9.57056856,7.86644125 9.57056856,8.02668357 9.41761427,8.02668357 L9.41761427,8.02668357 L9.41761427,8.02668357 L3.60535117,8.50741054 L3.60535117,8.50741054 C3.60535117,8.50741054 3.45239688,8.50741054 3.45239688,8.34716822 L3.45239688,8.34716822 L3.45239688,8.34716822 L3.45239688,0.655536771 L3.45239688,0.655536771 L3.45239688,0.655536771 L7.42920847,0.655536771 Z" fill="url(#linearGradient-8)"></path>
                            <path d="M7.73511706,5.46280642 L4.82898551,5.62304875 L4.67603122,5.62304875 C4.52307692,5.62304875 4.37012263,5.94353339 4.37012263,6.26401803 C4.37012263,6.58450268 4.52307692,6.744745 4.67603122,6.744745 L4.67603122,6.744745 L4.82898551,6.744745 L7.73511706,6.58450268 L7.73511706,6.58450268 C7.88807135,6.58450268 8.04102564,6.26401803 8.04102564,5.94353339 C8.19397993,5.62304875 8.04102564,5.46280642 7.73511706,5.46280642 L7.73511706,5.46280642 Z" fill="#135AAD"></path>
                            <path d="M7.88807135,3.0591716 L4.82898551,3.0591716 L4.67603122,3.0591716 C4.52307692,3.0591716 4.37012263,3.37965624 4.37012263,3.70014088 C4.37012263,4.02062553 4.52307692,4.18086785 4.67603122,4.34111017 L4.67603122,4.34111017 L4.82898551,4.34111017 L7.88807135,4.18086785 L7.88807135,4.18086785 C8.04102564,4.18086785 8.19397993,3.86038321 8.19397993,3.53989856 C8.19397993,3.37965624 8.04102564,3.0591716 7.88807135,3.0591716 L7.88807135,3.0591716 Z" fill="#135AAD"></path>
                        </g>
                    </g>
                </g>
            </g>
        </g>
    </g>
</svg>