<?xml version="1.0" encoding="UTF-8"?>
<svg width="60px" height="63px" viewBox="0 0 60 63" version="1.1" xmlns="http://www.w3.org/2000/svg" xmlns:xlink="http://www.w3.org/1999/xlink">
    <title>PCRF</title>
    <defs>
        <linearGradient x1="26.051126%" y1="36.1067771%" x2="50%" y2="76.5706783%" id="linearGradient-1">
            <stop stop-color="#C1D4EB" offset="0%"></stop>
            <stop stop-color="#E5EBFC" stop-opacity="0" offset="100%"></stop>
        </linearGradient>
        <linearGradient x1="0%" y1="28.5417454%" x2="100%" y2="67.7794749%" id="linearGradient-2">
            <stop stop-color="#D2D5EC" offset="0%"></stop>
            <stop stop-color="#E2F0F7" offset="100%"></stop>
        </linearGradient>
        <linearGradient x1="47.665926%" y1="49.7072626%" x2="73.733991%" y2="49.7072626%" id="linearGradient-3">
            <stop stop-color="#107FD6" offset="0%"></stop>
            <stop stop-color="#004CA7" offset="100%"></stop>
        </linearGradient>
        <linearGradient x1="-1876.70817%" y1="-1159.03426%" x2="-1806.37704%" y2="-1159.03426%" id="linearGradient-4">
            <stop stop-color="#53BAFF" offset="0%"></stop>
            <stop stop-color="#57BFFF" offset="10%"></stop>
            <stop stop-color="#1E82FF" offset="100%"></stop>
        </linearGradient>
        <linearGradient x1="-1860.58862%" y1="-1148.81336%" x2="-1790.25749%" y2="-1148.81336%" id="linearGradient-5">
            <stop stop-color="#53BAFF" offset="0%"></stop>
            <stop stop-color="#57BFFF" offset="10%"></stop>
            <stop stop-color="#1E82FF" offset="100%"></stop>
        </linearGradient>
        <linearGradient x1="0.0189396026%" y1="49.9832136%" x2="99.9978982%" y2="49.9832136%" id="linearGradient-6">
            <stop stop-color="#53BAFF" offset="0%"></stop>
            <stop stop-color="#57BFFF" offset="10%"></stop>
            <stop stop-color="#1E82FF" offset="100%"></stop>
        </linearGradient>
        <linearGradient x1="0.064083395%" y1="49.9794939%" x2="99.9965379%" y2="49.9794939%" id="linearGradient-7">
            <stop stop-color="#53BAFF" offset="0%"></stop>
            <stop stop-color="#57BFFF" offset="10%"></stop>
            <stop stop-color="#1E82FF" offset="100%"></stop>
        </linearGradient>
    </defs>
    <g id="页面-1" stroke="none" stroke-width="1" fill="none" fill-rule="evenodd">
        <g id="PCRF">
            <g id="编组-4备份-6" transform="translate(0.000000, 16.000000)">
                <g id="编组-13" transform="translate(0.000000, 0.870968)">
                    <polygon id="矩形" fill="#A8B4DA" opacity="0.298339844" points="30 13.5860913 60 29.5349811 30 45.483871 0 29.5349811"></polygon>
                    <polygon id="矩形" fill="#FFFFFF" points="30 0 60 15.9488898 30 31.8977796 0 15.9488898"></polygon>
                    <polygon id="矩形" fill="url(#linearGradient-1)" points="30 31.8977796 60 15.9488898 60 20.7101685 30 37.8183253"></polygon>
                    <polygon id="矩形" fill="url(#linearGradient-2)" points="1.80064297e-14 15.9488898 30 31.8977796 30 37.8183253 2.66453526e-14 20.7786569"></polygon>
                </g>
            </g>
            <g id="PCRF备份-2" transform="translate(2.000000, 0.000000)" fill-rule="nonzero">
                <path d="M52.792589,29.9116124 L34.5237652,40.8847166 C34.2160612,41.0384278 33.8489442,41.0384278 33.5412402,40.8847166 L5.20153548,24.9011964 C4.94055229,24.7400427 4.92520033,24.5056372 5.20153548,24.3591339 L23.6238788,14.1038964 C23.9137602,13.9653679 24.2551145,13.9653679 24.5449959,14.1038964 L52.792589,29.3695499 C53.0535722,29.5160533 53.0842761,29.7651091 52.792589,29.9116124 Z" id="路径" fill="url(#linearGradient-3)"></path>
                <path d="M52.792589,25.8839736 L34.5237652,36.8785093 C34.2181657,37.0404969 33.8468398,37.0404969 33.5412402,36.8785093 L5.20153548,20.9078086 C4.94055229,20.7610191 4.92520033,20.5114769 5.20153548,20.3793663 L23.6238788,10.1040993 C23.9137602,9.96530024 24.2551145,9.96530024 24.5449959,10.1040993 L52.792589,25.3995682 C53.0535722,25.4876419 53.0842761,25.7371841 52.792589,25.8839736 Z" id="路径" fill="url(#linearGradient-4)"></path>
                <path d="M52.792589,19.8814475 L34.5237652,30.884403 C34.2160612,31.0385323 33.8489442,31.0385323 33.5412402,30.884403 L5.20153548,14.9161619 C4.94055229,14.76926 4.92520033,14.5342169 5.20153548,14.3873149 L23.6238788,4.10417899 C23.9137602,3.96527367 24.2551145,3.96527367 24.5449959,4.10417899 L52.792589,19.3232202 C53.0535722,19.4848123 53.0842761,19.7345456 52.792589,19.8814475 Z" id="路径" fill="url(#linearGradient-3)"></path>
                <path d="M52.792589,15.8839736 L34.5237652,26.8785093 C34.2181657,27.0404969 33.8468398,27.0404969 33.5412402,26.8785093 L5.20153548,10.9078086 C4.94055229,10.7610191 4.92520033,10.5114769 5.20153548,10.3793663 L23.6238788,0.10409927 C23.9137602,-0.0346997568 24.2551145,-0.0346997568 24.5449959,0.10409927 L52.792589,15.3408524 C53.0535722,15.443605 53.0842761,15.7371841 52.792589,15.8839736 Z" id="路径" fill="url(#linearGradient-5)"></path>
                <path d="M30.5443549,7.64529572 L17.6870763,15.0774634 C17.3923083,15.2233226 17.0429146,15.2233226 16.7481466,15.0774634 C16.4755541,14.9165306 16.4604101,14.6824466 16.7481466,14.5361441 L29.6054253,7.10397642 C29.8966346,6.96534119 30.2380016,6.96534119 30.5292109,7.10397642 C30.7563713,7.26490919 30.7866594,7.49899321 30.5443549,7.64529572 Z M22.8814774,8.06957301 L14.143374,13.0731189 C13.848606,13.2189782 13.4992124,13.2189782 13.2044444,13.0731189 C12.9318519,12.9121862 12.9318519,12.6781022 13.2044444,12.5317997 L21.9425478,7.52825371 C22.2373158,7.38239445 22.5867094,7.38239445 22.8814774,7.52825371 C23.1086378,7.64529572 23.1237818,7.92327049 22.8814774,8.06957301 Z M32.7250948,8.84497633 L19.8829601,16.3210347 C19.5901478,16.474527 19.2368429,16.474527 18.9440305,16.3210347 C18.671438,16.1747322 18.656294,15.926018 18.9440305,15.7797154 L31.8013091,8.33291753 C32.0907662,8.18719841 32.4356377,8.18719841 32.7250948,8.33291753 C32.9976873,8.46458979 32.9976873,8.71330406 32.7250948,8.84497633 Z M34.9361227,10.0592872 L22.078844,17.5646061 C21.784076,17.7104654 21.4346824,17.7104654 21.1399143,17.5646061 C20.8673219,17.4036733 20.8521778,17.1549591 21.1399143,17.0086565 L33.982049,9.51796788 C34.271506,9.37224877 34.6163776,9.37224877 34.9058346,9.51796788 C35.148139,9.67890065 35.1784271,9.91298467 34.9361227,10.0592872 Z M37.1320065,11.273598 L24.3050159,18.8228077 C24.0068259,18.976263 23.6491323,18.976263 23.3509422,18.8228077 C23.0783498,18.6765052 23.0632057,18.4277909 23.3509422,18.2814884 L36.1930769,10.746909 C36.4825339,10.6011899 36.8274055,10.6011899 37.1168625,10.746909 C37.3591669,10.8932115 37.374311,11.1272955 37.1320065,11.273598 L37.1320065,11.273598 Z M39.3581785,12.4879089 L26.5311879,20.0810093 C26.2329978,20.2344646 25.8753042,20.2344646 25.5771142,20.0810093 C25.3045217,19.9347068 25.2893777,19.6859925 25.5771142,19.53969 L38.4192488,11.9612199 C38.7140168,11.8153606 39.0634105,11.8153606 39.3581785,11.9612199 C39.5701948,12.1075224 39.6004829,12.3562366 39.3581785,12.4879089 L39.3581785,12.4879089 Z M41.5843504,13.71685 L28.7573598,21.3392109 C28.4573062,21.4852794 28.1033397,21.4852794 27.8032861,21.3392109 C27.5306936,21.1782782 27.5155496,20.9295639 27.8032861,20.7832614 L40.5697006,13.1755307 C40.862513,13.0220384 41.2158179,13.0220384 41.5086303,13.1755307 C41.8115108,13.3364635 41.8266548,13.5705475 41.5843504,13.71685 L41.5843504,13.71685 Z M43.8256663,14.9457911 L31.0138198,22.6120428 C30.7156297,22.7654981 30.3579361,22.7654981 30.0597461,22.6120428 C29.7720096,22.4657403 29.7568655,22.217026 30.0597461,22.0560932 L42.8867367,14.4191021 C43.1741363,14.2654817 43.5231227,14.2654817 43.8105223,14.4191021 C44.0528267,14.5654046 44.0679708,14.7994886 43.8256663,14.9604214 L43.8256663,14.9457911 Z M41.9780951,18.6618749 L33.2702797,23.8848747 C32.9667433,24.0383751 32.6045985,24.0383751 32.301062,23.8848747 C32.0284695,23.7239419 32.0133255,23.4752276 32.301062,23.3142949 L41.0240214,18.1059254 C41.3187894,17.9600661 41.6681831,17.9600661 41.9629511,18.1059254 C42.1901115,18.2668582 42.2203995,18.5155724 41.9780951,18.6618749 L41.9780951,18.6618749 Z" id="形状" fill="#FFFFFF"></path>
                <path d="M12.6257751,14.3636345 C11.8524135,14.1391354 11.0503298,14.0167812 10.2419973,14 C4.31311409,14 -0.454441489,19.556335 0.0345385703,26.1308466 C0.447115496,31.5562732 4.29783347,35.3671626 8.82089902,35.7453425 C9.9232355,36.0179229 11.0725936,36.0723781 12.1979176,35.9053417 C17.1488407,35.1635273 20.9537167,30.3780974 20.9995586,24.9235801 C21.0454005,19.4690627 17.5155757,14.9890858 12.6257751,14.3636345 Z" id="路径" stroke="#FFFFFF" stroke-width="0.5" fill="url(#linearGradient-6)"></path>
                <path d="M9.87718367,14 C4.15948362,14 -0.438254563,19.6145695 0.0333083277,26.2579867 C0.490134878,32.5486562 5.30891817,36.7081409 10.4666373,35.8997605 C15.2412116,35.1648692 18.940033,30.3145867 18.9989783,24.7882042 C19.07266,18.9972608 15.1527935,14 9.87718367,14 Z" id="路径" fill="#135AAD"></path>
                <path d="M10.8529951,14 C5.13468123,14 0.509791677,19.6009192 1.04172785,26.2630651 C1.49978401,32.5419903 6.33153763,36.6984618 11.4883634,35.9025418 C16.275789,35.1508395 19.9550142,30.3016226 19.9993422,24.7743997 C20.0584462,18.9818702 16.1280289,14.0294785 10.8529951,14 Z" id="路径" fill="url(#linearGradient-7)"></path>
                <path d="M14.1455569,28.5765247 C13.6479608,29.0582771 13.0173576,29.3954557 12.3269737,29.5489068 L12.3269737,30.8504028 L11.0414236,31 L11.0414236,29.6685846 C10.3435568,29.7024514 9.6538318,29.5129044 9.08174343,29.1300345 C8.478014,28.6792269 8.08846959,28.0166117 8,27.2899885 L10.0223899,26.5719217 C10.0540233,26.9748646 10.2551343,27.34846 10.5799591,27.6076945 C10.9047839,27.8669289 11.3256937,27.9897526 11.7469084,27.9482163 C12.4619231,27.9159026 13.0189484,27.3445137 13.0011037,26.6616801 C12.8872837,25.9784112 12.2973097,25.4587514 11.5744565,25.4050633 C10.5633479,25.2613858 9.60194757,24.8923809 8.76819461,24.3279632 C8.30269232,23.7172489 8.07032533,22.9728724 8.10974209,22.2186421 C7.98800629,20.7356042 9.10389777,19.4210293 10.6494875,19.2266974 L10.6494875,18 L12.0134249,18 L12.0134249,19.2117376 C12.6832591,19.2573347 13.3178781,19.5153585 13.8163306,19.9447641 C14.30409,20.3748437 14.6106748,20.9599423 14.6785899,21.5903337 L12.7502646,22.2186421 C12.6215649,21.6076401 12.1093804,21.1367842 11.4647145,21.0368239 C10.8062619,21.0368239 10.2889064,21.306099 10.3202613,22.2336018 C10.3202613,22.9067894 10.8062619,23.0863061 11.590134,23.310702 C12.5952525,23.5347536 13.5268727,23.9920852 14.3023313,24.6421174 C15.2891444,25.8062652 15.2221625,27.4872421 14.1455569,28.5765247 L14.1455569,28.5765247 Z" id="路径" fill="#FFFFFF"></path>
            </g>
        </g>
    </g>
</svg>