<?xml version="1.0" encoding="UTF-8"?>
<svg width="63px" height="55px" viewBox="0 0 63 55" version="1.1" xmlns="http://www.w3.org/2000/svg" xmlns:xlink="http://www.w3.org/1999/xlink">
    <title>手机</title>
    <defs>
        <linearGradient x1="26.051126%" y1="36.1067771%" x2="50%" y2="76.5706783%" id="linearGradient-1">
            <stop stop-color="#C1D4EB" offset="0%"></stop>
            <stop stop-color="#E5EBFC" stop-opacity="0" offset="100%"></stop>
        </linearGradient>
        <linearGradient x1="0%" y1="28.5417454%" x2="100%" y2="67.7794749%" id="linearGradient-2">
            <stop stop-color="#D2D5EC" offset="0%"></stop>
            <stop stop-color="#E2F0F7" offset="100%"></stop>
        </linearGradient>
        <linearGradient x1="50%" y1="14.952284%" x2="50%" y2="82.107085%" id="linearGradient-3">
            <stop stop-color="#1F7FA9" offset="0%"></stop>
            <stop stop-color="#2292C2" offset="100%"></stop>
        </linearGradient>
        <linearGradient x1="38.111861%" y1="39.773786%" x2="50%" y2="62.6255216%" id="linearGradient-4">
            <stop stop-color="#56C2F1" offset="0%"></stop>
            <stop stop-color="#46B8EA" offset="100%"></stop>
        </linearGradient>
        <linearGradient x1="38.111861%" y1="39.4644282%" x2="50%" y2="63.007462%" id="linearGradient-5">
            <stop stop-color="#56C2F1" offset="0%"></stop>
            <stop stop-color="#46B8EA" offset="100%"></stop>
        </linearGradient>
    </defs>
    <g id="页面-1" stroke="none" stroke-width="1" fill="none" fill-rule="evenodd">
        <g id="手机">
            <g id="编组-4备份-6" transform="translate(3.000000, 8.000000)">
                <g id="编组-13" transform="translate(0.000000, 0.870968)">
                    <polygon id="矩形" fill="#A8B4DA" opacity="0.298339844" points="30 13.5860913 60 29.5349811 30 45.483871 0 29.5349811"></polygon>
                    <polygon id="矩形" fill="#FFFFFF" points="30 0 60 15.9488898 30 31.8977796 0 15.9488898"></polygon>
                    <polygon id="矩形" fill="url(#linearGradient-1)" points="30 31.8977796 60 15.9488898 60 20.7101685 30 37.8183253"></polygon>
                    <polygon id="矩形" fill="url(#linearGradient-2)" points="1.80064297e-14 15.9488898 30 31.8977796 30 37.8183253 2.66453526e-14 20.7786569"></polygon>
                </g>
            </g>
            <g id="2.5D图标新2021-3-18_app备份" fill-rule="nonzero">
                <g id="编组-4">
                    <path d="M0.854940711,15.8636364 C1.34578161,16.6267084 2.02101969,17.2561413 2.81936759,17.6948052 L39.5345059,38.3246753 C41.4283092,39.5042734 43.8165837,39.5787503 45.7813834,38.5194805 L61.2610672,29.5 C61.7924515,29.2401814 62.2311077,28.8255724 62.5183004,28.3116883 C62.8432491,27.1252821 62.9888928,25.8976301 62.9504743,24.6688312 L62.2039921,24.6688312 L61.32,25.1168831 L60.7699605,24.7467532 L23.9566008,4 C22.0258314,2.95228052 19.7088834,2.87280259 17.7097233,3.78571429 L2.23003953,12.8441558 C2.05188297,12.9564293 1.88127307,13.0800665 1.71928854,13.2142857 L0.835296443,11.9675325 L0.462055336,11.9675325 C0.368883481,13.2789367 0.501746994,14.5964966 0.854940711,15.8636364 Z" id="路径" fill="url(#linearGradient-3)"></path>
                    <path d="M39.6720158,35.0324675 L2.03359684,13.9155844 C0.0691699605,12.8441558 -0.0879841897,11.2077922 1.54249012,10.2727273 L17.3757708,1 C19.4170398,0.0599036002 21.7876593,0.139471123 23.7601581,1.21428571 L61.3985771,22.3311688 C63.363004,23.3831169 63.5201581,25.0194805 61.8896838,25.974026 L46.0564032,35.2272727 C44.0500647,36.3150476 41.6071201,36.2405067 39.6720158,35.0324675 L39.6720158,35.0324675 Z" id="路径" fill="url(#linearGradient-4)"></path>
                    <path d="M40.7917391,34.487013 L2.95687747,13.3116883 C1.69964427,12.5909091 1.54249012,11.5194805 2.6229249,10.8766234 L18.3383399,1.7012987 C19.6907565,1.06778405 21.2666346,1.11119355 22.581502,1.81818182 L60.3967194,23.012987 C61.6735968,23.7142857 61.8111067,24.8051948 60.7306719,25.4480519 L45.0152569,34.6233766 C43.6671657,35.2538323 42.0956211,35.2030923 40.7917391,34.487013 L40.7917391,34.487013 Z" id="路径" fill="#C6F1FF"></path>
                    <path d="M5.25525692,10.0194805 L3.99802372,9.2987013 L15.5488538,2.53896104 L16.8257312,3.25974026 C17.5525692,3.64935065 17.6311462,4.27272727 17.0025296,4.64285714 L7.69114625,10.0194805 C6.924168,10.3985301 6.02223516,10.3985301 5.25525692,10.0194805 Z" id="路径" fill="url(#linearGradient-5)"></path>
                    <path d="M17.100751,14.7337662 C17.1015633,14.676114 17.0598599,14.6264871 17.0025296,14.6168831 C17.0025296,14.6168831 17.0025296,14.6168831 16.9043083,14.7142857 C16.903496,14.7719379 16.9451994,14.8215648 17.0025296,14.8311688 C17.0025296,14.8311688 17.100751,14.7727273 17.100751,14.7337662 Z" id="路径" fill="#FF9124"></path>
                    <path d="M48.0797628,31.4480519 C47.9226087,31.4480519 47.9029644,31.2337662 48.0797628,31.1558442 L55.0141897,27.1038961 C55.173231,27.017255 55.3658995,27.017255 55.5249407,27.1038961 C55.6624506,27.1038961 55.6820949,27.3181818 55.5249407,27.3766234 L48.5708696,31.4480519 C48.4170276,31.5277352 48.2336048,31.5277352 48.0797628,31.4480519 L48.0797628,31.4480519 Z" id="路径" fill="#218AB8"></path>
                    <path d="M14.5077075,4.93506494 C14.5077075,4.74025974 14.2130435,4.56493506 13.8398024,4.56493506 C13.4665613,4.56493506 13.1915415,4.74025974 13.1915415,4.95454545 L13.1915415,4.95454545 C13.1915415,5.14935065 13.4862055,5.32467532 13.8594466,5.32467532 C14.2326877,5.32467532 14.5077075,5.14935065 14.5077075,4.93506494 Z" id="路径" fill="#218AB8"></path>
                    <path d="M8.24118577,8.22727273 C8.12332016,8.22727273 8.10367589,8.05194805 8.24118577,7.99350649 L12.3271937,5.5974026 C12.458587,5.53988311 12.60833,5.53988311 12.7397233,5.5974026 C12.8575889,5.5974026 12.8772332,5.77272727 12.7397233,5.85064935 L8.65371542,8.22727273 C8.52350246,8.29009761 8.37139872,8.29009761 8.24118577,8.22727273 L8.24118577,8.22727273 Z" id="路径" fill="#218AB8"></path>
                    <path d="M24.7423715,18.8246753 L23.2886957,20.0324675 L25.1352569,21.512987 L25.9210277,20.8506494 L24.7423715,18.8246753 Z M27.5318577,16.487013 L28.8873123,18.4350649 L32.4822134,15.4545455 L29.4962846,14.8701299 L27.5318577,16.487013 Z M31.6178656,13.0584416 L34.8002372,13.525974 L36.0378261,12.4935065 L33.5037154,11.4805195 L31.6178656,13.0584416 Z M24.1137549,15.0064935 L25.0763241,14.7922078 C25.2531225,14.7922078 25.3316996,14.6168831 25.2531225,14.4805195 L25.2531225,14.4805195 C25.1543293,14.3463811 24.9835523,14.284798 24.8209486,14.3246753 L23.8780237,14.5584416 C23.8110384,14.5658558 23.7513781,14.6038414 23.7167004,14.6611557 C23.6820228,14.7184701 23.6762998,14.7885483 23.7012253,14.8506494 L23.7012253,14.8506494 C23.8113227,14.9569492 23.9780472,14.9805685 24.1137549,14.9090909 L24.1137549,15.0064935 Z M24.6245059,16.2922078 L25.9603162,16 C26.1764032,16 26.2746245,15.7857143 26.1764032,15.6298701 L25.8817391,15.1233766 C25.7575171,14.9625783 25.5512192,14.8868086 25.3513439,14.9285714 L24.0548221,15.2402597 C23.9765172,15.2519692 23.9081206,15.2990402 23.8696624,15.3676879 C23.8312042,15.4363356 23.8270364,15.5187918 23.8583794,15.5909091 L24.1137549,16.0779221 C24.2493259,16.2071524 24.4455394,16.252055 24.6245059,16.1948052 L24.6245059,16.2922078 Z M30.3213439,25.0974026 C30.3213439,25.0974026 30.0266798,22.3896104 29.967747,22.2922078 L27.7086561,22.5649351 C27.7086561,22.5649351 30.3213439,25 30.3213439,25 L30.3213439,25.0974026 Z M26.1960474,16.0779221 L24.7227273,16.3896104 C24.6442386,16.3911542 24.5727685,16.4347897 24.5360374,16.5035923 C24.4993063,16.572395 24.503093,16.6555402 24.5459289,16.7207792 L27.2371937,21.8246753 C27.355408,22.0118132 27.5646376,22.1229662 27.7872332,22.1168831 L29.5945059,21.8831169 C29.8105929,21.8831169 29.88917,21.6883117 29.7713043,21.4935065 L26.6675099,16.2727273 C26.5625069,16.1216895 26.3781317,16.0455069 26.1960474,16.0779221 Z M32.4429249,13.5844156 C32.4429249,13.5844156 22.0314625,12.2987013 21.9332411,12.7272727 C21.8350198,13.1558442 32.2464822,14.9090909 32.2464822,14.9090909 C32.2464822,14.9090909 32.5018577,14.9090909 32.521502,14.9090909 L32.6786561,13.7597403 C32.6786561,13.7597403 32.5411462,13.5844156 32.4036364,13.5844156 L32.4429249,13.5844156 Z M35.6252964,14.1688312 L33.5233597,13.7402597 C33.3858498,13.7402597 33.2679842,13.7402597 33.2483399,13.8766234 L33.11083,14.8311688 C33.1290029,14.948583 33.2270297,15.0376919 33.3465613,15.0454545 L35.5074308,15.2597403 C35.664585,15.2597403 35.7824506,15.2597403 35.8020949,15.1233766 L35.8020949,14.3831169 C35.8020949,14.3831169 35.7235178,14.1883117 35.5860079,14.1688312 L35.6252964,14.1688312 Z M37.0200395,14.3051948 C36.764664,14.3051948 36.5485771,14.3051948 36.5485771,14.4220779 L36.5485771,15.2012987 C36.5485771,15.2987013 36.7450198,15.4155844 37.0003953,15.4545455 L41.145336,16.2727273 C41.44,16.2727273 41.6953755,16.2727273 41.6953755,16.1558442 L41.6953755,14.9675325 C41.6953755,14.8701299 41.44,14.7532468 41.145336,14.7142857 L37.0200395,14.3051948 Z" id="形状" fill="#218AB8"></path>
                </g>
            </g>
        </g>
    </g>
</svg>