<?xml version="1.0" encoding="UTF-8"?>
<svg width="40px" height="40px" viewBox="0 0 40 40" version="1.1" xmlns="http://www.w3.org/2000/svg" xmlns:xlink="http://www.w3.org/1999/xlink">
    <title>PON</title>
    <defs>
        <rect id="path-1" x="0" y="0" width="40" height="40"></rect>
    </defs>
    <g id="山东移动" stroke="none" stroke-width="1" fill="none" fill-rule="evenodd">
        <g id="图标合集" transform="translate(-120.000000, -440.000000)">
            <g id="编组-13" transform="translate(120.000000, 440.000000)">
                <mask id="mask-2" fill="white">
                    <use xlink:href="#path-1"></use>
                </mask>
                <g id="蒙版" opacity="0.200000003"></g>
                <path d="M28.649789,30.6878307 C28.814346,29.3375661 28.7594937,27.9661376 28.6244726,26.6708995 C29.2911392,26.3830688 29.7130802,25.9174603 29.8649789,25.2571429 C30.8607595,25.2740741 31.8227848,25.210582 32.8438819,24.8846561 C31.9873418,27.2592593 30.5738397,29.0412698 28.7679325,30.5904762 L28.649789,30.6878307 Z M17.2531646,33.4730159 C19.9578059,30.2603175 23.4556962,27.7544974 25.7510549,26.3280423 C26.0759494,26.6074074 26.5400844,26.8656085 26.9746835,26.9544974 C27.1350211,28.5291005 27.021097,30.1333333 26.8481013,31.9238095 C24.6202532,33.189418 22.5400844,33.7693122 19.9957806,33.7693122 C18.9704641,33.7693122 18.3206751,33.7227513 17.3586498,33.5068783 M8.74683544,27.9068783 C8.98312236,26.3111111 9.58227848,23.6402116 11.2869198,20.6941799 C11.4725738,20.7365079 11.8059072,20.7915344 12.0042194,20.7915344 C12.4177215,20.7915344 12.814346,20.7407407 13.1561181,20.5037037 C15.9831224,22.5989418 19.742616,24.2793651 24.6244726,24.8804233 C21.6371308,26.3280423 17.9324895,29.0793651 15.2531646,32.9015873 C12.5485232,31.8984127 10.556962,30.4042328 8.87763713,28.0592593 M7.46413502,14.3746032 C7.87763713,15.2169312 8.4556962,16.194709 9.48945148,17.0624339 C9.35864979,17.4560847 9.29535865,17.7989418 9.29535865,18.1164021 C9.29535865,18.7132275 9.44303797,19.352381 9.84810127,19.7671958 C8.49367089,21.7269841 7.78059072,23.9322751 7.46835443,25.6634921 C6.64556962,23.9619048 6.26160338,21.9597884 6.26160338,19.9873016 C6.26160338,18.0148148 6.6835443,16.1396825 7.43459916,14.442328 C7.43037975,14.4465608 7.38396624,14.5185185 7.46413502,14.3746032 Z M14.1434599,7.54708995 C15.0168776,8.01693122 16.2447257,8.76190476 17.6202532,9.83703704 C17.4767932,10.1544974 17.3966245,10.5100529 17.3966245,10.8783069 C17.3966245,11.0857143 17.4261603,11.2846561 17.4767932,11.4835979 C15.628692,12.7746032 14.1518987,14.1291005 12.8818565,15.589418 C12.6202532,15.4962963 12.1983122,15.3989418 11.9029536,15.3989418 C11.4345992,15.3989418 10.9493671,15.5259259 10.5738397,15.7460317 C9.70464135,14.8994709 8.83966245,13.4899471 8.41350211,12.626455 C9.80168776,10.3915344 11.7552743,8.68148148 14.1434599,7.54708995 M25.7890295,7.51746032 C24.3417722,7.96190476 22.9915612,8.46984127 21.7552743,9.04126984 C21.2911392,8.58835979 20.6624473,8.3047619 19.9620253,8.3047619 C19.5443038,8.3047619 19.2489451,8.37248677 18.8987342,8.55026455 C17.9535865,7.8010582 17.1139241,7.1957672 16.3459916,6.72169312 C17.5527426,6.37460317 18.6793249,6.21798942 19.9957806,6.21798942 C22.07173,6.21798942 24.0295359,6.69206349 25.7890295,7.51746032 M14.3544304,16.6518519 C15.5232068,15.3227513 16.8270042,14.1714286 18.5105485,12.9862434 C18.9409283,13.3121693 19.3839662,13.4518519 19.9662447,13.4518519 C20.3839662,13.4518519 20.6919831,13.3798942 21.0421941,13.2021164 C23,15.4539683 24.9873418,18.3153439 26.0843882,22.0529101 C25.5822785,22.2687831 25.2236287,22.6751323 25.0590717,23.1661376 C20.5063291,22.6412698 17.0886076,20.9820106 14.4345992,19.0645503 C14.5991561,18.7555556 14.6455696,18.4888889 14.6455696,18.1164021 C14.6455696,17.621164 14.5274262,17.1767196 14.2869198,16.7830688 M33.7383966,19.9915344 C33.7383966,20.9904762 33.7172996,21.9428571 33.4472574,22.831746 C32.3881857,23.1703704 31.1476793,23.4666667 29.8902954,23.4666667 C29.6160338,22.5269841 28.7468354,21.7566138 27.8438819,21.7396825 C27.0506329,17.6761905 24.6244726,14.184127 22.3375527,11.8518519 C22.4767932,11.5343915 22.5316456,11.2465608 22.5316456,10.8783069 C22.5316456,10.7767196 22.5147679,10.6835979 22.5021097,10.5862434 C24.0970464,9.84550265 25.8734177,9.20634921 27.8523207,8.7026455 C31.4050633,11.1957672 33.7383966,15.3227513 33.7383966,19.9915344 M20,4 C11.1772152,4 4,11.178836 4,20 C4,28.821164 11.1772152,36 20,36 C28.8227848,36 36,28.821164 36,20 C36,11.178836 28.8227848,4 20,4" id="形状" fill="#455A74" mask="url(#mask-2)"></path>
            </g>
        </g>
    </g>
</svg>