<?xml version="1.0" encoding="UTF-8"?>
<svg width="60px" height="66px" viewBox="0 0 60 66" version="1.1" xmlns="http://www.w3.org/2000/svg" xmlns:xlink="http://www.w3.org/1999/xlink">
    <title>路由器</title>
    <defs>
        <linearGradient x1="26.051126%" y1="36.1067771%" x2="50%" y2="76.5706783%" id="linearGradient-1">
            <stop stop-color="#C1D4EB" offset="0%"></stop>
            <stop stop-color="#E5EBFC" stop-opacity="0" offset="100%"></stop>
        </linearGradient>
        <linearGradient x1="0%" y1="28.5417454%" x2="100%" y2="67.7794749%" id="linearGradient-2">
            <stop stop-color="#D2D5EC" offset="0%"></stop>
            <stop stop-color="#E2F0F7" offset="100%"></stop>
        </linearGradient>
        <linearGradient x1="37.5909091%" y1="105.525223%" x2="60.3698347%" y2="3.54302671%" id="linearGradient-3">
            <stop stop-color="#57BFFF" offset="0%"></stop>
            <stop stop-color="#1E82FF" offset="100%"></stop>
        </linearGradient>
        <linearGradient x1="30.981405%" y1="41.3026706%" x2="63.7830579%" y2="52.4569733%" id="linearGradient-4">
            <stop stop-color="#107FD6" offset="0%"></stop>
            <stop stop-color="#004CA7" offset="100%"></stop>
        </linearGradient>
        <linearGradient x1="57.1111111%" y1="53.6557408%" x2="37.1111111%" y2="44.995379%" id="linearGradient-5">
            <stop stop-color="#53BAFF" offset="0%"></stop>
            <stop stop-color="#57BFFF" offset="10%"></stop>
            <stop stop-color="#1E82FF" offset="100%"></stop>
        </linearGradient>
        <linearGradient x1="-3452.82025%" y1="1620.77151%" x2="-3450.21694%" y2="1620.17804%" id="linearGradient-6">
            <stop stop-color="#107FD6" offset="0%"></stop>
            <stop stop-color="#004CA7" offset="100%"></stop>
        </linearGradient>
    </defs>
    <g id="页面-1" stroke="none" stroke-width="1" fill="none" fill-rule="evenodd">
        <g id="路由器">
            <g id="编组-4备份-6" transform="translate(0.000000, 19.000000)">
                <g id="编组-13" transform="translate(0.000000, 0.870968)">
                    <polygon id="矩形" fill="#A8B4DA" opacity="0.298339844" points="30 13.5860913 60 29.5349811 30 45.483871 0 29.5349811"></polygon>
                    <polygon id="矩形" fill="#FFFFFF" points="30 0 60 15.9488898 30 31.8977796 0 15.9488898"></polygon>
                    <polygon id="矩形" fill="url(#linearGradient-1)" points="30 31.8977796 60 15.9488898 60 20.7101685 30 37.8183253"></polygon>
                    <polygon id="矩形" fill="url(#linearGradient-2)" points="1.80064297e-14 15.9488898 30 31.8977796 30 37.8183253 2.66453526e-14 20.7786569"></polygon>
                </g>
            </g>
            <g id="2.5D图标新2021-3-18_路由器-42备份" transform="translate(8.000000, 0.000000)">
                <polygon id="Fill-6" fill="url(#linearGradient-3)" opacity="0.9" points="42 22.1513353 21 34 21 23.8486647 42 12"></polygon>
                <polygon id="Fill-7" fill="url(#linearGradient-4)" points="0 23.1513353 21 35 21 24.8486647 0 13"></polygon>
                <path d="M25.7598724,28.305714 L24.8933943,28.8961654 C24.7210534,29.0166194 24.4908246,29.0336572 24.3006457,28.9400309 C24.1104669,28.8464047 23.9937926,28.6585844 24.0002553,28.4564676 L24.0002553,27.1248112 C24.0023473,26.9508236 24.0912457,26.7879197 24.2402031,26.6851134 L25.1200117,26.094662 C25.2921785,25.98166 25.5169351,25.9688562 25.7022919,26.0614911 C25.8876486,26.154126 26.0024928,26.3366504 25.9998202,26.5343598 L25.9998202,27.8660162 C26.0045907,28.0415448 25.9141515,28.207272 25.7598724,28.305714" id="Fill-10" fill="#FFFFFF" fill-rule="nonzero"></path>
                <path d="M29.7732856,25.3057124 L28.893436,25.8961652 C28.7210871,26.0166194 28.4908475,26.0336572 28.3006598,25.9400308 C28.1104721,25.8464044 27.9937923,25.6585836 28.0002553,25.4564663 L28.0002553,24.1248068 C28.0023474,23.9508188 28.09125,23.7879145 28.2402143,23.685108 L29.1200639,23.0946552 C29.2902729,22.9829489 29.5120663,22.9690684 29.6964555,23.0585829 C29.8808447,23.1480973 29.9976142,23.3263383 29.9999135,23.5217912 L29.9999135,24.8660135 C30.0030848,25.038248 29.9189003,25.2015809 29.7732856,25.3057124" id="Fill-10-2" fill="#FFFFFF" fill-rule="nonzero"></path>
                <path d="M34.7600015,22.3148477 L33.880044,22.9053326 C33.707848,23.0183411 33.4830534,23.0311455 33.2976652,22.9385054 C33.1122771,22.8458653 32.9974135,22.6633305 33.0000865,22.4656098 L33.0000865,21.133878 C32.9969149,20.9616341 33.0811096,20.7982923 33.2267422,20.6941552 L34.1066997,20.1036703 C34.2771372,19.984695 34.504283,19.9666748 34.6934313,20.057123 C34.8825796,20.1475711 35.00126,20.3309607 35,20.5308295 L35,21.875125 C34.9978976,22.0491224 34.9089841,22.2120356 34.7600015,22.3148477" id="Fill-10-3" fill="#FFFFFF" fill-rule="nonzero"></path>
                <path d="M39.7600001,20.3121825 L38.8800003,20.9049705 C38.7097623,21.0171185 38.487931,21.0310539 38.3035104,20.9411854 C38.1190897,20.8513169 38.0023002,20.6723711 38,20.4761451 L38,19.1266065 C37.9997399,18.9548301 38.0896711,18.7941435 38.2400005,18.6977812 L39.1066669,18.0923807 C39.2811187,17.9813419 39.5058304,17.9695438 39.6922012,18.0616384 C39.878572,18.153733 39.9966966,18.3349425 40,18.5338186 L40,19.8833572 C39.9958275,20.054068 39.9069056,20.2129511 39.7600001,20.3121825" id="Fill-10-4" fill="#FFFFFF" fill-rule="nonzero"></path>
                <path d="M25.759843,39.3058448 L24.8932586,39.8963297 C24.7228291,40.015305 24.4956939,40.0333252 24.3065544,39.942877 C24.1174149,39.8524289 23.9987401,39.6690393 24,39.4691705 L24,38.124875 C24.0020323,37.9543058 24.0914292,37.7951793 24.2399873,37.6977158 L25.1199038,37.0946674 C25.2920917,36.9816589 25.5168759,36.9688545 25.7022554,37.0614946 C25.8876349,37.1541347 26.0024931,37.3366695 25.9998202,37.5343902 L25.9998202,38.8284315 C26.0045912,39.0039701 25.914141,39.1697068 25.759843,39.2681543" id="Fill-12" fill="#FFFFFF" fill-rule="nonzero"></path>
                <polygon id="Fill-14" fill="url(#linearGradient-5)" points="0.707444533 12.3659884 21.5 24 42 12 21.5 0 0.415651801 12"></polygon>
                <polygon id="路径-7" fill="#FFFFFF" fill-rule="nonzero" points="41.5982263 11 42 12.728192 21.4017737 25 21 23.271808"></polygon>
                <polygon id="路径-7-2" fill="#FFFFFF" fill-rule="nonzero" points="0.415651801 12 21 23.2752186 20.5843482 25 0 13.7247814"></polygon>
                <polygon id="Fill-6-2" fill="url(#linearGradient-3)" opacity="0.9" points="42 33.1513353 21 45 21 34.8486647 42 23"></polygon>
                <polygon id="Fill-7-2" fill="url(#linearGradient-6)" points="0 32.1513353 21 44 21 33.8486647 0 22"></polygon>
                <polygon id="路径-7-3" fill="#FFFFFF" fill-rule="nonzero" points="21.5 24 21.5 45 21 45 21 24"></polygon>
                <polygon id="路径-7-4" fill="#FFFFFF" fill-rule="nonzero" points="1.56319402e-13 21 21 34.2752186 21 36 5.08079689e-13 22.7247814"></polygon>
                <path d="M25.7598391,38.2931496 L24.8933774,38.8961652 C24.7210398,39.0166194 24.4908153,39.0336572 24.3006401,38.9400308 C24.1104648,38.8464044 23.9937927,38.6585836 24.0002553,38.4564663 L24.0002553,37.112244 C24.0044268,36.9422057 24.0933277,36.7839484 24.2401985,36.685108 L25.1199905,36.0946552 C25.2901883,35.9829489 25.5119672,35.9690684 25.6963443,36.0585829 C25.8807214,36.1480973 25.9974833,36.3263383 25.9997824,36.5217912 L25.9997824,37.8660135 C26.0050623,38.0382502 25.9139524,38.2004399 25.7598391,38.2931496" id="Fill-10-5" fill="#FFFFFF" fill-rule="nonzero"></path>
                <path d="M29.773294,35.3058448 L28.8933185,35.8963297 C28.7228776,36.015305 28.4957271,36.0333252 28.306575,35.942877 C28.1174228,35.8524289 27.99874,35.6690393 28,35.4691705 L28,34.124875 C28.0020324,33.9543058 28.0914353,33.7951793 28.2400034,33.6977158 L29.1199789,33.0946674 C29.2921784,32.9816589 29.5169776,32.9688545 29.7023695,33.0614946 C29.8877615,33.1541347 30.0026274,33.3366695 29.9999543,33.5343902 L29.9999543,34.8786856 C30.0010191,35.0469852 29.9168186,35.2056677 29.773294,35.3058448" id="Fill-10-6" fill="#FFFFFF" fill-rule="nonzero"></path>
                <path d="M34.7600012,32.2974135 L33.8800056,32.90293 C33.7097684,33.0174861 33.4879382,33.0317207 33.3035184,32.9399226 C33.1190986,32.8481244 33.0023096,32.6653362 33,32.4648968 L33,31.1507973 C32.9989452,30.9782134 33.0831476,30.8154914 33.2266755,30.7127641 L34.1066711,30.0943643 C34.2811221,29.9809412 34.5058327,29.9688899 34.6922026,30.0629619 C34.8785726,30.157034 34.9966966,30.3421345 35,30.5452808 L35,31.923797 C34.9958275,32.0981734 34.9069061,32.2604681 34.7600012,32.3618302" id="Fill-10-7" fill="#FFFFFF" fill-rule="nonzero"></path>
                <path d="M39.8081782,30.3072408 L38.9041814,30.9042816 C38.7272813,31.0185447 38.4963456,31.0314913 38.3058929,30.9378227 C38.1154402,30.844154 37.9974387,30.6595926 38.0001847,30.4596767 L38.0001847,29.1131592 C37.9952831,28.9356717 38.0882087,28.7680949 38.2467293,28.6685543 L39.1370291,28.0715135 C39.3163515,27.9754658 39.5374972,27.9762145 39.7160587,28.0734741 C39.8946202,28.1707336 40.0030396,28.3494936 39.9999351,28.5415244 L39.9999351,29.811824 C39.9977856,29.9877532 39.9064431,30.1524752 39.7533905,30.2564288" id="Fill-10-8" fill="#FFFFFF" fill-rule="nonzero"></path>
                <polygon id="路径-7-5" fill="#FFFFFF" fill-rule="nonzero" points="41.5982263 22 42 23.728192 21.4017737 36 21 34.271808"></polygon>
                <path d="M27.4277706,11.9130457 C27.1824417,11.7926248 26.8966471,11.7926248 26.6513182,11.9130457 L24.7270667,13.1171045 L23.51175,13.8911424 C23.425901,13.9172189 23.3670569,13.9976645 23.3670569,14.0889521 C23.3670569,14.1802396 23.425901,14.2606852 23.51175,14.2867617 L24.7101873,15.0435987 L27.3096148,16.6776787 L25.2334487,16.6776787 C25.0646547,16.6776787 24.9296195,16.7636829 24.9296195,16.8668879 L24.9296195,17.8645367 C24.9296195,17.8645367 24.9296195,17.9505409 25.0308959,17.9849426 C25.0969763,18.0050191 25.1673683,18.0050191 25.2334487,17.9849426 L30.7698915,17.9849426 C30.8420227,18.0024854 30.9171926,18.0024854 30.9893237,17.9849426 C31.0035588,17.946118 31.0035588,17.9033613 30.9893237,17.8645367 L30.9893237,14.4243685 C30.9859786,14.3618495 30.9460073,14.3075395 30.8880473,14.2867617 C30.8219669,14.2666852 30.7515749,14.2666852 30.6854945,14.2867617 L29.0988311,14.2867617 C28.9300371,14.2867617 28.7950019,14.2867617 28.7950019,14.475971 L28.7950019,15.8004358 L26.4150066,14.149155 C26.3306096,14.149155 26.3306096,14.04595 26.4150066,13.9943474 L28.2211023,12.8762928 C28.3162082,12.8310835 28.3770026,12.7338235 28.3770026,12.6268806 C28.3770026,12.5199376 28.3162082,12.4226777 28.2211023,12.3774684 L27.4277706,11.9130457 Z M20.2709054,13.7363348 L19.0555887,12.962297 C18.8481402,12.8577846 18.6047407,12.8577846 18.3972922,12.962297 L17.1988549,13.719134 L14.5994274,15.3532139 L14.5994274,14.0287491 C14.5956289,13.97139 14.5639612,13.9197567 14.5150304,13.8911424 C14.4486021,13.873664 14.378906,13.873664 14.3124776,13.8911424 L12.7089348,13.8911424 C12.5401408,13.8911424 12.421985,13.9771466 12.421985,14.0803516 L12.421985,17.5205199 C12.421985,17.5205199 12.421985,17.6065241 12.506382,17.6409258 C12.5728103,17.6584041 12.6425064,17.6584041 12.7089348,17.6409258 L18.262257,17.6409258 C18.4141716,17.6409258 18.5492068,17.6409258 18.5492068,17.4689174 L18.5492068,16.4712686 C18.5454082,16.4139094 18.5137405,16.3622762 18.4648098,16.3336618 C18.3929455,16.3139431 18.3172419,16.3139431 18.2453776,16.3336618 L16.1523321,16.3336618 L18.6167244,14.7855861 C18.6918389,14.7509994 18.7779214,14.7509994 18.8530359,14.7855861 L20.6591316,15.9208416 C20.9002641,16.0587281 21.1944515,16.0587281 21.435584,15.9208416 L22.1951569,15.4392181 C22.4145891,15.3016114 22.4145891,15.0780004 22.1951569,14.9575945 L20.2709054,13.7363348 Z M17.840272,6.01315714 L12.3038292,6.01315714 C12.231698,5.99561429 12.1565281,5.99561429 12.084397,6.01315714 C12.0354663,6.04177147 12.0037985,6.09340473 12,6.15076386 L12,9.5909321 C12,9.5909321 12,9.6769363 12.1012764,9.71133799 C12.1673568,9.73141454 12.2377488,9.73141454 12.3038292,9.71133799 L13.8904927,9.71133799 C14.0592867,9.71133799 14.1943219,9.71133799 14.1943219,9.53932957 L14.1943219,8.2148648 L16.6755935,9.74573967 C16.7047096,9.76010981 16.7232027,9.7901761 16.7232027,9.82314345 C16.7232027,9.85611081 16.7047096,9.8861771 16.6755935,9.90054724 L14.8863772,11.0358028 C14.7886011,11.074129 14.7240846,11.1698594 14.7240846,11.2766145 C14.7240846,11.3833696 14.7886011,11.4791001 14.8863772,11.5174263 L15.6628296,11.9990499 C15.903962,12.1369363 16.1981494,12.1369363 16.4392819,11.9990499 L18.3635334,10.794991 L19.5619707,10.038154 C19.7476441,9.91774808 19.7476441,9.72853883 19.5619707,9.62533378 L18.346654,8.98890266 L15.7472265,7.37202359 L17.840272,7.37202359 C18.009066,7.37202359 18.1441012,7.28601938 18.1441012,7.18281433 L18.1441012,6.18516555 C18.1407561,6.12264658 18.1007848,6.06833657 18.0428248,6.04755882 C17.9767444,6.02748227 17.9063524,6.02748227 17.840272,6.04755882 L17.840272,6.01315714 Z M30.5504594,6.42597732 C30.5993901,6.45459166 30.6310578,6.50622492 30.6348564,6.56358405 L30.6348564,10.0037523 C30.6348564,10.1069573 30.4998212,10.1929615 30.3479066,10.1929615 L28.7612431,10.1929615 C28.6893788,10.2126802 28.6136752,10.2126802 28.5418109,10.1929615 C28.5230219,10.1490907 28.5230219,10.0992256 28.5418109,10.0553548 L28.5418109,8.74809088 L25.9592629,10.36497 L24.7608255,11.121807 C24.5633501,11.2422354 24.3168838,11.2422354 24.1194084,11.121807 L22.8872123,10.36497 L20.9629608,9.16091107 C20.8678549,9.11570178 20.8070606,9.01844181 20.8070606,8.91149887 C20.8070606,8.80455594 20.8678549,8.70729596 20.9629608,8.66208668 L21.7225337,8.18046312 C21.9678627,8.06004222 22.2536572,8.06004222 22.4989861,8.18046312 L24.3050818,9.31571864 C24.3801963,9.35030533 24.4662789,9.35030533 24.5413934,9.31571864 L27.0057856,7.76764293 L24.8114637,7.76764293 C24.7395995,7.78736163 24.6638959,7.78736163 24.5920316,7.76764293 C24.5920316,7.76764293 24.5076346,7.76764293 24.5076346,7.64723705 L24.5076346,6.64958826 C24.5076346,6.54638321 24.6257904,6.46037901 24.7945843,6.46037901 L30.3479066,6.46037901 C30.4143349,6.44290066 30.484031,6.44290066 30.5504594,6.46037901 L30.5504594,6.42597732 Z" id="Fill-1-2" fill="#FFFFFF" fill-rule="nonzero"></path>
            </g>
        </g>
    </g>
</svg>