<?xml version="1.0" encoding="UTF-8"?>
<svg width="60px" height="61px" viewBox="0 0 60 61" version="1.1" xmlns="http://www.w3.org/2000/svg" xmlns:xlink="http://www.w3.org/1999/xlink">
    <title>SDH</title>
    <defs>
        <linearGradient x1="26.051126%" y1="36.1067771%" x2="50%" y2="76.5706783%" id="linearGradient-1">
            <stop stop-color="#C1D4EB" offset="0%"></stop>
            <stop stop-color="#E5EBFC" stop-opacity="0" offset="100%"></stop>
        </linearGradient>
        <linearGradient x1="0%" y1="28.5417454%" x2="100%" y2="67.7794749%" id="linearGradient-2">
            <stop stop-color="#D2D5EC" offset="0%"></stop>
            <stop stop-color="#E2F0F7" offset="100%"></stop>
        </linearGradient>
        <linearGradient x1="38.5073506%" y1="117.40152%" x2="58.869665%" y2="16.4588804%" id="linearGradient-3">
            <stop stop-color="#57BFFF" offset="0%"></stop>
            <stop stop-color="#1E82FF" offset="100%"></stop>
        </linearGradient>
        <linearGradient x1="33.6535174%" y1="54.5662983%" x2="62.6076594%" y2="64.9502762%" id="linearGradient-4">
            <stop stop-color="#107FD6" offset="0%"></stop>
            <stop stop-color="#004CA7" offset="100%"></stop>
        </linearGradient>
        <linearGradient x1="57.3809524%" y1="49.2834406%" x2="37.3809524%" y2="40.6704916%" id="linearGradient-5">
            <stop stop-color="#53BAFF" offset="0%"></stop>
            <stop stop-color="#57BFFF" offset="10%"></stop>
            <stop stop-color="#1E82FF" offset="100%"></stop>
        </linearGradient>
    </defs>
    <g id="页面-1" stroke="none" stroke-width="1" fill="none" fill-rule="evenodd">
        <g id="SDH">
            <g id="编组-135备份" transform="translate(0.000000, 14.000000)">
                <g id="编组-13" transform="translate(0.000000, 0.870968)">
                    <polygon id="矩形" fill="#A8B4DA" opacity="0.298339844" points="30 13.5860913 60 29.5349811 30 45.483871 0 29.5349811"></polygon>
                    <polygon id="矩形" fill="#FFFFFF" points="30 0 60 15.9488898 30 31.8977796 0 15.9488898"></polygon>
                    <polygon id="矩形" fill="url(#linearGradient-1)" points="30 31.8977796 60 15.9488898 60 20.7101685 30 37.8183253"></polygon>
                    <polygon id="矩形" fill="url(#linearGradient-2)" points="1.80064297e-14 15.9488898 30 31.8977796 30 37.8183253 2.66453526e-14 20.7786569"></polygon>
                </g>
            </g>
            <g id="SDH备份-2" transform="translate(7.000000, 0.000000)">
                <polygon id="Fill-6" fill="url(#linearGradient-3)" opacity="0.9" points="46 26.9550795 23 40 23 27.0449205 46 14"></polygon>
                <polygon id="Fill-7" fill="url(#linearGradient-4)" points="0 26.9640884 23 40 23 27.0359116 0 14"></polygon>
                <polygon id="Fill-14" fill="url(#linearGradient-5)" points="0 13.5 23.018254 27 46 13.5 23.018254 0"></polygon>
                <line x1="23" y1="27" x2="46" y2="14" id="路径-7" stroke="#FFFFFF" stroke-width="0.5"></line>
                <line x1="23" y1="27" x2="0" y2="14" id="路径-7-2" stroke="#FFFFFF" stroke-width="0.5"></line>
                <line x1="23" y1="27" x2="23" y2="41" id="路径-7-3" stroke="#FFFFFF" stroke-width="0.5"></line>
                <path d="M23.3333333,22.8146609 C23.0880777,23.0237593 22.777336,23.0582594 22.5079723,22.9062968 C22.2386085,22.7543341 22.0473611,22.4366349 22,22.0624556 L22,21.9335061 C22.0079877,21.6216124 22.1403418,21.3371626 22.35,21.1813007 L23.6666667,20.1711964 C24.2333333,19.7413648 25,20.1711964 25,20.9019102 L25,21.0523513 C24.9920123,21.364245 24.8596582,21.6486948 24.65,21.8045566" id="Fill-10" fill="#FFFFFF" fill-rule="nonzero"></path>
                <path d="M28.3333333,20.8157824 C28.0880777,21.0236155 27.777336,21.0579069 27.5079723,20.9068638 C27.2386085,20.7558207 27.0473611,20.4400439 27,20.0681288 L27,19.918598 C27.0104845,19.6150815 27.1429448,19.3402105 27.35,19.1923059 L28.6833333,18.1883139 C28.9234986,17.9791767 29.2303397,17.9416312 29.497041,18.0887475 C29.7637424,18.2358637 29.9534032,18.5472868 30,18.914606 L30,19.0641367 C29.9928071,19.3689364 29.8594242,19.6457222 29.65,19.7904288" id="Fill-10-2" fill="#FFFFFF" fill-rule="nonzero"></path>
                <path d="M33.3259669,17.8146609 C33.0820662,18.0237593 32.7730414,18.0582594 32.5051658,17.9062968 C32.2372902,17.7543341 32.0470995,17.4366349 32,17.0624556 L32,16.9335061 C32.0080308,16.6158494 32.1473677,16.328416 32.3646409,16.1813007 L33.6740331,15.1711964 C34.2209945,14.7413648 35,15.1711964 35,15.9019102 L35,16.0523513 C34.9931486,16.3650744 34.8525514,16.646821 34.6353591,16.783065" id="Fill-10-3" fill="#FFFFFF" fill-rule="nonzero"></path>
                <path d="M38.3333333,14.8289232 C37.7833333,15.2584543 37,14.8289232 37,14.0987204 L37,13.9483845 C37.0079877,13.6367089 37.1403418,13.352458 37.35,13.1967051 L38.6833333,12.187307 C38.9258724,11.9764652 39.2355127,11.9411739 39.5030061,12.0938847 C39.7704995,12.2465955 39.9582444,12.565842 40,12.9389865 L40,13.0678458 C39.9920123,13.3795214 39.8596582,13.6637723 39.65,13.8195252" id="Fill-10-4" fill="#FFFFFF" fill-rule="nonzero"></path>
                <path d="M33.8198198,29.7521457 L33.8198198,29.7521457 C33.6455566,29.8673017 33.4120932,29.8184276 33.2972973,29.6427589 L32.2342342,28.0931125 C32.1081081,27.9108011 31.8558558,28.0931125 31.7477477,28.3848106 L30.9189189,30.7548581 C30.7770533,31.2009152 30.4915949,31.5860283 30.1081081,31.8487262 L26.2882883,34 C26.1261261,34 26,34 26,33.7629953 L26,32.778514 C26,32.5489787 26.1068066,32.3328389 26.2882883,32.1951177 L29.7657658,30.2443863 C29.8810694,30.1637084 29.969119,30.0491628 30.018018,29.9162259 L31.4234234,25.8689141 C31.5087337,25.5667898 31.701202,25.3071301 31.9639639,25.1396687 C32.0288209,25.0552604 32.1285669,25.0058869 32.2342342,25.0058869 C32.3399016,25.0058869 32.4396475,25.0552604 32.5045045,25.1396687 L33.6216216,26.8351642 C33.7297297,26.9992444 33.981982,26.8351642 34.1081081,26.5799283 L36.072072,21.7486777 C36.183036,21.4648987 36.3781681,21.2228753 36.6306306,21.0558946 C36.7196791,20.9992765 36.8287288,20.984845 36.9291729,21.016386 C37.0296171,21.0479271 37.1114312,21.1222927 37.1531531,21.2199748 L38.9549549,24.7203526 C39.0250168,24.7898393 39.1371453,24.7898393 39.2072072,24.7203526 L43.7117117,22.1679938 C43.8738738,22.1679938 44,22.1679938 44,22.4232297 L44,23.407711 C44,23.6322375 43.8926427,23.8428871 43.7117117,23.9728761 L38.9009009,26.8898576 C38.7715378,26.987796 38.6056593,27.0220483 38.4487137,26.98323 C38.291768,26.9444118 38.160212,26.8365932 38.09009,26.6893151 L36.7567567,24.1734186 C36.6486486,23.9728761 36.3783783,24.1734186 36.2702702,24.4104234 L34.3423423,29.0958249 C34.2442008,29.366765 34.060557,29.597433 33.8198198,29.7521457 L33.8198198,29.7521457 Z" id="路径" fill="#FFFFFF" fill-rule="nonzero"></path>
            </g>
        </g>
    </g>
</svg>