<?xml version="1.0" encoding="UTF-8"?>
<svg width="40px" height="40px" viewBox="0 0 40 40" version="1.1" xmlns="http://www.w3.org/2000/svg" xmlns:xlink="http://www.w3.org/1999/xlink">
    <title>服务器</title>
    <defs>
        <rect id="path-1" x="0" y="0" width="40" height="40"></rect>
    </defs>
    <g id="山东移动" stroke="none" stroke-width="1" fill="none" fill-rule="evenodd">
        <g id="图标合集" transform="translate(-440.000000, -520.000000)">
            <g id="编组-13" transform="translate(440.000000, 520.000000)">
                <mask id="mask-2" fill="white">
                    <use xlink:href="#path-1"></use>
                </mask>
                <g id="蒙版" opacity="0.200000003"></g>
                <g id="编组-2" mask="url(#mask-2)">
                    <g transform="translate(4.000000, 3.000000)">
                        <rect id="形状结合备份-4" stroke="#455A74" stroke-width="2" fill="#FFFFFF" x="1" y="1" width="30" height="8"></rect>
                        <rect id="矩形备份-10" stroke="none" fill="#455A74" x="4" y="4" width="2" height="2"></rect>
                        <rect id="矩形备份-13" stroke="none" fill="#455A74" x="8" y="4" width="2" height="2"></rect>
                        <rect id="矩形备份-14" stroke="none" fill="#455A74" x="12" y="4" width="2" height="2"></rect>
                        <rect id="形状结合备份-13" stroke="#455A74" stroke-width="2" fill="#FFFFFF" x="1" y="13" width="30" height="8"></rect>
                        <rect id="矩形备份-17" stroke="none" fill="#455A74" x="4" y="16" width="2" height="2"></rect>
                        <rect id="矩形备份-16" stroke="none" fill="#455A74" x="8" y="16" width="2" height="2"></rect>
                        <rect id="矩形备份-15" stroke="none" fill="#455A74" x="12" y="16" width="2" height="2"></rect>
                        <rect id="形状结合备份-14" stroke="#455A74" stroke-width="2" fill="#FFFFFF" x="1" y="25" width="30" height="8"></rect>
                        <rect id="矩形备份-20" stroke="none" fill="#455A74" x="4" y="28" width="2" height="2"></rect>
                        <rect id="矩形备份-19" stroke="none" fill="#455A74" x="8" y="28" width="2" height="2"></rect>
                        <rect id="矩形备份-18" stroke="none" fill="#455A74" x="12" y="28" width="2" height="2"></rect>
                    </g>
                </g>
            </g>
        </g>
    </g>
</svg>