<?xml version="1.0" encoding="UTF-8"?>
<svg width="60px" height="58px" viewBox="0 0 60 58" version="1.1" xmlns="http://www.w3.org/2000/svg" xmlns:xlink="http://www.w3.org/1999/xlink">
    <title>SGW</title>
    <defs>
        <linearGradient x1="26.051126%" y1="36.1067771%" x2="50%" y2="76.5706783%" id="linearGradient-1">
            <stop stop-color="#C1D4EB" offset="0%"></stop>
            <stop stop-color="#E5EBFC" stop-opacity="0" offset="100%"></stop>
        </linearGradient>
        <linearGradient x1="0%" y1="28.5417454%" x2="100%" y2="67.7794749%" id="linearGradient-2">
            <stop stop-color="#D2D5EC" offset="0%"></stop>
            <stop stop-color="#E2F0F7" offset="100%"></stop>
        </linearGradient>
        <linearGradient x1="0.0486815416%" y1="51.1597629%" x2="100.885193%" y2="51.1597629%" id="linearGradient-3">
            <stop stop-color="#0979DB" offset="0%"></stop>
            <stop stop-color="#0D7EE0" offset="100%"></stop>
        </linearGradient>
        <linearGradient x1="48.450535%" y1="48.8530725%" x2="76.5437024%" y2="48.8530725%" id="linearGradient-4">
            <stop stop-color="#107FD6" offset="0%"></stop>
            <stop stop-color="#004CA7" offset="100%"></stop>
        </linearGradient>
        <linearGradient x1="69.3502248%" y1="74.8117561%" x2="30.6906416%" y2="25.2775011%" id="linearGradient-5">
            <stop stop-color="#53BAFF" offset="0%"></stop>
            <stop stop-color="#57BFFF" offset="10%"></stop>
            <stop stop-color="#1E82FF" offset="100%"></stop>
        </linearGradient>
    </defs>
    <g id="页面-1" stroke="none" stroke-width="1" fill="none" fill-rule="evenodd">
        <g id="SGW">
            <g id="编组-135备份" transform="translate(0.000000, 11.000000)">
                <g id="编组-13" transform="translate(0.000000, 0.870968)">
                    <polygon id="矩形" fill="#A8B4DA" opacity="0.298339844" points="30 13.5860913 60 29.5349811 30 45.483871 0 29.5349811"></polygon>
                    <polygon id="矩形" fill="#FFFFFF" points="30 0 60 15.9488898 30 31.8977796 0 15.9488898"></polygon>
                    <polygon id="矩形" fill="url(#linearGradient-1)" points="30 31.8977796 60 15.9488898 60 20.7101685 30 37.8183253"></polygon>
                    <polygon id="矩形" fill="url(#linearGradient-2)" points="1.80064297e-14 15.9488898 30 31.8977796 30 37.8183253 2.66453526e-14 20.7786569"></polygon>
                </g>
            </g>
            <g id="SGW备份-2" transform="translate(11.000000, 0.000000)" fill-rule="nonzero">
                <path d="M33.2726166,12.9585763 C29.1558578,10.2922694 24.3574852,8.91682942 19.4762677,9.00389162 C8.71764706,9.00389162 0,15.0484503 0,22.5076929 C0,29.9669354 8.71764706,35.9954181 19.4920892,35.9954181 C24.3742805,36.0901486 29.1747933,34.7140951 33.2884381,32.0407335 C36.6448239,30.0292139 38.788525,26.4451764 39,22.4916169 C39,18.8102235 36.8008114,15.4021213 33.2726166,12.9585763 Z" id="路径" fill="url(#linearGradient-3)"></path>
                <path d="M19.4841721,9.29352096 C24.3080373,9.19147262 29.052459,10.5514708 33.112013,13.1999695 C36.7524351,15.707813 38.6992695,18.9873007 38.6992695,22.4918513 C38.6992695,25.9964018 36.7207792,29.2919654 33.112013,31.783733 C29.0486917,34.4254374 24.3079399,35.789976 19.4841721,35.7062575 C8.89529221,35.7062575 0.284902597,29.774243 0.284902597,22.5079272 C0.284902597,15.2416114 8.91112013,9.3256728 19.5,9.3256728 L19.4841721,9.29352096 Z M19.4841721,9.03630624 C8.72118506,9.03630624 0,15.0808522 0,22.5079272 C0,29.9350022 8.73701299,35.995624 19.5,35.995624 C24.3789316,36.088131 29.1757072,34.7121315 33.2861201,32.0409477 C36.6393648,30.0325422 38.7832674,26.4556613 39,22.5079272 C39,18.7783137 36.8157468,15.4184465 33.2861201,12.9749066 C29.1668666,10.2954937 24.3591329,8.91391685 19.4683442,9.0041544 L19.4841721,9.03630624 Z" id="形状" fill="#309EFF"></path>
                <path d="M38.9363618,12 L38.9363618,21.635432 C38.9210727,21.7477947 38.9210727,21.8616947 38.9363618,21.9740574 C38.7584562,25.7842316 36.6728122,29.2520682 33.3820576,31.2092958 C29.387198,33.7670405 24.7179899,35.0850571 19.9681809,34.9957435 C9.49390809,34.9957435 1,29.1929354 1,22.0664098 L1,22.1895463 L1,14.3395937 C2.84112033,21.7123924 10.2829597,25.7605052 19.4266749,25.8836417 C25.6153147,25.9759941 29.4058565,24.8215893 32.8405516,22.4819956 C34.8313096,21.3192246 36.5130795,19.6988802 37.7450486,17.7566319 C38.7532378,16.01482 39.1709499,13.9963625 38.9363618,12 L38.9363618,12 Z" id="路径-2" fill="url(#linearGradient-4)"></path>
                <path d="M33.4560687,3.99560098 C29.4501401,1.31245234 24.7708601,-0.0766638563 20.0077646,0.00326516519 C9.52554148,0.00326516519 1,6.08066706 1,13.5157864 C1,20.9509057 9.51001226,26.995981 19.9922354,26.995981 C24.7520316,27.0845703 29.4307988,25.706853 33.4405394,23.0359718 C36.7110692,21.0345475 38.7990138,17.4590891 39,13.5157864 C38.7968599,9.57744082 36.716598,6.00516014 33.4560687,3.99560098 L33.4560687,3.99560098 Z" id="路径-3" fill="url(#linearGradient-5)"></path>
                <path d="M19.5,0.340185172 C24.3234969,0.241174252 29.0670959,1.59937831 33.1278409,4.24215678 C36.768263,6.7471262 38.7150974,10.0228554 38.7150974,13.5233896 C38.7150974,17.0239238 36.7366071,20.3317681 33.1278409,22.82068 C29.0627781,25.4537068 24.3221521,26.8110596 19.5,26.7226516 C8.91112013,26.7226516 0.300730519,20.7974355 0.300730519,13.5394471 C0.300730519,6.28145881 8.91112013,0.340185172 19.5,0.340185172 L19.5,0.340185172 Z M19.5,0.0511502387 C8.73701299,0.0511502387 0,6.08876885 0,13.5233896 C0,20.9580104 8.73701299,26.995629 19.5,26.995629 C24.3789316,27.08803 29.1757072,25.7136075 33.2861201,23.045485 C36.8157468,20.6047455 39,17.2487288 39,13.5233896 C38.7884392,9.57436938 36.6438681,5.99444689 33.2861201,3.98523683 C29.1764582,1.31197664 24.381304,-0.0731517746 19.5,0.00297774978 L19.5,0.0511502387 Z" id="形状-2" fill="#309EFF"></path>
                <polygon id="路径" fill="#FFFFFF" points="15 10.4989648 24.1324503 10.4989648 24.2251656 13 29 8.89233954 23.9470199 5 23.9470199 7.30227743 15.0927152 7.30227743"></polygon>
                <polygon id="路径" fill="#FFFFFF" points="13.838565 11 10 11 10.2331839 7 14 7"></polygon>
                <polygon id="路径" fill="#FFFFFF" points="23.8972746 14.5955056 14.9748428 14.5955056 15.0628931 12 10 16.3651685 14.769392 21 14.8721174 18.1853933 24 18.1853933"></polygon>
                <polygon id="路径" fill="#FFFFFF" points="26.1694915 18 30 18 29.7457627 14 26 14"></polygon>
            </g>
        </g>
    </g>
</svg>