<?xml version="1.0" encoding="UTF-8"?>
<svg width="60px" height="62px" viewBox="0 0 60 62" version="1.1" xmlns="http://www.w3.org/2000/svg" xmlns:xlink="http://www.w3.org/1999/xlink">
    <title>SMF</title>
    <defs>
        <linearGradient x1="26.051126%" y1="36.1067771%" x2="50%" y2="76.5706783%" id="linearGradient-1">
            <stop stop-color="#C1D4EB" offset="0%"></stop>
            <stop stop-color="#E5EBFC" stop-opacity="0" offset="100%"></stop>
        </linearGradient>
        <linearGradient x1="0%" y1="28.5417454%" x2="100%" y2="67.7794749%" id="linearGradient-2">
            <stop stop-color="#D2D5EC" offset="0%"></stop>
            <stop stop-color="#E2F0F7" offset="100%"></stop>
        </linearGradient>
        <linearGradient x1="36.0348308%" y1="108.869413%" x2="60.9260716%" y2="3.29208552%" id="linearGradient-3">
            <stop stop-color="#57BFFF" offset="0%"></stop>
            <stop stop-color="#1E82FF" offset="100%"></stop>
        </linearGradient>
        <linearGradient x1="34.8508504%" y1="44.0471662%" x2="61.9047717%" y2="54.7274138%" id="linearGradient-4">
            <stop stop-color="#107FD6" offset="0%"></stop>
            <stop stop-color="#004CA7" offset="100%"></stop>
        </linearGradient>
        <linearGradient x1="56.8896032%" y1="52.9811202%" x2="36.8496032%" y2="44.4633473%" id="linearGradient-5">
            <stop stop-color="#53BAFF" offset="0%"></stop>
            <stop stop-color="#57BFFF" offset="9.842166%"></stop>
            <stop stop-color="#1E82FF" offset="100%"></stop>
        </linearGradient>
    </defs>
    <g id="页面-1" stroke="none" stroke-width="1" fill="none" fill-rule="evenodd">
        <g id="SMF">
            <g id="编组-4备份-6" transform="translate(0.000000, 15.000000)">
                <g id="编组-13" transform="translate(0.000000, 0.870968)">
                    <polygon id="矩形" fill="#A8B4DA" opacity="0.298339844" points="30 13.5860913 60 29.5349811 30 45.483871 0 29.5349811"></polygon>
                    <polygon id="矩形" fill="#FFFFFF" points="30 0 60 15.9488898 30 31.8977796 0 15.9488898"></polygon>
                    <polygon id="矩形" fill="url(#linearGradient-1)" points="30 31.8977796 60 15.9488898 60 20.7101685 30 37.8183253"></polygon>
                    <polygon id="矩形" fill="url(#linearGradient-2)" points="1.80064297e-14 15.9488898 30 31.8977796 30 37.8183253 2.66453526e-14 20.7786569"></polygon>
                </g>
            </g>
            <g id="编组" transform="translate(6.000000, 0.000000)">
                <polygon id="Fill-6_15_" fill="url(#linearGradient-3)" opacity="0.9" points="48.3029298 28.376087 24.8092869 41.1021739 24.8092869 27.4847826 48.3029298 14.1913043"></polygon>
                <polygon id="Fill-7_15_" fill="url(#linearGradient-4)" points="0.56384743 27.8086957 24.2454395 41.6152174 24.2454395 27.9978261 0.56384743 14.1913043"></polygon>
                <path d="M29.1321172,31.023913 C28.5682698,31.4021739 27.628524,31.023913 27.628524,30.4565217 L27.628524,30.2673913 C27.628524,30.0782609 27.8164732,29.7 28.0044223,29.7 L29.5080155,28.7543478 C30.0718629,28.376087 31.0116086,28.7543478 31.0116086,29.3217391 L31.0116086,29.5108696 C31.0116086,29.7 30.8236595,30.0782609 30.6357103,30.0782609" id="Fill-10_58_" fill="#FFFFFF" fill-rule="nonzero"></path>
                <path d="M29.1321172,35.5630435 C28.5682698,35.9413043 27.628524,35.5630435 27.628524,34.9956522 L27.628524,34.8065217 C27.628524,34.6173913 27.8164732,34.2391304 28.0044223,34.2391304 L29.5080155,33.2934783 C30.0718629,32.9152174 31.0116086,33.2934783 31.0116086,33.8608696 L31.0116086,34.05 C31.0116086,34.2391304 30.8236595,34.6173913 30.6357103,34.6173913" id="Fill-10_57_" fill="#FFFFFF" fill-rule="nonzero"></path>
                <path d="M34.7705915,28.1869565 C34.2067441,28.5652174 33.2669983,28.1869565 33.2669983,27.6195652 L33.2669983,27.4304348 C33.2669983,27.2413043 33.4549475,26.8630435 33.6428966,26.8630435 L35.1464898,25.9173913 C35.7103372,25.5391304 36.6500829,25.9173913 36.6500829,26.4847826 L36.6500829,26.673913 C36.6500829,26.8630435 36.4621338,27.2413043 36.2741846,27.2413043" id="Fill-10_56_" fill="#FFFFFF" fill-rule="nonzero"></path>
                <path d="M34.7705915,32.726087 C34.2067441,33.1043478 33.2669983,32.726087 33.2669983,32.1586957 L33.2669983,31.9695652 C33.2669983,31.7804348 33.4549475,31.4021739 33.6428966,31.4021739 L35.1464898,30.4565217 C35.7103372,30.0782609 36.6500829,30.4565217 36.6500829,31.023913 L36.6500829,31.2130435 C36.6500829,31.4021739 36.4621338,31.7804348 36.2741846,31.7804348" id="Fill-10_55_" fill="#FFFFFF" fill-rule="nonzero"></path>
                <path d="M39.8452184,25.35 C39.2813709,25.7282609 38.3416252,25.35 38.3416252,24.7826087 L38.3416252,24.5934783 C38.3416252,24.4043478 38.5295744,24.026087 38.7175235,24.026087 L40.2211166,23.0804348 C40.7849641,22.7021739 41.7247098,23.0804348 41.7247098,23.6478261 L41.7247098,23.8369565 C41.7247098,24.026087 41.5367606,24.4043478 41.3488115,24.4043478" id="Fill-10_54_" fill="#FFFFFF" fill-rule="nonzero"></path>
                <path d="M39.8452184,29.8891304 C39.2813709,30.2673913 38.3416252,29.8891304 38.3416252,29.3217391 L38.3416252,29.1326087 C38.3416252,28.9434783 38.5295744,28.5652174 38.7175235,28.5652174 L40.2211166,27.6195652 C40.7849641,27.2413043 41.7247098,27.6195652 41.7247098,28.1869565 L41.7247098,28.376087 C41.7247098,28.5652174 41.5367606,28.9434783 41.3488115,28.9434783" id="Fill-10_53_" fill="#FFFFFF" fill-rule="nonzero"></path>
                <path d="M44.9198452,22.7021739 C44.3559978,23.0804348 43.4162521,22.7021739 43.4162521,22.1347826 L43.4162521,21.9456522 C43.4162521,21.7565217 43.6042012,21.3782609 43.7921504,21.3782609 L45.2957435,20.4326087 C45.8595909,20.0543478 46.7993367,20.4326087 46.7993367,21 L46.7993367,21.1891304 C46.7993367,21.3782609 46.6113875,21.7565217 46.4234384,21.7565217" id="Fill-10_52_" fill="#FFFFFF" fill-rule="nonzero"></path>
                <path d="M44.9198452,27.0521739 C44.3559978,27.4304348 43.4162521,27.0521739 43.4162521,26.4847826 L43.4162521,26.2956522 C43.4162521,26.1065217 43.6042012,25.7282609 43.7921504,25.7282609 L45.2957435,24.7826087 C45.8595909,24.4043478 46.7993367,24.7826087 46.7993367,25.35 L46.7993367,25.5391304 C46.7993367,25.7282609 46.6113875,26.1065217 46.4234384,26.1065217" id="Fill-10_51_" fill="#FFFFFF" fill-rule="nonzero"></path>
                <polygon id="Fill-14_14_" fill="url(#linearGradient-5)" points="1.12769486 13.623913 24.8092869 27.4304348 48.4908789 13.623913 24.8092869 0.00652173913"></polygon>
                <polygon id="路径-7_50_" fill="#FFFFFF" fill-rule="nonzero" points="48.4436553 13.214571 48.9140008 14.0332551 24.8565105 28.0289072 24.386165 27.2102232"></polygon>
                <polygon id="路径-7_49_" fill="#FFFFFF" fill-rule="nonzero" points="1.36705981 13.2170391 24.8607027 27.2126912 24.3819728 28.0264392 0.888329908 14.030787"></polygon>
                <polygon id="路径-7_48_" fill="#FFFFFF" fill-rule="nonzero" points="25.1514649 27.4304348 25.1514649 41.6152174 24.1514649 41.6152174 24.1514649 27.4304348"></polygon>
                <polygon id="路径" fill="#FFFFFF" fill-rule="nonzero" points="25.3731343 6.05869565 26.5008292 6.81521739 23.1177446 9.08478261 23.4936429 12.3 18.9828635 12.1108696 15.4118297 14.7586957 14.472084 14.0021739 13.3443892 17.4065217 18.0431177 17.0282609 17.103372 16.0826087 19.73466 14.1913043 23.8695412 14.5695652 24.4333886 18.3521739 20.6744057 21.1891304 22.7418463 22.8913043 27.628524 19.1086957 26.8767275 14.7586957 33.4549475 15.1369565 37.9657269 11.5434783 35.7103372 10.2195652 32.3272526 12.8673913 26.5008292 12.4891304 25.9369818 9.46304348 28.3803206 7.76086957 29.5080155 8.5173913 29.8839138 5.49130435"></polygon>
            </g>
        </g>
    </g>
</svg>