<?xml version="1.0" encoding="UTF-8"?>
<svg width="60px" height="65px" viewBox="0 0 60 65" version="1.1" xmlns="http://www.w3.org/2000/svg" xmlns:xlink="http://www.w3.org/1999/xlink">
    <title>软水准仪</title>
    <defs>
        <linearGradient x1="26.051126%" y1="36.1067771%" x2="50%" y2="76.5706783%" id="linearGradient-1">
            <stop stop-color="#C1D4EB" offset="0%"></stop>
            <stop stop-color="#E5EBFC" stop-opacity="0" offset="100%"></stop>
        </linearGradient>
        <linearGradient x1="0%" y1="28.5417454%" x2="100%" y2="67.7794749%" id="linearGradient-2">
            <stop stop-color="#D2D5EC" offset="0%"></stop>
            <stop stop-color="#E2F0F7" offset="100%"></stop>
        </linearGradient>
        <linearGradient x1="25.1509291%" y1="82.5866979%" x2="82.1602015%" y2="-24.6006387%" id="linearGradient-3">
            <stop stop-color="#52B8F1" offset="0%"></stop>
            <stop stop-color="#076488" offset="100%"></stop>
        </linearGradient>
        <linearGradient x1="25.1509291%" y1="82.5866979%" x2="75.1401297%" y2="50%" id="linearGradient-4">
            <stop stop-color="#52B8F1" offset="0%"></stop>
            <stop stop-color="#076488" offset="100%"></stop>
        </linearGradient>
        <linearGradient x1="53.5706711%" y1="39.3967943%" x2="47.8974832%" y2="88.3106934%" id="linearGradient-5">
            <stop stop-color="#4CBCED" offset="0%"></stop>
            <stop stop-color="#2FA9DC" offset="100%"></stop>
        </linearGradient>
        <linearGradient x1="-0.0374274226%" y1="21.7806591%" x2="133.49437%" y2="61.0460987%" id="linearGradient-6">
            <stop stop-color="#B0E9FF" offset="0%"></stop>
            <stop stop-color="#5DBEE1" offset="100%"></stop>
        </linearGradient>
    </defs>
    <g id="页面-1" stroke="none" stroke-width="1" fill="none" fill-rule="evenodd">
        <g id="软水准仪">
            <g id="编组-4备份-6" transform="translate(0.000000, 18.000000)">
                <g id="编组-13" transform="translate(0.000000, 0.870968)">
                    <polygon id="矩形" fill="#A8B4DA" opacity="0.298339844" points="30 13.5860913 60 29.5349811 30 45.483871 0 29.5349811"></polygon>
                    <polygon id="矩形" fill="#FFFFFF" points="30 0 60 15.9488898 30 31.8977796 0 15.9488898"></polygon>
                    <polygon id="矩形" fill="url(#linearGradient-1)" points="30 31.8977796 60 15.9488898 60 20.7101685 30 37.8183253"></polygon>
                    <polygon id="矩形" fill="url(#linearGradient-2)" points="1.80064297e-14 15.9488898 30 31.8977796 30 37.8183253 2.66453526e-14 20.7786569"></polygon>
                </g>
            </g>
            <g id="软水准仪备份-6" transform="translate(2.000000, 0.000000)">
                <polygon id="Fill-6_11_" fill="url(#linearGradient-3)" points="49 31.4744186 31 42 31 21.3813953 49 11"></polygon>
                <polygon id="Fill-7_11_" fill="url(#linearGradient-4)" points="13 31.4744186 31 42 31 21.3813953 13 11"></polygon>
                <polygon id="Fill-8_8_" fill="#FFFFFF" points="49 22.7142857 31 33 31 30.4285714 49 20"></polygon>
                <path d="M34.75,25.2623848 L33.875,25.8977056 C33.5,26.1518338 33,25.8977056 33,25.5165131 L33,24.1188076 C33,23.9917434 33.125,23.7376152 33.25,23.7376152 L34.125,23.1022944 C34.5,22.8481662 35,23.1022944 35,23.4834869 L35,24.8811924 C35,25.0082566 34.875,25.1353207 34.75,25.2623848" id="Fill-10_40_" fill="#FFFFFF"></path>
                <path d="M34.75,35.2623848 L33.875,35.8977056 C33.5,36.1518338 33,35.8977056 33,35.5165131 L33,34.1188076 C33,33.9917434 33.125,33.7376152 33.25,33.7376152 L34.125,33.1022944 C34.5,32.8481662 35,33.1022944 35,33.4834869 L35,34.8811924 C35,35.0082566 34.875,35.2623848 34.75,35.2623848" id="Fill-12_3_" fill="#FFFFFF"></path>
                <polygon id="Fill-14_10_" fill="#6CC8F0" points="13 10.5724138 31 21 49 10.5724138 31 0"></polygon>
                <line x1="30.5" y1="20.5" x2="30.5" y2="42" id="路径-7_38_" stroke="#FFFFFF"></line>
                <line x1="31" y1="21" x2="13" y2="11" id="路径-7_37_" stroke="#FFFFFF"></line>
                <g id="编组" transform="translate(3.000000, 12.000000)">
                    <path d="M21.8842105,29.1428571 C21.0315789,29.1428571 20.1789474,28.8571429 19.3263158,28.2857143 L4.12105263,18.4285714 C2.13157895,17.1428571 0.710526316,13.7142857 0.710526316,10.5714286 C0.710526316,8 1.70526316,6.28571429 3.26842105,6.14285714 C3.41052632,2.71428571 4.97368421,0.428571429 7.24736842,0.428571429 C7.67368421,0.428571429 8.24210526,0.571428571 8.81052632,0.714285714 C10.3736842,1.42857143 11.9368421,3.14285714 13.0736842,5.57142857 C13.5,5.14285714 14.0684211,5 14.6368421,5 C15.0631579,5 15.3473684,5.14285714 15.7736842,5.28571429 C17.7631579,6.14285714 19.4684211,9.28571429 19.3263158,12.2857143 C19.3263158,12.4285714 19.3263158,12.5714286 19.3263158,12.7142857 C19.6105263,12.8571429 19.7526316,12.8571429 20.0368421,13 C23.1631579,14.5714286 25.7210526,19.5714286 25.7210526,23.8571429 C25.5789474,27 24.0157895,29.1428571 21.8842105,29.1428571 L21.8842105,29.1428571 Z" id="路径" fill="url(#linearGradient-5)"></path>
                    <path d="M7.24736842,0.714285714 C7.67368421,0.714285714 8.1,0.857142857 8.66842105,1 C10.3736842,1.71428571 11.9368421,3.71428571 12.9315789,6.14285714 C13.3578947,5.57142857 13.9263158,5.28571429 14.6368421,5.28571429 C14.9210526,5.28571429 15.2052632,5.28571429 15.6315789,5.57142857 C17.4789474,6.42857143 19.0421053,9.42857143 19.0421053,12.2857143 C19.0421053,12.5714286 19.0421053,12.7142857 19.0421053,13 C19.3263158,13.1428571 19.6105263,13.2857143 20.0368421,13.4285714 C23.0210526,15 25.5789474,19.7142857 25.4368421,24 C25.2947368,27 23.8736842,28.8571429 22.0263158,28.8571429 C21.3157895,28.8571429 20.4631579,28.5714286 19.7526316,28.1428571 L4.26315789,18.1428571 C2.41578947,16.8571429 0.994736842,13.5714286 0.994736842,10.5714286 C0.994736842,8.14285714 1.98947368,6.42857143 3.41052632,6.42857143 C3.41052632,6.42857143 3.55263158,6.42857143 3.55263158,6.42857143 C3.69473684,3 5.25789474,0.714285714 7.24736842,0.714285714 M7.24736842,0 L7.24736842,0 C4.83157895,0 3.12631579,2.28571429 2.84210526,5.71428571 C1.27894737,6 0.284210526,7.85714286 0.284210526,10.4285714 C0.284210526,13.7142857 1.84736842,17.2857143 3.83684211,18.5714286 L19.1842105,28.5714286 C20.0368421,29.1428571 21.0315789,29.4285714 21.8842105,29.4285714 C24.3,29.4285714 25.8631579,27.2857143 26.0052632,23.8571429 C26.1473684,19.2857143 23.5894737,14.2857143 20.1789474,12.5714286 C20.0368421,12.4285714 19.8947368,12.4285714 19.6105263,12.2857143 C19.6105263,12.1428571 19.6105263,12.1428571 19.6105263,12 C19.6105263,9 18.0473684,5.57142857 15.7736842,4.71428571 C15.3473684,4.57142857 14.9210526,4.42857143 14.4947368,4.42857143 C13.9263158,4.42857143 13.5,4.57142857 13.0736842,4.85714286 C11.9368421,2.57142857 10.5157895,1 8.95263158,0.285714286 C8.38421053,0.142857143 7.81578947,0 7.24736842,0 L7.24736842,0 Z" id="形状" fill="#FFFFFF" fill-rule="nonzero"></path>
                </g>
                <path d="M18.8811831,25.7179673 C18.5993744,25.5768969 18.1766614,25.4358265 17.8948527,25.2947561 C17.8948527,25.1536856 17.8948527,24.8715448 17.8948527,24.589404 C17.8948527,21.9090662 16.4858091,19.2287284 14.5131482,18.382306 C13.3859134,17.9590948 12.5404873,18.2412356 11.8359655,19.087658 C10.8496351,16.8305315 9.29968721,14.9966162 7.60883499,14.2912641 C4.93165231,13.1627008 2.67718268,15.4198274 2.53627833,19.2287284 C1.12723481,19.087658 0,20.6394325 0,23.0376295 C0,25.8590377 1.40904352,28.9625867 3.24080009,30.09115 L18.3175657,39.2607266 C21.2765571,41.0946419 23.9537398,39.401797 23.9537398,35.4518255 C24.3764528,31.6429245 21.8401745,27.2697418 18.8811831,25.7179673 Z" id="路径" fill="url(#linearGradient-6)"></path>
                <polygon id="Fill-15_9_" fill="#FFFFFF" points="21 6.48148148 39.5547945 17 42 15.5185185 23.4452055 5"></polygon>
                <line x1="31" y1="21" x2="49" y2="11" id="路径-7_36_" stroke="#FFFFFF"></line>
            </g>
        </g>
    </g>
</svg>