<?xml version="1.0" encoding="UTF-8"?>
<svg width="60px" height="57px" viewBox="0 0 60 57" version="1.1" xmlns="http://www.w3.org/2000/svg" xmlns:xlink="http://www.w3.org/1999/xlink">
    <title>分光器/合波器</title>
    <defs>
        <linearGradient x1="26.051126%" y1="36.1067771%" x2="50%" y2="76.5706783%" id="linearGradient-1">
            <stop stop-color="#C1D4EB" offset="0%"></stop>
            <stop stop-color="#E5EBFC" stop-opacity="0" offset="100%"></stop>
        </linearGradient>
        <linearGradient x1="0%" y1="28.5417454%" x2="100%" y2="67.7794749%" id="linearGradient-2">
            <stop stop-color="#D2D5EC" offset="0%"></stop>
            <stop stop-color="#E2F0F7" offset="100%"></stop>
        </linearGradient>
        <linearGradient x1="36.3196245%" y1="108.869413%" x2="60.7032547%" y2="3.29208552%" id="linearGradient-3">
            <stop stop-color="#57BFFF" offset="0%"></stop>
            <stop stop-color="#1E82FF" offset="100%"></stop>
        </linearGradient>
        <linearGradient x1="35.4635721%" y1="44.0471662%" x2="61.4232719%" y2="54.7274138%" id="linearGradient-4">
            <stop stop-color="#107FD6" offset="0%"></stop>
            <stop stop-color="#004CA7" offset="100%"></stop>
        </linearGradient>
        <linearGradient x1="56.8896032%" y1="52.9811202%" x2="36.8496032%" y2="44.4633473%" id="linearGradient-5">
            <stop stop-color="#53BAFF" offset="0%"></stop>
            <stop stop-color="#57BFFF" offset="9.842166%"></stop>
            <stop stop-color="#1E82FF" offset="100%"></stop>
        </linearGradient>
    </defs>
    <g id="页面-1" stroke="none" stroke-width="1" fill="none" fill-rule="evenodd">
        <g id="分光器/合波器">
            <g id="编组-4备份-6" transform="translate(0.000000, 10.000000)">
                <g id="编组-13" transform="translate(0.000000, 0.870968)">
                    <polygon id="矩形" fill="#A8B4DA" opacity="0.298339844" points="30 13.5860913 60 29.5349811 30 45.483871 0 29.5349811"></polygon>
                    <polygon id="矩形" fill="#FFFFFF" points="30 0 60 15.9488898 30 31.8977796 0 15.9488898"></polygon>
                    <polygon id="矩形" fill="url(#linearGradient-1)" points="30 31.8977796 60 15.9488898 60 20.7101685 30 37.8183253"></polygon>
                    <polygon id="矩形" fill="url(#linearGradient-2)" points="1.80064297e-14 15.9488898 30 31.8977796 30 37.8183253 2.66453526e-14 20.7786569"></polygon>
                </g>
            </g>
            <g id="编组" transform="translate(9.000000, 0.000000)">
                <polygon id="Fill-6_15_" fill="url(#linearGradient-3)" opacity="0.9" points="42.5532203 24.5946303 21.400104 36.5194765 21.771415 23.241748 42.5532203 12.0386646"></polygon>
                <polygon id="Fill-7_15_" fill="url(#linearGradient-4)" points="0.989609774 24.486535 21.2766101 36.5194765 21.2766101 24.5695209 0.989609774 12.5365794"></polygon>
                <path d="M25.5649192,27.2250665 C25.0701143,27.5570098 24.2454395,27.2250665 24.2454395,26.7271517 L24.2454395,26.5611801 C24.2454395,26.3952085 24.4103744,26.0632653 24.5753094,26.0632653 L25.8947891,25.2334073 C26.389594,24.9014641 27.2142688,25.2334073 27.2142688,25.7313221 L27.2142688,25.8972937 C27.2142688,26.0632653 27.0493338,26.3952085 26.8843989,26.3952085" id="Fill-10_58_" fill="#FFFFFF" fill-rule="nonzero"></path>
                <path d="M25.5649192,31.2083851 C25.0701143,31.5403283 24.2454395,31.2083851 24.2454395,30.7104703 L24.2454395,30.5444987 C24.2454395,30.3785271 24.4103744,30.0465839 24.5753094,30.0465839 L25.8947891,29.2167258 C26.389594,28.8847826 27.2142688,29.2167258 27.2142688,29.7146406 L27.2142688,29.8806122 C27.2142688,30.0465839 27.0493338,30.3785271 26.8843989,30.3785271" id="Fill-10_57_" fill="#FFFFFF" fill-rule="nonzero"></path>
                <path d="M30.512968,24.7354925 C30.0181632,25.0674357 29.1934883,24.7354925 29.1934883,24.2375776 L29.1934883,24.071606 C29.1934883,23.9056344 29.3584233,23.5736912 29.5233583,23.5736912 L30.842838,22.7438332 C31.3376429,22.41189 32.1623177,22.7438332 32.1623177,23.241748 L32.1623177,23.4077196 C32.1623177,23.5736912 31.9973827,23.9056344 31.8324477,23.9056344" id="Fill-10_56_" fill="#FFFFFF" fill-rule="nonzero"></path>
                <path d="M30.512968,28.718811 C30.0181632,29.0507542 29.1934883,28.718811 29.1934883,28.2208962 L29.1934883,28.0549246 C29.1934883,27.888953 29.3584233,27.5570098 29.5233583,27.5570098 L30.842838,26.7271517 C31.3376429,26.3952085 32.1623177,26.7271517 32.1623177,27.2250665 L32.1623177,27.3910382 C32.1623177,27.5570098 31.9973827,27.888953 31.8324477,27.888953" id="Fill-10_55_" fill="#FFFFFF" fill-rule="nonzero"></path>
                <path d="M34.966212,22.2459184 C34.4714071,22.5778616 33.6467323,22.2459184 33.6467323,21.7480035 L33.6467323,21.5820319 C33.6467323,21.4160603 33.8116673,21.0841171 33.9766022,21.0841171 L35.2960819,20.2542591 C35.7908868,19.9223159 36.6155616,20.2542591 36.6155616,20.7521739 L36.6155616,20.9181455 C36.6155616,21.0841171 36.4506267,21.4160603 36.2856917,21.4160603" id="Fill-10_54_" fill="#FFFFFF" fill-rule="nonzero"></path>
                <path d="M34.966212,26.2292369 C34.4714071,26.5611801 33.6467323,26.2292369 33.6467323,25.7313221 L33.6467323,25.5653505 C33.6467323,25.3993789 33.8116673,25.0674357 33.9766022,25.0674357 L35.2960819,24.2375776 C35.7908868,23.9056344 36.6155616,24.2375776 36.6155616,24.7354925 L36.6155616,24.9014641 C36.6155616,25.0674357 36.4506267,25.3993789 36.2856917,25.3993789" id="Fill-10_53_" fill="#FFFFFF" fill-rule="nonzero"></path>
                <path d="M39.419456,19.9223159 C38.9246511,20.2542591 38.0999763,19.9223159 38.0999763,19.4244011 L38.0999763,19.2584295 C38.0999763,19.0924579 38.2649113,18.7605146 38.4298462,18.7605146 L39.7493259,17.9306566 C40.2441308,17.5987134 41.0688056,17.9306566 41.0688056,18.4285714 L41.0688056,18.594543 C41.0688056,18.7605146 40.9038707,19.0924579 40.7389357,19.0924579" id="Fill-10_52_" fill="#FFFFFF" fill-rule="nonzero"></path>
                <path d="M39.419456,23.7396628 C38.9246511,24.071606 38.0999763,23.7396628 38.0999763,23.241748 L38.0999763,23.0757764 C38.0999763,22.9098048 38.2649113,22.5778616 38.4298462,22.5778616 L39.7493259,21.7480035 C40.2441308,21.4160603 41.0688056,21.7480035 41.0688056,22.2459184 L41.0688056,22.41189 C41.0688056,22.5778616 40.9038707,22.9098048 40.7389357,22.9098048" id="Fill-10_51_" fill="#FFFFFF" fill-rule="nonzero"></path>
                <polygon id="Fill-14_14_" fill="url(#linearGradient-5)" points="0.989609774 11.9556788 21.771415 24.071606 42.5532203 11.9556788 21.771415 0.00572315883"></polygon>
                <polygon id="路径-7_50_" fill="#FFFFFF" fill-rule="nonzero" points="42.5117792 11.5964603 42.9245313 12.3148973 21.8128562 24.5967961 21.400104 23.8783591"></polygon>
                <polygon id="路径-7_49_" fill="#FFFFFF" fill-rule="nonzero" points="1.19966473 11.5986261 21.816535 23.880525 21.3964251 24.5946303 0.779554817 12.3127315"></polygon>
                <polygon id="路径-7_48_" fill="#FFFFFF" fill-rule="nonzero" points="22.1941427 24.071606 22.1941427 36.5194765 21.1941427 36.5194765 21.1941427 24.071606"></polygon>
                <path d="M26.059295,13.2178295 L29.5700929,14.0861722 L28.8672886,15.1069257 L25.3562037,14.2390434 L26.059295,13.2178295 Z M28.0816327,7.89795918 C28.0816327,7.89795918 27.910943,10.734514 24.6726181,14.7372081 L24.5236517,14.9183673 L24.5115027,14.9058552 C24.238498,14.6467687 21.8439084,13.6090258 20.2093149,13.2488944 C19.4466415,13.0810519 18.6002434,13.5515997 18.6002434,13.5515997 L19.3193657,12.1381896 L11.4081633,12.1381896 L12.1272856,10.7247795 L20.038488,10.7247795 L20.7576103,9.31136932 L22.1264722,9.57815049 L28.0816327,7.89795918 Z M30.5746753,10.9204709 L30.2555972,11.798022 L27.0644712,11.798022 L27.3835492,10.9204709 L30.5746753,10.9204709 Z M31.9350575,8.06032424 L31.6760082,8.99371504 L27.9576956,9.58930342 L28.2167449,8.65591262 L31.9350575,8.06032424 Z" id="Combined-Shape" fill="#FFFFFF" fill-rule="nonzero" transform="translate(21.671610, 11.502442) rotate(30.000000) translate(-21.671610, -11.502442) "></path>
            </g>
        </g>
    </g>
</svg>