<?xml version="1.0" encoding="UTF-8"?>
<svg width="40px" height="40px" viewBox="0 0 40 40" version="1.1" xmlns="http://www.w3.org/2000/svg" xmlns:xlink="http://www.w3.org/1999/xlink">
    <title>SPN</title>
    <defs>
        <rect id="path-1" x="0" y="0" width="40" height="40"></rect>
    </defs>
    <g id="山东移动" stroke="none" stroke-width="1" fill="none" fill-rule="evenodd">
        <g id="图标合集" transform="translate(-440.000000, -440.000000)">
            <g id="编组-13" transform="translate(440.000000, 440.000000)">
                <mask id="mask-2" fill="white">
                    <use xlink:href="#path-1"></use>
                </mask>
                <g id="蒙版" opacity="0.200000003"></g>
                <path d="M34.1801961,6 L36,15.0990195 L36,16 L4,16 L4,15.0990195 L5.8198039,6 L34.1801961,6 Z" id="形状结合备份-3" stroke="#455A74" stroke-width="2" fill="#FFFFFF" mask="url(#mask-2)"></path>
                <rect id="形状结合备份-4" stroke="#455A74" stroke-width="2" fill="#FFFFFF" mask="url(#mask-2)" x="4" y="16" width="32" height="18"></rect>
                <path d="M12.8331584,29 C14.6274921,29 15.6873033,27.9270833 15.6873033,26.6666667 C15.6873033,25.5520833 15.0682057,24.9583333 14.1238195,24.5729167 L13.1059811,24.1458333 C12.4449108,23.8854167 11.8887723,23.6875 11.8887723,23.1354167 C11.8887723,22.625 12.3294858,22.3229167 13.0115425,22.3229167 C13.6516264,22.3229167 14.1657922,22.5520833 14.6589717,22.9583333 L15.4459601,21.9895833 C14.8163694,21.3541667 13.9139559,21 13.0115425,21 C11.4375656,21 10.3252886,21.96875 10.3252886,23.2291667 C10.3252886,24.3541667 11.112277,24.9791667 11.8992655,25.3020833 L12.9380902,25.7395833 C13.6306401,26.03125 14.1028332,26.2083333 14.1028332,26.78125 C14.1028332,27.3229167 13.6726128,27.6666667 12.864638,27.6666667 C12.1825813,27.6666667 11.4480588,27.3229167 10.8919203,26.8125 L10,27.875 C10.7555089,28.59375 11.7943337,29 12.8331584,29 Z M18.6149003,28.8541667 L18.6149003,26.1145833 L19.6537251,26.1145833 C21.3221406,26.1145833 22.6547744,25.3229167 22.6547744,23.5625 C22.6547744,21.7395833 21.3326338,21.1458333 19.6117524,21.1458333 L17.0619098,21.1458333 L17.0619098,28.8541667 L18.6149003,28.8541667 Z M19.5487933,24.8958333 L18.6149003,24.8958333 L18.6149003,22.3645833 L19.4963274,22.3645833 C20.5666317,22.3645833 21.1332634,22.6666667 21.1332634,23.5625 C21.1332634,24.4479167 20.6190976,24.8958333 19.5487933,24.8958333 Z M25.5299056,28.8541667 L25.5299056,25.7604167 C25.5299056,24.875 25.4144806,23.90625 25.3410283,23.0729167 L25.3934942,23.0729167 L26.1804827,24.7291667 L28.4260231,28.8541667 L30,28.8541667 L30,21.1458333 L28.5309549,21.1458333 L28.5309549,24.21875 C28.5309549,25.09375 28.6463799,26.1145833 28.7303253,26.9166667 L28.6778594,26.9166667 L27.9013641,25.25 L25.6453305,21.1458333 L24.0608604,21.1458333 L24.0608604,28.8541667 L25.5299056,28.8541667 Z" id="SPN" fill="#455A74" mask="url(#mask-2)"></path>
                <rect id="矩形" fill="#455A74" mask="url(#mask-2)" x="9" y="10" width="3" height="2"></rect>
                <rect id="矩形备份" fill="#455A74" mask="url(#mask-2)" x="14" y="10" width="3" height="2"></rect>
                <rect id="矩形备份-2" fill="#455A74" mask="url(#mask-2)" x="19" y="10" width="3" height="2"></rect>
            </g>
        </g>
    </g>
</svg>