<?xml version="1.0" encoding="UTF-8"?>
<svg width="60px" height="68px" viewBox="0 0 60 68" version="1.1" xmlns="http://www.w3.org/2000/svg" xmlns:xlink="http://www.w3.org/1999/xlink">
    <title>交换机</title>
    <defs>
        <linearGradient x1="26.051126%" y1="36.1067771%" x2="50%" y2="76.5706783%" id="linearGradient-1">
            <stop stop-color="#C1D4EB" offset="0%"></stop>
            <stop stop-color="#E5EBFC" stop-opacity="0" offset="100%"></stop>
        </linearGradient>
        <linearGradient x1="0%" y1="28.5417454%" x2="100%" y2="67.7794749%" id="linearGradient-2">
            <stop stop-color="#D2D5EC" offset="0%"></stop>
            <stop stop-color="#E2F0F7" offset="100%"></stop>
        </linearGradient>
        <linearGradient x1="38.2627866%" y1="106.424332%" x2="59.269731%" y2="2.84866469%" id="linearGradient-3">
            <stop stop-color="#57BFFF" offset="0%"></stop>
            <stop stop-color="#1E82FF" offset="100%"></stop>
        </linearGradient>
        <linearGradient x1="33.0545092%" y1="42.2017804%" x2="63.2805203%" y2="53.3560831%" id="linearGradient-4">
            <stop stop-color="#107FD6" offset="0%"></stop>
            <stop stop-color="#004CA7" offset="100%"></stop>
        </linearGradient>
        <linearGradient x1="57.3968254%" y1="53.4844984%" x2="37.3968254%" y2="44.695964%" id="linearGradient-5">
            <stop stop-color="#53BAFF" offset="0%"></stop>
            <stop stop-color="#57BFFF" offset="10%"></stop>
            <stop stop-color="#1E82FF" offset="100%"></stop>
        </linearGradient>
        <linearGradient x1="-3274.76576%" y1="1103.48665%" x2="-3273.09854%" y2="1108.23442%" id="linearGradient-6">
            <stop stop-color="#57BFFF" offset="0%"></stop>
            <stop stop-color="#1E82FF" offset="100%"></stop>
        </linearGradient>
        <linearGradient x1="-3186.4688%" y1="1107.8635%" x2="-3184.06991%" y2="1107.34421%" id="linearGradient-7">
            <stop stop-color="#107FD6" offset="0%"></stop>
            <stop stop-color="#004CA7" offset="100%"></stop>
        </linearGradient>
    </defs>
    <g id="页面-1" stroke="none" stroke-width="1" fill="none" fill-rule="evenodd">
        <g id="交换机">
            <g id="编组-4备份-6" transform="translate(0.000000, 21.000000)">
                <g id="编组-13" transform="translate(0.000000, 0.870968)">
                    <polygon id="矩形" fill="#A8B4DA" opacity="0.298339844" points="30 13.5860913 60 29.5349811 30 45.483871 0 29.5349811"></polygon>
                    <polygon id="矩形" fill="#FFFFFF" points="30 0 60 15.9488898 30 31.8977796 0 15.9488898"></polygon>
                    <polygon id="矩形" fill="url(#linearGradient-1)" points="30 31.8977796 60 15.9488898 60 20.7101685 30 37.8183253"></polygon>
                    <polygon id="矩形" fill="url(#linearGradient-2)" points="1.80064297e-14 15.9488898 30 31.8977796 30 37.8183253 2.66453526e-14 20.7786569"></polygon>
                </g>
            </g>
            <g id="2.5D图标新2021-3-18-43备份" transform="translate(8.000000, 0.000000)">
                <polygon id="Fill-6" fill="url(#linearGradient-3)" opacity="0.9" points="44 23.074184 22 36 22 24.925816 44 12"></polygon>
                <polygon id="Fill-7" fill="url(#linearGradient-4)" points="0 23.074184 22 36 22 24.925816 0 12"></polygon>
                <path d="M26.6396786,28.0736443 L25.3199042,28.8743104 C25.0616418,29.0243514 24.7244912,29.0413519 24.4464431,28.9183538 C24.168395,28.7953556 23.9961208,28.5530046 24.0001298,28.2904914 L24.0001298,26.5056733 C23.9953728,26.2769855 24.1216495,26.060117 24.3400716,25.9218543 L25.659846,25.1378688 C25.9183694,24.9779332 26.2637288,24.9553109 26.5490103,25.0796253 C26.8342919,25.2039397 27.0093116,25.4533225 26.999617,25.7216878 L26.999617,27.4898253 C26.9964789,27.7208414 26.863125,27.9371409 26.6396786,28.0736443" id="Fill-10" fill="#FFFFFF" fill-rule="nonzero"></path>
                <path d="M31.6403677,26.0734277 L30.3217716,26.8703919 C30.0548196,27.0297092 29.7032494,27.0432121 29.4204345,26.9050099 C29.1376196,26.7668077 28.974866,26.5019719 29.0031754,26.2260379 L29.0031754,24.5303695 C28.9984227,24.2978959 29.1245867,24.0774372 29.3428138,23.9368856 L30.66141,23.1399214 C30.9168066,22.9793432 31.2571794,22.9550217 31.5406138,23.0770976 C31.8240482,23.1991734 32.001888,23.4466903 32,23.7164487 L32,25.5308139 C31.9968496,25.7656543 31.8636147,25.9855346 31.6403677,26.1242978" id="Fill-10-2" fill="#FFFFFF" fill-rule="nonzero"></path>
                <path d="M36.5714381,24.0875445 L35.2857524,24.8739262 C35.0341608,25.0244258 34.7057185,25.0414783 34.4348521,24.9181042 C34.1639858,24.7947302 33.9961613,24.5516384 34.0000667,24.2883228 L34.0000667,22.5147811 C34.0142265,22.264433 34.175709,22.0374726 34.4286286,21.9124461 L35.7143143,21.1260644 C35.9630332,20.9772909 36.2871302,20.9588044 36.5565701,21.0780223 C36.8260099,21.1972402 36.9966402,21.4346265 37,21.6949363 L37,23.5855987 C36.9969429,23.8173208 36.8670335,24.0342815 36.6493584,24.1712021" id="Fill-10-3" fill="#FFFFFF" fill-rule="nonzero"></path>
                <path d="M41.659941,21.0859435 L40.3399778,21.8634881 C40.0843164,22.0201534 39.7435907,22.0438823 39.4598624,21.924781 C39.1761342,21.8056798 38.99811,21.5641943 39,21.3010091 L39,19.5308545 C39.0062737,19.3069376 39.1396528,19.0985347 39.3600051,18.9683755 L40.6799683,18.124657 C40.9382676,17.9758487 41.2754664,17.9589879 41.5535543,18.0809755 C41.8316422,18.2029631 42.0039411,18.443323 41.9999315,18.7036795 L41.9999315,20.473834 C42.0015286,20.6954493 41.8752279,20.9044008 41.659941,21.036313" id="Fill-10-4" fill="#FFFFFF" fill-rule="nonzero"></path>
                <path d="M26.6396797,42.0865227 L25.3199093,42.8737931 C25.0645966,43.0227348 24.7319075,43.0412421 24.4553245,42.9218895 C24.1787416,42.8025369 24.0035878,42.5648823 24.0001389,42.3042784 L24.0001389,40.511982 C23.9952012,40.286952 24.1222061,40.0741764 24.3400797,39.9424672 L25.6598501,39.1384464 C25.9183727,38.9778407 26.263731,38.9551237 26.5490117,39.0799589 C26.8342924,39.2047942 27.0093116,39.4552219 26.999617,39.7247116 L26.999617,41.5002576 C26.9964789,41.7322416 26.8631255,41.9494474 26.6396797,42.0865227" id="Fill-12" fill="#FFFFFF" fill-rule="nonzero"></path>
                <polygon id="Fill-14" fill="url(#linearGradient-5)" points="1 11.9791667 22.5 25 44 11.9791667 22.5 0 1 11.4583333"></polygon>
                <polygon id="路径-7" fill="#FFFFFF" fill-rule="nonzero" points="43.5790942 12 44 12.7842068 22.4209058 26 22 25.2157932"></polygon>
                <polygon id="路径-7-2" fill="#FFFFFF" fill-rule="nonzero" points="1.43544474 12 23 25.2194662 22.5645553 26 1 12.7805338"></polygon>
                <polygon id="Fill-6-2" fill="url(#linearGradient-6)" opacity="0.9" points="44 34.074184 22 47 22 35.925816 44 23"></polygon>
                <polygon id="Fill-7-2" fill="url(#linearGradient-7)" points="0 33.074184 22 46 22 34.925816 0 22"></polygon>
                <polygon id="路径-7-3" fill="#FFFFFF" fill-rule="nonzero" points="23 24 23 46 22 46 22 24"></polygon>
                <polygon id="路径-7-4" fill="#FFFFFF" fill-rule="nonzero" points="0.435444744 22 22 35.2194662 21.5645553 36 0 22.7805338"></polygon>
                <path d="M26.6399949,40.0697123 L25.3200317,40.8737769 C25.0617324,41.0244548 24.7245336,41.0415274 24.4464457,40.9180072 C24.1683578,40.794487 23.9960589,40.5511073 24.0000685,40.2874798 L24.0000685,38.4950859 C23.9984714,38.2706864 24.1247721,38.0591097 24.340059,37.9255402 L25.6600222,37.138227 C25.9156836,36.9795934 26.2564093,36.9555664 26.5401376,37.076164 C26.8238658,37.1967615 27.00189,37.441281 27,37.7077727 L27,39.5001666 C26.9937263,39.7268967 26.8603472,39.9379179 26.6399949,40.0697123" id="Fill-10-5" fill="#FFFFFF" fill-rule="nonzero"></path>
                <path d="M31.6396797,37.0865227 L30.3199093,37.8737931 C30.0645966,38.0227348 29.7319075,38.0412421 29.4553245,37.9218895 C29.1787416,37.8025369 29.0035878,37.5648823 29.0001389,37.3042784 L29.0001389,35.511982 C28.9952012,35.286952 29.1222061,35.0741764 29.3400797,34.9424672 L30.6598501,34.1384464 C30.9183727,33.9778407 31.263731,33.9551237 31.5490117,34.0799589 C31.8342924,34.2047942 32.0093116,34.4552219 31.999617,34.7247116 L31.999617,36.517008 C31.9933594,36.7437258 31.8599997,36.9547354 31.6396797,37.0865227" id="Fill-10-6" fill="#FFFFFF" fill-rule="nonzero"></path>
                <path d="M36.6399397,33.0837212 L35.3199699,33.873406 C35.0646186,34.0228045 34.7318792,34.0413686 34.4552545,33.9216499 C34.1786297,33.8019313 34.0034494,33.5635478 34,33.3021446 L34,31.5043514 C34.0062586,31.2769383 34.1396384,31.0652815 34.3599918,30.93309 L35.6799616,30.1266034 C35.9382622,29.9754716 36.2754628,29.9583475 36.5535521,30.0822398 C36.8316414,30.2061321 37.0039411,30.4502449 36.9999315,30.7146666 L36.9999315,32.5124598 C36.9936729,32.7398729 36.8602931,32.9515297 36.6399397,33.0837212" id="Fill-10-7" fill="#FFFFFF" fill-rule="nonzero"></path>
                <path d="M41.6599284,31.0742854 L40.340154,31.8615539 C40.0816306,32.0221592 39.7362712,32.0448762 39.4509897,31.9200413 C39.1657081,31.7952063 38.9906884,31.5447792 39.000383,31.2752901 L39.000383,29.4997483 C39.0035211,29.2677649 39.136875,29.0505595 39.3603214,28.9134845 L40.6800958,28.126216 C40.9383582,27.9755466 41.2755088,27.958475 41.5535569,28.0819881 C41.831605,28.2055013 42.0038792,28.4488672 41.9998702,28.7124798 L41.9998702,30.4880216 C42.0046272,30.7176669 41.8783505,30.9354437 41.6599284,31.0742854" id="Fill-10-8" fill="#FFFFFF" fill-rule="nonzero"></path>
                <polygon id="路径-7-5" fill="#FFFFFF" fill-rule="nonzero" points="43.5790942 22 44 22.7842068 22.4209058 36 22 35.2157932"></polygon>
                <path d="M17.4490312,4 L14.7422072,5.51392111 L33,15.7111369 L33,15.7111369 L32.6992418,9.82946636 L30.2931761,11.1867749 L17.4490312,4 Z M12.3184499,13.1705336 L14.7245156,11.8306265 L27.5863521,19 L30.2754844,17.4860789 L12,7.28886311 L12.3184499,13.1705336 Z" id="Fill-1-2" fill="#FFFFFF" fill-rule="nonzero"></path>
            </g>
        </g>
    </g>
</svg>