<?xml version="1.0" encoding="UTF-8"?>
<svg width="60px" height="68px" viewBox="0 0 60 68" version="1.1" xmlns="http://www.w3.org/2000/svg" xmlns:xlink="http://www.w3.org/1999/xlink">
    <title>双向放大器</title>
    <defs>
        <linearGradient x1="26.051126%" y1="36.1067771%" x2="50%" y2="76.5706783%" id="linearGradient-1">
            <stop stop-color="#C1D4EB" offset="0%"></stop>
            <stop stop-color="#E5EBFC" stop-opacity="0" offset="100%"></stop>
        </linearGradient>
        <linearGradient x1="0%" y1="28.5417454%" x2="100%" y2="67.7794749%" id="linearGradient-2">
            <stop stop-color="#D2D5EC" offset="0%"></stop>
            <stop stop-color="#E2F0F7" offset="100%"></stop>
        </linearGradient>
        <linearGradient x1="47.2668908%" y1="87.7861467%" x2="53.6107968%" y2="11.9103853%" id="linearGradient-3">
            <stop stop-color="#53BAFF" offset="0%"></stop>
            <stop stop-color="#57BFFF" offset="10%"></stop>
            <stop stop-color="#1E82FF" offset="100%"></stop>
        </linearGradient>
        <linearGradient x1="-40.4498806%" y1="184.742795%" x2="72.1197236%" y2="184.742795%" id="linearGradient-4">
            <stop stop-color="#53BAFF" offset="0%"></stop>
            <stop stop-color="#57BFFF" offset="10%"></stop>
            <stop stop-color="#1E82FF" offset="100%"></stop>
        </linearGradient>
        <linearGradient x1="100.033692%" y1="50.0531118%" x2="0%" y2="50.0531118%" id="linearGradient-5">
            <stop stop-color="#53BAFF" offset="0%"></stop>
            <stop stop-color="#57BFFF" offset="10%"></stop>
            <stop stop-color="#4196FF" offset="96%"></stop>
        </linearGradient>
    </defs>
    <g id="页面-1" stroke="none" stroke-width="1" fill="none" fill-rule="evenodd">
        <g id="双向放大器">
            <g id="编组-4备份-6" transform="translate(0.000000, 21.000000)">
                <g id="编组-13" transform="translate(0.000000, 0.870968)">
                    <polygon id="矩形" fill="#A8B4DA" opacity="0.298339844" points="30 13.5860913 60 29.5349811 30 45.483871 0 29.5349811"></polygon>
                    <polygon id="矩形" fill="#FFFFFF" points="30 0 60 15.9488898 30 31.8977796 0 15.9488898"></polygon>
                    <polygon id="矩形" fill="url(#linearGradient-1)" points="30 31.8977796 60 15.9488898 60 20.7101685 30 37.8183253"></polygon>
                    <polygon id="矩形" fill="url(#linearGradient-2)" points="1.80064297e-14 15.9488898 30 31.8977796 30 37.8183253 2.66453526e-14 20.7786569"></polygon>
                </g>
            </g>
            <g id="双向放大器备份-2" transform="translate(12.000000, 0.000000)">
                <path d="M31.6580493,42.4100456 C32.121142,41.9749275 31.9796414,41.4118334 31.9796414,40.1192766 L31.9796414,14.0981959 C31.9796414,12.4217113 31.9796414,12.4217113 31.8381409,12.1913546 C31.3750482,11.141952 26.1266647,14.7508731 26.1266647,14.7508731 C25.5220715,45.2603331 25.5606626,23.48506 25.5606626,44.9020005 C25.5606626,45 31.6580493,42.4100456 31.6580493,42.4100456 Z" id="路径" fill="url(#linearGradient-3)"></path>
                <path d="M31.9993058,12.8519678 C30.1493257,13.7935631 28.3585254,14.844821 26.6366857,16 C11.3256533,8.7372171 2.16659878,4.03995649 0.788355283,3.32111449 C0.17441045,2.98648115 0.0240566138,4.002775 0.0240566138,4.002775 C0.0240566138,4.002775 -0.126297223,3.07323794 0.324764287,2.67663547 C0.775825796,2.28003299 3.8956679,0.631653932 4.8228499,0.19786997 C4.98402903,0.0396204665 5.21368017,-0.0299197385 5.43679473,0.0119625582 C5.43679473,0.0119625582 30.6962393,11.7117357 30.9969469,11.9348246 C32.0619533,12.40579 31.9993058,12.8519678 31.9993058,12.8519678 Z" id="路径" fill="url(#linearGradient-4)"></path>
                <path d="M26.3801006,14.6883269 C11.6615895,7.48460481 2.151167,2.82337289 0.918334451,2.11712563 C0,1.68053641 0,2.60507828 0,2.60507828 L0,29.0829301 C0,30.919173 0.301918176,31.009059 0.918334451,31.5483751 C1.38379164,31.8565557 20.857514,42.2191292 25.4617662,44.5946882 C27.147476,45.609116 26.9965169,44.4662796 26.9965169,43.9141226 L26.9965169,16.3319569 C26.9973317,15.7251055 26.7777077,15.1394937 26.3801006,14.6883269 Z" id="路径" fill="url(#linearGradient-5)"></path>
                <path d="M19.7073684,27.2725945 L6.43157895,10.1841861 C6.22947368,9.92585794 5.96421053,9.95169076 5.96421053,10.1841861 L5.96421053,19.6002479 L1,16.8490529 L1,18.6186008 L5.96421053,21.3697958 L5.96421053,30.8246068 C5.96421053,31.0958514 6.22947368,31.4058452 6.43157895,31.3800124 L19.9473684,29.184223 L25,32 L25,30.2433684 L19.7073684,27.2725945 Z M10.9915789,27.7892508 C8.71661534,26.3826821 7.26946654,23.9163811 7.12631579,21.2018825 C7.12631579,18.7606813 8.85684211,17.7532015 10.9915789,18.941511 C13.2539186,20.3362895 14.6995656,22.7807075 14.8568421,25.4772137 C14.8568421,27.9571642 13.1263158,28.9517276 10.9915789,27.7892508 Z" id="形状" fill="#FFFFFF" fill-rule="nonzero"></path>
                <path d="M9.0897301,22.9387577 L11.3237232,25.8575714 C11.4289648,25.9872689 11.5952048,26.0336623 11.7438791,25.9748265 C11.8925533,25.9159906 11.9938908,25.7637068 12,25.5899438 L12,22.4202292 C11.9983979,22.3009333 11.9514728,22.1878289 11.8706136,22.1083673 C11.7897545,22.0289056 11.6823535,21.9903511 11.5744775,22.0020611 L9.34048442,22.252962 C9.20047921,22.2690502 9.08003037,22.3690197 9.02747666,22.5127504 C8.97492295,22.6564812 8.99887876,22.8204135 9.0897301,22.9387577 Z" id="路径" fill="#FFFFFF" fill-rule="nonzero"></path>
            </g>
        </g>
    </g>
</svg>