<?xml version="1.0" encoding="UTF-8"?>
<svg width="40px" height="40px" viewBox="0 0 40 40" version="1.1" xmlns="http://www.w3.org/2000/svg" xmlns:xlink="http://www.w3.org/1999/xlink">
    <title>UDM</title>
    <defs>
        <rect id="path-1" x="0" y="0" width="40" height="40"></rect>
    </defs>
    <g id="山东移动" stroke="none" stroke-width="1" fill="none" fill-rule="evenodd">
        <g id="图标合集" transform="translate(-280.000000, -280.000000)">
            <g id="编组-13" transform="translate(280.000000, 280.000000)">
                <mask id="mask-2" fill="white">
                    <use xlink:href="#path-1"></use>
                </mask>
                <g id="蒙版" opacity="0.200000003"></g>
                <g id="编组" mask="url(#mask-2)" fill="#455A74">
                    <g transform="translate(6.000000, 4.000000)" id="形状结合">
                        <path d="M14.3023256,0 C21.0822983,0 28.3730694,1.96996509 28.5992507,6.29239056 L28.6046512,6.5 L28.6048552,17.7175762 C27.9908883,17.2001822 27.3040514,16.7665113 26.5619426,16.4341614 L26.5614618,15.764 C26.404381,15.9224491 26.2307886,16.0752373 26.0419276,16.2223297 C25.3011276,15.9461657 24.5135458,15.7694674 23.6940737,15.706736 C25.4837327,14.9313178 26.5614618,13.9293751 26.5614618,12.8353478 L26.5614618,10.064 C23.9702363,11.9965806 19.2904291,12.9383184 14.755276,12.9970647 L14.3023256,13 C9.7792975,13 5.03717404,12.1206035 2.30919114,10.2539592 L2.04318937,10.064 L2.043,13.473 L2.04485138,13.3634833 C2.04702258,13.1528798 2.04638222,13.0247788 2.04566741,12.9473995 L2.045,12.893 L2.048235,12.9648539 C2.23282497,15.3308889 7.45927208,17.2352509 13.9472097,17.3025094 L14.3023256,17.3043478 C15.7164764,17.3043478 17.0747318,17.2170848 18.3387413,17.056512 C17.5421718,17.5678902 16.8356477,18.2069816 16.2469418,18.944278 C15.6031382,18.9817036 14.9524449,19 14.3023256,19 C9.3821047,19 4.42900174,17.9520292 2.22079328,15.9343804 L2.04318937,15.764 L2.043,19.473 L2.04447862,19.3634833 C2.04694514,19.0686384 2.04579846,18.9354984 2.04479771,18.8768569 L2.044,18.856 L2.048235,18.9648539 C2.23282497,21.3308889 7.45927208,23.2352509 13.9472097,23.3025094 L14.3023256,23.3043478 L14.4196318,23.3041475 L14.4196318,23.3041475 C14.3777692,23.6455084 14.3565891,23.9941938 14.3565891,24.3478261 C14.3565891,24.5670925 14.3647318,24.7844572 14.3807313,24.9996341 L14.3023256,25 C9.3821047,25 4.42900174,23.9520292 2.22079328,21.9343804 L2.04318937,21.764 L2.04318937,25.5 C2.04318937,27.984 7.53119601,30 14.3023256,30 C15.0170769,30 15.7175494,29.9775297 16.3987913,29.9344106 C16.9971108,30.6449838 17.7080715,31.2569853 18.503724,31.7442054 C17.1259381,31.9158325 15.7032728,32 14.3023256,32 C7.52034157,32 0.231518895,30.0280969 0.00539894459,25.7075186 L-1.3500312e-13,25.5 L-1.3500312e-13,6.5 C-1.3500312e-13,2.033 7.41269103,0 14.3023256,0 Z M5.35714286,25 C5.92135402,25 6.37873754,25.4477153 6.37873754,26 C6.37873754,26.5522847 5.92135402,27 5.35714286,27 C4.79293169,27 4.33554817,26.5522847 4.33554817,26 C4.33554817,25.4477153 4.79293169,25 5.35714286,25 Z M5.35714286,19 C5.92135402,19 6.37873754,19.4477153 6.37873754,20 C6.37873754,20.5522847 5.92135402,21 5.35714286,21 C4.79293169,21 4.33554817,20.5522847 4.33554817,20 C4.33554817,19.4477153 4.79293169,19 5.35714286,19 Z M5.35714286,13 C5.92135402,13 6.37873754,13.4477153 6.37873754,14 C6.37873754,14.5522847 5.92135402,15 5.35714286,15 C4.79293169,15 4.33554817,14.5522847 4.33554817,14 C4.33554817,13.4477153 4.79293169,13 5.35714286,13 Z M14.3023256,2 C7.53119601,2 2.04318937,4.014 2.04318937,6.5 C2.04318937,8.984 7.53119601,11 14.3023256,11 C21.0724336,11 26.5614618,8.984 26.5614618,6.5 C26.5614618,4.014 21.0724336,2 14.3023256,2 Z"></path>
                        <path d="M23.0232558,17.3913043 C26.8764052,17.3913043 30,20.5058452 30,24.3478261 C30,28.189807 26.8764052,31.3043478 23.0232558,31.3043478 C19.1701064,31.3043478 16.0465116,28.189807 16.0465116,24.3478261 C16.0465116,20.5058452 19.1701064,17.3913043 23.0232558,17.3913043 Z M23.8842949,25.2682927 L22.0994449,25.2682927 C20.571635,25.2682927 19.3333333,26.4866436 19.3333333,27.9901086 L19.3333333,27.9901086 L19.3333333,28.1654476 C19.3333333,28.7261822 20.3656415,28.7756939 21.708077,28.7800647 L21.708077,28.7800647 L24.0818188,28.7803149 C25.5171673,28.777449 26.6504065,28.7321712 26.6504065,28.1654476 L26.6504065,28.1654476 L26.6504065,27.9901086 C26.6504065,26.4866436 25.4121048,25.2682927 23.8842949,25.2682927 L23.8842949,25.2682927 Z M22.710444,20 C21.4673183,20 20.4590369,20.9170022 20.4590369,22.0486343 C20.4590369,23.1802664 21.4670023,24.097561 22.710444,24.097561 L22.710444,24.097561 L22.8712332,24.0924167 C24.0396295,24.0173911 24.9618512,23.131065 24.9618512,22.0486343 C24.9618512,20.9172946 23.9538858,20 22.710444,20 Z"></path>
                    </g>
                </g>
            </g>
        </g>
    </g>
</svg>