<?xml version="1.0" encoding="UTF-8"?>
<svg width="60px" height="65px" viewBox="0 0 60 65" version="1.1" xmlns="http://www.w3.org/2000/svg" xmlns:xlink="http://www.w3.org/1999/xlink">
    <title>UDM</title>
    <defs>
        <linearGradient x1="26.051126%" y1="36.1067771%" x2="50%" y2="76.5706783%" id="linearGradient-1">
            <stop stop-color="#C1D4EB" offset="0%"></stop>
            <stop stop-color="#E5EBFC" stop-opacity="0" offset="100%"></stop>
        </linearGradient>
        <linearGradient x1="0%" y1="28.5417454%" x2="100%" y2="67.7794749%" id="linearGradient-2">
            <stop stop-color="#D2D5EC" offset="0%"></stop>
            <stop stop-color="#E2F0F7" offset="100%"></stop>
        </linearGradient>
        <linearGradient x1="-0.089203252%" y1="49.9839286%" x2="100.166382%" y2="49.9839286%" id="linearGradient-3">
            <stop stop-color="#0979DB" offset="0%"></stop>
            <stop stop-color="#0D7EE0" offset="100%"></stop>
        </linearGradient>
        <linearGradient x1="47.665926%" y1="49.7385475%" x2="73.733991%" y2="49.7385475%" id="linearGradient-4">
            <stop stop-color="#107FD6" offset="0%"></stop>
            <stop stop-color="#004CA7" offset="100%"></stop>
        </linearGradient>
        <linearGradient x1="69.4605691%" y1="72.5548606%" x2="30.7439024%" y2="27.7258557%" id="linearGradient-5">
            <stop stop-color="#53BAFF" offset="0%"></stop>
            <stop stop-color="#57BFFF" offset="9.842166%"></stop>
            <stop stop-color="#1E82FF" offset="100%"></stop>
        </linearGradient>
        <linearGradient x1="-2.213%" y1="51.7890756%" x2="95.713%" y2="51.7890756%" id="linearGradient-6">
            <stop stop-color="#53BAFF" offset="0%"></stop>
            <stop stop-color="#57BFFF" offset="9.842166%"></stop>
            <stop stop-color="#1E82FF" offset="100%"></stop>
        </linearGradient>
        <linearGradient x1="98.616129%" y1="50.68%" x2="-0.11827957%" y2="50.68%" id="linearGradient-7">
            <stop stop-color="#53BAFF" offset="0%"></stop>
            <stop stop-color="#57BFFF" offset="9.842166%"></stop>
            <stop stop-color="#1E82FF" offset="100%"></stop>
        </linearGradient>
    </defs>
    <g id="页面-1" stroke="none" stroke-width="1" fill="none" fill-rule="evenodd">
        <g id="UDM">
            <g id="编组-4备份-6" transform="translate(0.000000, 18.000000)">
                <g id="编组-13" transform="translate(0.000000, 0.870968)">
                    <polygon id="矩形" fill="#A8B4DA" opacity="0.298339844" points="30 13.5860913 60 29.5349811 30 45.483871 0 29.5349811"></polygon>
                    <polygon id="矩形" fill="#FFFFFF" points="30 0 60 15.9488898 30 31.8977796 0 15.9488898"></polygon>
                    <polygon id="矩形" fill="url(#linearGradient-1)" points="30 31.8977796 60 15.9488898 60 20.7101685 30 37.8183253"></polygon>
                    <polygon id="矩形" fill="url(#linearGradient-2)" points="1.80064297e-14 15.9488898 30 31.8977796 30 37.8183253 2.66453526e-14 20.7786569"></polygon>
                </g>
            </g>
            <g id="编组-7" transform="translate(8.000000, 0.000000)">
                <path d="M38.5853659,17.7202381 C35.2764228,15.4880952 30.6138211,14 25.5,14 C15.2723577,14 7,19.6547619 7,26.5 C7,33.3452381 15.2723577,39 25.5,39 C30.6138211,39 35.2764228,37.6607143 38.5853659,35.2797619 C41.8943089,33.047619 44,29.922619 44,26.5 C44,23.077381 41.8943089,19.952381 38.5853659,17.7202381 Z" id="路径_58_" fill="url(#linearGradient-3)" fill-rule="nonzero"></path>
                <path d="M25.5,14.297619 C30.4634146,14.297619 34.9756098,15.6369048 38.4349593,17.8690476 C41.8943089,20.1011905 43.699187,23.2261905 43.699187,26.5 C43.699187,29.7738095 41.8943089,32.75 38.4349593,35.1309524 C34.9756098,37.3630952 30.3130081,38.702381 25.5,38.702381 C15.4227642,38.702381 7.30081301,33.1964286 7.30081301,26.5 C7.30081301,19.8035714 15.4227642,14.297619 25.5,14.297619 L25.5,14.297619 Z M25.5,14 C15.2723577,14 7,19.6547619 7,26.5 C7,33.3452381 15.2723577,39 25.5,39 C30.6138211,39 35.2764228,37.6607143 38.5853659,35.2797619 C41.8943089,33.047619 44,29.922619 44,26.5 C44,23.077381 41.8943089,19.952381 38.5853659,17.7202381 C35.2764228,15.4880952 30.6138211,14 25.5,14 L25.5,14 Z" id="形状_29_" fill="#309EFF" fill-rule="nonzero"></path>
                <path d="M38.5853659,7.7202381 C35.2764228,5.48809524 30.6138211,4 25.5,4 C15.2723577,4 7,9.6547619 7,16.5 C7,23.3452381 15.2723577,29 25.5,29 C30.6138211,29 35.2764228,27.6607143 38.5853659,25.2797619 C41.8943089,23.047619 44,19.922619 44,16.5 C44,13.077381 42.0447154,9.95238095 38.5853659,7.7202381 Z" id="路径_57_" fill="#329EFE" fill-rule="nonzero" opacity="0.5"></path>
                <path d="M43.9754601,13 L43.9754601,27.027933 C43.9754601,27.1787709 43.9754601,27.3296089 43.9754601,27.3296089 C43.9754601,30.7988827 41.8711656,33.9664804 38.5644172,36.2290503 C35.2576687,38.4916201 30.5981595,40 25.4877301,40 C15.2668712,40 7,34.2681564 7,27.3296089 L7,27.4804469 L7,15.2625698 C8.80368098,22.5027933 16.0184049,26.424581 24.8865031,26.575419 C30.898773,26.726257 34.506135,25.5195531 37.9631902,23.2569832 C41.2699387,20.9944134 42.1717791,19.6368715 42.7730061,18.5810056 C44.2760736,15.8659218 43.9754601,13 43.9754601,13 Z" id="路径_56_" fill="url(#linearGradient-4)" fill-rule="nonzero"></path>
                <path d="M38.5853659,3.7202381 C35.2764228,1.48809524 30.6138211,0 25.5,0 C15.2723577,0 7,5.6547619 7,12.5 C7,19.3452381 15.2723577,25 25.5,25 C30.6138211,25 35.2764228,23.6607143 38.5853659,21.2797619 C41.8943089,18.8988095 44,15.922619 44,12.5 C44,9.07738095 42.0447154,5.95238095 38.5853659,3.7202381 Z" id="路径_55_" fill="url(#linearGradient-5)" fill-rule="nonzero"></path>
                <path d="M25.5,0.148809524 C30.4634146,0.148809524 34.9756098,1.48809524 38.4349593,3.7202381 C41.8943089,6.10119048 43.699187,9.07738095 43.699187,12.3511905 C43.699187,15.625 41.8943089,18.6011905 38.4349593,20.9821429 C34.9756098,23.3630952 30.3130081,24.5535714 25.5,24.5535714 C15.4227642,24.5535714 7.30081301,19.047619 7.30081301,12.3511905 C7.30081301,5.6547619 15.4227642,0.148809524 25.5,0.148809524 L25.5,0.148809524 Z M25.5,0 C15.2723577,0 7,5.6547619 7,12.5 C7,19.3452381 15.2723577,25 25.5,25 C30.6138211,25 35.2764228,23.6607143 38.5853659,21.2797619 C41.8943089,19.047619 44,15.922619 44,12.5 C44,9.07738095 41.8943089,5.95238095 38.5853659,3.7202381 C35.2764228,1.33928571 30.6138211,0 25.5,0 Z" id="形状_28_" fill="#309EFF" fill-rule="nonzero"></path>
                <path d="M43,20 C43,23.4878049 41.214876,26.6585366 37.7933884,29.195122 C34.3719008,31.7317073 29.7603306,33 25,33 C15.0330579,33 7,27.1341463 7,20" id="路径" stroke="#309EFF" stroke-width="0.25"></path>
                <g id="编组" transform="translate(19.000000, 6.000000)" fill-rule="nonzero">
                    <path d="M0.906666667,9.66933333 C0.755555556,9.81866667 0.755555556,10.1173333 0.604444444,10.2666667 C0.453333333,10.5653333 0.453333333,10.864 0.453333333,11.1626667 C0.453333333,11.4613333 0.453333333,11.76 0.453333333,12.0586667 C0.453333333,12.3573333 0.453333333,12.5066667 0.604444444,12.656 C0.604444444,12.8053333 0.906666667,12.8053333 1.20888889,12.9546667 C1.51111111,13.104 1.96444444,13.104 2.41777778,13.2533333 C2.87111111,13.4026667 3.32444444,13.4026667 3.92888889,13.4026667 C4.53333333,13.4026667 4.98666667,13.552 5.59111111,13.552 C6.19555556,13.552 6.64888889,13.7013333 7.10222222,13.7013333 C7.55555556,13.7013333 8.00888889,13.7013333 8.46222222,13.7013333 C8.76444444,13.7013333 9.21777778,13.7013333 9.67111111,13.7013333 C10.1244444,13.7013333 10.5777778,13.7013333 11.1822222,13.552 C11.6355556,13.552 12.0888889,13.4026667 12.5422222,13.4026667 C12.9955556,13.4026667 13.4488889,13.2533333 13.7511111,13.2533333 C14.0533333,13.2533333 14.3555556,13.104 14.6577778,13.104 C14.96,13.104 15.1111111,12.9546667 15.1111111,12.9546667 C15.1111111,12.8053333 15.1111111,12.5066667 15.1111111,12.0586667 C15.1111111,11.6106667 14.96,11.0133333 14.8088889,10.416 C14.6577778,9.968 14.5066667,9.81866667 14.2044444,9.52 C13.9022222,9.37066667 13.6,9.22133333 13.2977778,9.072 C12.9955556,8.92266667 12.5422222,8.77333333 12.24,8.77333333 C11.7866667,8.624 11.4844444,8.47466667 11.1822222,8.32533333 C10.88,8.02666667 10.7288889,8.02666667 10.5777778,7.87733333 C10.4266667,7.728 10.4266667,7.57866667 10.2755556,7.57866667 C10.2755556,7.42933333 10.1244444,7.28 10.1244444,7.28 C10.1244444,7.13066667 10.1244444,6.98133333 10.1244444,6.832 C10.1244444,6.68266667 10.2755556,6.384 10.2755556,6.384 C10.4266667,6.23466667 10.5777778,6.23466667 10.7288889,6.08533333 C10.88,6.08533333 10.88,5.936 10.88,5.78666667 C10.88,5.63733333 11.0311111,5.63733333 11.0311111,5.488 C11.0311111,5.33866667 11.1822222,5.18933333 11.1822222,5.04 C11.1822222,5.04 11.1822222,5.04 11.3333333,4.89066667 C11.3333333,4.89066667 11.3333333,4.74133333 11.4844444,4.74133333 C11.4844444,4.74133333 11.4844444,4.592 11.6355556,4.44266667 C11.6355556,4.29333333 11.6355556,4.144 11.6355556,4.144 C11.6355556,3.99466667 11.6355556,3.99466667 11.6355556,3.84533333 C11.6355556,3.696 11.6355556,3.696 11.4844444,3.54666667 C11.4844444,3.248 11.3333333,2.94933333 11.3333333,2.65066667 C11.3333333,2.352 11.1822222,2.20266667 11.0311111,1.904 C10.88,1.60533333 10.7288889,1.456 10.5777778,1.15733333 C10.4266667,1.008 10.1244444,0.858666667 9.97333333,0.709333333 C9.82222222,0.56 9.52,0.410666667 9.36888889,0.410666667 C9.21777778,0.261333333 8.91555556,0.261333333 8.76444444,0.261333333 C8.61333333,0.261333333 8.31111111,0.112 8.16,0.112 C7.85777778,0.112 7.70666667,0.112 7.55555556,0.112 C7.40444444,0.112 7.25333333,0.112 7.25333333,0.112 C7.10222222,0.112 7.10222222,0.112 6.95111111,0.261333333 C6.95111111,0.261333333 6.8,0.410666667 6.8,0.410666667 L6.49777778,0.410666667 C6.34666667,0.410666667 6.34666667,0.410666667 6.19555556,0.410666667 C6.04444444,0.410666667 6.04444444,0.410666667 5.89333333,0.56 C5.74222222,0.56 5.74222222,0.709333333 5.59111111,0.709333333 C5.28888889,0.858666667 5.13777778,1.15733333 4.98666667,1.456 C4.83555556,1.75466667 4.68444444,2.05333333 4.68444444,2.20266667 C4.53333333,2.50133333 4.53333333,2.8 4.53333333,3.09866667 C4.53333333,3.09866667 4.53333333,3.248 4.53333333,3.248 C4.53333333,3.248 4.53333333,3.39733333 4.53333333,3.39733333 C4.53333333,3.54666667 4.53333333,3.54666667 4.53333333,3.696 C4.53333333,3.84533333 4.53333333,3.99466667 4.53333333,4.144 C4.53333333,4.29333333 4.68444444,4.29333333 4.68444444,4.44266667 C4.68444444,4.44266667 4.83555556,4.592 4.83555556,4.592 C4.83555556,4.74133333 4.98666667,4.89066667 4.98666667,5.04 C4.98666667,5.18933333 5.13777778,5.33866667 5.13777778,5.33866667 C5.13777778,5.488 5.28888889,5.488 5.44,5.63733333 C5.59111111,5.78666667 5.74222222,5.936 5.89333333,6.08533333 C6.04444444,6.23466667 6.04444444,6.384 6.19555556,6.53333333 C6.19555556,6.68266667 6.19555556,6.832 6.19555556,6.98133333 C6.19555556,7.13066667 6.19555556,7.28 6.04444444,7.42933333 C5.89333333,7.57866667 5.89333333,7.728 5.59111111,7.87733333 C5.44,8.02666667 5.13777778,8.176 4.83555556,8.176 C4.53333333,8.32533333 4.23111111,8.32533333 3.77777778,8.47466667 C3.47555556,8.47466667 3.02222222,8.624 2.72,8.77333333 C2.41777778,8.92266667 1.96444444,9.072 1.66222222,9.22133333 C1.20888889,9.22133333 1.05777778,9.37066667 0.906666667,9.66933333 Z" id="路径" fill="#FFFFFF"></path>
                    <path d="M7.55555556,8.92266667 C7.55555556,8.92266667 7.55555556,8.77333333 7.55555556,8.77333333 C7.55555556,8.77333333 7.70666667,8.624 7.70666667,8.624 C7.70666667,8.624 7.85777778,8.47466667 7.85777778,8.47466667 L8.76444444,8.47466667 C8.91555556,8.624 8.91555556,8.624 8.91555556,8.624 C8.91555556,8.624 9.06666667,8.77333333 9.06666667,8.77333333 C9.06666667,8.77333333 9.06666667,8.92266667 9.06666667,8.92266667 C8.91555556,9.072 8.91555556,9.22133333 8.91555556,9.37066667 C8.91555556,9.52 8.76444444,9.52 8.76444444,9.66933333 C8.76444444,9.81866667 8.76444444,9.968 8.91555556,10.1173333 C8.91555556,10.2666667 9.06666667,10.5653333 9.06666667,10.7146667 C9.06666667,10.864 9.21777778,11.1626667 9.21777778,11.312 C9.21777778,11.4613333 9.21777778,11.6106667 9.21777778,11.76 C9.21777778,11.76 9.21777778,11.9093333 9.06666667,12.0586667 C9.06666667,12.208 8.91555556,12.208 8.91555556,12.3573333 C8.76444444,12.5066667 8.76444444,12.5066667 8.61333333,12.656 C8.46222222,12.656 8.46222222,12.8053333 8.31111111,12.8053333 C8.31111111,12.8053333 8.16,12.8053333 8.00888889,12.656 C7.85777778,12.656 7.85777778,12.5066667 7.70666667,12.3573333 C7.55555556,12.208 7.55555556,12.208 7.55555556,12.0586667 C7.55555556,11.9093333 7.40444444,11.9093333 7.40444444,11.76 C7.40444444,11.6106667 7.40444444,11.6106667 7.40444444,11.312 C7.40444444,11.1626667 7.55555556,10.864 7.55555556,10.7146667 C7.55555556,10.5653333 7.70666667,10.2666667 7.70666667,10.1173333 C7.70666667,9.968 7.85777778,9.81866667 7.85777778,9.66933333 C7.70666667,9.66933333 7.70666667,9.52 7.70666667,9.37066667 C7.70666667,9.22133333 7.70666667,9.072 7.55555556,8.92266667 Z" id="路径" fill="#56BEFF"></path>
                </g>
                <path d="M14.25,35.5210084 C14.25,35.0672269 14.1,34.7647059 13.8,34.6134454 C13.5,34.4621849 13.35,34.1596639 12.9,34.0084034 C12.6,33.8571429 12.3,33.7058824 11.85,33.7058824 C11.55,33.5546218 11.1,33.4033613 10.95,33.2521008 C10.8,33.1008403 10.5,32.9495798 10.5,32.7983193 C10.35,32.6470588 10.35,32.4957983 10.2,32.3445378 C10.2,32.1932773 10.2,32.0420168 10.2,31.8907563 C10.2,31.7394958 10.2,31.5882353 10.2,31.4369748 C10.2,31.1344538 10.35,30.9831933 10.5,30.8319328 C10.65,30.6806723 10.8,30.5294118 10.95,30.3781513 C11.1,30.3781513 11.1,30.2268908 11.25,30.0756303 C11.25,29.9243697 11.4,29.7731092 11.4,29.6218487 C11.4,29.4705882 11.55,29.3193277 11.55,29.0168067 C11.55,29.0168067 11.55,29.0168067 11.7,28.8655462 C11.7,28.8655462 11.7,28.7142857 11.85,28.5630252 C11.85,28.4117647 12,28.2605042 12,28.1092437 C12,27.9579832 12.15,27.8067227 12.15,27.6554622 C12.15,27.5042017 12.15,27.3529412 12.15,27.2016807 C12.15,27.0504202 12.15,26.8991597 12,26.8991597 C12,26.4453782 12,25.9915966 12,25.5378151 C12,25.2352941 11.85,24.7815126 11.85,24.3277311 C11.7,23.8739496 11.55,23.5714286 11.4,23.1176471 C11.25,22.8151261 10.95,22.512605 10.8,22.210084 C10.5,21.907563 10.35,21.7563025 10.05,21.605042 C9.75,21.4537815 9.6,21.302521 9.3,21.302521 C9,21.1512605 8.85,21.1512605 8.55,21.1512605 C8.4,21.1512605 8.4,21.1512605 8.25,21.1512605 C8.1,21.1512605 7.95,21 7.8,21 C7.5,21 7.35,21 7.05,21 C6.9,21 6.75,21 6.6,21.1512605 C6.45,21.1512605 6.45,21.302521 6.3,21.302521 C6,21.605042 6,21.7563025 5.85,21.7563025 L5.55,21.7563025 C5.4,21.7563025 5.4,21.7563025 5.25,21.7563025 C5.1,21.7563025 5.1,21.7563025 4.95,21.907563 C4.8,22.0588235 4.65,22.0588235 4.65,22.210084 C4.35,22.512605 4.05,22.9663866 3.9,23.4201681 C3.75,23.8739496 3.6,24.3277311 3.6,24.7815126 C3.45,25.2352941 3.45,25.6890756 3.45,26.2941176 C3.45,26.2941176 3.45,26.4453782 3.45,26.5966387 C3.45,26.7478992 3.45,26.7478992 3.45,26.8991597 C3.45,27.0504202 3.45,27.2016807 3.45,27.3529412 C3.45,27.6554622 3.45,27.8067227 3.6,27.9579832 C3.6,28.1092437 3.75,28.2605042 3.75,28.2605042 C3.75,28.4117647 3.9,28.4117647 3.9,28.4117647 C3.9,28.5630252 4.05,28.8655462 4.05,29.0168067 C4.05,29.1680672 4.2,29.3193277 4.2,29.4705882 C4.2,29.6218487 4.35,29.7731092 4.5,29.7731092 C4.65,29.9243697 4.95,30.0756303 5.1,30.2268908 C5.25,30.3781513 5.4,30.5294118 5.4,30.8319328 C5.4,30.9831933 5.4,31.2857143 5.4,31.4369748 C5.4,31.5882353 5.4,31.8907563 5.25,32.0420168 C5.1,32.1932773 4.95,32.4957983 4.8,32.6470588 C4.65,32.7983193 4.35,32.9495798 4.05,33.1008403 C3.75,33.2521008 3.45,33.4033613 3,33.4033613 C2.55,33.5546218 2.25,33.5546218 1.95,33.7058824 C1.65,33.8571429 1.2,34.0084034 0.9,34.1596639 C0.6,34.3109244 0.45,34.6134454 0.3,35.0672269 C0.3,35.2184874 0.15,35.5210084 0.15,35.8235294 C0.15,36.1260504 0,36.4285714 0,36.7310924 C0,37.0336134 0,37.3361345 0,37.6386555 C0,37.9411765 0.15,38.092437 0.15,38.2436975 C0.15,38.394958 0.45,38.394958 0.75,38.5462185 C1.05,38.697479 1.35,38.697479 1.8,38.697479 C2.25,38.697479 2.7,38.8487395 3.15,38.8487395 C3.6,38.8487395 4.2,39 4.65,39 C5.1,39 5.7,39 6.15,39 C6.6,39 7.05,39 7.35,39 C7.35,39 7.5,39 7.65,39 C7.8,39 8.1,39 8.25,39 C8.55,39 9,39 9.45,38.8487395 C9.9,38.8487395 10.35,38.697479 10.8,38.697479 C11.25,38.697479 11.7,38.5462185 12.15,38.5462185 C12.6,38.5462185 12.9,38.394958 13.35,38.2436975 C13.65,38.092437 13.95,38.092437 14.25,38.092437 C14.55,38.092437 14.7,37.9411765 14.7,37.9411765 C14.85,37.789916 14.85,37.487395 15,37.0336134 C14.4,36.8823529 14.4,36.2773109 14.25,35.5210084 Z" id="路径" stroke="#FFFFFF" stroke-width="0.75" fill="url(#linearGradient-6)" fill-rule="nonzero"></path>
                <g id="编组" transform="translate(0.000000, 20.000000)" fill-rule="nonzero">
                    <path d="M0.658823529,15.451505 C0.658823529,15.6060201 0.513368984,15.9150502 0.513368984,16.2240803 C0.513368984,16.5331104 0.367914439,16.8421405 0.367914439,17.1511706 C0.367914439,17.4602007 0.367914439,17.7692308 0.367914439,18.0782609 C0.367914439,18.387291 0.513368984,18.541806 0.513368984,18.6963211 C0.513368984,18.8508361 0.804278075,18.8508361 1.09518717,19.0053512 C1.38609626,19.1598662 1.67700535,19.1598662 2.11336898,19.1598662 C2.54973262,19.1598662 2.98609626,19.3143813 3.42245989,19.3143813 C3.85882353,19.3143813 4.44064171,19.4688963 4.87700535,19.4688963 C5.31336898,19.4688963 5.89518717,19.4688963 6.3315508,19.4688963 C6.76791444,19.4688963 7.20427807,19.4688963 7.49518717,19.4688963 C7.78609626,19.4688963 8.22245989,19.4688963 8.65882353,19.3143813 C9.09518717,19.3143813 9.5315508,19.1598662 9.96791444,19.1598662 C10.4042781,19.1598662 10.8406417,19.0053512 11.2770053,19.0053512 C11.713369,18.8508361 12.0042781,18.8508361 12.4406417,18.6963211 C12.7315508,18.541806 13.0224599,18.541806 13.313369,18.387291 C13.6042781,18.387291 13.7497326,18.2327759 13.7497326,18.2327759 C13.8951872,18.0782609 13.8951872,17.7692308 14.0406417,17.3056856 C14.0406417,16.8421405 14.0406417,16.2240803 14.0406417,15.451505 C14.0406417,14.9879599 13.8951872,14.6789298 13.6042781,14.5244147 C13.313369,14.2153846 13.0224599,14.0608696 12.7315508,13.9063545 C12.4406417,13.7518395 12.1497326,13.5973244 11.713369,13.5973244 C11.4224599,13.4428094 10.9860963,13.2882943 10.8406417,13.1337793 C10.6951872,12.9792642 10.4042781,12.8247492 10.4042781,12.6702341 C10.2588235,12.5157191 10.2588235,12.361204 10.113369,12.206689 C10.113369,12.0521739 9.96791444,11.8976589 10.113369,11.7431438 C10.113369,11.5886288 10.113369,11.4341137 10.113369,11.2795987 C10.113369,10.9705686 10.2588235,10.8160535 10.4042781,10.6615385 C10.5497326,10.5070234 10.6951872,10.3525084 10.8406417,10.1979933 C10.9860963,10.1979933 10.9860963,10.0434783 11.1315508,9.88896321 C11.1315508,9.73444816 11.2770053,9.57993311 11.2770053,9.42541806 C11.2770053,9.27090301 11.4224599,9.11638796 11.4224599,8.80735786 C11.4224599,8.80735786 11.4224599,8.80735786 11.5679144,8.65284281 C11.5679144,8.65284281 11.5679144,8.49832776 11.713369,8.34381271 C11.713369,8.18929766 11.8588235,8.03478261 11.8588235,7.88026756 C11.8588235,7.72575251 12.0042781,7.57123746 12.0042781,7.41672241 C12.0042781,7.26220736 12.0042781,7.10769231 12.0042781,6.95317726 C12.0042781,6.79866221 12.0042781,6.64414716 11.8588235,6.64414716 C11.8588235,6.18060201 11.8588235,5.71705686 11.8588235,5.25351171 C11.8588235,4.94448161 11.713369,4.48093645 11.713369,4.0173913 C11.5679144,3.55384615 11.4224599,3.24481605 11.2770053,2.7812709 C11.1315508,2.4722408 10.8406417,2.1632107 10.6951872,1.8541806 C10.4042781,1.5451505 10.2588235,1.39063545 9.96791444,1.2361204 C9.67700535,1.08160535 9.5315508,0.927090301 9.24064171,0.927090301 C8.94973262,0.772575251 8.65882353,0.772575251 8.51336898,0.772575251 C8.22245989,0.772575251 8.07700535,0.772575251 7.78609626,0.772575251 C7.64064171,0.772575251 7.49518717,0.772575251 7.34973262,0.927090301 C7.20427807,0.927090301 7.20427807,1.08160535 7.05882353,1.08160535 C6.47700535,1.39063545 6.47700535,1.5451505 6.3315508,1.5451505 L6.04064171,1.5451505 C5.89518717,1.5451505 5.89518717,1.5451505 5.74973262,1.5451505 C5.60427807,1.5451505 5.60427807,1.5451505 5.45882353,1.69966555 C5.31336898,1.8541806 5.16791444,1.8541806 5.16791444,2.00869565 C4.87700535,2.31772575 4.58609626,2.7812709 4.44064171,3.24481605 C4.29518717,3.7083612 4.14973262,4.17190635 4.14973262,4.63545151 C4.00427807,5.09899666 4.00427807,5.56254181 4.00427807,6.18060201 C4.00427807,6.18060201 4.00427807,6.33511706 4.00427807,6.48963211 C4.00427807,6.64414716 4.00427807,6.64414716 4.00427807,6.79866221 C4.00427807,6.95317726 4.00427807,7.10769231 4.00427807,7.26220736 C4.00427807,7.57123746 4.00427807,7.72575251 4.14973262,7.88026756 C4.14973262,8.03478261 4.29518717,8.18929766 4.29518717,8.18929766 C4.29518717,8.34381271 4.44064171,8.34381271 4.44064171,8.34381271 C4.44064171,8.49832776 4.58609626,8.80735786 4.58609626,8.96187291 C4.58609626,9.11638796 4.7315508,9.27090301 4.7315508,9.42541806 C4.7315508,9.57993311 4.87700535,9.73444816 5.02245989,9.73444816 C5.16791444,9.88896321 5.45882353,10.0434783 5.60427807,10.1979933 C5.74973262,10.3525084 5.89518717,10.5070234 5.89518717,10.8160535 C5.89518717,10.9705686 5.89518717,11.2795987 5.89518717,11.4341137 C5.89518717,11.5886288 5.89518717,11.8976589 5.74973262,12.0521739 C5.60427807,12.206689 5.45882353,12.5157191 5.31336898,12.6702341 C5.16791444,12.8247492 4.87700535,12.9792642 4.58609626,13.1337793 C4.29518717,13.2882943 4.00427807,13.4428094 3.56791444,13.4428094 C3.1315508,13.5973244 2.84064171,13.5973244 2.54973262,13.7518395 C2.25882353,13.9063545 1.82245989,14.0608696 1.5315508,14.2153846 C0.94973262,14.8334448 0.804278075,15.1424749 0.658823529,15.451505 Z" id="路径" fill="#135AAD"></path>
                    <g transform="translate(0.513369, 0.913043)" id="路径">
                        <path d="M1.01818182,14.5384615 C1.01818182,14.6929766 0.872727273,15.0020067 0.872727273,15.3110368 C0.872727273,15.6200669 0.727272727,15.929097 0.727272727,16.2381271 C0.727272727,16.5471572 0.727272727,16.8561873 0.727272727,17.1652174 C0.727272727,17.4742475 0.872727273,17.6287625 0.872727273,17.7832776 C0.872727273,17.9377926 1.16363636,17.9377926 1.45454545,18.0923077 C1.74545455,18.2468227 2.03636364,18.2468227 2.47272727,18.2468227 C2.90909091,18.2468227 3.34545455,18.4013378 3.78181818,18.4013378 C4.21818182,18.4013378 4.8,18.5558528 5.23636364,18.5558528 C5.67272727,18.5558528 6.10909091,18.5558528 6.54545455,18.5558528 C6.98181818,18.5558528 7.41818182,18.5558528 7.70909091,18.5558528 C8,18.5558528 8.43636364,18.5558528 8.87272727,18.4013378 C9.30909091,18.4013378 9.74545455,18.2468227 10.1818182,18.2468227 C10.6181818,18.2468227 11.0545455,18.0923077 11.4909091,18.0923077 C11.9272727,18.0923077 12.2181818,17.9377926 12.6545455,17.7832776 C12.9454545,17.6287625 13.2363636,17.6287625 13.5272727,17.6287625 C13.8181818,17.6287625 13.9636364,17.4742475 13.9636364,17.4742475 C14.1090909,17.3197324 14.1090909,17.0107023 14.2545455,16.5471572 C14.2545455,16.083612 14.2545455,15.4655518 14.2545455,14.6929766 C14.2545455,14.2294314 14.1090909,13.9204013 13.8181818,13.7658863 C13.5272727,13.6113712 13.3818182,13.3023411 12.9454545,13.1478261 C12.6545455,12.993311 12.3636364,12.838796 11.9272727,12.838796 C11.6363636,12.6842809 11.2,12.5297659 11.0545455,12.3752508 C10.9090909,12.2207358 10.6181818,12.0662207 10.6181818,11.9117057 C10.1818182,11.7571906 10.1818182,11.6026756 10.0363636,11.4481605 C10.0363636,11.2936455 10.0363636,11.1391304 10.0363636,10.9846154 C10.0363636,10.8301003 10.0363636,10.6755853 10.0363636,10.5210702 C10.0363636,10.2120401 10.1818182,10.0575251 10.3272727,9.90301003 C10.4727273,9.74849498 10.6181818,9.59397993 10.7636364,9.43946488 C10.9090909,9.43946488 10.9090909,9.28494983 11.0545455,9.13043478 C11.0545455,8.97591973 11.2,8.82140468 11.2,8.66688963 C11.2,8.51237458 11.3454545,8.35785953 11.3454545,8.04882943 C11.3454545,8.04882943 11.3454545,8.04882943 11.4909091,7.89431438 C11.4909091,7.89431438 11.4909091,7.73979933 11.6363636,7.58528428 C11.6363636,7.43076923 11.7818182,7.27625418 11.7818182,7.12173913 C11.7818182,6.96722408 11.9272727,6.81270903 11.9272727,6.65819398 C11.9272727,6.50367893 11.9272727,6.34916388 11.9272727,6.19464883 C11.9272727,6.04013378 11.9272727,5.88561873 11.7818182,5.88561873 C11.7818182,5.42207358 11.7818182,4.95852843 11.7818182,4.49498328 C11.7818182,4.18595318 11.6363636,3.72240803 11.6363636,3.25886288 C11.4909091,2.79531773 11.3454545,2.48628763 11.2,2.02274247 C11.0545455,1.71371237 10.7636364,1.40468227 10.6181818,1.09565217 C10.3272727,0.786622074 10.1818182,0.632107023 9.89090909,0.477591973 C9.6,0.323076923 9.45454545,0.168561873 9.16363636,0.168561873 C8.87272727,0.0140468227 8.72727273,0.0140468227 8.43636364,0.0140468227 C8.14545455,0.0140468227 8,0.0140468227 7.85454545,0.0140468227 C7.70909091,0.0140468227 7.56363636,0.0140468227 7.41818182,0.168561873 C7.27272727,0.168561873 7.27272727,0.323076923 7.12727273,0.323076923 C6.98181818,0.477591973 6.98181818,0.477591973 6.83636364,0.632107023 L6.54545455,0.632107023 C6.4,0.632107023 6.4,0.632107023 6.25454545,0.632107023 C6.10909091,0.632107023 6.10909091,0.632107023 5.96363636,0.786622074 C5.81818182,0.941137124 5.67272727,0.941137124 5.67272727,1.09565217 C5.38181818,1.40468227 5.09090909,1.86822742 4.94545455,2.33177258 C4.50909091,2.94983278 4.36363636,3.25886288 4.36363636,3.72240803 C4.21818182,4.18595318 4.21818182,4.64949833 4.21818182,5.26755853 C4.21818182,5.26755853 4.21818182,5.42207358 4.21818182,5.57658863 C4.21818182,5.73110368 4.21818182,5.73110368 4.21818182,5.88561873 C4.21818182,6.04013378 4.21818182,6.19464883 4.21818182,6.34916388 C4.21818182,6.65819398 4.21818182,6.81270903 4.36363636,6.96722408 C4.36363636,7.12173913 4.50909091,7.27625418 4.50909091,7.27625418 C4.50909091,7.43076923 4.65454545,7.43076923 4.65454545,7.43076923 C4.65454545,7.58528428 4.8,7.89431438 4.8,8.04882943 C4.8,8.20334448 4.94545455,8.35785953 4.94545455,8.51237458 C4.94545455,8.66688963 5.09090909,8.82140468 5.23636364,8.82140468 C5.38181818,8.97591973 5.67272727,9.13043478 5.67272727,9.28494983 C5.81818182,9.43946488 5.81818182,9.59397993 5.96363636,9.90301003 C5.96363636,10.0575251 5.96363636,10.2120401 5.96363636,10.5210702 C5.96363636,10.6755853 5.96363636,10.9846154 5.81818182,11.1391304 C5.67272727,11.2936455 5.52727273,11.6026756 5.38181818,11.7571906 C5.23636364,11.9117057 4.94545455,12.0662207 4.65454545,12.2207358 C4.36363636,12.3752508 4.07272727,12.5297659 3.63636364,12.5297659 C3.34545455,12.6842809 2.90909091,12.6842809 2.61818182,12.838796 C2.32727273,12.993311 2.03636364,13.1478261 1.74545455,13.3023411 C1.30909091,13.9204013 1.16363636,14.2294314 1.01818182,14.5384615 Z" fill="url(#linearGradient-7)"></path>
                        <path d="M7.12727273,13.7658863 C7.12727273,13.6113712 7.12727273,13.6113712 7.12727273,13.4568562 C7.12727273,13.3023411 7.27272727,13.3023411 7.27272727,13.1478261 C7.27272727,12.993311 7.41818182,12.993311 7.56363636,12.838796 L8.43636364,12.838796 C8.58181818,12.993311 8.58181818,12.993311 8.58181818,13.1478261 C8.58181818,13.1478261 8.72727273,13.3023411 8.72727273,13.3023411 C8.72727273,13.4568562 8.72727273,13.4568562 8.72727273,13.4568562 C8.58181818,13.6113712 8.58181818,13.7658863 8.43636364,13.9204013 C8.43636364,14.0749164 8.29090909,14.2294314 8.29090909,14.2294314 C8.29090909,14.3839465 8.29090909,14.5384615 8.43636364,14.6929766 C8.43636364,14.8474916 8.58181818,15.1565217 8.58181818,15.4655518 C8.58181818,15.7745819 8.58181818,15.929097 8.72727273,16.083612 C8.72727273,16.2381271 8.72727273,16.3926421 8.72727273,16.5471572 C8.72727273,16.5471572 8.72727273,16.7016722 8.58181818,16.8561873 C8.58181818,17.0107023 8.43636364,17.0107023 8.43636364,17.1652174 C8.29090909,17.3197324 8.29090909,17.3197324 8.14545455,17.4742475 C8,17.4742475 8,17.6287625 8,17.6287625 C8,17.6287625 7.85454545,17.6287625 7.85454545,17.4742475 C7.70909091,17.4742475 7.70909091,17.3197324 7.56363636,17.3197324 C7.41818182,17.1652174 7.41818182,17.1652174 7.41818182,17.0107023 C7.41818182,16.8561873 7.27272727,16.8561873 7.27272727,16.7016722 C7.27272727,16.5471572 7.27272727,16.5471572 7.27272727,16.2381271 C7.27272727,16.083612 7.41818182,15.7745819 7.41818182,15.6200669 C7.41818182,15.3110368 7.56363636,15.1565217 7.56363636,14.8474916 C7.56363636,14.5384615 7.70909091,14.3839465 7.70909091,14.2294314 C7.70909091,14.2294314 7.56363636,14.0749164 7.56363636,13.9204013 C7.41818182,14.2294314 7.27272727,13.9204013 7.12727273,13.7658863 Z" fill="#C4EBFF"></path>
                    </g>
                </g>
            </g>
        </g>
    </g>
</svg>