<?xml version="1.0" encoding="UTF-8"?>
<svg width="60px" height="59px" viewBox="0 0 60 59" version="1.1" xmlns="http://www.w3.org/2000/svg" xmlns:xlink="http://www.w3.org/1999/xlink">
    <title>UDR</title>
    <defs>
        <linearGradient x1="26.051126%" y1="36.1067771%" x2="50%" y2="76.5706783%" id="linearGradient-1">
            <stop stop-color="#C1D4EB" offset="0%"></stop>
            <stop stop-color="#E5EBFC" stop-opacity="0" offset="100%"></stop>
        </linearGradient>
        <linearGradient x1="0%" y1="28.5417454%" x2="100%" y2="67.7794749%" id="linearGradient-2">
            <stop stop-color="#D2D5EC" offset="0%"></stop>
            <stop stop-color="#E2F0F7" offset="100%"></stop>
        </linearGradient>
        <linearGradient x1="47.665926%" y1="49.7072626%" x2="73.733991%" y2="49.7072626%" id="linearGradient-3">
            <stop stop-color="#107FD6" offset="0%"></stop>
            <stop stop-color="#004CA7" offset="100%"></stop>
        </linearGradient>
        <linearGradient x1="29.2564582%" y1="63.0927616%" x2="71.120115%" y2="36.0519056%" id="linearGradient-4">
            <stop stop-color="#53BAFF" offset="0%"></stop>
            <stop stop-color="#57BFFF" offset="9.842166%"></stop>
            <stop stop-color="#1E82FF" offset="100%"></stop>
        </linearGradient>
        <linearGradient x1="29.2578%" y1="63.0759385%" x2="71.1214569%" y2="36.0350825%" id="linearGradient-5">
            <stop stop-color="#53BAFF" offset="0%"></stop>
            <stop stop-color="#57BFFF" offset="9.842166%"></stop>
            <stop stop-color="#1E82FF" offset="100%"></stop>
        </linearGradient>
        <linearGradient x1="-0.572099099%" y1="50.325%" x2="99.9474685%" y2="50.325%" id="linearGradient-6">
            <stop stop-color="#0979DB" offset="0%"></stop>
            <stop stop-color="#0D7EE0" offset="100%"></stop>
        </linearGradient>
        <linearGradient x1="46.8581231%" y1="49.4802469%" x2="73.1769929%" y2="49.4802469%" id="linearGradient-7">
            <stop stop-color="#107FD6" offset="0%"></stop>
            <stop stop-color="#004CA7" offset="100%"></stop>
        </linearGradient>
        <linearGradient x1="69.0981982%" y1="70.7034283%" x2="30.290991%" y2="29.6006693%" id="linearGradient-8">
            <stop stop-color="#53BAFF" offset="0%"></stop>
            <stop stop-color="#57BFFF" offset="9.842166%"></stop>
            <stop stop-color="#1E82FF" offset="100%"></stop>
        </linearGradient>
    </defs>
    <g id="页面-1" stroke="none" stroke-width="1" fill="none" fill-rule="evenodd">
        <g id="UDR">
            <g id="编组-4备份-6" transform="translate(0.000000, 12.000000)">
                <g id="编组-13" transform="translate(0.000000, 0.870968)">
                    <polygon id="矩形" fill="#A8B4DA" opacity="0.298339844" points="30 13.5860913 60 29.5349811 30 45.483871 0 29.5349811"></polygon>
                    <polygon id="矩形" fill="#FFFFFF" points="30 0 60 15.9488898 30 31.8977796 0 15.9488898"></polygon>
                    <polygon id="矩形" fill="url(#linearGradient-1)" points="30 31.8977796 60 15.9488898 60 20.7101685 30 37.8183253"></polygon>
                    <polygon id="矩形" fill="url(#linearGradient-2)" points="1.80064297e-14 15.9488898 30 31.8977796 30 37.8183253 2.66453526e-14 20.7786569"></polygon>
                </g>
            </g>
            <g id="UDR备份-2" transform="translate(8.000000, 0.000000)" fill-rule="nonzero">
                <g id="编组" transform="translate(1.000000, 0.000000)">
                    <path d="M42.414966,27.2186047 L26.4727891,37.3881932 C26.1802721,37.537746 25.8877551,37.537746 25.5952381,37.3881932 L0.87755102,22.5824687 C0.585034014,22.4329159 0.585034014,22.2833631 0.87755102,22.1338104 L16.9659864,12.5624329 C17.1122449,12.4128801 17.5510204,12.4128801 17.8435374,12.5624329 L42.414966,26.7699463 C42.5612245,26.9194991 42.707483,27.0690519 42.414966,27.2186047 Z" id="路径" fill="url(#linearGradient-3)"></path>
                    <path d="M42.414966,23.031127 L26.4727891,33.2007156 C26.1802721,33.3502683 25.8877551,33.3502683 25.5952381,33.2007156 L0.87755102,18.3949911 C0.585034014,18.2454383 0.585034014,18.0958855 0.87755102,17.9463327 L16.9659864,8.37495528 C17.1122449,8.2254025 17.5510204,8.2254025 17.8435374,8.37495528 L42.414966,22.5824687 C42.5612245,22.7320215 42.707483,22.8815742 42.414966,23.031127 Z" id="路径" fill="url(#linearGradient-4)"></path>
                    <path d="M42.414966,18.9932021 L26.4727891,29.1627907 C26.1802721,29.3123435 25.8877551,29.3123435 25.5952381,29.1627907 L0.87755102,14.3570662 C0.585034014,14.2075134 0.585034014,14.0579606 0.87755102,13.9084079 L16.9659864,4.33703041 C17.1122449,4.18747764 17.5510204,4.18747764 17.8435374,4.33703041 L42.414966,18.5445438 C42.5612245,18.6940966 42.707483,18.8436494 42.414966,18.9932021 Z" id="路径" fill="url(#linearGradient-3)"></path>
                    <g>
                        <path d="M42.414966,14.8057245 L26.4727891,24.9753131 C26.1802721,25.1248658 25.8877551,25.1248658 25.5952381,24.9753131 L0.87755102,10.1695886 C0.585034014,10.0200358 0.585034014,9.87048301 0.87755102,9.72093023 L16.9659864,0.149552773 C17.1122449,-1.06512021e-14 17.5510204,-1.06512021e-14 17.8435374,0.149552773 L42.414966,14.3570662 C42.5612245,14.506619 42.707483,14.6561717 42.414966,14.8057245 Z" id="路径" fill="url(#linearGradient-5)"></path>
                        <path d="M22.8163265,6.13166369 L11.4081633,13.0110912 C11.1156463,13.160644 10.8231293,13.160644 10.5306122,13.0110912 C10.2380952,12.8615385 10.2380952,12.7119857 10.5306122,12.5624329 L21.9387755,5.68300537 C22.085034,5.53345259 22.5238095,5.53345259 22.8163265,5.68300537 C23.1088435,5.83255814 23.1088435,6.13166369 22.8163265,6.13166369 Z M16.0884354,6.580322 L8.33673469,11.216458 C8.04421769,11.3660107 7.75170068,11.3660107 7.45918367,11.216458 C7.16666667,11.0669052 7.16666667,10.9173524 7.45918367,10.7677996 L15.2108844,6.13166369 C15.3571429,5.98211091 15.7959184,5.98211091 16.0884354,6.13166369 C16.3809524,6.28121646 16.3809524,6.43076923 16.0884354,6.580322 Z M24.8639456,7.32808587 L13.6020408,14.3570662 C13.3095238,14.506619 13.0170068,14.506619 12.7244898,14.3570662 C12.4319728,14.2075134 12.4319728,14.0579606 12.7244898,13.9084079 L24.1326531,6.87942755 C24.2789116,6.72987478 24.7176871,6.72987478 25.0102041,6.87942755 C25.0102041,7.02898032 25.0102041,7.17853309 24.8639456,7.32808587 Z M26.7653061,8.52450805 L15.5034014,15.5534884 C15.2108844,15.7030411 14.9183673,15.7030411 14.6258503,15.5534884 C14.3333333,15.4039356 14.3333333,15.2543828 14.6258503,15.1048301 L25.8877551,8.07584973 C26.0340136,7.92629696 26.4727891,7.92629696 26.7653061,8.07584973 C26.9115646,8.07584973 26.9115646,8.37495528 26.7653061,8.52450805 Z M28.6666667,9.57137746 L17.4047619,16.6003578 C17.1122449,16.7499106 16.8197279,16.7499106 16.5272109,16.6003578 C16.2346939,16.450805 16.2346939,16.3012522 16.5272109,16.1516995 L27.7891156,9.12271914 C27.9353741,8.97316637 28.3741497,8.97316637 28.6666667,9.12271914 C28.8129252,9.27227191 28.9591837,9.42182469 28.6666667,9.57137746 Z M30.7142857,10.7677996 L19.452381,17.79678 C19.1598639,17.9463327 18.8673469,17.9463327 18.5748299,17.79678 C18.2823129,17.6472272 18.2823129,17.3481216 18.5748299,17.3481216 L29.8367347,10.3191413 C29.9829932,10.1695886 30.4217687,10.1695886 30.7142857,10.3191413 C30.8605442,10.3191413 30.8605442,10.6182469 30.7142857,10.7677996 Z M32.6156463,11.8146691 L21.3537415,18.9932021 C21.0612245,19.1427549 20.7687075,19.1427549 20.4761905,18.9932021 C20.1836735,18.8436494 20.1836735,18.5445438 20.4761905,18.5445438 L31.7380952,11.5155635 C31.8843537,11.3660107 32.3231293,11.3660107 32.6156463,11.5155635 C32.7619048,11.5155635 32.7619048,11.6651163 32.6156463,11.8146691 Z M34.6632653,13.0110912 L23.4013605,20.1896243 C23.1088435,20.3391771 22.8163265,20.3391771 22.5238095,20.1896243 C22.2312925,20.0400716 22.2312925,19.740966 22.5238095,19.740966 L33.7857143,12.5624329 C33.9319728,12.4128801 34.3707483,12.4128801 34.6632653,12.5624329 C34.8095238,12.7119857 34.8095238,12.8615385 34.6632653,13.0110912 Z M32.9081633,16.450805 L25.1564626,21.3860465 C24.8639456,21.5355993 24.5714286,21.5355993 24.2789116,21.3860465 C23.9863946,21.2364937 23.9863946,20.9373882 24.2789116,20.9373882 L32.0306122,16.0021467 C32.1768707,15.8525939 32.6156463,15.8525939 32.9081633,16.0021467 C33.2006803,16.1516995 33.2006803,16.3012522 32.9081633,16.450805 Z" id="形状" fill="#FFFFFF"></path>
                    </g>
                </g>
                <path d="M16.6936937,28.5384615 C16.8468468,28.0769231 17,27.6153846 17,27.1538462 C17,27 17,26.6923077 17,26.5384615 L17,21.4615385 C17,21.3076923 17,21 17,20.8461538 C17,19.3076923 16.0810811,17.7692308 14.5495495,16.6923077 C13.018018,15.6153846 10.8738739,15 8.57657658,15 C3.82882883,15 0,17.6153846 0,20.8461538 C0,21.1538462 0,21.3076923 0,21.6153846 C0,21.6153846 0,21.6153846 0,21.4615385 L0,26.6923077 C0,26.8461538 0,27 0,27.1538462 C0,30.3846154 3.82882883,33 8.57657658,33 C9.18918919,33 9.8018018,33 10.2612613,32.8461538 C11.9459459,32.5384615 13.4774775,32.0769231 14.5495495,31.3076923 C15.6216216,30.5384615 16.3873874,29.6153846 16.6936937,28.5384615 L16.6936937,28.5384615 L16.6936937,28.5384615 Z" id="路径" stroke="#FFFFFF" stroke-width="0.75" fill="#309EFF" stroke-linejoin="round"></path>
                <path d="M8.57657658,21.1447368 C10.8738739,21.1447368 13.018018,21.7236842 14.5495495,22.7368421 C16.0810811,23.75 17,25.0526316 17,26.5 C17,27.9473684 16.0810811,29.25 14.5495495,30.2631579 C13.018018,31.2763158 10.8738739,31.8552632 8.57657658,31.8552632 C3.98198198,31.8552632 0.153153153,29.3947368 0.153153153,26.5 C0.153153153,23.6052632 3.98198198,21.1447368 8.57657658,21.1447368 L8.57657658,21.1447368 Z M8.57657658,21 C3.82882883,21 0,23.4605263 0,26.5 C0,29.5394737 3.82882883,32 8.57657658,32 C10.8738739,32 13.018018,31.4210526 14.5495495,30.4078947 C16.0810811,29.3947368 17,28.0921053 17,26.5 C17,24.9078947 16.0810811,23.6052632 14.5495495,22.5921053 C13.018018,21.5789474 10.8738739,21 8.57657658,21 L8.57657658,21 Z" id="形状_25_" fill="#309EFF"></path>
                <path d="M14.5495495,22.5921053 C13.018018,21.5789474 10.8738739,21 8.57657658,21 C3.82882883,21 0,23.4605263 0,26.5 C0,29.5394737 3.82882883,32 8.57657658,32 C10.8738739,32 13.018018,31.4210526 14.5495495,30.4078947 C16.0810811,29.3947368 17,28.0921053 17,26.5 C17,24.9078947 16.0810811,23.6052632 14.5495495,22.5921053 Z" id="路径_50_" fill="url(#linearGradient-6)"></path>
                <path d="M16.9838547,21 L16.9838547,27.2222222 C16.9838547,27.2222222 16.9838547,27.3703704 16.9838547,27.3703704 C16.9838547,28.8518519 16.1120081,30.3333333 14.6589304,31.3703704 C13.2058527,32.4074074 11.1715439,33 8.99192735,33 C4.48738648,33 1,30.4814815 1,27.3703704 L1,27.3703704 L1,21.8888889 C1.72653885,25.1481481 4.92330979,26.9259259 8.84661958,26.9259259 C11.4621594,26.9259259 13.0605449,26.4814815 14.5136226,25.4444444 C15.9667003,24.4074074 16.2573158,23.8148148 16.5479314,23.3703704 C17.1291625,22.3333333 16.9838547,21 16.9838547,21 Z" id="路径_49_" fill="url(#linearGradient-7)"></path>
                <path d="M14.5495495,16.5921053 C13.018018,15.5789474 10.8738739,15 8.57657658,15 C3.82882883,15 0,17.4605263 0,20.5 C0,23.5394737 3.82882883,26 8.57657658,26 C10.8738739,26 13.018018,25.4210526 14.5495495,24.4078947 C16.0810811,23.3947368 17,22.0921053 17,20.5 C17,18.9078947 16.0810811,17.6052632 14.5495495,16.5921053 Z" id="路径_48_" fill="url(#linearGradient-8)"></path>
                <path d="M8.57657658,15.1447368 C10.8738739,15.1447368 13.018018,15.7236842 14.5495495,16.7368421 C16.0810811,17.75 17,19.0526316 17,20.5 C17,21.9473684 16.0810811,23.25 14.5495495,24.2631579 C13.018018,25.2763158 10.8738739,25.8552632 8.57657658,25.8552632 C3.98198198,25.8552632 0.153153153,23.3947368 0.153153153,20.5 C0.153153153,17.6052632 3.98198198,15.1447368 8.57657658,15.1447368 L8.57657658,15.1447368 Z M8.57657658,15 C3.82882883,15 0,17.4605263 0,20.5 C0,23.5394737 3.82882883,26 8.57657658,26 C10.8738739,26 13.018018,25.4210526 14.5495495,24.4078947 C16.0810811,23.3947368 17,22.0921053 17,20.5 C17,18.9078947 16.0810811,17.6052632 14.5495495,16.5921053 C13.018018,15.7236842 11.027027,15 8.57657658,15 Z" id="形状_24_" fill="#309EFF"></path>
                <path d="M8.42342342,30 C3.67567568,30 0,27.15 0,24.6 L0,24 C0.153153153,27 3.98198198,29.85 8.42342342,29.85 C10.7207207,29.85 12.7117117,29.25 14.3963964,28.2 C15.9279279,27.15 16.8468468,25.5 17,24 L17,24.45 C17,25.65 16.0810811,27.3 14.5495495,28.35 C12.8648649,29.4 10.7207207,30 8.42342342,30 Z" id="路径" fill="#309EFF"></path>
            </g>
        </g>
    </g>
</svg>