<?xml version="1.0" encoding="UTF-8"?>
<svg width="60px" height="69px" viewBox="0 0 60 69" version="1.1" xmlns="http://www.w3.org/2000/svg" xmlns:xlink="http://www.w3.org/1999/xlink">
    <title>单向放大器</title>
    <defs>
        <linearGradient x1="26.051126%" y1="36.1067771%" x2="50%" y2="76.5706783%" id="linearGradient-1">
            <stop stop-color="#C1D4EB" offset="0%"></stop>
            <stop stop-color="#E5EBFC" stop-opacity="0" offset="100%"></stop>
        </linearGradient>
        <linearGradient x1="0%" y1="28.5417454%" x2="100%" y2="67.7794749%" id="linearGradient-2">
            <stop stop-color="#D2D5EC" offset="0%"></stop>
            <stop stop-color="#E2F0F7" offset="100%"></stop>
        </linearGradient>
        <linearGradient x1="44.7084368%" y1="87.7861467%" x2="56.9908511%" y2="11.9103853%" id="linearGradient-3">
            <stop stop-color="#53BAFF" offset="0%"></stop>
            <stop stop-color="#57BFFF" offset="10%"></stop>
            <stop stop-color="#1E82FF" offset="100%"></stop>
        </linearGradient>
        <linearGradient x1="-40.4498806%" y1="184.742795%" x2="72.1197236%" y2="184.742795%" id="linearGradient-4">
            <stop stop-color="#53BAFF" offset="0%"></stop>
            <stop stop-color="#57BFFF" offset="10%"></stop>
            <stop stop-color="#1E82FF" offset="100%"></stop>
        </linearGradient>
        <linearGradient x1="100.033692%" y1="50.0531118%" x2="0%" y2="50.0531118%" id="linearGradient-5">
            <stop stop-color="#53BAFF" offset="0%"></stop>
            <stop stop-color="#57BFFF" offset="10%"></stop>
            <stop stop-color="#4196FF" offset="96%"></stop>
        </linearGradient>
    </defs>
    <g id="页面-1" stroke="none" stroke-width="1" fill="none" fill-rule="evenodd">
        <g id="单向放大器">
            <g id="编组-4备份-6" transform="translate(0.000000, 22.000000)">
                <g id="编组-13" transform="translate(0.000000, 0.870968)">
                    <polygon id="矩形" fill="#A8B4DA" opacity="0.298339844" points="30 13.5860913 60 29.5349811 30 45.483871 0 29.5349811"></polygon>
                    <polygon id="矩形" fill="#FFFFFF" points="30 0 60 15.9488898 30 31.8977796 0 15.9488898"></polygon>
                    <polygon id="矩形" fill="url(#linearGradient-1)" points="30 31.8977796 60 15.9488898 60 20.7101685 30 37.8183253"></polygon>
                    <polygon id="矩形" fill="url(#linearGradient-2)" points="1.80064297e-14 15.9488898 30 31.8977796 30 37.8183253 2.66453526e-14 20.7786569"></polygon>
                </g>
            </g>
            <g id="单向放大器备份-2" transform="translate(11.000000, 0.000000)">
                <path d="M32.6580493,43.4100456 C33.121142,42.9749275 32.9796414,42.4118334 32.9796414,41.1192766 L32.9796414,15.0981959 C32.9796414,13.4217113 32.9796414,13.4217113 32.8381409,13.1913546 C32.3750482,12.141952 27.1266647,15.7508731 27.1266647,15.7508731 C26.5220715,46.2603331 20.7720043,41.3460577 26.5606626,45.9020005 C27.7183942,46.7850344 32.6580493,43.4100456 32.6580493,43.4100456 Z" id="路径" fill="url(#linearGradient-3)"></path>
                <path d="M32.9992842,13.6552158 C31.0914921,14.6556608 29.2447294,15.7726223 27.4690821,17 C11.67958,9.28329317 2.234305,4.29245377 0.812991385,3.52868415 C0.179860777,3.17313622 0.024808383,4.25294844 0.024808383,4.25294844 C0.024808383,4.25294844 -0.130244011,3.26531532 0.334913171,2.84392518 C0.800070353,2.42253505 4.01740753,0.671132303 4.97356396,0.210236843 C5.13977994,0.0420967457 5.37660768,-0.0317897222 5.60669456,0.0127102181 C5.60669456,0.0127102181 31.6554967,12.4437192 31.9656015,12.6807511 C33.0638893,13.1811519 32.9992842,13.6552158 32.9992842,13.6552158 Z" id="路径" fill="url(#linearGradient-4)"></path>
                <path d="M27.3571414,15.6883269 C12.0935003,8.48460481 2.23083985,3.82337289 0.952346839,3.11712563 C0,2.68053641 0,3.60507828 0,3.60507828 L0,30.0829301 C0,31.919173 0.31310033,32.009059 0.952346839,32.5483751 C1.43504318,32.8565557 21.6300145,43.2191292 26.4047945,45.5946882 C28.152938,46.609116 27.9963879,45.4662796 27.9963879,44.9141226 L27.9963879,17.3319569 C27.9972329,16.7251055 27.7694747,16.1394937 27.3571414,15.6883269 Z" id="路径" fill="url(#linearGradient-5)"></path>
                <path d="M20.9102564,27.1036831 L8.19230769,13.1429386 C8,12.9398733 7.75641026,12.9652564 7.75641026,13.1429386 L7.75641026,20.9863387 L3,18.7653112 L3,20.2375352 L7.75641026,22.4585627 L7.75641026,30.3146544 C7.77287859,30.5504459 7.95544969,30.7418125 8.19230769,30.7715515 L21.1410256,28.7155145 L26,31 L26,29.4770097 L20.9102564,27.1036831 Z M9.66666667,28.6012903 L9.66666667,17.5215358 L18.6410256,27.1671411 L9.66666667,28.6012903 Z" id="形状" fill="#FFFFFF" fill-rule="nonzero"></path>
            </g>
        </g>
    </g>
</svg>