<?xml version="1.0" encoding="UTF-8"?>
<svg width="40px" height="40px" viewBox="0 0 40 40" version="1.1" xmlns="http://www.w3.org/2000/svg" xmlns:xlink="http://www.w3.org/1999/xlink">
    <title>UPF</title>
    <defs>
        <rect id="path-1" x="0" y="0" width="40" height="40"></rect>
    </defs>
    <g id="山东移动" stroke="none" stroke-width="1" fill="none" fill-rule="evenodd">
        <g id="图标合集" transform="translate(-200.000000, -280.000000)">
            <g id="编组-13" transform="translate(200.000000, 280.000000)">
                <mask id="mask-2" fill="white">
                    <use xlink:href="#path-1"></use>
                </mask>
                <g id="蒙版" opacity="0.200000003"></g>
                <rect id="形状结合备份-3" stroke="#455A74" stroke-width="2" fill="#FFFFFF" mask="url(#mask-2)" x="4" y="4" width="32" height="32" rx="16"></rect>
                <path d="M18.3912097,21.6087903 L18.3912097,27.0504489 C18.1152717,27.0747963 17.8109284,27.08697 17.4781797,27.08697 C17.145431,27.08697 16.8410877,27.0747963 16.5651498,27.0504489 L16.5651498,27.0504489 L16.5651498,24.7252659 L13.2904157,28 L12,26.7095843 L15.2747341,23.4348502 L12.91303,23.4348502 L12.91303,23.4348502 L12.91303,21.6087903 L18.3912097,21.6087903 L18.3912097,21.6087903 Z M22.1060558,20.9373774 L25.3807898,24.2121115 L25.3807898,21.8504074 L27.2068497,21.8504074 L27.2068497,27.3285871 L21.72867,27.3285871 L21.72867,25.5025272 L24.0903742,25.5025272 L20.8156401,22.2277931 L22.1060558,20.9373774 Z M17.9426392,12.5861968 L17.9426392,14.4122567 L15.580935,14.4122567 L18.8556691,17.6991645 L17.5652535,18.9895802 L14.2905194,15.7148461 L14.2905194,18.0643765 L12.4644595,18.0643765 L12.4644595,12.5861968 L17.9426392,12.5861968 Z M26.7095843,12 L28,13.3025894 L24.7252659,16.5773235 L27.08697,16.5773235 L27.08697,16.5773235 L27.08697,18.4033834 L21.6087903,18.4033834 L21.6087903,18.4033834 L21.6087903,12.9252037 L21.6087903,12.9252037 L23.4348502,12.9252037 L23.4348502,15.2747341 L26.7095843,12 Z" id="形状结合" fill="#455A74" mask="url(#mask-2)"></path>
            </g>
        </g>
    </g>
</svg>