<?xml version="1.0" encoding="UTF-8"?>
<svg width="60px" height="65px" viewBox="0 0 60 65" version="1.1" xmlns="http://www.w3.org/2000/svg" xmlns:xlink="http://www.w3.org/1999/xlink">
    <title>UPF</title>
    <defs>
        <linearGradient x1="26.051126%" y1="36.1067771%" x2="50%" y2="76.5706783%" id="linearGradient-1">
            <stop stop-color="#C1D4EB" offset="0%"></stop>
            <stop stop-color="#E5EBFC" stop-opacity="0" offset="100%"></stop>
        </linearGradient>
        <linearGradient x1="0%" y1="28.5417454%" x2="100%" y2="67.7794749%" id="linearGradient-2">
            <stop stop-color="#D2D5EC" offset="0%"></stop>
            <stop stop-color="#E2F0F7" offset="100%"></stop>
        </linearGradient>
        <linearGradient x1="-0.089203252%" y1="49.9767857%" x2="100.166382%" y2="49.9767857%" id="linearGradient-3">
            <stop stop-color="#0979DB" offset="0%"></stop>
            <stop stop-color="#0D7EE0" offset="100%"></stop>
        </linearGradient>
        <linearGradient x1="47.665926%" y1="49.7072626%" x2="73.733991%" y2="49.7072626%" id="linearGradient-4">
            <stop stop-color="#107FD6" offset="0%"></stop>
            <stop stop-color="#004CA7" offset="100%"></stop>
        </linearGradient>
        <linearGradient x1="69.4056911%" y1="72.4826529%" x2="30.6890244%" y2="27.7432612%" id="linearGradient-5">
            <stop stop-color="#53BAFF" offset="0%"></stop>
            <stop stop-color="#57BFFF" offset="9.842166%"></stop>
            <stop stop-color="#1E82FF" offset="100%"></stop>
        </linearGradient>
    </defs>
    <g id="页面-1" stroke="none" stroke-width="1" fill="none" fill-rule="evenodd">
        <g id="UPF">
            <g id="编组-4备份-6" transform="translate(0.000000, 18.000000)">
                <g id="编组-13" transform="translate(0.000000, 0.870968)">
                    <polygon id="矩形" fill="#A8B4DA" opacity="0.298339844" points="30 13.5860913 60 29.5349811 30 45.483871 0 29.5349811"></polygon>
                    <polygon id="矩形" fill="#FFFFFF" points="30 0 60 15.9488898 30 31.8977796 0 15.9488898"></polygon>
                    <polygon id="矩形" fill="url(#linearGradient-1)" points="30 31.8977796 60 15.9488898 60 20.7101685 30 37.8183253"></polygon>
                    <polygon id="矩形" fill="url(#linearGradient-2)" points="1.80064297e-14 15.9488898 30 31.8977796 30 37.8183253 2.66453526e-14 20.7786569"></polygon>
                </g>
            </g>
            <g id="UPF备份-2" transform="translate(10.000000, 0.000000)">
                <path d="M34.1463415,19.0178571 C30.5691057,16.6071429 25.5284553,15 20,15 C8.94308943,15 0,21.1071429 0,28.5 C0,35.8928571 8.94308943,42 20,42 C25.5284553,42 30.5691057,40.5535714 34.1463415,37.9821429 C37.7235772,35.5714286 40,32.1964286 40,28.5 C40,24.8035714 37.7235772,21.4285714 34.1463415,19.0178571 Z" id="路径_62_" fill="url(#linearGradient-3)" fill-rule="nonzero"></path>
                <path d="M20,15.3214286 C25.3658537,15.3214286 30.2439024,16.7678571 33.9837398,19.1785714 C37.7235772,21.5892857 39.6747967,24.9642857 39.6747967,28.5 C39.6747967,32.0357143 37.7235772,35.25 33.9837398,37.8214286 C30.2439024,40.2321429 25.203252,41.6785714 20,41.6785714 C9.10569106,41.6785714 0.325203252,35.7321429 0.325203252,28.5 C0.325203252,21.2678571 9.10569106,15.3214286 20,15.3214286 L20,15.3214286 Z M20,15 C8.94308943,15 0,21.1071429 0,28.5 C0,35.8928571 8.94308943,42 20,42 C25.5284553,42 30.5691057,40.5535714 34.1463415,37.9821429 C37.7235772,35.5714286 40,32.1964286 40,28.5 C40,24.8035714 37.7235772,21.4285714 34.1463415,19.0178571 C30.5691057,16.6071429 25.5284553,15 20,15 L20,15 Z" id="形状_31_" fill="#309EFF" fill-rule="nonzero"></path>
                <path d="M34.1463415,8.01785714 C30.5691057,5.60714286 25.5284553,4 20,4 C8.94308943,4 0,10.1071429 0,17.5 C0,24.8928571 8.94308943,31 20,31 C25.5284553,31 30.5691057,29.5535714 34.1463415,26.9821429 C37.7235772,24.5714286 40,21.1964286 40,17.5 C40,13.8035714 37.8861789,10.4285714 34.1463415,8.01785714 Z" id="路径_61_" fill="#329EFE" fill-rule="nonzero" opacity="0.5"></path>
                <path d="M39.9734704,13 L39.9734704,28.0670391 C39.9734704,28.2290503 39.9734704,28.3910615 39.9734704,28.3910615 C39.9734704,32.1173184 37.6985575,35.5195531 34.1236942,37.9497207 C30.548831,40.3798883 25.5115238,42 19.9867352,42 C8.93715802,42 0,35.8435754 0,28.3910615 L0,28.5530726 L0,15.4301676 C1.94992539,23.2067039 9.74962693,27.4189944 19.3367601,27.5810056 C25.8365114,27.7430168 29.7363621,26.4469274 33.4737191,24.0167598 C37.0485823,21.5865922 38.023545,20.1284916 38.6735201,18.9944134 C40.298458,16.0782123 39.9734704,13 39.9734704,13 Z" id="路径_60_" fill="url(#linearGradient-4)" fill-rule="nonzero"></path>
                <path d="M34.1463415,4.01785714 C30.5691057,1.60714286 25.5284553,0 20,0 C8.94308943,0 0,6.10714286 0,13.5 C0,20.8928571 8.94308943,27 20,27 C25.5284553,27 30.5691057,25.5535714 34.1463415,22.9821429 C37.7235772,20.5714286 40,17.1964286 40,13.5 C40,9.80357143 37.8861789,6.42857143 34.1463415,4.01785714 Z" id="路径_59_" fill="url(#linearGradient-5)" fill-rule="nonzero"></path>
                <path d="M20,0.160714286 C25.3658537,0.160714286 30.2439024,1.60714286 33.9837398,4.01785714 C37.7235772,6.58928571 39.6747967,9.80357143 39.6747967,13.3392857 C39.6747967,16.875 37.7235772,20.0892857 33.9837398,22.6607143 C30.2439024,25.2321429 25.203252,26.5178571 20,26.5178571 C9.10569106,26.5178571 0.325203252,20.5714286 0.325203252,13.3392857 C0.325203252,6.10714286 9.10569106,0.160714286 20,0.160714286 L20,0.160714286 Z M20,0 C8.94308943,0 0,6.10714286 0,13.5 C0,20.8928571 8.94308943,27 20,27 C25.5284553,27 30.5691057,25.5535714 34.1463415,22.9821429 C37.7235772,20.5714286 40,17.1964286 40,13.5 C40,9.80357143 37.7235772,6.42857143 34.1463415,4.01785714 C30.5691057,1.44642857 25.5284553,0 20,0 Z" id="形状_30_" fill="#309EFF" fill-rule="nonzero"></path>
                <g id="编组" transform="translate(8.000000, 4.000000)">
                    <ellipse id="椭圆形" stroke="#FFFFFF" stroke-width="0.8" cx="12" cy="9.16363636" rx="11.7" ry="8.50909091"></ellipse>
                    <path d="M10.5375,10.1454545 L5.5,10.1454545 L5.5,11.2909091 L7.6125,11.2909091 L4.525,13.4181818 L5.6625,14.2363636 L8.75,12.1090909 L8.75,13.5818182 L8.9125,13.5818182 C9.075,13.5818182 9.4,13.5818182 9.5625,13.5818182 C9.8875,13.5818182 10.2125,13.5818182 10.375,13.5818182 L10.375,13.5818182 L10.375,10.1454545 L10.5375,10.1454545 Z" id="路径" fill="#FFFFFF" fill-rule="nonzero"></path>
                    <polygon id="路径" fill="#FFFFFF" fill-rule="nonzero" points="14.1125 9.65454545 12.975 10.6363636 15.9 12.7636364 13.7875 12.7636364 13.7875 13.9090909 18.6625 13.9090909 18.6625 10.3090909 17.0375 10.3090909 17.0375 11.7818182"></polygon>
                    <polygon id="路径" fill="#FFFFFF" fill-rule="nonzero" points="10.375 4.25454545 5.3375 4.25454545 5.3375 7.85454545 6.9625 7.85454545 6.9625 6.38181818 10.05 8.50909091 11.1875 7.69090909 8.2625 5.56363636 10.375 5.56363636"></polygon>
                    <polygon id="路径" fill="#FFFFFF" fill-rule="nonzero" points="18.175 3.76363636 15.0875 5.89090909 15.0875 4.41818182 13.4625 4.41818182 13.4625 8.01818182 18.5 8.01818182 18.5 6.87272727 16.3875 6.87272727 19.3125 4.58181818"></polygon>
                </g>
                <path d="M40,22 C40,25.4878049 38.0661157,28.6585366 34.3595041,31.195122 C30.6528926,33.7317073 25.6570248,35 20.5,35 C9.70247934,35 1,29.1341463 1,22" id="路径" stroke="#309EFF" stroke-width="0.25"></path>
            </g>
        </g>
    </g>
</svg>