<?xml version="1.0" encoding="UTF-8"?>
<svg width="60px" height="57px" viewBox="0 0 60 57" version="1.1" xmlns="http://www.w3.org/2000/svg" xmlns:xlink="http://www.w3.org/1999/xlink">
    <title>WDM</title>
    <defs>
        <linearGradient x1="26.051126%" y1="35.7896809%" x2="50%" y2="77.1771222%" id="linearGradient-1">
            <stop stop-color="#C1D4EB" offset="0%"></stop>
            <stop stop-color="#E5EBFC" stop-opacity="0" offset="100%"></stop>
        </linearGradient>
        <linearGradient x1="0%" y1="28.0519865%" x2="100%" y2="68.1852701%" id="linearGradient-2">
            <stop stop-color="#D2D5EC" offset="0%"></stop>
            <stop stop-color="#E2F0F7" offset="100%"></stop>
        </linearGradient>
        <linearGradient x1="37.8589462%" y1="114.053738%" x2="59.712843%" y2="13.6799065%" id="linearGradient-3">
            <stop stop-color="#57BFFF" offset="0%"></stop>
            <stop stop-color="#1E82FF" offset="100%"></stop>
        </linearGradient>
        <linearGradient x1="33.1479936%" y1="51.9018692%" x2="62.7564989%" y2="61.9392523%" id="linearGradient-4">
            <stop stop-color="#107FD6" offset="0%"></stop>
            <stop stop-color="#004CA7" offset="100%"></stop>
        </linearGradient>
        <linearGradient x1="57.3154362%" y1="50.2474295%" x2="37.0201342%" y2="42.2637051%" id="linearGradient-5">
            <stop stop-color="#53BAFF" offset="0%"></stop>
            <stop stop-color="#57BFFF" offset="10%"></stop>
            <stop stop-color="#1E82FF" offset="100%"></stop>
        </linearGradient>
    </defs>
    <g id="页面-1" stroke="none" stroke-width="1" fill="none" fill-rule="evenodd">
        <g id="WDM">
            <g id="编组-20" transform="translate(0.000000, 11.000000)">
                <polygon id="矩形" fill="#A8B4DA" opacity="0.299874442" points="30 13.7402597 60 29.8701299 30 46 0 29.8701299"></polygon>
                <polygon id="矩形" fill="#FFFFFF" points="30 0 60 16.1298701 30 32.2597403 0 16.1298701"></polygon>
                <polygon id="矩形" fill="url(#linearGradient-1)" points="30 32.2597403 60 16.1298701 60 20.9451775 30 38.2474694"></polygon>
                <polygon id="矩形" fill="url(#linearGradient-2)" points="1.80064297e-14 16.1298701 30 32.2597403 30 38.2474694 2.66453526e-14 21.0144431"></polygon>
            </g>
            <g id="WDM备份-2" transform="translate(9.000000, 0.000000)">
                <polygon id="Fill-6" fill="url(#linearGradient-3)" opacity="0.9" points="41 22.4596963 20 34 20 22.5268692 41 11"></polygon>
                <polygon id="Fill-7" fill="url(#linearGradient-4)" points="0 22.4596963 21 34 21 22.5268692 0 11"></polygon>
                <path d="M24.9389671,24.8889245 C24.5633803,25.1689965 24,24.8889245 24,24.3896655 L24,24.2922491 C24.0091577,24.0854783 24.0971955,23.8982357 24.2347418,23.7929902 L25.1173709,23.1110755 C25.4929577,22.8310035 26,23.1110755 26,23.6103345 L26,23.7077509 C25.9943058,23.9158963 25.9053329,24.1051278 25.7652582,24.2070098" id="Fill-10" fill="#FFFFFF" fill-rule="nonzero"></path>
                <path d="M24.9389671,27.8309903 C24.7758941,28.0034155 24.5501575,28.0477868 24.3529973,27.9461698 C24.1558371,27.8445529 24.0198498,27.613748 24,27.3470438 L24,27.2526153 C24.0091577,27.0521862 24.0971955,26.8706864 24.2347418,26.7686688 L25.1173709,26.1076688 C25.4929577,25.8361867 26,26.1076688 26,26.5916152 L26,26.6860438 C25.9961802,26.8885048 25.9066858,27.0730074 25.7652582,27.1699903" id="Fill-10-2" fill="#FFFFFF" fill-rule="nonzero"></path>
                <path d="M29.8826291,22.892018 C29.5164319,23.1642898 29,22.892018 29,22.4066639 L29,22.276447 C29.0038198,22.0733971 29.0933142,21.8883579 29.2347418,21.7910929 L30.1079812,21.1281702 C30.2704515,20.9865331 30.4793438,20.9604344 30.660704,21.0591139 C30.8420642,21.1577933 30.9702955,21.3673235 31,21.6135243 L31,21.7082275 C30.9943058,21.9105759 30.9053329,22.0945372 30.7652582,22.1935816" id="Fill-10-3" fill="#FFFFFF" fill-rule="nonzero"></path>
                <path d="M29.8826291,26.8889245 C29.5164319,27.1689965 29,26.8889245 29,26.3896655 L29,26.2922491 C29.0056942,26.0841037 29.0946671,25.8948722 29.2347418,25.7929902 L30.1079812,25.1110755 C30.4835681,24.8310035 31,25.1110755 31,25.6103345 L31,25.7077509 C30.9961802,25.9166179 30.9066858,26.1069583 30.7652582,26.2070098" id="Fill-10-4" fill="#FFFFFF" fill-rule="nonzero"></path>
                <path d="M33.8920185,19.8695854 C33.7295483,20.0137027 33.520656,20.0402584 33.3392959,19.939851 C33.1579357,19.8394435 33.0297045,19.6262442 33,19.3757321 L33,19.2793705 C33.0070926,19.0771225 33.0961332,18.8943663 33.2347417,18.7975623 L34.1173706,18.123031 C34.2794474,17.9846969 34.485201,17.9614375 34.6636392,18.0612782 C34.8420774,18.1611189 34.9687684,18.3703895 35,18.6168843 L35,18.7012007 C35.0002576,18.9093066 34.9095925,19.1000493 34.7652577,19.195054" id="Fill-10-5" fill="#FFFFFF" fill-rule="nonzero"></path>
                <path d="M33.8920188,23.8837851 C33.5164319,24.1750656 33,23.8837851 33,23.3983176 L33,23.3012241 C33.0038198,23.0930493 33.0933142,22.9033398 33.2347418,22.8036199 L34.1173709,22.1239654 C34.2794478,21.9845806 34.4852015,21.9611446 34.6636397,22.0617436 C34.8420779,22.1623426 34.968769,22.3732026 35,22.6215696 L35,22.7186631 C34.9923823,22.9286441 34.8995664,23.1178272 34.7558685,23.2162673" id="Fill-10-6" fill="#FFFFFF" fill-rule="nonzero"></path>
                <path d="M38.9389669,17.8318043 C38.7758939,18.003399 38.5501573,18.0475566 38.3529972,17.9464291 C38.155837,17.8453016 38.0198498,17.6156084 38,17.3501889 L38,17.2562151 C38.0070926,17.0589789 38.0961332,16.8807515 38.2347417,16.7863464 L39.1173706,16.1285302 C39.2782599,15.986805 39.4865983,15.9603646 39.6669606,16.0587812 C39.847323,16.1571977 39.9735712,16.3662088 40,16.6101456 L40,16.6923727 C40.0002576,16.8953216 39.9095925,17.0813376 39.7652577,17.1739881" id="Fill-10-7" fill="#FFFFFF" fill-rule="nonzero"></path>
                <path d="M38.9389671,22.884296 C38.5633803,23.1742959 38,22.884296 38,22.4009628 L38,22.3042962 C38.0074708,22.0984458 38.0959595,21.9116928 38.2347418,21.8088797 L39.1173709,21.1322133 C39.2782602,20.9864269 39.4865987,20.9592288 39.6669611,21.0604656 C39.8473235,21.1617023 39.9735718,21.3767028 40,21.6276298 L40,21.7242964 C39.9943058,21.9308399 39.9053329,22.1186151 39.7652582,22.2197129" id="Fill-10-8" fill="#FFFFFF" fill-rule="nonzero"></path>
                <polygon id="Fill-14" fill="url(#linearGradient-5)" points="20.5 23 41 11.5066977 20.5 0 0 11.5066977"></polygon>
                <line x1="20" y1="23" x2="41" y2="12" id="路径-7" stroke="#FFFFFF" stroke-width="0.5"></line>
                <line x1="20" y1="23" x2="1" y2="12" id="路径-7-2" stroke="#FFFFFF" stroke-width="0.5"></line>
                <line x1="21.5" y1="22" x2="21.5" y2="34" id="路径-7-3" stroke="#FFFFFF" stroke-width="0.5"></line>
                <path d="M8.51391126,9.12246068 L24.8618451,17.7780655 C25.084077,17.8301293 25.028519,18.0123526 24.7646186,17.9993366 L20.7366655,17.9342569 C20.6499122,17.953621 20.5595184,17.953621 20.4727651,17.9342569 L8.55557974,11.5824747 C8.48828722,11.5572542 8.43708185,11.5044708 8.4166848,11.4392993 L8,9.12246068 C8,8.97928526 8.29167936,8.94023742 8.51391126,9.12246068 Z M29.3911411,13.0010167 C29.6149271,12.9917438 29.8337977,13.0462522 29.9903106,13.1502359 C30.0032298,13.1761043 30.0032298,13.2039512 29.9903106,13.2298195 L29.9903106,13.2298195 L29.8981307,14.5429491 C29.8827674,14.6324806 29.6830442,14.6822204 29.4986844,14.6523766 C29.4162759,14.6431138 29.3377753,14.6227818 29.2682346,14.5926888 L29.2682346,14.5926888 L28.4539786,14.2942503 L24.490242,15.985402 C24.4324646,16.004866 24.3636596,16.004866 24.3058822,15.985402 L24.3058822,15.985402 L23,15.5079003 L23,15.5079003 L23,15.4382647 L26.9176466,13.7769568 L26.0880273,13.3989347 C25.8729408,13.3193511 25.8268509,13.2099236 25.9651208,13.1502359 C26.0252659,13.1386248 26.0893354,13.1386248 26.1494806,13.1502359 L26.1494806,13.1502359 Z M18.2327275,3 L22.1603344,3.21364985 C22.2417145,3.1958457 22.3261464,3.1958457 22.4075264,3.21364985 L22.4075264,3.21364985 L33.3938395,9.47626113 C33.4565037,9.50730308 33.5053426,9.55954016 33.5311684,9.6231454 L33.5311684,9.6231454 L33.9980867,11.7863501 C34.0255525,11.9332344 33.7508947,11.9732938 33.5861,12 L33.5861,12 L18.1365972,3.28041543 C17.916871,3.16023739 17.9718026,3 18.2327275,3 L18.2327275,3 Z M24.4071775,9.00170272 C24.626379,8.98922038 24.8419129,9.04585743 24.9923764,9.15547867 C25.0025412,9.18237557 25.0025412,9.21059562 24.9923764,9.23749251 L24.9923764,9.23749251 L24.8573305,10.5907209 C24.8423254,10.6829865 24.632254,10.7342451 24.4071775,10.662483 L24.4071775,10.662483 L24.1670959,10.6009726 L23.3718257,10.283169 L19.4704998,11.9849562 C19.4140695,12.0050146 19.3468688,12.0050146 19.2904386,11.9849562 L19.2904386,11.9849562 L18,11.4826214 L18,11.4826214 L18,11.4108593 L21.916331,9.70907211 L21.1060556,9.39126847 C20.8959842,9.31950636 20.8509689,9.19648559 20.9860148,9.13497521 C21.0501365,9.12451964 21.1169595,9.12451964 21.1810811,9.13497521 L21.1810811,9.13497521 Z M20.4060745,7.00176802 C20.624609,6.98863268 20.8390746,7.04923844 20.9845011,7.16522538 C21.0051663,7.19051232 21.0051663,7.22166712 20.9845011,7.24695406 L20.9845011,7.24695406 L20.8398945,8.58526124 C20.8254338,8.68742209 20.6229845,8.72828644 20.3048499,8.68742209 C20.2234695,8.67614341 20.1452906,8.65543165 20.0734792,8.62612558 L20.0734792,8.62612558 L19.2926033,8.30942694 L15.4460665,9.98486493 C15.3866588,10.005045 15.3174855,10.005045 15.2580778,9.98486493 L15.2580778,9.98486493 L14,9.47406066 L14,9.47406066 L14,9.40254807 L17.9477615,7.68624573 L17.1524249,7.36954709 C16.9644363,7.28781841 16.9065936,7.17544147 17.0512003,7.11414496 C17.1134439,7.106903 17.1769453,7.106903 17.2391889,7.11414496 L17.2391889,7.11414496 Z" id="形状结合" fill="#FFFFFF" fill-rule="nonzero"></path>
            </g>
        </g>
    </g>
</svg>