<?xml version="1.0" encoding="UTF-8"?>
<svg width="60px" height="66px" viewBox="0 0 60 66" version="1.1" xmlns="http://www.w3.org/2000/svg" xmlns:xlink="http://www.w3.org/1999/xlink">
    <title>摄像头</title>
    <defs>
        <linearGradient x1="26.051126%" y1="36.1067771%" x2="50%" y2="76.5706783%" id="linearGradient-1">
            <stop stop-color="#C1D4EB" offset="0%"></stop>
            <stop stop-color="#E5EBFC" stop-opacity="0" offset="100%"></stop>
        </linearGradient>
        <linearGradient x1="0%" y1="28.5417454%" x2="100%" y2="67.7794749%" id="linearGradient-2">
            <stop stop-color="#D2D5EC" offset="0%"></stop>
            <stop stop-color="#E2F0F7" offset="100%"></stop>
        </linearGradient>
        <linearGradient x1="50%" y1="14.952284%" x2="50%" y2="82.107085%" id="linearGradient-3">
            <stop stop-color="#1F7FA9" offset="0%"></stop>
            <stop stop-color="#2292C2" offset="100%"></stop>
        </linearGradient>
        <linearGradient x1="50%" y1="14.952284%" x2="50%" y2="82.107085%" id="linearGradient-4">
            <stop stop-color="#1F7FA9" offset="0%"></stop>
            <stop stop-color="#2292C2" offset="100%"></stop>
        </linearGradient>
        <linearGradient x1="50%" y1="14.952284%" x2="50%" y2="82.107085%" id="linearGradient-5">
            <stop stop-color="#1F7FA9" offset="0%"></stop>
            <stop stop-color="#2292C2" offset="100%"></stop>
        </linearGradient>
        <linearGradient x1="50%" y1="14.952284%" x2="50%" y2="82.107085%" id="linearGradient-6">
            <stop stop-color="#1F7FA9" offset="0%"></stop>
            <stop stop-color="#2292C2" offset="100%"></stop>
        </linearGradient>
        <linearGradient x1="38.1118609%" y1="34.559043%" x2="50%" y2="69.0637647%" id="linearGradient-7">
            <stop stop-color="#56C2F1" offset="0%"></stop>
            <stop stop-color="#46B8EA" offset="100%"></stop>
        </linearGradient>
        <linearGradient x1="50%" y1="14.952284%" x2="50%" y2="82.107085%" id="linearGradient-8">
            <stop stop-color="#1F7FA9" offset="0%"></stop>
            <stop stop-color="#2292C2" offset="100%"></stop>
        </linearGradient>
        <linearGradient x1="50%" y1="14.952284%" x2="50%" y2="82.107085%" id="linearGradient-9">
            <stop stop-color="#1F7FA9" offset="0%"></stop>
            <stop stop-color="#2292C2" offset="100%"></stop>
        </linearGradient>
        <linearGradient x1="50%" y1="14.952284%" x2="50%" y2="82.107085%" id="linearGradient-10">
            <stop stop-color="#1F7FA9" offset="0%"></stop>
            <stop stop-color="#2292C2" offset="100%"></stop>
        </linearGradient>
    </defs>
    <g id="页面-1" stroke="none" stroke-width="1" fill="none" fill-rule="evenodd">
        <g id="摄像头">
            <g id="编组-4备份-6" transform="translate(0.000000, 19.000000)">
                <g id="编组-13" transform="translate(0.000000, 0.870968)">
                    <polygon id="矩形" fill="#A8B4DA" opacity="0.298339844" points="30 13.5860913 60 29.5349811 30 45.483871 0 29.5349811"></polygon>
                    <polygon id="矩形" fill="#FFFFFF" points="30 0 60 15.9488898 30 31.8977796 0 15.9488898"></polygon>
                    <polygon id="矩形" fill="url(#linearGradient-1)" points="30 31.8977796 60 15.9488898 60 20.7101685 30 37.8183253"></polygon>
                    <polygon id="矩形" fill="url(#linearGradient-2)" points="1.80064297e-14 15.9488898 30 31.8977796 30 37.8183253 2.66453526e-14 20.7786569"></polygon>
                </g>
            </g>
            <g id="编组" transform="translate(13.000000, 0.000000)">
                <path d="M18.4509804,21.5217391 C17.9803922,22.7391304 17.1960784,23.4347826 16.254902,23.6086957 C15.7843137,23.6086957 15.3137255,23.6086957 15,23.4347826 L15.1568627,25 L23,23.6086957 L22.8431373,22.5652174 L18.6078431,21 C18.6078431,21.173913 18.6078431,21.3478261 18.4509804,21.5217391 L18.4509804,21.5217391 Z" id="路径" fill="url(#linearGradient-3)"></path>
                <path d="M17.84375,22.1568348 C17.84375,21.9770985 18,21.7973623 18,21.7973623 C16.28125,21.0784174 14.40625,20.5392087 13,20 C13.46875,22.5163072 14.875,24.3136696 16.28125,23.9541971 C16.75,23.7744609 17.375,23.2352522 17.84375,22.1568348 Z" id="路径" fill="url(#linearGradient-4)"></path>
                <path d="M6.79470199,15.4782609 C6.62913907,14.7826087 6.62913907,14.2608696 6.62913907,13.9130435 C5.47019868,13.5652174 1.82781457,12.173913 1,12 L1.16556291,13.5652174 L1.16556291,13.5652174 C1.16556291,13.5652174 1.16556291,13.5652174 1.16556291,13.5652174 C1.16556291,13.7391304 1.33112583,14.2608696 1.66225166,14.4347826 C1.99337748,14.6086957 6.13245033,16 6.9602649,16.3478261 C6.9602649,16.173913 6.9602649,16 6.9602649,16 L6.9602649,16 L6.79470199,15.4782609 Z M25.1721854,20.173913 L25.1721854,20.173913 C24.6754967,20 14.0794702,16.5217391 7.12582781,14.2608696 L7.29139073,15.4782609 L7.29139073,16 C7.62251656,17.9130435 8.1192053,18.0869565 8.61589404,18.0869565 C9.11258278,18.2608696 23.6821192,23.1304348 26,24 C26,24 26,23.826087 26,23.826087 L25.5033113,20.3478261 C25.5033113,20.173913 25.3377483,20.173913 25.1721854,20.173913 Z" id="形状" fill="url(#linearGradient-5)"></path>
                <path d="M29.594306,10.4282283 C29.7508897,10.2801935 30.8469751,8.3557413 33.3523132,8.20770651 C35.0747331,8.05967173 43.024911,8.46753258 46,8.17146301 C45.5302491,8.02342822 45.2170819,8.02342822 45.2170819,8.02342822 L38.6761566,5.83914992 L37.2669039,5.54308035 L34.4483986,4.80290642 C32.8825623,4.35880206 31.1601423,3.9146977 29.594306,3.61862812 L26.6192171,2.87845419 C25.2099644,2.58238461 23.6441281,2.13828025 22.2348754,1.84221068 C21.6085409,1.69417589 19.2597865,1.10203675 18.633452,0.95400196 C17.3807829,0.657932386 15.9715302,0.213828025 14.5622776,0.0657932386 C14.2491103,0.0657932386 12.5266904,-0.0822415482 12.2135231,0.0657932386 L8.29893238,0.213828025 C6.57651246,0.361862812 4.85409253,0.509897599 3.1316726,0.657932386 C1.40925267,0.805967173 0.62633452,0.95400196 0.46975089,1.84221068 C0.31316726,2.28631504 0.15658363,8.28325429 0,9.31949779 C0,9.61556737 0,9.76360215 0,9.91163694 C0.15658363,10.5037761 0.46975089,10.6518109 0.939501779,10.6518109 L1.09608541,10.6518109 C1.25266904,10.6518109 23.4270463,17.4614111 23.8967972,17.6094459 L24.0533808,17.6094459 C24.5231317,18.0535502 24.8362989,18.201585 25.1494662,17.6094459 C25.7758007,16.7212371 29.4377224,10.7242979 29.594306,10.4282283 Z" id="路径" fill="url(#linearGradient-6)"></path>
                <path d="M46,9.31111111 C46,9.46666667 45.8461538,9.62222222 45.6923077,10.0888889 L45.5384615,10.4 C45.2307692,10.8666667 44.1538462,12.7333333 43.0769231,14.2888889 C42.3076923,15.3777778 41.6923077,16.4666667 41.6923077,16.6222222 C41.5384615,16.9333333 41.0769231,16.9333333 40.7692308,16.7777778 C40.7692308,16.7777778 40.6153846,16.7777778 40.4615385,16.6222222 C40.7692308,15.8444444 40.9230769,15.2222222 40.9230769,15.0666667 C40.9230769,14.9111111 40.6153846,11.4888889 40.4615385,9.62222222 C42.9230769,9.31111111 45.3846154,9.15555556 45.8461538,9 C45.8461538,9.15555556 45.8461538,9.15555556 46,9.31111111 C46,9.31111111 46,9.31111111 46,9.31111111 Z M39.6923077,9.77777778 C37.2307692,10.0888889 34.7692308,10.2444444 33.6923077,10.4 C31.5384615,10.5555556 30.4615385,12.4222222 30.4615385,12.4222222 L30.4615385,12.4222222 C30.4615385,12.4222222 27.2307692,17.7111111 26.6153846,18.6444444 L26.6153846,18.6444444 L26.6153846,18.6444444 C26.3076923,18.9555556 26.1538462,19.1111111 26,19.2666667 C26.1538462,20.5111111 26.4615385,22.3777778 26.4615385,22.3777778 L26.4615385,22.3777778 C26.4615385,22.8444444 26.7692308,23 27.5384615,23 C28,23 36,21.9111111 36.6153846,21.9111111 C37.0769231,21.7555556 37.5384615,21.7555556 37.8461538,21.1333333 C38.3076923,20.5111111 40.1538462,15.3777778 40.3076923,15.0666667 C40.1538462,14.7555556 39.8461538,12.1111111 39.6923077,9.77777778 Z" id="形状" fill="url(#linearGradient-7)"></path>
                <path d="M36.9132134,13.8333333 C36.7681039,14.3888889 36.4778848,16.8888889 36.4778848,16.8888889 C36.4778848,16.8888889 36.4778848,17.3055556 36.1876658,17.4444444 C36.0425562,17.5833333 35.6072277,17.5833333 35.6072277,17.5833333 L34.3012419,17.7222222 C33.5756942,17.8611111 31.8343798,18 31.6892703,18 C31.5441607,18 31.2539417,18 31.1088321,17.8611111 C30.9637226,17.7222222 30.9637226,17.4444444 31.1088321,17.1666667 C31.1088321,16.8888889 31.2539417,16.6111111 31.2539417,16.3333333 C31.3990512,15.7777778 31.3990512,15.0833333 31.5441607,14.5277778 C31.5441607,14.25 31.5441607,13.9722222 31.8343798,13.6944444 C32.1245989,13.4166667 32.4148179,13.4166667 32.8501465,13.4166667 C33.1403656,13.4166667 33.5756942,13.2777778 33.8659133,13.2777778 C34.5914609,13.1388889 35.3170086,13.1388889 36.0425562,13 C36.1876658,13 36.4778848,13 36.6229944,13 C37.058323,13 37.058323,13.4166667 36.9132134,13.8333333 L36.9132134,13.8333333 Z" id="路径" fill="#FFFFFF" fill-rule="nonzero"></path>
                <g transform="translate(3.000000, 25.000000)" id="路径">
                    <path d="M9.97443609,4.05 C9.97443609,4.05 9.08120301,2.4 9.08120301,2.1 C8.93233083,1.65 8.78345865,1.8 8.63458647,1.8 L8.63458647,1.8 L2.53082707,2.7 C2.53082707,2.7 3.72180451,6 4.16842105,7.2 C4.31729323,6.9 9.97443609,4.05 9.97443609,4.05 Z" fill="url(#linearGradient-8)"></path>
                    <path d="M18.0135338,0.35 L18.162406,2.7 C18.162406,2.7 5.06165414,10.5 4.76390977,10.65 C4.76390977,11.55 4.46616541,14.4 4.46616541,14.4 L10.4210526,13.5 C10.4210526,13.5 10.8676692,13.5 11.0165414,13.05 C11.1654135,11.4 11.1654135,9.9 11.1654135,9.9 C11.1654135,9.75 11.3142857,9.45 11.4631579,9.3 C11.6120301,9.15 20.8421053,2.7 20.8421053,2.7 L20.5443609,0.05 L18.0135338,0.35 Z" fill="url(#linearGradient-9)"></path>
                    <path d="M17.2691729,0.5 L13.2496241,1.1 L13.3984962,3 L3.42406015,8.25 L3.27518797,7.95 C2.67969925,6 1.63759398,3 1.4887218,2.7 L0.595488722,2.85 L2.38195489,14.85 L3.57293233,14.7 C3.57293233,13.95 3.87067669,10.8 3.87067669,10.8 L3.87067669,10.65 C3.87067669,10.65 17.2691729,2.7 17.5669173,2.55 L17.2691729,0.5 Z" fill="url(#linearGradient-10)"></path>
                </g>
            </g>
        </g>
    </g>
</svg>