<?xml version="1.0" standalone="no"?><!DOCTYPE svg PUBLIC "-//W3C//DTD SVG 1.1//EN" "http://www.w3.org/Graphics/SVG/1.1/DTD/svg11.dtd"><svg t="1677084674520" class="icon" viewBox="0 0 1024 1024" version="1.1" xmlns="http://www.w3.org/2000/svg" p-id="2735" xmlns:xlink="http://www.w3.org/1999/xlink" width="200" height="200"><path d="M896 864a16 16 0 0 1 16 16v64A16 16 0 0 1 896 960H128a16 16 0 0 1-16-16v-64A16 16 0 0 1 128 864h768zM512 64a179.968 179.968 0 0 1 48.064 353.536l-0.064 46.464h240a112 112 0 0 1 111.616 102.784L912 576v208a16 16 0 0 1-16 16H128a16 16 0 0 1-16-16V576c0-61.824 50.176-112 112-112h240v-46.464A180.096 180.096 0 0 1 512 64z m288.32 496H224a16 16 0 0 0-16 16v128h608V576a16 16 0 0 0-15.68-16zM512 160a84.032 84.032 0 1 0 0 168A84.032 84.032 0 0 0 512 160z" fill="#6954f0" p-id="2736"></path></svg>