<?xml version="1.0" standalone="no"?><!DOCTYPE svg PUBLIC "-//W3C//DTD SVG 1.1//EN" "http://www.w3.org/Graphics/SVG/1.1/DTD/svg11.dtd"><svg t="1677084806916" class="icon" viewBox="0 0 1024 1024" version="1.1" xmlns="http://www.w3.org/2000/svg" p-id="3535" xmlns:xlink="http://www.w3.org/1999/xlink" width="200" height="200"><path d="M724.672 708.032c102.144 0 185.6 80.448 187.328 180.928v3.008h-96c0-47.808-39.808-87.168-89.856-87.936H299.328c-50.176 0-90.496 38.848-91.328 86.528v1.472h-96c0-100.928 82.432-182.4 184.32-184h428.352zM512 80a288 288 0 1 1 0 576 288 288 0 0 1 0-576z m0 96a192 192 0 1 0 0 384 192 192 0 0 0 0-384z" fill="#6954f0" p-id="3536"></path></svg>