<?xml version="1.0" standalone="no"?><!DOCTYPE svg PUBLIC "-//W3C//DTD SVG 1.1//EN" "http://www.w3.org/Graphics/SVG/1.1/DTD/svg11.dtd"><svg t="1677084747177" class="icon" viewBox="0 0 1024 1024" version="1.1" xmlns="http://www.w3.org/2000/svg" p-id="3119" xmlns:xlink="http://www.w3.org/1999/xlink" width="200" height="200"><path d="M512 32a480 480 0 1 1 0 960 480 480 0 0 1 0-960zM512 128a384 384 0 1 0 0 768A384 384 0 0 0 512 128zM428.16 320.704a32 32 0 0 1 18.048 5.504l234.368 159.36a32 32 0 0 1 0 52.928l-234.368 159.296a32 32 0 0 1-49.984-26.496V352.704a32 32 0 0 1 32-32z" fill="#6954f0" p-id="3120"></path></svg>