<?xml version="1.0" standalone="no"?><!DOCTYPE svg PUBLIC "-//W3C//DTD SVG 1.1//EN" "http://www.w3.org/Graphics/SVG/1.1/DTD/svg11.dtd"><svg t="1677256009471" class="icon" viewBox="0 0 1024 1024" version="1.1" xmlns="http://www.w3.org/2000/svg" p-id="2871" xmlns:xlink="http://www.w3.org/1999/xlink" width="200" height="200"><path d="M896 85.333333H128a128 128 0 0 0-128 128v426.666667a128 128 0 0 0 128 128h341.333333v85.333333h-42.666666a42.666667 42.666667 0 0 0 0 85.333334h170.666666a42.666667 42.666667 0 0 0 0-85.333334h-42.666666v-85.333333h341.333333a128 128 0 0 0 128-128V213.333333a128 128 0 0 0-128-128z m42.666667 554.666667a42.666667 42.666667 0 0 1-42.666667 42.666667H128a42.666667 42.666667 0 0 1-42.666667-42.666667V213.333333a42.666667 42.666667 0 0 1 42.666667-42.666666h768a42.666667 42.666667 0 0 1 42.666667 42.666666z" p-id="2872"></path></svg>