<?xml version="1.0" standalone="no"?><!DOCTYPE svg PUBLIC "-//W3C//DTD SVG 1.1//EN" "http://www.w3.org/Graphics/SVG/1.1/DTD/svg11.dtd"><svg t="1677256019493" class="icon" viewBox="0 0 1024 1024" version="1.1" xmlns="http://www.w3.org/2000/svg" p-id="3023" xmlns:xlink="http://www.w3.org/1999/xlink" width="200" height="200"><path d="M853.333333 1024H170.666667a128 128 0 0 1-128-128V128a128 128 0 0 1 128-128h682.666666a128 128 0 0 1 128 128v768a128 128 0 0 1-128 128zM170.666667 85.333333a42.666667 42.666667 0 0 0-42.666667 42.666667v768a42.666667 42.666667 0 0 0 42.666667 42.666667h682.666666a42.666667 42.666667 0 0 0 42.666667-42.666667V128a42.666667 42.666667 0 0 0-42.666667-42.666667z" p-id="3024"></path><path d="M554.666667 213.333333h-85.333334a42.666667 42.666667 0 0 1 0-85.333333h85.333334a42.666667 42.666667 0 0 1 0 85.333333z" p-id="3025"></path><path d="M512 853.333333m-42.666667 0a42.666667 42.666667 0 1 0 85.333334 0 42.666667 42.666667 0 1 0-85.333334 0Z" p-id="3026"></path></svg>