<?xml version="1.0" encoding="UTF-8"?>
<svg width="16px" height="16px" viewBox="0 0 16 16" version="1.1" xmlns="http://www.w3.org/2000/svg" xmlns:xlink="http://www.w3.org/1999/xlink">
    <title>新增</title>
    <g id="山东移动" stroke="none" stroke-width="1" fill="none" fill-rule="evenodd">
        <g id="4_拓扑图制作" transform="translate(-587.000000, -112.000000)">
            <g id="编组-2" transform="translate(24.000000, 100.000000)">
                <g id="编组-4备份-9" transform="translate(563.000000, 12.000000)">
                    <rect id="矩形" opacity="0.400000006" x="0" y="0" width="16" height="16"></rect>
                    <path d="M8,1 C8.55228475,1 9,1.44771525 9,2 L9,7 L14,7 C14.5522847,7 15,7.44771525 15,8 C15,8.55228475 14.5522847,9 14,9 L9,9 L9,14 C9,14.5522847 8.55228475,15 8,15 C7.44771525,15 7,14.5522847 7,14 L7,9 L2,9 C1.44771525,9 1,8.55228475 1,8 C1,7.44771525 1.44771525,7 2,7 L7,7 L7,2 C7,1.44771525 7.44771525,1 8,1 Z" id="形状结合" fill="#455A74"></path>
                </g>
            </g>
        </g>
    </g>
</svg>