<?xml version="1.0" encoding="UTF-8"?>
<svg width="16px" height="16px" viewBox="0 0 16 16" version="1.1" xmlns="http://www.w3.org/2000/svg" xmlns:xlink="http://www.w3.org/1999/xlink">
    <title>删除</title>
    <g id="山东移动" stroke="none" stroke-width="1" fill="none" fill-rule="evenodd">
        <g id="4_拓扑图制作" transform="translate(-279.000000, -112.000000)">
            <g id="编组-2" transform="translate(24.000000, 100.000000)">
                <g id="编组-4备份-2" transform="translate(255.000000, 12.000000)">
                    <rect id="矩形" opacity="0.400000006" x="0" y="0" width="16" height="16"></rect>
                    <path d="M12.8059889,6.00001977 L11.3195396,15 L4.68046042,15 L3.18268972,6.01337578 L12.8059889,6.00001977 Z" id="矩形" stroke="#455A74" stroke-width="2"></path>
                    <path d="M9,0 C9.55228475,-1.01453063e-16 10,0.44771525 10,1 L13,1 C13.5522847,1 14,1.44771525 14,2 C14,2.55228475 13.5522847,3 13,3 L3,3 C2.44771525,3 2,2.55228475 2,2 C2,1.44771525 2.44771525,1 3,1 L6,1 L6,1 C6,0.44771525 6.44771525,1.01453063e-16 7,0 L9,0 Z" id="形状结合" fill="#455A74"></path>
                </g>
            </g>
        </g>
    </g>
</svg>