<?xml version="1.0" encoding="UTF-8"?>
<svg width="16px" height="16px" viewBox="0 0 16 16" version="1.1" xmlns="http://www.w3.org/2000/svg" xmlns:xlink="http://www.w3.org/1999/xlink">
    <title>编辑</title>
    <g id="山东移动" stroke="none" stroke-width="1" fill="none" fill-rule="evenodd">
        <g id="4_拓扑图制作备份" transform="translate(-502.000000, -112.000000)">
            <g id="编组-2" transform="translate(24.000000, 100.000000)">
                <g id="编组-20" transform="translate(77.000000, 7.000000)">
                    <g id="编组-4备份-6" transform="translate(401.000000, 5.000000)">
                        <rect id="矩形" opacity="0.400000006" x="0" y="0" width="16" height="16"></rect>
                        <path d="M15,13 L15,15 L1,15 L1,13 L15,13 Z M11.2426407,0.843145751 L12.6568542,2.25735931 C12.8521164,2.45262146 12.8521164,2.76920395 12.6568542,2.96446609 L4.52512627,11.0961941 L2.71236439,11.3570373 C2.43903715,11.3963671 2.18557855,11.2066747 2.14624876,10.9333474 C2.1395008,10.8864516 2.13945252,10.8388348 2.14610537,10.7919254 L2.40380592,8.97487373 L10.5355339,0.843145751 C10.7307961,0.647883605 11.0473785,0.647883605 11.2426407,0.843145751 Z" id="形状结合" fill="#455A74"></path>
                    </g>
                </g>
            </g>
        </g>
    </g>
</svg>