<?xml version="1.0" encoding="utf-8"?>
<svg data-v-fde0c5aa="" viewBox="0 100 300 100" class="font" xmlns="http://www.w3.org/2000/svg">
  <defs data-v-fde0c5aa="">
    <linearGradient data-v-fde0c5aa="" gradientTransform="rotate(25)" id="2f823e4e-5e58-4d78-808c-057cf862dd67" x1="0%" y1="0%" x2="100%" y2="0%">
      <stop data-v-fde0c5aa="" offset="0" stop-color="#422F75" stop-opacity="1"/>
      <stop data-v-fde0c5aa="" offset="1" stop-color="#C0B3EC" stop-opacity="1"/>
    </linearGradient>
  </defs>
  <g data-v-fde0c5aa="" id="c33b0ddb-363d-4502-8e91-b08e4f26753e" fill="url(#2f823e4e-5e58-4d78-808c-057cf862dd67)" transform="matrix(2.1307506053268765,0,0,2.1307506053268765,39.06246973873628,126.68958825580145)">
    <path d="M12.91 16.19L11.59 13.78L3.28 13.78L1.97 16.19L0.44 16.19L6.56 5.69L8.31 5.69L14.44 16.19L12.91 16.19ZM3.94 12.69L10.94 12.69L7.44 6.56L3.94 12.69ZM16.19 16.19L16.19 5.69L17.50 5.69L17.50 16.19L16.19 16.19ZM29.75 16.19L20.13 16.19L20.13 5.69L21.44 5.69L21.44 15.09L29.75 15.09L29.75 16.19ZM31.50 16.19L31.50 5.69L32.81 5.69L32.81 16.19L31.50 16.19ZM47.68 8.97L46.37 8.97L46.37 8.97Q46.37 8.15 46.19 7.67L46.19 7.67L46.19 7.67Q46.01 7.19 45.60 6.95L45.60 6.95L45.60 6.95Q45.19 6.70 44.53 6.63L44.53 6.63L44.53 6.63Q43.86 6.56 42.88 6.56L42.88 6.56L39.81 6.56L39.81 6.56Q38.93 6.56 38.33 6.61L38.33 6.61L38.33 6.61Q37.73 6.67 37.34 6.82L37.34 6.82L37.34 6.82Q36.96 6.98 36.74 7.27L36.74 7.27L36.74 7.27Q36.53 7.57 36.44 8.05L36.44 8.05L36.44 8.05Q36.34 8.54 36.33 9.25L36.33 9.25L36.33 9.25Q36.31 9.95 36.31 10.94L36.31 10.94L36.31 10.94Q36.31 11.92 36.33 12.63L36.33 12.63L36.33 12.63Q36.35 13.34 36.44 13.82L36.44 13.82L36.44 13.82Q36.54 14.31 36.75 14.60L36.75 14.60L36.75 14.60Q36.96 14.90 37.34 15.05L37.34 15.05L37.34 15.05Q37.73 15.21 38.33 15.26L38.33 15.26L38.33 15.26Q38.93 15.31 39.81 15.31L39.81 15.31L42.88 15.31L42.88 15.31Q43.64 15.31 44.19 15.27L44.19 15.27L44.19 15.27Q44.75 15.23 45.14 15.12L45.14 15.12L45.14 15.12Q45.53 15.01 45.77 14.82L45.77 14.82L45.77 14.82Q46.01 14.63 46.14 14.34L46.14 14.34L46.14 14.34Q46.27 14.05 46.32 13.64L46.32 13.64L46.32 13.64Q46.37 13.23 46.37 12.69L46.37 12.69L47.68 12.69L47.68 12.69Q47.68 13.34 47.60 13.87L47.60 13.87L47.60 13.87Q47.52 14.40 47.31 14.82L47.31 14.82L47.31 14.82Q47.10 15.23 46.75 15.53L46.75 15.53L46.75 15.53Q46.40 15.83 45.87 16.03L45.87 16.03L45.87 16.03Q45.34 16.22 44.60 16.31L44.60 16.31L44.60 16.31Q43.86 16.41 42.88 16.41L42.88 16.41L39.81 16.41L39.81 16.41Q38.60 16.41 37.78 16.26L37.78 16.26L37.78 16.26Q36.96 16.11 36.42 15.81L36.42 15.81L36.42 15.81Q35.89 15.52 35.60 15.07L35.60 15.07L35.60 15.07Q35.31 14.62 35.17 14.01L35.17 14.01L35.17 14.01Q35.04 13.40 35.02 12.63L35.02 12.63L35.02 12.63Q35 11.87 35 10.94L35 10.94L35 10.94Q35 10.01 35.02 9.24L35.02 9.24L35.02 9.24Q35.04 8.48 35.17 7.87L35.17 7.87L35.17 7.87Q35.31 7.26 35.60 6.81L35.60 6.81L35.60 6.81Q35.89 6.36 36.42 6.06L36.42 6.06L36.42 6.06Q36.96 5.76 37.78 5.62L37.78 5.62L37.78 5.62Q38.60 5.47 39.81 5.47L39.81 5.47L42.88 5.47L42.88 5.47Q43.86 5.47 44.60 5.56L44.60 5.56L44.60 5.56Q45.34 5.65 45.87 5.84L45.87 5.84L45.87 5.84Q46.40 6.03 46.75 6.32L46.75 6.32L46.75 6.32Q47.10 6.60 47.31 6.99L47.31 6.99L47.31 6.99Q47.52 7.38 47.60 7.88L47.60 7.88L47.60 7.88Q47.68 8.37 47.68 8.97L47.68 8.97ZM59.49 16.19L49.87 16.19L49.87 5.69L51.18 5.69L51.18 15.09L59.49 15.09L59.49 16.19ZM65.61 5.47L69.56 5.47L69.56 5.47Q70.77 5.47 71.59 5.62L71.59 5.62L71.59 5.62Q72.41 5.76 72.95 6.06L72.95 6.06L72.95 6.06Q73.48 6.36 73.77 6.81L73.77 6.81L73.77 6.81Q74.05 7.26 74.19 7.87L74.19 7.87L74.19 7.87Q74.32 8.48 74.34 9.24L74.34 9.24L74.34 9.24Q74.37 10.01 74.37 10.94L74.37 10.94L74.37 10.94Q74.37 11.87 74.34 12.63L74.34 12.63L74.34 12.63Q74.32 13.40 74.19 14.01L74.19 14.01L74.19 14.01Q74.05 14.62 73.77 15.07L73.77 15.07L73.77 15.07Q73.48 15.52 72.95 15.81L72.95 15.81L72.95 15.81Q72.41 16.11 71.59 16.26L71.59 16.26L71.59 16.26Q70.77 16.41 69.56 16.41L69.56 16.41L65.61 16.41L65.61 16.41Q64.41 16.41 63.58 16.26L63.58 16.26L63.58 16.26Q62.76 16.11 62.23 15.81L62.23 15.81L62.23 15.81Q61.69 15.52 61.40 15.07L61.40 15.07L61.40 15.07Q61.11 14.62 60.98 14.01L60.98 14.01L60.98 14.01Q60.85 13.40 60.83 12.63L60.83 12.63L60.83 12.63Q60.81 11.87 60.81 10.94L60.81 10.94L60.81 10.94Q60.81 10.01 60.83 9.24L60.83 9.24L60.83 9.24Q60.85 8.48 60.98 7.87L60.98 7.87L60.98 7.87Q61.11 7.26 61.40 6.81L61.40 6.81L61.40 6.81Q61.69 6.36 62.23 6.06L62.23 6.06L62.23 6.06Q62.76 5.76 63.58 5.62L63.58 5.62L63.58 5.62Q64.41 5.47 65.61 5.47L65.61 5.47ZM65.61 15.31L69.56 15.31L69.56 15.31Q70.43 15.31 71.03 15.26L71.03 15.26L71.03 15.26Q71.63 15.21 72.02 15.05L72.02 15.05L72.02 15.05Q72.41 14.90 72.62 14.60L72.62 14.60L72.62 14.60Q72.83 14.31 72.93 13.82L72.93 13.82L72.93 13.82Q73.02 13.34 73.04 12.63L73.04 12.63L73.04 12.63Q73.06 11.92 73.06 10.94L73.06 10.94L73.06 10.94Q73.06 9.95 73.04 9.25L73.04 9.25L73.04 9.25Q73.02 8.54 72.93 8.05L72.93 8.05L72.93 8.05Q72.83 7.57 72.62 7.27L72.62 7.27L72.62 7.27Q72.41 6.98 72.02 6.82L72.02 6.82L72.02 6.82Q71.63 6.67 71.04 6.61L71.04 6.61L71.04 6.61Q70.44 6.56 69.56 6.56L69.56 6.56L65.61 6.56L65.61 6.56Q64.74 6.56 64.14 6.61L64.14 6.61L64.14 6.61Q63.54 6.67 63.15 6.82L63.15 6.82L63.15 6.82Q62.76 6.98 62.55 7.27L62.55 7.27L62.55 7.27Q62.34 7.57 62.24 8.05L62.24 8.05L62.24 8.05Q62.15 8.54 62.13 9.25L62.13 9.25L62.13 9.25Q62.12 9.95 62.12 10.94L62.12 10.94L62.12 10.94Q62.12 11.92 62.14 12.63L62.14 12.63L62.14 12.63Q62.15 13.34 62.25 13.82L62.25 13.82L62.25 13.82Q62.34 14.31 62.55 14.60L62.55 14.60L62.55 14.60Q62.76 14.90 63.15 15.05L63.15 15.05L63.15 15.05Q63.54 15.21 64.14 15.26L64.14 15.26L64.14 15.26Q64.74 15.31 65.61 15.31L65.61 15.31ZM87.49 5.69L88.81 5.69L88.81 10.94L88.81 10.94Q88.81 11.87 88.79 12.63L88.79 12.63L88.79 12.63Q88.76 13.40 88.63 14.01L88.63 14.01L88.63 14.01Q88.50 14.62 88.21 15.07L88.21 15.07L88.21 15.07Q87.92 15.52 87.39 15.81L87.39 15.81L87.39 15.81Q86.86 16.11 86.03 16.26L86.03 16.26L86.03 16.26Q85.21 16.41 84.01 16.41L84.01 16.41L80.93 16.41L80.93 16.41Q79.73 16.41 78.90 16.26L78.90 16.26L78.90 16.26Q78.08 16.11 77.55 15.81L77.55 15.81L77.55 15.81Q77.01 15.52 76.72 15.07L76.72 15.07L76.72 15.07Q76.43 14.62 76.30 14.01L76.30 14.01L76.30 14.01Q76.17 13.40 76.15 12.63L76.15 12.63L76.15 12.63Q76.13 11.87 76.13 10.94L76.13 10.94L76.13 5.69L77.44 5.69L77.44 10.94L77.44 10.94Q77.44 11.92 77.45 12.63L77.45 12.63L77.45 12.63Q77.47 13.34 77.57 13.82L77.57 13.82L77.57 13.82Q77.66 14.31 77.87 14.60L77.87 14.60L77.87 14.60Q78.08 14.90 78.47 15.05L78.47 15.05L78.47 15.05Q78.86 15.21 79.46 15.26L79.46 15.26L79.46 15.26Q80.06 15.31 80.93 15.31L80.93 15.31L84.01 15.31L84.01 15.31Q84.88 15.31 85.48 15.26L85.48 15.26L85.48 15.26Q86.08 15.21 86.46 15.05L86.46 15.05L86.46 15.05Q86.85 14.90 87.06 14.60L87.06 14.60L87.06 14.60Q87.27 14.31 87.37 13.82L87.37 13.82L87.37 13.82Q87.47 13.34 87.49 12.63L87.49 12.63L87.49 12.63Q87.50 11.92 87.50 10.94L87.50 10.94L87.49 5.69ZM92.31 15.09L98.87 15.09L98.87 15.09Q99.74 15.09 100.34 15.05L100.34 15.05L100.34 15.05Q100.94 15.00 101.33 14.85L101.33 14.85L101.33 14.85Q101.72 14.70 101.93 14.42L101.93 14.42L101.93 14.42Q102.14 14.14 102.24 13.68L102.24 13.68L102.24 13.68Q102.34 13.22 102.36 12.55L102.36 12.55L102.36 12.55Q102.38 11.87 102.38 10.94L102.38 10.94L102.38 10.94Q102.38 10.00 102.36 9.33L102.36 9.33L102.36 9.33Q102.34 8.65 102.24 8.19L102.24 8.19L102.24 8.19Q102.14 7.73 101.93 7.45L101.93 7.45L101.93 7.45Q101.72 7.17 101.33 7.02L101.33 7.02L101.33 7.02Q100.94 6.88 100.34 6.83L100.34 6.83L100.34 6.83Q99.74 6.78 98.87 6.78L98.87 6.78L92.31 6.78L92.31 15.09ZM98.87 16.19L91 16.19L91 5.69L98.87 5.69L98.87 5.69Q100.07 5.69 100.90 5.83L100.90 5.83L100.90 5.83Q101.72 5.97 102.26 6.25L102.26 6.25L102.26 6.25Q102.79 6.54 103.08 6.97L103.08 6.97L103.08 6.97Q103.37 7.40 103.51 7.99L103.51 7.99L103.51 7.99Q103.64 8.57 103.66 9.31L103.66 9.31L103.66 9.31Q103.69 10.04 103.69 10.94L103.69 10.94L103.69 10.94Q103.69 11.83 103.66 12.57L103.66 12.57L103.66 12.57Q103.64 13.30 103.51 13.89L103.51 13.89L103.51 13.89Q103.37 14.47 103.08 14.90L103.08 14.90L103.08 14.90Q102.79 15.33 102.26 15.62L102.26 15.62L102.26 15.62Q101.72 15.91 100.90 16.05L100.90 16.05L100.90 16.05Q100.07 16.19 98.87 16.19L98.87 16.19Z"/>
  </g>
</svg>