<svg data-v-fde0c5aa="" xmlns="http://www.w3.org/2000/svg" viewBox="0 0 300 300" class="font"><!----><defs data-v-fde0c5aa=""><!----></defs><rect data-v-fde0c5aa="" fill="transparent" x="0" y="0" width="300px" height="300px" class="logo-background-square"></rect><defs data-v-fde0c5aa=""><linearGradient data-v-fde0c5aa="" gradientTransform="rotate(25)" id="ebb4da77-5d6f-4eb7-96f1-d2c594559068" x1="0%" y1="0%" x2="100%" y2="0%"><stop data-v-fde0c5aa="" offset="0%" stop-color="#8D2CE3" stop-opacity="1"></stop><stop data-v-fde0c5aa="" offset="100%" stop-color="#F7C6F6" stop-opacity="1"></stop></linearGradient></defs><g data-v-fde0c5aa="" id="d2efb5f4-1ed6-4f31-a9fd-f6139f208d44" fill="url(#ebb4da77-5d6f-4eb7-96f1-d2c594559068)" transform="matrix(5.244338402834025,0,0,5.244338402834025,38.32181159231008,100.36233621695342)"><path d="M8.65 14.35L5.24 4.58L3.74 4.58L0.32 14.35L1.51 14.35L2.49 11.47L6.44 11.47L7.42 14.35ZM6.15 10.43L2.77 10.43L4.42 5.67L4.49 5.67ZM13.73 14.35L13.73 13.37L12.36 13.37L12.36 5.56L13.73 5.56L13.73 4.58L9.81 4.58L9.81 5.56L11.19 5.56L11.19 13.37L9.81 13.37L9.81 14.35ZM15.88 14.35L20.31 14.35C21.76 14.35 22.83 13.13 22.83 11.52C22.83 9.90 21.62 9.30 20.92 9.25L20.92 9.17C21.56 9.07 22.50 8.55 22.50 7.10C22.50 5.57 21.50 4.58 19.89 4.58L15.88 4.58ZM17.05 9.81L19.95 9.81C20.96 9.81 21.57 10.35 21.57 11.33L21.57 11.80C21.57 12.78 20.96 13.31 19.95 13.31L17.05 13.31ZM17.05 5.61L19.75 5.61C20.68 5.61 21.24 6.10 21.24 6.97L21.24 7.45C21.24 8.32 20.68 8.81 19.75 8.81L17.05 8.81ZM26.19 14.35L26.19 10.18L28.91 10.18C30.66 10.18 31.64 9.10 31.64 7.38C31.64 5.66 30.66 4.58 28.91 4.58L25.02 4.58L25.02 14.35ZM26.19 5.61L28.91 5.61C29.83 5.61 30.38 6.12 30.38 7.01L30.38 7.74C30.38 8.64 29.83 9.14 28.91 9.14L26.19 9.14ZM33.50 14.35L34.65 14.35L34.65 6.12L34.72 6.12L35.55 7.76L37.88 12.01L40.22 7.76L41.05 6.12L41.12 6.12L41.12 14.35L42.27 14.35L42.27 4.58L40.75 4.58L37.94 9.84L37.87 9.84L35.07 4.58L33.50 4.58Z"></path></g><!----><!----></svg>