<?xml version="1.0" encoding="UTF-8"?>
<svg width="16px" height="16px" viewBox="0 0 16 16" version="1.1" xmlns="http://www.w3.org/2000/svg" xmlns:xlink="http://www.w3.org/1999/xlink">
    <title>前进一步</title>
    <g id="山东移动" stroke="none" stroke-width="1" fill="none" fill-rule="evenodd">
        <g id="4_拓扑图制作" transform="translate(-230.000000, -112.000000)">
            <g id="编组-2" transform="translate(24.000000, 100.000000)">
                <g id="编组-4备份" transform="translate(214.000000, 20.000000) scale(-1, 1) translate(-214.000000, -20.000000) translate(206.000000, 12.000000)">
                    <rect id="矩形" opacity="0.400000006" x="0" y="0" width="16" height="16"></rect>
                    <path d="M3.88337887,14.9932723 C3.38604019,14.9355072 3,14.5128358 3,14 C3,13.4477153 3.44771525,13 4,13 L4,13 L9,13 C11.209139,13 13,11.209139 13,9 C13,6.790861 11.209139,5 9,5 L6,5 L6,7.06574145 C6,7.34188383 5.77614237,7.56574145 5.5,7.56574145 C5.40128751,7.56574145 5.30478366,7.53652244 5.2226499,7.4817666 L0.624037721,4.41602515 C0.394273376,4.26284892 0.332186442,3.95241425 0.485362672,3.7226499 C0.521980101,3.66772376 0.569111577,3.62059228 0.624037721,3.58397485 L5.2226499,0.518233399 C5.45241425,0.365057169 5.76284892,0.427144103 5.91602515,0.656908448 C5.97078099,0.739042206 6,0.835546053 6,0.934258546 L6,3 L9,3 C12.3137085,3 15,5.6862915 15,9 C15,12.3137085 12.3137085,15 9,15 L4,15 Z" id="形状结合" fill="#455A74"></path>
                </g>
            </g>
        </g>
    </g>
</svg>