<?xml version="1.0" encoding="UTF-8"?>
<svg width="16px" height="16px" viewBox="0 0 16 16" version="1.1" xmlns="http://www.w3.org/2000/svg" xmlns:xlink="http://www.w3.org/1999/xlink">
    <title>放大</title>
    <g id="山东移动" stroke="none" stroke-width="1" fill="none" fill-rule="evenodd">
        <g id="4_拓扑图制作" transform="translate(-117.000000, -112.000000)" fill="#455A74" fill-rule="nonzero">
            <g id="编组-2" transform="translate(24.000000, 100.000000)">
                <g id="Icon/interface/16.search备份-2" transform="translate(101.000000, 20.000000) scale(-1, 1) translate(-101.000000, -20.000000) translate(93.000000, 12.000000)">
                    <path d="M9,4.97379915e-14 C12.8659932,4.97379915e-14 16,3.13400675 16,7 C16,10.8659932 12.8659932,14 9,14 C7.42786541,14 5.97677957,13.4817287 4.80827598,12.6067195 L2.46446609,14.9497475 C2.0739418,15.3402718 1.44077682,15.3402718 1.05025253,14.9497475 C0.65972824,14.5592232 0.65972824,13.9260582 1.05025253,13.5355339 L3.3936395,11.1922034 C2.51841309,10.0236173 2,8.57234957 2,7 C2,3.13400675 5.13400675,4.97379915e-14 9,4.97379915e-14 Z M4.38108413,5.08692578 C3.46830374,7.29059864 4.23930124,9.83217411 6.22256585,11.1573278 C8.20583045,12.4824815 10.8489961,12.2221401 12.5356099,10.5355178 C13.4763403,9.59995796 14.0036495,8.32690584 14,7.00017136 C14,4.61493879 12.3150306,2.56187751 9.97561582,2.09655649 C7.63620108,1.63123547 5.29386453,2.88325292 4.38108413,5.08692578 Z M9,4 C9.55228475,4 10,4.44771525 10,5 L9.99935931,6 L11,6 C11.5522848,6 12,6.44771525 12,7 C12,7.55228475 11.5522848,8 11,8 L9.99935931,8 L10,9 C10,9.55228475 9.55228475,10 9,10 C8.44771525,10 8,9.55228475 8,9 L7.99935931,8 L7,8 C6.44771525,8 6,7.55228475 6,7 C6,6.44771525 6.44771525,6 7,6 L7.99935931,6 L8,5 C8,4.44771525 8.44771525,4 9,4 Z" id="形状结合"></path>
                </g>
            </g>
        </g>
    </g>
</svg>